<svg width="40" height="41" viewBox="0 0 40 41" fill="none" xmlns="http://www.w3.org/2000/svg">
    <g clip-path="url(#clip0_3174_26191)">
        <path fill-rule="evenodd" clip-rule="evenodd"
              d="M4 19.3125C4 10.3033 11.3033 3 20.3125 3C29.3217 3 36.625 10.3033 36.625 19.3125C36.625 24.0281 34.623 28.2769 31.4257 31.2538C32.1769 32.3342 32.6172 33.6469 32.6172 35.0625C32.6172 35.645 32.145 36.1172 31.5625 36.1172H27.8667C28.0299 36.6986 28.1172 37.3118 28.1172 37.9453C28.1172 38.5278 27.645 39 27.0625 39H13.5625C12.98 39 12.5078 38.5278 12.5078 37.9453C12.5078 37.3118 12.5951 36.6986 12.7583 36.1172H9.0625C8.48001 36.1172 8.00781 35.645 8.00781 35.0625C8.00781 33.6469 8.44814 32.3342 9.19931 31.2538C6.00203 28.277 4 24.028 4 19.3125ZM34.5156 19.3125C34.5156 23.4297 32.765 27.137 29.9642 29.7325C29.5759 29.4387 29.1545 29.1863 28.7066 28.982C29.3902 28.2024 29.8047 27.1809 29.8047 26.0625C29.8047 23.616 27.8215 21.6328 25.375 21.6328C23.8699 21.6328 22.5418 22.3833 21.7418 23.5279C21.289 23.3929 20.8092 23.3203 20.3125 23.3203C19.8158 23.3203 19.336 23.3929 18.8831 23.5279C18.0832 22.3833 16.7551 21.6328 15.25 21.6328C12.8035 21.6328 10.8203 23.616 10.8203 26.0625C10.8203 27.1809 11.2348 28.2024 11.9184 28.982C11.4705 29.1863 11.0491 29.4387 10.6608 29.7325C8.36244 27.6025 6.7712 24.7239 6.27431 21.4844L10.2198 21.4913C10.8849 21.4924 11.5118 21.1797 11.9109 20.6475L13.0703 19.1016C13.3441 18.7365 13.4922 18.2924 13.4922 17.8359V15.5727C13.4922 14.6647 12.9111 13.8587 12.0498 13.5715L11.498 13.3876L10.7112 11.8139C10.525 11.4415 10.2326 11.1324 9.87089 10.9257L9.15837 10.5187C10.7122 8.55051 12.7758 7.00344 15.15 6.07673L17.3554 8.66281L16.9202 10.9984C16.881 11.2087 16.9067 11.4259 16.9939 11.6213L17.9276 13.7143L17.4385 17.4821C17.3773 17.9535 17.639 18.4075 18.0775 18.5909L20.7845 19.723C21.1655 19.8823 21.6044 19.8047 21.9075 19.5243L24.4564 17.167L25.9213 17.5976C26.311 17.7121 26.7317 17.5927 27.0032 17.2907L30.31 13.6114H33.3251C34.0907 15.3564 34.5156 17.2848 34.5156 19.3125ZM32.1772 11.5021C29.6368 7.65071 25.2714 5.10938 20.3125 5.10938C19.2999 5.10938 18.3121 5.21534 17.3594 5.41679L19.2869 7.67695C19.4934 7.91912 19.5795 8.24161 19.5212 8.5545L19.0541 11.0618L19.9749 13.1259C20.054 13.3032 20.0826 13.4989 20.0576 13.6914L19.6339 16.9554L20.973 17.5154L23.4636 15.212C23.7361 14.96 24.121 14.8698 24.4771 14.9745L25.8786 15.3864L29.0554 11.8517C29.2555 11.6292 29.5406 11.5021 29.8399 11.5021H32.1772ZM12.9297 26.0625C12.9297 24.781 13.9685 23.7422 15.25 23.7422C15.9578 23.7422 16.5928 24.0591 17.0191 24.5607C15.9776 25.4756 15.3203 26.8173 15.3203 28.3125C15.3203 28.3356 15.3205 28.3587 15.3208 28.3818C15.2973 28.3825 15.2737 28.3828 15.25 28.3828C13.9685 28.3828 12.9297 27.344 12.9297 26.0625ZM16.6585 31.714C16.3219 31.3526 16.0383 30.9412 15.82 30.4922L14.6875 30.4922C12.5264 30.4922 10.7156 31.9922 10.2395 34.0078H13.7746C14.5001 32.9993 15.4971 32.199 16.6585 31.714ZM26.8504 34.0078H30.3856C29.9094 31.9922 28.0987 30.4922 25.9375 30.4922L24.805 30.4922C24.5867 30.9412 24.3031 31.3526 23.9665 31.714C25.1279 32.199 26.1249 32.9993 26.8504 34.0078ZM25.3042 28.3818C25.3277 28.3825 25.3513 28.3828 25.375 28.3828C26.6565 28.3828 27.6953 27.344 27.6953 26.0625C27.6953 24.781 26.6565 23.7422 25.375 23.7422C24.6672 23.7422 24.0322 24.0591 23.6059 24.5607C24.6474 25.4756 25.3047 26.8173 25.3047 28.3125C25.3047 28.3356 25.3045 28.3587 25.3042 28.3818ZM20.3125 25.4297C18.7204 25.4297 17.4297 26.7204 17.4297 28.3125C17.4297 29.9046 18.7204 31.1953 20.3125 31.1953C21.9046 31.1953 23.1953 29.9046 23.1953 28.3125C23.1953 26.7204 21.9046 25.4297 20.3125 25.4297ZM14.7376 36.8906C15.2151 34.8358 17.0577 33.3047 19.2578 33.3047H21.3672C23.5673 33.3047 25.4099 34.8358 25.8874 36.8906H14.7376ZM10.2233 19.3819L6.1095 19.3747C6.09886 16.8929 6.74208 14.4268 7.97453 12.2717L8.82448 12.7573L9.80668 14.7217C9.93177 14.9719 10.1511 15.1621 10.4165 15.2506L11.2422 15.5258L11.3828 15.7266L11.3828 17.8359L10.2233 19.3819Z"
              fill="#ADBCD0"
        />
    </g>
    <defs>
        <clipPath id="clip0_3174_26191">
            <rect width="36" height="36" fill="white" transform="translate(2 2.5)"/>
        </clipPath>
    </defs>
</svg>
