<svg width="36" height="37" viewBox="0 0 36 37" fill="none" xmlns="http://www.w3.org/2000/svg">
  <path
    fill-rule="evenodd"
    clip-rule="evenodd"
    d="M32.8359 2.53906H3.16406C1.4194 2.53906 0 3.95846 0 5.70312V24.5469C0 26.2915 1.4194 27.7109 3.16406 27.7109H13.5703V32.3516H6.75C6.16753 32.3516 5.69531 32.8238 5.69531 33.4062C5.69531 33.9887 6.16753 34.4609 6.75 34.4609H29.25C29.8325 34.4609 30.3047 33.9887 30.3047 33.4062C30.3047 32.8238 29.8325 32.3516 29.25 32.3516H22.4297V27.7109H32.8359C34.5806 27.7109 36 26.2915 36 24.5469V5.70312C36 3.95846 34.5806 2.53906 32.8359 2.53906ZM20.3203 32.3516H15.6797V27.7109H20.3203V32.3516ZM33.8906 24.5469C33.8906 25.1284 33.4175 25.6016 32.8359 25.6016H3.16406C2.58251 25.6016 2.10938 25.1284 2.10938 24.5469V5.70312C2.10938 5.12157 2.58251 4.64844 3.16406 4.64844H32.8359C33.4175 4.64844 33.8906 5.12157 33.8906 5.70312V24.5469ZM29.25 7.03906H24.75C24.1675 7.03906 23.6953 7.51128 23.6953 8.09375V9.28906H20.25C19.6675 9.28906 19.1953 9.76128 19.1953 10.3438V11.5391H15.75C15.1675 11.5391 14.6953 12.0113 14.6953 12.5938V22.1562C14.6953 22.7387 15.1675 23.2109 15.75 23.2109H29.25C29.8325 23.2109 30.3047 22.7387 30.3047 22.1562V8.09375C30.3047 7.51128 29.8325 7.03906 29.25 7.03906ZM16.8047 13.6484H19.1953V21.1016H16.8047V13.6484ZM21.3047 11.3984H23.6953V21.1016H21.3047V11.3984ZM28.1953 21.1016H25.8047V9.14844H28.1953V21.1016ZM7.23229 15.4981C7.66169 15.8348 8.51866 16.1471 9.04417 16.333C11.8235 17.3162 11.4844 21.0128 8.92914 21.9364V22.1571C8.92914 22.7396 8.45692 23.2118 7.87445 23.2118C7.29199 23.2118 6.81977 22.7396 6.81977 22.1571V22.0556C6.33356 21.9705 5.88946 21.7887 5.32879 21.4217C4.84138 21.1027 4.70491 20.449 5.02391 19.9616C5.34299 19.4741 5.99655 19.3378 6.48402 19.6567C6.99731 19.9927 7.16416 20.0185 7.86742 20.014C8.5458 20.0095 8.81615 19.4772 8.86895 19.1634C8.91634 18.8814 8.86326 18.5065 8.34042 18.3216C7.5378 18.0375 6.59231 17.6769 5.93066 17.1581C4.47829 16.0193 4.92407 13.426 6.81984 12.7366V12.584C6.81984 12.0015 7.29206 11.5293 7.87452 11.5293C8.45699 11.5293 8.92921 12.0015 8.92921 12.584V12.6707C9.62798 12.8766 10.1166 13.3117 10.1166 13.3117C10.5423 13.7058 10.5702 14.3699 10.178 14.7981C9.7852 15.2267 9.11997 15.2564 8.69043 14.8653C8.41832 14.6638 8.00362 14.5768 7.5667 14.7092C7.28376 14.7945 7.20824 15.086 7.19179 15.1733C7.15762 15.3552 7.20627 15.4776 7.23229 15.4981Z"
  />
</svg>
