<svg width="36" height="32" viewBox="0 0 36 32" xmlns="http://www.w3.org/2000/svg">
    <path fill-rule="evenodd" clip-rule="evenodd"
          d="M6.02924e-06 28.4766C6.02924e-06 30.224 1.41664 31.6406 3.16407 31.6406L16.2984 29.5313H3.16407C2.58162 29.5313 2.10938 29.059 2.10938 28.4766V27.4219H29.4328L36 26.3672C36 26.349 35.9995 26.3309 35.9986 26.3129C35.9926 26.1937 35.9667 26.0796 35.9243 25.9741L33.8906 20.5509V3.16406C33.8906 1.41664 32.474 0 30.7266 0H5.27344C3.52602 0 2.10938 1.41664 2.10938 3.16406V20.5509L0.0756936 25.9741C0.0304421 26.0867 0.00405212 26.2089 0.000434987 26.3368C0.000110691 26.3481 -3.21121e-05 26.3594 6.02924e-06 26.3707V28.4766ZM29.4487 27.4219L36 26.3704V28.4766C36 30.224 34.5834 31.6406 32.8359 31.6406H3.16407L16.3064 29.5313H16.2984L29.4328 27.4219H29.4487ZM29.4487 27.4219H33.8906V28.4766C33.8906 29.059 33.4184 29.5313 32.8359 29.5313H16.3064L29.4487 27.4219ZM2.57661 25.3125H33.4234L32.105 21.7969H3.89497L2.57661 25.3125ZM4.21876 3.16406V19.6875H31.7812V3.16406C31.7812 2.58161 31.309 2.10938 30.7266 2.10938H5.27344C4.69099 2.10938 4.21876 2.58161 4.21876 3.16406ZM16.757 16.2748C16.3452 16.6867 15.6774 16.6867 15.2655 16.2748C14.8536 15.863 14.8536 15.1952 15.2655 14.7833C16.7757 13.2731 19.2243 13.2731 20.7345 14.7833C21.1464 15.1952 21.1464 15.863 20.7345 16.2748C20.3226 16.6867 19.6548 16.6867 19.2429 16.2748C18.5565 15.5884 17.4435 15.5884 16.757 16.2748ZM12.2824 13.2918C12.6943 13.7036 13.3621 13.7036 13.774 13.2917C16.1079 10.9577 19.8921 10.9577 22.2261 13.2917C22.6379 13.7036 23.3057 13.7036 23.7176 13.2918C24.1295 12.8799 24.1295 12.2121 23.7176 11.8002C20.5599 8.64239 15.4401 8.64239 12.2824 11.8002C11.8705 12.2121 11.8705 12.8799 12.2824 13.2918ZM10.7908 10.3086C10.3789 10.7205 9.71113 10.7205 9.29925 10.3086C8.88737 9.89674 8.88737 9.22895 9.29925 8.81707C14.1045 4.01179 21.8955 4.01178 26.7007 8.81708C27.1126 9.22896 27.1126 9.89675 26.7007 10.3086C26.2888 10.7205 25.621 10.7205 25.2091 10.3086C21.2277 6.3271 14.7723 6.3271 10.7908 10.3086Z"/>
</svg>
