<svg width="36" height="36" viewBox="0 0 36 36" xmlns="http://www.w3.org/2000/svg">
    <path fill-rule="evenodd" clip-rule="evenodd"
          d="M12.7624 11.2065C12.7624 8.31854 15.1119 5.96891 17.9999 5.96891C20.8879 5.96891 23.2375 8.31854 23.2375 11.2065C23.2375 14.0944 20.8879 16.4441 17.9999 16.4441C15.112 16.4441 12.7624 14.0944 12.7624 11.2065ZM15.0232 11.2066C15.0232 12.8479 16.3586 14.1833 17.9999 14.1833C19.6413 14.1833 20.9767 12.8479 20.9767 11.2066C20.9767 9.56518 19.6413 8.2298 17.9999 8.2298C16.3586 8.2298 15.0232 9.56511 15.0232 11.2066Z"/>
    <path fill-rule="evenodd" clip-rule="evenodd"
          d="M22.8646 26.0393C25.2848 26.2903 27.4655 26.7283 29.1391 27.3075C31.749 28.2106 33.0721 29.4187 33.0721 30.898C33.0721 32.5559 31.4222 33.8665 28.168 34.7935C25.4369 35.5715 21.8258 36 17.9999 36C14.1741 36 10.563 35.5716 7.83189 34.7936C4.57776 33.8665 2.92773 32.556 2.92773 30.8981C2.92773 29.4187 4.25102 28.2106 6.86081 27.3075C8.53438 26.7282 10.7152 26.2903 13.1353 26.0393C12.7638 25.4754 12.3834 24.8835 12.0021 24.2705C8.54598 18.7149 6.79352 14.3196 6.79352 11.2065C6.79352 5.0272 11.8207 0 17.9999 0C24.1791 0 29.2063 5.0272 29.2064 11.2065C29.2064 14.3196 27.4539 18.7149 23.9978 24.2705C23.6164 24.8835 23.2361 25.4754 22.8646 26.0393ZM17.9999 2.26083C13.0673 2.26083 9.05434 6.27377 9.05434 11.2065C9.05434 13.8497 10.7335 17.9478 13.91 23.0576C15.4735 25.5725 17.0522 27.7649 17.9999 29.0347C18.9475 27.7649 20.5263 25.5724 22.0897 23.0576C25.2664 17.9478 26.9455 13.8497 26.9455 11.2065C26.9455 6.27377 22.9326 2.26083 17.9999 2.26083ZM17.9999 33.7392C21.6221 33.7392 25.0132 33.3414 27.5486 32.6192C30.2441 31.8513 30.8113 31.0283 30.8114 30.898C30.8114 30.7751 30.3822 30.1301 28.3998 29.444C26.6126 28.8255 24.1492 28.3814 21.4097 28.1798C20.0003 30.1911 18.9527 31.516 18.8856 31.6006C18.6711 31.871 18.3449 32.0285 17.9999 32.0285C17.6549 32.0285 17.3287 31.871 17.1143 31.6006C17.0472 31.5161 15.9995 30.1911 14.5901 28.1798C11.8507 28.3814 9.38727 28.8256 7.60014 29.444C5.61761 30.13 5.18849 30.7751 5.18849 30.8981C5.18849 31.0283 5.7557 31.8513 8.45127 32.6192C10.9866 33.3414 14.3778 33.7392 17.9999 33.7392Z"/>
</svg>
