<svg width="36" height="36" viewBox="0 0 36 36" xmlns="http://www.w3.org/2000/svg">
    <g clip-path="url(#clip0_2219_26224)">
        <path d="M19.0547 5.00856C19.0547 4.42608 18.5825 3.95388 18 3.95388C17.4175 3.95388 16.9453 4.42608 16.9453 5.00856V5.2551C15.6324 5.69586 14.686 6.93671 14.686 8.39764C14.686 8.86713 14.8069 9.29988 15.051 9.67479C15.2885 10.0395 15.6055 10.2929 15.9153 10.4736C16.4714 10.798 17.1632 10.9705 17.6783 11.0989L17.6814 11.0997C17.7026 11.105 17.7236 11.1102 17.7442 11.1154C18.3531 11.2676 18.7549 11.3769 19.022 11.5327C19.1358 11.5992 19.1718 11.6458 19.1814 11.6606L19.1819 11.6612C19.186 11.6674 19.2047 11.6951 19.2047 11.7867C19.2047 12.4514 18.6647 12.9914 18.0001 12.9914C17.6174 12.9914 17.3543 12.897 17.2008 12.8203C17.1224 12.7811 17.0701 12.7451 17.0443 12.7257C17.0422 12.7242 17.0403 12.7227 17.0385 12.7214C17.0372 12.7204 17.036 12.7194 17.0349 12.7186L17.0322 12.7164C17.0311 12.7156 17.0302 12.7148 17.0294 12.7142C16.6161 12.3237 15.9644 12.3308 15.5598 12.7355C15.1479 13.1473 15.1479 13.8151 15.5598 14.227L16.3056 13.4812C15.5598 14.227 15.5601 14.2274 15.5605 14.2277L15.5613 14.2285L15.5628 14.23L15.5661 14.2333C15.5683 14.2355 15.5708 14.2379 15.5734 14.2404C15.5785 14.2454 15.5844 14.2509 15.5908 14.257C15.6038 14.2691 15.6193 14.2833 15.6375 14.2992C15.6739 14.331 15.7209 14.3699 15.7787 14.4132C15.894 14.4998 16.0535 14.605 16.2575 14.707C16.4495 14.803 16.6791 14.8951 16.9453 14.9661V15.1758C16.9453 15.7583 17.4175 16.2305 18 16.2305C18.5825 16.2305 19.0547 15.7583 19.0547 15.1758V14.9293C20.3676 14.4885 21.3141 13.2477 21.3141 11.7867C21.3141 11.3172 21.1932 10.8844 20.9491 10.5095C20.7116 10.1448 20.3946 9.89139 20.0848 9.7107C19.5287 9.38632 18.8369 9.21385 18.3218 9.08543C18.2995 9.07986 18.2775 9.07438 18.2558 9.06897C17.647 8.91675 17.2452 8.80741 16.9781 8.6516C16.8643 8.58518 16.8283 8.53855 16.8187 8.52375L16.8182 8.5231C16.8141 8.51698 16.7953 8.48922 16.7953 8.39764C16.7953 7.73297 17.3353 7.19297 18 7.19297C18.3827 7.19297 18.6458 7.28732 18.7993 7.36404C18.8777 7.40326 18.93 7.43924 18.9558 7.45861C18.9628 7.46386 18.9678 7.46781 18.9707 7.47017C19.384 7.86064 20.0357 7.85354 20.4403 7.44888C20.8522 7.037 20.8522 6.36921 20.4403 5.95733L19.6945 6.7031C20.4403 5.95733 20.44 5.95696 20.4396 5.95659L20.4373 5.95431L20.434 5.95107L20.43 5.94711L20.4267 5.94396C20.4216 5.93895 20.4157 5.93339 20.4093 5.92733C20.3963 5.91519 20.3808 5.90101 20.3626 5.8851C20.3262 5.8533 20.2792 5.81442 20.2214 5.7711C20.1061 5.68456 19.9466 5.57933 19.7426 5.47735C19.5506 5.38135 19.3209 5.28919 19.0547 5.2182V5.00856Z"/>
        <path fill-rule="evenodd" clip-rule="evenodd"
              d="M18 0C12.4262 0 7.90782 4.51842 7.90782 10.0922C7.90782 15.3097 11.8672 19.6026 16.9453 20.1299V26.209C15.5158 24.6795 13.4804 23.7234 11.2218 23.7234C10.6394 23.7234 10.1672 24.1956 10.1672 24.7781C10.1672 28.7462 13.1183 32.0254 16.9453 32.5405V33.8906H5.49845V31.9931L7.44891 30.0427C7.86079 29.6308 7.86079 28.963 7.44891 28.5511C7.03702 28.1392 6.36923 28.1392 5.95735 28.5511L5.49845 29.01V25.7069C7.44354 25.2334 8.8875 23.4799 8.8875 21.3891C8.8875 18.9348 6.89797 16.9453 4.44375 16.9453C1.98953 16.9453 0 18.9348 0 21.3891C0 23.4799 1.44397 25.2334 3.38908 25.7069V29.01L2.9302 28.5511C2.51832 28.1392 1.85053 28.1392 1.43865 28.5511C1.02677 28.963 1.02677 29.6308 1.43865 30.0427L3.38908 31.9931V33.8906H1.05469C0.4722 33.8906 0 34.3628 0 34.9453C0 35.5278 0.4722 36 1.05469 36H34.9453C35.5278 36 36 35.5278 36 34.9453C36 34.3628 35.5278 33.8906 34.9453 33.8906H32.6109V31.9931L34.5614 30.0427C34.9733 29.6308 34.9733 28.963 34.5614 28.5511C34.1495 28.1392 33.4817 28.1392 33.0698 28.5511L32.6109 29.01V25.7069C34.556 25.2334 36 23.4799 36 21.3891C36 18.9348 34.0104 16.9453 31.5562 16.9453C29.102 16.9453 27.1125 18.9348 27.1125 21.3891C27.1125 23.4799 28.5564 25.2334 30.5015 25.7069V29.01L30.0427 28.5511C29.6308 28.1392 28.963 28.1392 28.5511 28.5511C28.1392 28.963 28.1392 29.6308 28.5511 30.0427L30.5015 31.9931V33.8906H19.0547V32.5405C22.8817 32.0254 25.8328 28.7462 25.8328 24.7781C25.8328 24.1956 25.3606 23.7234 24.7781 23.7234C22.5196 23.7234 20.4842 24.6795 19.0547 26.2089V20.1299C24.1328 19.6025 28.0921 15.3097 28.0921 10.0922C28.0921 4.51842 23.5737 0 18 0ZM10.0172 10.0922C10.0172 5.68339 13.5912 2.10938 18 2.10938C22.4088 2.10938 25.9828 5.68339 25.9828 10.0922C25.9828 14.5009 22.4088 18.075 18 18.075C13.5912 18.075 10.0172 14.5009 10.0172 10.0922ZM31.5593 23.7234L31.5562 23.7234L31.5532 23.7234C30.2653 23.7218 29.2218 22.6773 29.2218 21.3891C29.2218 20.0998 30.267 19.0547 31.5562 19.0547C32.8455 19.0547 33.8906 20.0998 33.8906 21.3891C33.8906 22.6773 32.8471 23.7218 31.5593 23.7234ZM6.77813 21.3891C6.77813 22.6773 5.73466 23.7218 4.44683 23.7234L4.44375 23.7234L4.44069 23.7234C3.15286 23.7218 2.10938 22.6773 2.10938 21.3891C2.10938 20.0998 3.15451 19.0547 4.44375 19.0547C5.73299 19.0547 6.77813 20.0998 6.77813 21.3891ZM23.6026 25.9537C23.1396 28.1712 21.3931 29.9177 19.1756 30.3807C19.6386 28.1632 21.3851 26.4167 23.6026 25.9537ZM16.8244 30.3807C14.6069 29.9177 12.8604 28.1712 12.3974 25.9537C14.6149 26.4167 16.3614 28.1632 16.8244 30.3807Z"/>
    </g>
    <defs>
        <clipPath id="clip0_2219_26224">
            <rect width="36" height="36" fill="white"/>
        </clipPath>
    </defs>
</svg>
