<svg width="26" height="26" viewBox="0 0 26 26" fill="none" xmlns="http://www.w3.org/2000/svg">
<path d="M16.6449 14.4107H14.8872C14.6934 14.4107 14.5357 14.5683 14.5357 14.762C14.5357 14.9557 14.6934 15.1133 14.8872 15.1133H15.5903C16.5595 15.1133 17.3479 15.9015 17.3479 16.8705C17.3479 17.7191 16.7431 18.4291 15.9418 18.5923V18.6275C15.9418 19.0157 15.627 19.3305 15.2388 19.3305C14.8505 19.3305 14.5358 19.0158 14.5357 18.6277H13.8327C13.4444 18.6277 13.1297 18.3129 13.1297 17.9247C13.1297 17.5365 13.4444 17.2217 13.8327 17.2217H15.5903C15.7841 17.2217 15.9418 17.0641 15.9418 16.8705C15.9418 16.6768 15.7841 16.5192 15.5903 16.5192H14.8873C13.9181 16.5192 13.1297 15.7309 13.1297 14.762C13.1297 13.9133 13.7345 13.2034 14.5358 13.0401V13.005C14.5358 12.6167 14.8505 12.302 15.2388 12.302C15.627 12.302 15.9417 12.6166 15.9418 13.0048H16.6449C17.0331 13.0048 17.3479 13.3195 17.3479 13.7078C17.3479 14.096 17.0331 14.4107 16.6449 14.4107Z" fill="#2568F6"/>
<path fill-rule="evenodd" clip-rule="evenodd" d="M18.1999 9.39722C20.0063 11.4266 23.7392 15.8606 24.6889 18.4066C25.8965 21.6441 23.4277 25 20.0609 25H1.70303C1.31477 25 1 24.6852 1 24.297V13.0049C1 12.6166 1.31477 12.3019 1.70303 12.3019H8.73345C9.05412 12.3019 9.32407 12.5168 9.40859 12.8102C10.4102 11.5424 11.3119 10.4822 12.2776 9.39722H12.1922C11.804 9.39722 11.4892 9.0825 11.4892 8.69423C11.4892 8.30601 11.804 7.99125 12.1922 7.99125H12.3089C11.2019 6.74868 9.54082 4.87785 9.07437 4.3183C8.11038 3.1619 8.43987 2.12732 9.01493 1.59275C9.86332 0.804174 11.5033 0.731377 13.0209 1.80918C14.1346 0.744315 16.3406 0.742159 17.4566 1.80918C18.9742 0.731284 20.6142 0.804174 21.4626 1.59275C22.0376 2.12732 22.3672 3.1619 21.4032 4.3183C20.9367 4.8778 19.2756 6.74868 18.1686 7.99125H18.2853C18.6736 7.99125 18.9883 8.30596 18.9883 8.69423C18.9883 9.08245 18.6736 9.39722 18.2853 9.39722H18.1999ZM12.6812 3.35104C11.4852 2.19655 10.3086 2.30989 9.97231 2.6225C9.73653 2.84169 9.98524 3.21501 10.1545 3.41802C10.748 4.13015 13.4459 7.15453 14.1931 7.99125H16.2844C17.0316 7.15453 19.7294 4.13015 20.3231 3.41802C20.4923 3.21501 20.741 2.84169 20.5052 2.6225C20.1688 2.30985 18.9923 2.1965 17.7963 3.35104C17.4169 3.71732 16.7831 3.54983 16.6338 3.04443C16.556 2.78085 16.0279 2.41574 15.2388 2.41574C14.4497 2.41574 13.9215 2.78085 13.8437 3.04443C13.6943 3.55012 13.0604 3.71704 12.6812 3.35104ZM2.40611 20.7358H6.0348C6.14604 20.2158 6.3723 19.7382 6.68557 19.3305H2.40611V20.7358ZM2.40611 17.9245H8.03046V16.5192H2.40611V17.9245ZM8.03046 15.1132V13.7079H2.40611V15.1132H8.03046ZM6.02074 22.1418H2.40611V23.594H6.6671C6.34933 23.173 6.12419 22.6789 6.02074 22.1418ZM9.48406 19.3539C8.31363 19.3539 7.36254 20.305 7.36254 21.474C7.36254 22.6396 8.30979 23.594 9.48406 23.594C10.6531 23.594 11.6042 22.6429 11.6042 21.474C11.6042 20.305 10.6531 19.3539 9.48406 19.3539ZM12.2997 23.594H20.0609C22.5062 23.594 24.2184 21.1684 23.3715 18.898C22.3711 16.2163 17.5741 10.809 17.5258 10.7547L16.3175 9.39722H14.16C14.0794 9.48782 13.9914 9.58626 13.8968 9.69216C12.898 10.8101 11.1566 12.759 9.43653 15.0863V17.9491C11.4173 17.9242 13.0103 19.5263 13.0103 21.474C13.0103 22.2692 12.7455 23.0035 12.2997 23.594Z" fill="#2568F6"/>
</svg>
