<svg width="26" height="26" viewBox="0 0 26 26" fill="none" xmlns="http://www.w3.org/2000/svg">
<path fill-rule="evenodd" clip-rule="evenodd" d="M17.44 12.0736C18.3401 12.0735 19.2405 11.7309 19.9258 11.0456C20.5898 10.3816 20.9554 9.4988 20.9554 8.5598C20.9554 7.6208 20.5898 6.73796 19.9258 6.07398C18.5551 4.70322 16.3248 4.70331 14.9542 6.07398C14.2901 6.73796 13.9245 7.6208 13.9245 8.5598C13.9245 9.4988 14.2902 10.3816 14.9542 11.0456C15.6396 11.731 16.5396 12.0737 17.44 12.0736ZM15.9484 7.06829C16.3596 6.65706 16.8997 6.45146 17.4399 6.45146C17.9801 6.45146 18.5202 6.65706 18.9314 7.06829C19.3298 7.46668 19.5492 7.99636 19.5492 8.55975C19.5492 9.12314 19.3298 9.65287 18.9314 10.0513C18.109 10.8737 16.7708 10.8736 15.9484 10.0513C15.55 9.65287 15.3306 9.12319 15.3306 8.5598C15.3306 7.99641 15.55 7.46668 15.9484 7.06829Z" fill="#2568F6"/>
<path fill-rule="evenodd" clip-rule="evenodd" d="M24.9718 2.79164C24.9198 1.8383 24.1616 1.0802 23.2083 1.02817C21.2846 0.923073 17.5204 1.02531 13.921 2.88703C12.0861 3.83616 10.1454 5.44532 8.59673 7.30194C8.58563 7.31526 8.5747 7.32862 8.56377 7.34198L8.54016 7.37075L5.02548 7.64225C4.44695 7.68697 3.93166 7.9902 3.61169 8.47414L1.21385 12.1009C0.971184 12.468 0.932606 12.9273 1.11059 13.3296C1.28862 13.732 1.65443 14.0124 2.0892 14.0798L5.05032 14.5384L5.04849 14.5485C5.03865 14.6027 5.02881 14.6568 5.01976 14.711C4.92119 15.3007 5.11656 15.907 5.54246 16.3328L9.66707 20.4575C10.0202 20.8106 10.4973 21.0053 10.9862 21.0053C11.0869 21.0053 11.1882 20.997 11.2889 20.9802C11.3432 20.9711 11.3975 20.9612 11.4517 20.9514L11.4616 20.9496L11.9202 23.9108C11.9876 24.3455 12.268 24.7114 12.6703 24.8894C12.8376 24.9634 13.0148 25 13.1911 25C13.4388 25 13.6847 24.9279 13.899 24.7862L17.5258 22.3883C18.0098 22.0683 18.3129 21.553 18.3576 20.9745L18.6291 17.4599L18.6582 17.436C18.6715 17.4251 18.6847 17.4143 18.6979 17.4033C20.5546 15.8546 22.1638 13.914 23.1129 12.079C24.9747 8.47944 25.0768 4.71515 24.9718 2.79164ZM16.7502 21.2152L13.281 23.5089L12.834 20.6231C14.3002 20.192 15.7507 19.5015 17.1325 18.5765L16.9556 20.8661C16.9446 21.0089 16.8697 21.1362 16.7502 21.2152ZM10.6614 19.4631L6.53677 15.3385C6.43154 15.2332 6.38288 15.0853 6.40674 14.9429C6.52937 14.2096 6.71991 13.5116 6.95579 12.854L13.1446 19.0428C12.3548 19.3257 11.6474 19.4945 11.0571 19.5932C10.9144 19.6169 10.7667 19.5684 10.6614 19.4631ZM5.13381 9.04432L7.42336 8.86747C6.49834 10.2493 5.80787 11.6997 5.37676 13.166L2.49096 12.719L4.78473 9.24973C4.86376 9.1302 4.99103 9.05534 5.13381 9.04432ZM17.7973 16.3233C16.6614 17.2708 15.5587 17.9561 14.5424 18.452L7.54768 11.4573C8.19727 10.1306 8.99006 9.02576 9.67659 8.20273C11.1098 6.48454 12.8923 5.00231 14.5671 4.13606C17.8705 2.42733 21.351 2.33532 23.1317 2.43225C23.3674 2.4451 23.5549 2.63255 23.5677 2.86828C23.6648 4.64896 23.5726 8.12942 21.8639 11.4329C20.9977 13.1077 19.5154 14.8901 17.7973 16.3233Z" fill="#2568F6"/>
<path d="M2.21435 20.5721C2.0771 20.7094 1.89715 20.778 1.7172 20.778C1.53725 20.778 1.35729 20.7094 1.22004 20.5721C0.945451 20.2975 0.945451 19.8523 1.22004 19.5777L3.5156 17.2821C3.79019 17.0075 4.23541 17.0075 4.50995 17.2821C4.78455 17.5567 4.78455 18.0019 4.50995 18.2765L2.21435 20.5721Z" fill="#2568F6"/>
<path d="M6.61375 19.3859C6.33921 19.1113 5.89399 19.1113 5.6194 19.3859L1.20594 23.7994C0.931352 24.074 0.931352 24.5192 1.20594 24.7938C1.34324 24.9311 1.52315 24.9997 1.7031 24.9997C1.88305 24.9997 2.063 24.9311 2.20025 24.7937L6.61371 20.3803C6.88835 20.1057 6.88835 19.6605 6.61375 19.3859Z" fill="#2568F6"/>
<path d="M5.42761 23.7853L7.72321 21.4897C7.99776 21.2151 8.44297 21.2151 8.71752 21.4897C8.99211 21.7643 8.99211 22.2095 8.71752 22.4841L6.42192 24.7797C6.28467 24.917 6.10467 24.9856 5.92476 24.9856C5.74486 24.9856 5.56491 24.917 5.42761 24.7797C5.15302 24.5051 5.15302 24.0599 5.42761 23.7853Z" fill="#2568F6"/>
</svg>
