<svg width="24" height="24" viewBox="0 0 24 24" fill="none" xmlns="http://www.w3.org/2000/svg">
<g clip-path="url(#clip0_7639_35342)">
<path d="M12 24C18.6274 24 24 18.6274 24 12C24 5.37258 18.6274 0 12 0C5.37258 0 0 5.37258 0 12C0 18.6274 5.37258 24 12 24Z" fill="#FF0000"/>
<path d="M15.9272 7.48578H8.07352C7.75966 7.48578 7.44889 7.54762 7.15894 7.66778C6.869 7.78793 6.60557 7.96404 6.38372 8.18604C6.16186 8.40804 5.98593 8.67159 5.86597 8.96161C5.746 9.25163 5.68436 9.56245 5.68457 9.8763V14.1237C5.68436 14.4375 5.746 14.7483 5.86597 15.0384C5.98593 15.3284 6.16186 15.5919 6.38372 15.8139C6.60557 16.0359 6.869 16.212 7.15894 16.3322C7.44889 16.4524 7.75966 16.5142 8.07352 16.5142H15.9272C16.2411 16.5142 16.5518 16.4524 16.8418 16.3322C17.1317 16.212 17.3951 16.0359 17.617 15.8139C17.8389 15.5919 18.0148 15.3284 18.1348 15.0384C18.2547 14.7483 18.3164 14.4375 18.3161 14.1237V9.8763C18.3164 9.56245 18.2547 9.25163 18.1348 8.96161C18.0148 8.67159 17.8389 8.40804 17.617 8.18604C17.3951 7.96404 17.1317 7.78793 16.8418 7.66778C16.5518 7.54762 16.2411 7.48578 15.9272 7.48578ZM10.3362 13.9358V10.0642L13.6646 12L10.3362 13.9358Z" fill="white"/>
</g>
<defs>
<clipPath id="clip0_7639_35342">
<rect width="24" height="24" fill="white"/>
</clipPath>
</defs>
</svg>
