<svg width="40" height="40" viewBox="0 0 40 40" fill="none" xmlns="http://www.w3.org/2000/svg">
<path d="M19.7241 12.3281C16.9326 12.3281 14.6616 14.5991 14.6616 17.3906C14.6616 18.5354 15.0359 19.6162 15.7439 20.5162C16.014 20.8596 16.5113 20.9189 16.8547 20.6489C17.198 20.3788 17.2574 19.8814 16.9873 19.5381C16.5008 18.9197 16.2437 18.1771 16.2437 17.3906C16.2437 15.4715 17.805 13.9102 19.7241 13.9102C21.6433 13.9102 23.2046 15.4715 23.2046 17.3906C23.2046 18.1772 22.9474 18.9198 22.4608 19.5383C22.1907 19.8816 22.25 20.3789 22.5933 20.649C22.9388 20.9209 23.4357 20.8576 23.7041 20.5165C24.4123 19.6165 24.7866 18.5355 24.7866 17.3906C24.7866 14.5991 22.5156 12.3281 19.7241 12.3281Z" fill="#2568F6"/>
<path d="M20.5151 16.5469V17.75C20.6787 17.9359 20.7788 18.1788 20.7788 18.4453C20.7788 19.0269 20.3057 19.5 19.7241 19.5C19.1426 19.5 18.6694 19.0269 18.6694 18.4453C18.6694 18.1788 18.7695 17.9358 18.9331 17.75V16.5469C18.9331 16.11 19.2873 15.7559 19.7241 15.7559C20.161 15.7559 20.5151 16.11 20.5151 16.5469Z" fill="#2568F6"/>
<path fill-rule="evenodd" clip-rule="evenodd" d="M11.4976 17.3906C11.4976 12.8545 15.188 9.16406 19.7241 9.16406C24.2603 9.16406 27.9507 12.8545 27.9507 17.3906C27.9507 21.9268 24.2603 25.6172 19.7241 25.6172C15.188 25.6172 11.4976 21.9268 11.4976 17.3906ZM13.0796 17.3906C13.0796 21.0545 16.0603 24.0352 19.7241 24.0352C23.3879 24.0352 26.3687 21.0545 26.3687 17.3906C26.3687 13.7268 23.3879 10.7461 19.7241 10.7461C16.0603 10.7461 13.0796 13.7268 13.0796 17.3906Z" fill="#2568F6"/>
<path fill-rule="evenodd" clip-rule="evenodd" d="M8.3335 17.3906C8.3335 11.0944 13.4288 6 19.7241 6C26.0203 6 31.1147 11.0954 31.1147 17.3906C31.1147 22.2814 28.0162 26.4617 23.6792 28.0727V32.209C23.6792 32.6458 23.325 33 22.8882 33H16.5601C16.1232 33 15.769 32.6458 15.769 32.209V28.0727C11.4321 26.4617 8.3335 22.2814 8.3335 17.3906ZM17.3511 28.5335V31.418H22.0972V28.5335C20.5449 28.8624 18.9009 28.8619 17.3511 28.5335ZM9.91553 17.3906C9.91553 22.7664 14.2827 27.1992 19.7241 27.1992C25.1319 27.1992 29.5327 22.7994 29.5327 17.3906C29.5327 11.9821 25.1326 7.58203 19.7241 7.58203C14.3156 7.58203 9.91553 11.9821 9.91553 17.3906Z" fill="#2568F6"/>
</svg>
