<svg xmlns="http://www.w3.org/2000/svg" viewBox="0 0 187.14 190.72">
  <path
    d="M134.7,128.31c-6.06,5.37-13.62,12.05-27.32,12.05h-8.2c-9.92,0-19-3.6-25.4-10.13A34.68,34.68,0,0,1,64,105.61V94.39a34.66,34.66,0,0,1,9.78-24.61c6.45-6.53,15.48-10.13,25.4-10.13h8.2c13.72,0,21.26,6.67,27.32,12,6.28,5.55,11.71,10.39,26.17,10.39a41.51,41.51,0,0,0,6.58-.53l0-.13a48.7,48.7,0,0,0-3-6.25L154.7,58.43a49.66,49.66,0,0,0-43-24.82H92.36a49.65,49.65,0,0,0-43,24.82L39.69,75.17a49.71,49.71,0,0,0,0,49.66l9.67,16.74a49.65,49.65,0,0,0,43,24.82H111.7a49.66,49.66,0,0,0,43-24.82l9.66-16.72a48.58,48.58,0,0,0,3-6.24l0-.12a40.4,40.4,0,0,0-6.58-.56c-14.46,0-19.89,4.82-26.17,10.38"
    transform="translate(-6.43 -4.64)"
    fill="#006bff"
  />
  <path
    d="M107.38,69.81h-8.2c-15.1,0-25,10.78-25,24.58v11.22c0,13.8,9.92,24.58,25,24.58h8.2c22,0,20.27-22.42,53.49-22.42a50,50,0,0,1,9.38.86,49.48,49.48,0,0,0,0-17.25,51.79,51.79,0,0,1-9.38.86c-33.23,0-31.49-22.43-53.49-22.43"
    transform="translate(-6.43 -4.64)"
    fill="#006bff"
  />
  <path
    d="M189.34,116.82a46.49,46.49,0,0,0-19.08-8.2v.17a50.55,50.55,0,0,1-2.77,9.66,36.42,36.42,0,0,1,15.77,6.5,1.13,1.13,0,0,1,0,.15,85.05,85.05,0,1,1,0-50.2.37.37,0,0,0,0,.15,36.29,36.29,0,0,1-15.77,6.49,51,51,0,0,1,2.77,9.68.43.43,0,0,0,0,.16,46.49,46.49,0,0,0,19.08-8.2c5.44-4,4.38-8.58,3.56-11.27a95.33,95.33,0,1,0,0,56.18c.82-2.69,1.88-7.24-3.56-11.27"
    transform="translate(-6.43 -4.64)"
    fill="#006bff"
  />
  <path
    d="M167.45,81.54a40.31,40.31,0,0,1-6.58.56c-14.46,0-19.89-4.82-26.16-10.38-6.07-5.38-13.61-12.06-27.33-12.06h-8.2A35.28,35.28,0,0,0,73.78,69.8,34.68,34.68,0,0,0,64,94.41v11.22a34.68,34.68,0,0,0,9.78,24.62,35.27,35.27,0,0,0,25.4,10.13h8.2c13.72,0,21.26-6.68,27.33-12C141,122.79,146.41,118,160.87,118a41.42,41.42,0,0,1,6.58.53,49.24,49.24,0,0,0,2.77-9.67v-.17a51.7,51.7,0,0,0-9.38-.85c-33.23,0-31.49,22.43-53.49,22.43h-8.2c-15.1,0-25-10.78-25-24.59V94.39c0-13.8,9.92-24.58,25-24.58h8.2c22,0,20.27,22.42,53.49,22.42a50,50,0,0,0,9.38-.86v-.15a49.53,49.53,0,0,0-2.77-9.68"
    transform="translate(-6.43 -4.64)"
    fill="#0ae8f0"
  />
  <path
    d="M167.45,81.54a40.31,40.31,0,0,1-6.58.56c-14.46,0-19.89-4.82-26.16-10.38-6.07-5.38-13.61-12.06-27.33-12.06h-8.2A35.28,35.28,0,0,0,73.78,69.8,34.68,34.68,0,0,0,64,94.41v11.22a34.68,34.68,0,0,0,9.78,24.62,35.27,35.27,0,0,0,25.4,10.13h8.2c13.72,0,21.26-6.68,27.33-12C141,122.79,146.41,118,160.87,118a41.42,41.42,0,0,1,6.58.53,49.24,49.24,0,0,0,2.77-9.67v-.17a51.7,51.7,0,0,0-9.38-.85c-33.23,0-31.49,22.43-53.49,22.43h-8.2c-15.1,0-25-10.78-25-24.59V94.39c0-13.8,9.92-24.58,25-24.58h8.2c22,0,20.27,22.42,53.49,22.42a50,50,0,0,0,9.38-.86v-.15a49.53,49.53,0,0,0-2.77-9.68"
    transform="translate(-6.43 -4.64)"
    fill="#0ae8f0"
  />
</svg>
