<svg width="40" height="40" viewBox="0 0 40 40" fill="none" xmlns="http://www.w3.org/2000/svg">
<path d="M28.8706 10.4593C29.6112 9.77122 30.6374 10.7967 29.9491 11.5378L28.3154 13.1716C28.0176 13.4694 27.5347 13.4694 27.2369 13.1716L26.42 12.3548C25.7318 11.6136 26.7579 10.5883 27.4985 11.2762L27.7762 11.5538L28.8706 10.4593Z" fill="#2568F6"/>
<path d="M21.7804 19.7066C22.4686 18.9655 21.4425 17.9401 20.7018 18.6281L19.6074 19.7226L19.3298 19.445C18.5893 18.7569 17.563 19.7825 18.2513 20.5235L19.0681 21.3404C19.3521 21.6358 19.8627 21.6358 20.1467 21.3404L21.7804 19.7066Z" fill="#2568F6"/>
<path d="M12.5331 10.4593C13.2737 9.77122 14.2998 10.7967 13.6116 11.5378L11.9778 13.1715C11.6801 13.4694 11.1971 13.4694 10.8993 13.1715L10.0825 12.3547C9.39425 11.6137 10.4205 10.5881 11.161 11.2762L11.4386 11.5537L12.5331 10.4593Z" fill="#2568F6"/>
<path fill-rule="evenodd" clip-rule="evenodd" d="M29.8183 26.5734C30.0206 26.5734 30.2146 26.6538 30.3576 26.7969L32.8082 29.2475C32.9513 29.3905 33.0316 29.5844 33.0316 29.7867C33.0316 29.989 32.9512 30.1829 32.8082 30.326L30.3576 32.7766C30.2146 32.9196 30.0206 33 29.8183 33H7.76264C7.34146 33 7 32.6585 7 32.2374V27.3361C7 26.9149 7.34146 26.5734 7.76264 26.5734H11.0844V16.6023C8.77279 16.2354 7 14.2287 7 11.8155C7.24272 5.39582 16.4503 5.39394 16.6941 11.8155C16.6941 14.2287 14.9213 16.2353 12.6097 16.6023V26.5734H19.2532V24.771C16.9415 24.4041 15.1687 22.3974 15.1687 19.9842C15.4115 13.5646 24.6191 13.5627 24.8628 19.9841C24.8628 22.3974 23.09 24.4041 20.7785 24.771V26.5734H27.422V16.6022C25.1103 16.2353 23.3375 14.2286 23.3375 11.8155C23.5802 5.39582 32.7879 5.39389 33.0316 11.8154C33.0316 14.2286 31.2588 16.2353 28.9472 16.6023V26.5734H29.8183ZM28.1846 8.49368C26.353 8.49368 24.8628 9.98379 24.8628 11.8154C24.8628 13.647 26.353 15.1371 28.1845 15.1372C32.5841 14.9708 32.5853 8.6607 28.1846 8.49368ZM20.0158 16.6625C18.1842 16.6625 16.6941 18.1526 16.6941 19.9842C16.6941 21.8158 18.1842 23.3059 20.0158 23.306C24.4152 23.1396 24.4165 16.8295 20.0158 16.6625ZM11.847 8.49368C10.0154 8.49368 8.52529 9.98379 8.52529 11.8154C8.52529 13.647 10.0154 15.1371 11.847 15.1372C16.2465 14.9708 16.2477 8.66065 11.847 8.49368ZM8.52529 31.4747H13.1649L14.8529 29.7867L13.1649 28.0987H8.52529V31.4747ZM15.322 31.4747H21.3337L23.0216 29.7867L21.3337 28.0987H15.322L16.4707 29.2474C16.7685 29.5453 16.7685 30.0281 16.4707 30.326L15.322 31.4747ZM23.4908 31.4747H29.5024L31.1904 29.7867L29.5024 28.0987H23.4908L24.6395 29.2474C24.9373 29.5453 24.9373 30.0281 24.6395 30.326L23.4908 31.4747Z" fill="#2568F6"/>
</svg>
