<svg width="40" height="40" viewBox="0 0 40 40" fill="none" xmlns="http://www.w3.org/2000/svg">
<path d="M11.9922 7.3893L13.1216 8.94378C13.4282 9.3657 13.3347 9.95627 12.9128 10.2628C12.491 10.5693 11.9005 10.476 11.5937 10.0539L10.4643 8.49951C10.1577 8.07759 10.2513 7.48702 10.6732 7.18047C11.0951 6.87382 11.6856 6.96744 11.9922 7.3893Z" fill="#2568F6"/>
<path fill-rule="evenodd" clip-rule="evenodd" d="M23.8996 13.9368L28.5769 14.6164C30.3829 14.8789 31.1053 17.1004 29.7982 18.3748L26.4137 21.6739L27.2126 26.3322C27.5212 28.1314 25.6288 29.5032 24.0155 28.6551L19.832 26.4556L15.6485 28.6551C14.0329 29.5042 12.1428 28.1317 12.4514 26.3322L13.2504 21.6739L9.86584 18.3749C8.55898 17.1009 9.2802 14.8789 11.087 14.6164L15.7643 13.9367L17.856 9.69842C18.6637 8.06182 20.9999 8.06132 21.8078 9.69847L23.8996 13.9368ZM24.7397 20.668L28.4797 17.0224C28.6675 16.8394 28.5648 16.5232 28.3053 16.4854L23.1367 15.7344C22.8292 15.6897 22.5632 15.4966 22.4257 15.2179L20.1142 10.5343C19.9981 10.2991 19.6657 10.2992 19.5497 10.5343L17.2382 15.2179C17.1006 15.4966 16.8347 15.6897 16.5271 15.7344L11.3586 16.4854C11.099 16.5232 10.9962 16.8393 11.1841 17.0224L14.9241 20.668C15.1467 20.8849 15.2482 21.1975 15.1957 21.5038L14.3128 26.6516C14.2685 26.91 14.5374 27.1054 14.7695 26.9834L19.3925 24.553C19.6675 24.4084 19.9963 24.4084 20.2713 24.553L24.8943 26.9834C25.1263 27.1053 25.3953 26.9101 25.351 26.6516L24.4681 21.5038C24.4156 21.1975 24.5171 20.8849 24.7397 20.668Z" fill="#2568F6"/>
<path d="M9.37371 22.8742C9.21263 22.3783 8.67988 22.1066 8.18377 22.2679L6.31925 22.8738C5.82324 23.035 5.55183 23.5677 5.71297 24.0637C5.87437 24.5606 6.40801 24.831 6.90291 24.67L8.76742 24.0642C9.26348 23.903 9.5349 23.3702 9.37371 22.8742Z" fill="#2568F6"/>
<path d="M27.6715 7.38935C27.9781 6.96743 28.5687 6.87398 28.9906 7.18052C29.4125 7.48701 29.506 8.07764 29.1995 8.49956L28.0701 10.054C27.7636 10.4757 27.1731 10.5695 26.751 10.2628C26.3291 9.95632 26.2355 9.36569 26.5421 8.94377L27.6715 7.38935Z" fill="#2568F6"/>
<path d="M33.3444 22.8738L31.4799 22.2679C30.9839 22.1065 30.4512 22.3782 30.29 22.8742C30.1288 23.3702 30.4002 23.903 30.8963 24.0642L32.7608 24.67C33.2557 24.831 33.7893 24.5605 33.9507 24.0637C34.1119 23.5677 33.8405 23.035 33.3444 22.8738Z" fill="#2568F6"/>
<path d="M18.8876 31.139C18.8876 30.6175 19.3104 30.1947 19.8319 30.1947C20.3534 30.1947 20.7762 30.6175 20.7762 31.139V33.0557C20.7762 33.5772 20.3534 34 19.8319 34C19.3104 34 18.8876 33.5772 18.8876 33.0557V31.139Z" fill="#2568F6"/>
</svg>
