<svg width="24" height="24" viewBox="0 0 24 24" fill="none" xmlns="http://www.w3.org/2000/svg">
  <path
    d="M12.7031 3.33904C12.7031 2.95072 12.3883 2.63592 12 2.63592C11.6117 2.63592 11.2969 2.95072 11.2969 3.33904V3.5034C10.4216 3.79724 9.79065 4.62447 9.79065 5.59842C9.79065 5.91142 9.87125 6.19992 10.034 6.44986C10.1923 6.693 10.4037 6.86196 10.6102 6.98242C10.9809 7.19867 11.4421 7.31365 11.7855 7.39926L11.7876 7.39978C11.8018 7.40332 11.8157 7.4068 11.8295 7.41024C12.2354 7.51172 12.5032 7.58462 12.6813 7.68849C12.7572 7.73277 12.7812 7.76385 12.7876 7.77372L12.7879 7.77415C12.7907 7.77823 12.8032 7.79674 12.8032 7.8578C12.8032 8.30093 12.4432 8.66091 12.0001 8.66091C11.745 8.66091 11.5695 8.59801 11.4672 8.54686C11.4149 8.52071 11.3801 8.49673 11.3628 8.48382C11.3615 8.48277 11.3602 8.48181 11.359 8.48092C11.3582 8.48025 11.3574 8.47962 11.3566 8.47905L11.3548 8.47762C11.3541 8.47704 11.3535 8.47654 11.353 8.47611C11.0774 8.2158 10.643 8.22053 10.3732 8.4903C10.0986 8.76489 10.0986 9.21008 10.3732 9.48467L10.8704 8.98749C10.3732 9.48467 10.3734 9.48491 10.3737 9.48516L10.3742 9.48566L10.3752 9.48669L10.3774 9.48884C10.3789 9.49033 10.3805 9.49191 10.3822 9.49358C10.3857 9.49692 10.3896 9.50063 10.3939 9.50467C10.4025 9.51276 10.4129 9.52221 10.425 9.53282C10.4492 9.55403 10.4806 9.57994 10.5191 9.60883C10.596 9.66652 10.7024 9.73667 10.8383 9.80466C10.9663 9.86865 11.1194 9.93008 11.2969 9.97741V10.1172C11.2969 10.5055 11.6117 10.8203 12 10.8203C12.3883 10.8203 12.7031 10.5055 12.7031 10.1172V9.95284C13.5784 9.65903 14.2094 8.83182 14.2094 7.8578C14.2094 7.5448 14.1288 7.2563 13.9661 7.00636C13.8077 6.76323 13.5964 6.59426 13.3899 6.4738C13.0192 6.25755 12.5579 6.14256 12.2145 6.05695C12.1997 6.05324 12.185 6.04959 12.1706 6.04598C11.7647 5.9445 11.4968 5.8716 11.3188 5.76774C11.2428 5.72345 11.2189 5.69237 11.2124 5.6825L11.2121 5.68207C11.2094 5.67799 11.1969 5.65948 11.1969 5.59842C11.1969 5.15531 11.5569 4.79531 12 4.79531C12.2551 4.79531 12.4305 4.85822 12.5328 4.90936C12.5851 4.93551 12.62 4.9595 12.6372 4.9724C12.6419 4.97591 12.6452 4.97854 12.6471 4.98011C12.9227 5.24042 13.3571 5.23569 13.6269 4.96592C13.9015 4.69133 13.9015 4.24614 13.6269 3.97155L13.1297 4.46874C13.6269 3.97155 13.6266 3.97131 13.6264 3.97106L13.6249 3.96954L13.6227 3.96738L13.62 3.96474L13.6178 3.96264C13.6144 3.9593 13.6105 3.9556 13.6062 3.95155C13.5976 3.94346 13.5872 3.93401 13.5751 3.9234C13.5508 3.9022 13.5195 3.87628 13.481 3.8474C13.404 3.7897 13.2977 3.71955 13.1617 3.65157C13.0337 3.58756 12.8806 3.52613 12.7031 3.4788V3.33904Z"
    fill="#2568F6"
  />
  <path
    fill-rule="evenodd"
    clip-rule="evenodd"
    d="M12 0C8.28416 0 5.27188 3.01228 5.27188 6.72811C5.27188 10.2065 7.91148 13.0684 11.2969 13.4199V17.4726C10.3438 16.453 8.98692 15.8156 7.48123 15.8156C7.09291 15.8156 6.77811 16.1304 6.77811 16.5187C6.77811 19.1641 8.74553 21.3503 11.2969 21.6937V22.5938H3.66563V21.3288L4.96594 20.0285C5.24052 19.7539 5.24052 19.3087 4.96594 19.0341C4.69135 18.7595 4.24616 18.7595 3.97157 19.0341L3.66563 19.34V17.1379C4.96236 16.8223 5.925 15.6532 5.925 14.2594C5.925 12.6232 4.59864 11.2969 2.9625 11.2969C1.32636 11.2969 0 12.6232 0 14.2594C0 15.6533 0.962649 16.8223 2.25938 17.1379V19.34L1.95347 19.0341C1.67888 18.7595 1.23369 18.7595 0.959099 19.0341C0.684512 19.3087 0.684512 19.7539 0.959099 20.0285L2.25938 21.3287V22.5938H0.703125C0.3148 22.5938 0 22.9086 0 23.2969C0 23.6852 0.3148 24 0.703125 24H23.2969C23.6852 24 24 23.6852 24 23.2969C24 22.9086 23.6852 22.5938 23.2969 22.5938H21.7406V21.3288L23.0409 20.0285C23.3155 19.7539 23.3155 19.3087 23.0409 19.0341C22.7663 18.7595 22.3211 18.7595 22.0466 19.0341L21.7406 19.34V17.1379C23.0373 16.8223 24 15.6532 24 14.2594C24 12.6232 22.6736 11.2969 21.0375 11.2969C19.4013 11.2969 18.075 12.6232 18.075 14.2594C18.075 15.6533 19.0376 16.8223 20.3344 17.1379V19.34L20.0285 19.0341C19.7539 18.7595 19.3087 18.7595 19.0341 19.0341C18.7595 19.3087 18.7595 19.7539 19.0341 20.0285L20.3344 21.3287V22.5938H12.7031V21.6937C15.2545 21.3503 17.2219 19.1641 17.2219 16.5187C17.2219 16.1304 16.9071 15.8156 16.5187 15.8156C15.0131 15.8156 13.6562 16.453 12.7031 17.4726V13.4199C16.0885 13.0684 18.7281 10.2065 18.7281 6.72811C18.7281 3.01228 15.7158 0 12 0ZM6.67813 6.72811C6.67813 3.78893 9.06081 1.40625 12 1.40625C14.9392 1.40625 17.3218 3.78893 17.3218 6.72811C17.3218 9.66729 14.9392 12.05 12 12.05C9.06081 12.05 6.67813 9.66729 6.67813 6.72811ZM21.0395 15.8156L21.0375 15.8156L21.0354 15.8156C20.1769 15.8145 19.4812 15.1182 19.4812 14.2594C19.4812 13.3999 20.178 12.7031 21.0375 12.7031C21.897 12.7031 22.5937 13.3999 22.5937 14.2594C22.5937 15.1182 21.8981 15.8145 21.0395 15.8156ZM4.51875 14.2594C4.51875 15.1182 3.8231 15.8145 2.96455 15.8156L2.9625 15.8156L2.96046 15.8156C2.1019 15.8145 1.40625 15.1182 1.40625 14.2594C1.40625 13.3999 2.10301 12.7031 2.9625 12.7031C3.82199 12.7031 4.51875 13.3999 4.51875 14.2594ZM15.735 17.3025C15.4264 18.7808 14.262 19.9451 12.7837 20.2538C13.0924 18.7755 14.2567 17.6111 15.735 17.3025ZM11.2163 20.2538C9.73795 19.9451 8.57361 18.7808 8.26494 17.3025C9.74327 17.6111 10.9076 18.7755 11.2163 20.2538Z"
    fill="#2568F6"
  />
</svg>
