<svg width="40" height="40" viewBox="0 0 40 40" xmlns="http://www.w3.org/2000/svg">
    <path fill-rule="evenodd" clip-rule="evenodd"
          d="M19.7406 5.23925C19.6584 5.23925 19.5847 5.28998 19.5552 5.36562L18.7313 7.47491C18.5814 7.85876 18.2216 8.12013 17.8102 8.14409L15.5502 8.27573C15.4687 8.28046 15.3976 8.33488 15.3719 8.41378C15.3466 8.49144 15.3714 8.57704 15.4355 8.62954L17.1862 10.0645C17.5049 10.3257 17.6423 10.7486 17.5379 11.1473L16.9648 13.3364L16.9647 13.3367C16.9438 13.417 16.9741 13.5008 17.0406 13.5491L17.0412 13.5495C17.1075 13.5977 17.1967 13.6004 17.2659 13.556L19.1713 12.3342C19.5182 12.1117 19.9628 12.1117 20.3098 12.3341L22.216 13.5561C22.2849 13.6003 22.374 13.5978 22.4405 13.5495C22.5076 13.5007 22.5377 13.4162 22.517 13.3367L22.5169 13.3365L21.9439 11.1473C21.8395 10.7486 21.9769 10.3257 22.2956 10.0645L24.0462 8.6296C24.1104 8.57702 24.135 8.49139 24.1098 8.41391L24.1098 8.41378C24.0841 8.33484 24.013 8.28046 23.9315 8.27573L21.6715 8.14409C21.2601 8.12013 20.9003 7.85876 20.7504 7.47491L19.9265 5.36562C19.8971 5.29023 19.8236 5.23925 19.7406 5.23925ZM17.5899 4.59942C17.9355 3.71281 18.7903 3.12988 19.7406 3.12988C20.6912 3.12988 21.5461 3.71261 21.8919 4.59954L21.8919 4.59973L22.4692 6.07762L24.0538 6.16991L24.054 6.16992C25.004 6.22516 25.8218 6.85758 26.1157 7.7614C26.4102 8.66663 26.1185 9.65858 25.3832 10.2612L25.383 10.2613L24.1557 11.2672L24.5577 12.803L24.5579 12.8036C24.7981 13.7238 24.4497 14.6967 23.6809 15.2556C22.9114 15.815 21.8776 15.8453 21.0768 15.3314L19.7407 14.4748L18.4046 15.3316C17.604 15.8451 16.5703 15.8151 15.8007 15.2556C15.0306 14.696 14.6838 13.7229 14.9238 12.8037L15.326 11.2672L14.0986 10.2612C13.363 9.65847 13.0716 8.66646 13.366 7.7614C13.6599 6.85753 14.4779 6.22516 15.4277 6.16992L17.0125 6.07762L17.5899 4.59942Z"/>
    <path fill-rule="evenodd" clip-rule="evenodd"
          d="M4 9.83295C4 9.25046 4.4722 8.77827 5.05468 8.77827H9.57343C10.1559 8.77827 10.6281 9.25046 10.6281 9.83295C10.6281 10.4154 10.1559 10.8876 9.57343 10.8876H5.05468C4.4722 10.8876 4 10.4154 4 9.83295Z"/>
    <path fill-rule="evenodd" clip-rule="evenodd"
          d="M28.853 9.83295C28.853 9.25046 29.3252 8.77827 29.9077 8.77827H34.4265C35.0089 8.77827 35.4811 9.25046 35.4811 9.83295C35.4811 10.4154 35.0089 10.8876 34.4265 10.8876H29.9077C29.3252 10.8876 28.853 10.4154 28.853 9.83295Z"/>
    <path fill-rule="evenodd" clip-rule="evenodd"
          d="M32.3942 2.5275C32.6854 3.03195 32.5126 3.67698 32.0082 3.96823L29.0733 5.66275C28.5688 5.954 27.9238 5.78118 27.6325 5.27674C27.3413 4.77229 27.5141 4.12726 28.0185 3.83601L30.9534 2.14148C31.4579 1.85023 32.1029 2.02306 32.3942 2.5275Z"/>
    <path fill-rule="evenodd" clip-rule="evenodd"
          d="M7.08753 2.5275C7.37878 2.02306 8.02381 1.85023 8.52826 2.14148L11.4632 3.83601C11.9676 4.12726 12.1404 4.77229 11.8492 5.27674C11.5579 5.78118 10.9129 5.954 10.4084 5.66275L7.47355 3.96823C6.9691 3.67698 6.79628 3.03195 7.08753 2.5275Z"/>
    <path fill-rule="evenodd" clip-rule="evenodd"
          d="M27.5733 36.9453V33.6057L32.719 28.4599C33.7647 27.4142 34.3514 25.997 34.3514 24.5188V17.7408C34.3514 15.9108 32.8683 14.4267 31.0373 14.4267C29.2072 14.4267 27.7234 15.9104 27.7233 17.7407L27.7228 24.0716C26.7472 24.9794 25.6546 25.6902 24.4958 26.2039C24.7729 25.5691 24.9265 24.8682 24.9265 24.1313C24.9265 21.2672 22.6047 18.9454 19.7406 18.9454C16.8765 18.9454 14.5546 21.2672 14.5546 24.1313C14.5546 24.8682 14.7083 25.5691 14.9853 26.2039C13.8265 25.6902 12.7339 24.9795 11.7584 24.0716C11.7583 23.0952 11.7582 22.1184 11.7581 21.1416L11.7581 21.1302C11.7579 20.0003 11.7577 18.8703 11.7577 17.7408C11.7577 15.9108 10.2747 14.4267 8.44372 14.4267C6.61357 14.4267 5.1297 15.9105 5.1297 17.7408V24.5194C5.1297 25.9973 5.7171 27.4144 6.76202 28.4593C7.74819 29.4455 9.11184 30.8093 10.229 31.9265L11.9078 33.6056V36.9453C11.9078 37.5278 12.38 38 12.9625 38H26.5186C27.1011 38 27.5733 37.5278 27.5733 36.9453ZM7.23906 17.7408C7.23906 17.0755 7.7785 16.5361 8.44372 16.5361C9.10936 16.5361 9.64838 17.0754 9.64838 17.7408C9.64838 18.8705 9.64854 20.0006 9.64869 21.1305V21.131C9.64885 22.2607 9.64901 23.3903 9.64901 24.5194C9.64901 24.7991 9.76013 25.0674 9.95792 25.2652C15.3608 30.668 24.1204 30.668 29.5232 25.2652C29.721 25.0674 29.8321 24.7992 29.8321 24.5195L29.8327 17.7408C29.8327 17.0755 30.3721 16.5361 31.0373 16.5361C31.703 16.5361 32.242 17.0754 32.242 17.7408V24.5188C32.242 25.4379 31.8774 26.3185 31.2275 26.9684L25.7742 32.4217L25.7738 32.4221L25.7734 32.4224L25.7732 32.4227L25.773 32.4229L25.7728 32.4231C25.575 32.6209 25.4639 32.8891 25.4639 33.1689V35.8906H14.0172V33.1688C14.0172 32.8891 13.906 32.6208 13.7083 32.423L13.7081 32.4229L13.7077 32.4224L11.7206 30.4351C10.6035 29.3178 9.23979 27.954 8.25357 26.9678C7.60397 26.3182 7.23906 25.4375 7.23906 24.5194V17.7408ZM12.9625 33.1688L13.7083 32.423C13.7083 32.423 13.7083 32.4231 12.9625 33.1688ZM16.664 24.1313C16.664 22.4322 18.0414 21.0548 19.7406 21.0548C21.4397 21.0548 22.8172 22.4322 22.8172 24.1313C22.8172 25.8305 21.4397 27.2079 19.7406 27.2079C18.0414 27.2079 16.664 25.8305 16.664 24.1313Z"/>
</svg>
