<svg width="40" height="40" viewBox="0 0 40 40" xmlns="http://www.w3.org/2000/svg">
    <g clip-path="url(#clip0_561_22475)">
        <path
                d="M29.5273 28.4727C29.5273 27.8902 29.0551 27.418 28.4727 27.418C27.8902 27.418 27.418 27.8902 27.418 28.4727C27.418 29.0551 27.8902 29.5273 28.4727 29.5273C29.0551 29.5273 29.5273 29.0551 29.5273 28.4727Z"/>
        <path fill-rule="evenodd" clip-rule="evenodd"
              d="M28.4727 33.7461C25.5602 33.7461 23.1992 31.3851 23.1992 28.4727C23.1992 25.5602 25.5602 23.1992 28.4727 23.1992C31.3851 23.1992 33.7461 25.5602 33.7461 28.4727C33.7461 31.3851 31.3851 33.7461 28.4727 33.7461ZM25.3086 28.4727C25.3086 30.2201 26.7252 31.6367 28.4727 31.6367C30.2201 31.6367 31.6367 30.2201 31.6367 28.4727C31.6367 26.7252 30.2201 25.3086 28.4727 25.3086C26.7252 25.3086 25.3086 26.7252 25.3086 28.4727Z"/>
        <path fill-rule="evenodd" clip-rule="evenodd"
              d="M32.7687 12.446L29.2184 15.9963C28.8066 16.4081 28.1388 16.4081 27.7269 15.9963L24.1766 12.446C22.8734 11.1428 22.8734 9.03003 24.1766 7.72687C25.3466 6.55684 27.1693 6.4373 28.4727 7.36825C29.776 6.4373 31.5987 6.55684 32.7687 7.72687C34.0719 9.03003 34.0719 11.1428 32.7687 12.446ZM25.6681 10.9544L28.4727 13.7589L31.2772 10.9544C31.7566 10.475 31.7566 9.69782 31.2772 9.21842C30.7978 8.73902 30.0206 8.73902 29.5412 9.21842L29.2184 9.54115C28.8066 9.95303 28.1388 9.95303 27.7269 9.54115L27.4041 9.21842C26.9247 8.73902 26.1475 8.73902 25.6681 9.21842C25.1887 9.69782 25.1887 10.475 25.6681 10.9544Z"/>
        <path fill-rule="evenodd" clip-rule="evenodd"
              d="M11.919 33.6707C11.6676 33.7712 11.3871 33.7712 11.1356 33.6707C8.61192 32.6612 6.95703 30.2169 6.95703 27.4987V26.3633C6.95703 25.7808 7.42923 25.3086 8.01172 25.3086C8.59417 25.3086 9.06641 24.8364 9.06641 24.2539C9.06641 23.6714 9.53861 23.1992 10.1211 23.1992H12.9336C13.5161 23.1992 13.9883 23.6714 13.9883 24.2539C13.9883 24.8364 14.4605 25.3086 15.043 25.3086C15.6255 25.3086 16.0977 25.7808 16.0977 26.3633V27.4987C16.0977 30.2169 14.4428 32.6612 11.919 33.6707ZM9.06641 27.4987C9.06641 29.2097 10.027 30.7618 11.5273 31.5336C13.0277 30.7618 13.9883 29.2097 13.9883 27.4987V27.2379C13.0893 26.9201 12.3767 26.2076 12.059 25.3086H10.9957C10.678 26.2076 9.96542 26.9201 9.06641 27.2379V27.4987Z"/>
        <path fill-rule="evenodd" clip-rule="evenodd"
              d="M11.7341 6.378C12.094 6.18608 12.5322 6.21882 12.8596 6.46209C13.1869 6.70535 13.3447 7.11553 13.2647 7.51545C13.1169 8.25424 13.1665 8.74931 13.2731 9.10206C13.3807 9.45838 13.57 9.7496 13.8291 10.058C13.9383 10.188 14.0485 10.3083 14.173 10.4441C14.1898 10.4625 14.2069 10.4812 14.2243 10.5002C14.2381 10.5152 14.252 10.5305 14.2662 10.546C14.4205 10.7152 14.5976 10.9129 14.7584 11.1296C15.094 11.582 15.3945 12.1647 15.3945 12.9336C15.3945 15.0694 13.6632 16.8008 11.5273 16.8008C9.39151 16.8008 7.66015 15.0694 7.66015 12.9336C7.66015 10.7046 8.70987 9.05309 9.70322 7.99352C10.2011 7.46241 10.6971 7.06578 11.0699 6.80065C11.2571 6.66754 11.4154 6.56603 11.5305 6.49592C11.5881 6.46082 11.635 6.43347 11.6695 6.41385C11.6909 6.40167 11.7124 6.3896 11.7341 6.378ZM11.5273 14.6914C10.5565 14.6914 9.76953 13.9045 9.76953 12.9336C9.76953 11.4452 10.4476 10.3016 11.193 9.48912C11.2114 9.56454 11.2317 9.63879 11.2538 9.71192C11.4758 10.4469 11.8577 10.9906 12.2139 11.4147C12.3554 11.5831 12.5033 11.7444 12.6296 11.8822C12.6568 11.9118 12.683 11.9404 12.7079 11.9676C12.8584 12.1326 12.9724 12.2626 13.0644 12.3865C13.2341 12.6152 13.2852 12.765 13.2852 12.9336C13.2852 13.9045 12.4982 14.6914 11.5273 14.6914Z"/>
        <path fill-rule="evenodd" clip-rule="evenodd"
              d="M5.16406 38C3.41664 38 2 36.5834 2 34.8359V5.16406C2 3.41664 3.41664 2 5.16406 2H34.8359C36.5834 2 38 3.41664 38 5.16406V34.8359C38 36.5834 36.5834 38 34.8359 38H5.16406ZM35.8906 21.0547V34.8359C35.8906 35.4184 35.4184 35.8906 34.8359 35.8906H21.0547V21.0547H35.8906ZM21.0547 18.9453H35.8906V5.16406C35.8906 4.58161 35.4184 4.10938 34.8359 4.10938H21.0547V18.9453ZM18.9453 21.0547V35.8906H5.16406C4.58161 35.8906 4.10938 35.4184 4.10938 34.8359V21.0547H18.9453ZM4.10938 18.9453H18.9453V4.10938H5.16406C4.58161 4.10938 4.10938 4.58161 4.10938 5.16406V18.9453Z"/>
    </g>
    <defs>
        <clipPath id="clip0_561_22475">
            <rect width="36" height="36" fill="white" transform="translate(2 2)"/>
        </clipPath>
    </defs>
</svg>
