<svg width="40" height="40" viewBox="0 0 40 40" xmlns="http://www.w3.org/2000/svg">
    <path fill-rule="evenodd" clip-rule="evenodd"
          d="M20 4C21.7446 4 23.1641 5.41943 23.1641 7.16406C23.1641 8.90768 21.7463 10.3265 20.003 10.3281H22.1094C23.854 10.3281 25.2734 11.7476 25.2734 13.4922V24.0391C25.2734 24.6216 24.8013 25.0938 24.2188 25.0938H23.1641V34.5859C23.1641 35.1685 22.6919 35.6406 22.1094 35.6406H17.8906C17.3081 35.6406 16.8359 35.1685 16.8359 34.5859V25.0938H15.7813C15.1987 25.0938 14.7266 24.6216 14.7266 24.0391V13.4922C14.7266 11.7476 16.146 10.3281 17.8906 10.3281H19.997C18.2537 10.3265 16.8359 8.90768 16.8359 7.16406C16.8359 5.41943 18.2554 4 20 4ZM18.9453 7.16406C18.9453 7.74551 19.4183 8.21875 20 8.21875C20.5817 8.21875 21.0547 7.74551 21.0547 7.16406C21.0547 6.58261 20.5815 6.10938 20 6.10938C19.4183 6.10938 18.9453 6.58261 18.9453 7.16406ZM23.1641 13.4922C23.1641 12.9107 22.6908 12.4375 22.1094 12.4375H17.8906C17.3089 12.4375 16.8359 12.9107 16.8359 13.4922V22.9844H17.8906C18.4732 22.9844 18.9453 23.4565 18.9453 24.0391V33.5313H21.0547V24.0391C21.0547 23.4565 21.5268 22.9844 22.1094 22.9844H23.1641V13.4922Z"/>
    <path
            d="M5.47305 21.6207C5.88477 22.0327 6.55273 22.0327 6.96445 21.6207C7.37643 21.209 7.37643 20.541 6.96445 20.1293L5.60077 18.7656H9.45313C10.0357 18.7656 10.5078 18.2935 10.5078 17.7109C10.5078 17.1284 10.0357 16.6563 9.45313 16.6563H5.60077L6.96445 15.2926C7.37643 14.8806 7.37643 14.2129 6.96445 13.8012C6.55273 13.3892 5.88477 13.3892 5.47305 13.8012L2.30899 16.9653C1.897 17.377 1.897 18.0447 2.30899 18.4566L5.47305 21.6207Z"/>
    <path
            d="M34.5269 13.8012L37.691 16.9653C38.103 17.377 38.103 18.0449 37.691 18.4566L34.5269 21.6207C34.115 22.0327 33.4473 22.0327 33.0353 21.6207C32.6236 21.209 32.6236 20.541 33.0353 20.1293L34.399 18.7656H30.5469C29.9643 18.7656 29.4922 18.2935 29.4922 17.7109C29.4922 17.1284 29.9643 16.6563 30.5469 16.6563H34.399L33.0356 15.2926C32.6236 14.8809 32.6236 14.2129 33.0356 13.8012C33.4473 13.3892 34.1152 13.3892 34.5269 13.8012Z"/>
    <path
            d="M12.6172 30.3672C12.6172 29.7846 12.1451 29.3125 11.5625 29.3125H9.88984L12.3082 26.8941C12.7202 26.4822 12.7202 25.8145 12.3082 25.4028C11.8965 24.9908 11.2285 24.9908 10.8168 25.4028L8.39844 27.8208V26.1484C8.39844 25.5659 7.9263 25.0938 7.34375 25.0938C6.7612 25.0938 6.28907 25.5659 6.28907 26.1484V30.3672C6.28907 30.9497 6.7612 31.4219 7.34375 31.4219H11.5625C12.1451 31.4219 12.6172 30.9497 12.6172 30.3672Z"/>
    <path
            d="M31.6016 7.60104L29.1832 10.0191C28.7715 10.4311 28.1035 10.4311 27.6918 10.0191C27.2798 9.60742 27.2798 8.93945 27.6915 8.52774L30.1099 6.10938H28.4375C27.855 6.10938 27.3828 5.63724 27.3828 5.05469C27.3828 4.47214 27.855 4 28.4375 4H32.6563C33.2388 4 33.7109 4.47214 33.7109 5.05469V9.27344C33.7109 9.85599 33.2388 10.3281 32.6563 10.3281C32.0737 10.3281 31.6016 9.85599 31.6016 9.27344V7.60104Z"/>
    <path
            d="M33.7109 30.3672V26.1484C33.7109 25.5659 33.2388 25.0938 32.6563 25.0938C32.0737 25.0938 31.6016 25.5659 31.6016 26.1484V27.8208L29.1832 25.4028C28.7715 24.9908 28.1035 24.9908 27.6915 25.4028C27.2798 25.8145 27.2798 26.4822 27.6915 26.8941L30.1099 29.3125H28.4375C27.855 29.3125 27.3828 29.7846 27.3828 30.3672C27.3828 30.9497 27.855 31.4219 28.4375 31.4219H32.6563C33.2388 31.4219 33.7109 30.9497 33.7109 30.3672Z"/>
    <path
            d="M11.5625 4C12.1451 4 12.6172 4.47214 12.6172 5.05469C12.6172 5.63724 12.1451 6.10938 11.5625 6.10938H9.93103L12.3148 8.53406C12.7229 8.94934 12.7172 9.61731 12.3019 10.0255C11.8866 10.4339 11.2189 10.4284 10.8102 10.0128L8.39844 7.5593V9.27344C8.39844 9.85599 7.9263 10.3281 7.34375 10.3281C6.7612 10.3281 6.28907 9.85599 6.28907 9.27344V5.05469C6.28907 4.47214 6.7612 4 7.34375 4H11.5625Z"/>
</svg>
