<svg width="24" height="24" viewBox="0 0 24 24" fill="none" xmlns="http://www.w3.org/2000/svg">
<path id="Star 6" d="M12 0.742408L14.1151 3.06385L14.3309 3.3008L14.6364 3.20354L17.6288 2.25064L18.2998 5.3186L18.3683 5.63174L18.6814 5.70023L21.7494 6.3712L20.7965 9.36362L20.6992 9.66906L20.9361 9.88494L23.2576 12L20.9361 14.1151L20.6992 14.3309L20.7965 14.6364L21.7494 17.6288L18.6814 18.2998L18.3683 18.3683L18.2998 18.6814L17.6288 21.7494L14.6364 20.7965L14.3309 20.6992L14.1151 20.9361L12 23.2576L9.88494 20.9361L9.66906 20.6992L9.36362 20.7965L6.3712 21.7494L5.70023 18.6814L5.63174 18.3683L5.3186 18.2998L2.25064 17.6288L3.20354 14.6364L3.3008 14.3309L3.06385 14.1151L0.742408 12L3.06385 9.88494L3.3008 9.66906L3.20354 9.36362L2.25064 6.3712L5.3186 5.70023L5.63174 5.63174L5.70023 5.3186L6.3712 2.25064L9.36362 3.20354L9.66906 3.3008L9.88494 3.06385L12 0.742408Z" fill="#D7E2FF" stroke="#BFCEF7"/>
</svg>
