<svg viewBox="0 0 150 150" fill="none" xmlns="http://www.w3.org/2000/svg">
<path fill-rule="evenodd" clip-rule="evenodd" d="M1.7457 0.934555H148.185C148.643 0.934555 149.012 1.30329 149.012 1.76131V148.442C149.012 148.9 148.643 149.269 148.185 149.269H1.7457C1.28768 149.269 0.918945 148.9 0.918945 148.442V1.76131C0.918945 1.30329 1.28768 0.934555 1.7457 0.934555Z" fill="#EB1C2D"/>
<path d="M47.7686 26.6866L44.9873 19.0892V26.6866H43.1953V14.1799H44.894L47.6566 21.7585V14.1799H49.4486V26.6866H47.7686Z" fill="white"/>
<path d="M51.3792 15.3559C51.6654 14.9577 52.0263 14.6465 52.4619 14.4225C52.9099 14.1861 53.3703 14.0679 53.8432 14.0679C54.3037 14.0679 54.733 14.1612 55.1312 14.3479C55.5419 14.5346 55.8841 14.7897 56.1579 15.1132C56.4317 15.4368 56.6183 15.7728 56.7179 16.1212C56.8174 16.4572 56.8672 16.8243 56.8672 17.2225V23.5879C56.8672 23.9612 56.8299 24.291 56.7552 24.5772C56.693 24.8634 56.5437 25.1808 56.3072 25.5292C56.0832 25.8777 55.7534 26.1763 55.3179 26.4252C54.8948 26.6741 54.4219 26.7986 53.8992 26.7986C53.6006 26.7986 53.3143 26.7612 53.0406 26.6866C52.7668 26.5994 52.5117 26.4874 52.2752 26.3506C52.0388 26.2137 51.8272 26.0581 51.6406 25.8839C51.4663 25.7097 51.3294 25.5292 51.2299 25.3425C51.0432 24.9568 50.9312 24.6457 50.8939 24.4092C50.8566 24.1728 50.8379 23.899 50.8379 23.5879V17.2225C50.8379 16.8492 50.8752 16.5194 50.9499 16.2332C51.037 15.9345 51.1801 15.6421 51.3792 15.3559ZM54.8512 16.3452C54.6148 15.9968 54.2912 15.8226 53.8806 15.8226C53.669 15.8226 53.4574 15.8848 53.2459 16.0092C53.0468 16.1212 52.9037 16.2519 52.8166 16.4012C52.7419 16.5505 52.6921 16.6999 52.6672 16.8492C52.6423 16.9985 52.6299 17.123 52.6299 17.2225V23.5879C52.6299 23.6501 52.6299 23.7185 52.6299 23.7932C52.6299 23.8554 52.6361 23.9239 52.6486 23.9986C52.661 24.123 52.7606 24.3283 52.9472 24.6145C53.1339 24.8759 53.445 25.0065 53.8806 25.0065C54.1046 25.0065 54.3037 24.9568 54.4779 24.8572C54.6646 24.7452 54.7952 24.6208 54.8699 24.4839C54.957 24.3346 55.013 24.1977 55.0379 24.0732C55.0628 23.9488 55.0752 23.787 55.0752 23.5879V17.2225C55.0752 16.9737 55.0628 16.7994 55.0379 16.6999C55.0254 16.6003 54.9632 16.4821 54.8512 16.3452Z" fill="white"/>
<path d="M43.1953 43.9335V31.4268H46.126H46.1633C46.5366 31.4268 46.8913 31.5077 47.2273 31.6695C47.5633 31.8189 47.862 32.018 48.1233 32.2668C48.3846 32.5157 48.59 32.802 48.7393 33.1255C48.9011 33.4366 48.9882 33.7602 49.0006 34.0962V35.9069V36.0935C49.0006 36.5042 48.9198 36.89 48.758 37.2509C48.6086 37.5993 48.4033 37.9042 48.142 38.1655C47.8806 38.4269 47.5695 38.6322 47.2086 38.7815C46.8602 38.9309 46.4869 39.0055 46.0886 39.0055H45.9206H44.9873V43.9335H43.1953ZM46.9846 36.9522C47.0966 36.8402 47.1651 36.722 47.19 36.5975C47.2273 36.4731 47.246 36.3175 47.246 36.1309V34.2829C47.246 33.9344 47.1402 33.6482 46.9286 33.4242C46.7171 33.1877 46.4309 33.0695 46.07 33.0695H44.9873V37.3069H45.9206C46.1695 37.3069 46.3686 37.2882 46.518 37.2509C46.6798 37.2011 46.8353 37.1015 46.9846 36.9522Z" fill="white"/>
<path d="M51.1029 32.6029C51.3891 32.2047 51.75 31.8935 52.1855 31.6695C52.6335 31.4331 53.094 31.3148 53.5669 31.3148C54.0273 31.3148 54.4566 31.4082 54.8549 31.5948C55.2655 31.7815 55.6077 32.0366 55.8815 32.3602C56.1553 32.6838 56.342 33.0197 56.4415 33.3682C56.5411 33.7042 56.5909 34.0713 56.5909 34.4695V40.8349C56.5909 41.2082 56.5535 41.538 56.4789 41.8242C56.4167 42.1104 56.2673 42.4278 56.0309 42.7762C55.8069 43.1247 55.4771 43.4233 55.0415 43.6722C54.6184 43.9211 54.1455 44.0455 53.6229 44.0455C53.3242 44.0455 53.038 44.0082 52.7642 43.9335C52.4904 43.8464 52.2353 43.7344 51.9989 43.5975C51.7624 43.4606 51.5509 43.3051 51.3642 43.1309C51.19 42.9566 51.0531 42.7762 50.9535 42.5895C50.7669 42.2038 50.6549 41.8926 50.6175 41.6562C50.5802 41.4197 50.5615 41.146 50.5615 40.8349V34.4695C50.5615 34.0962 50.5989 33.7664 50.6735 33.4802C50.7606 33.1815 50.9037 32.8891 51.1029 32.6029ZM54.5749 33.5922C54.3384 33.2437 54.0149 33.0695 53.6042 33.0695C53.3926 33.0695 53.1811 33.1317 52.9695 33.2562C52.7704 33.3682 52.6273 33.4989 52.5402 33.6482C52.4655 33.7975 52.4157 33.9469 52.3909 34.0962C52.366 34.2455 52.3535 34.37 52.3535 34.4695V40.8349C52.3535 40.8971 52.3535 40.9655 52.3535 41.0402C52.3535 41.1024 52.3598 41.1709 52.3722 41.2455C52.3846 41.37 52.4842 41.5753 52.6709 41.8615C52.8575 42.1229 53.1686 42.2535 53.6042 42.2535C53.8282 42.2535 54.0273 42.2037 54.2015 42.1042C54.3882 41.9922 54.5189 41.8678 54.5935 41.7309C54.6806 41.5815 54.7366 41.4446 54.7615 41.3202C54.7864 41.1957 54.7989 41.034 54.7989 40.8349V34.4695C54.7989 34.2207 54.7864 34.0464 54.7615 33.9469C54.7491 33.8473 54.6869 33.7291 54.5749 33.5922Z" fill="white"/>
<path d="M60.0837 43.9335L57.5264 31.4268H59.393L60.849 40.1069L62.3237 31.4268H64.2277L61.6144 43.9335H60.0837Z" fill="white"/>
<path d="M70.6698 42.1415V43.9335H65.3125V31.4268H70.6698V33.0695H67.0858V36.7655H70.2218V38.4642H67.0858V42.1415H70.6698Z" fill="white"/>
<path d="M71.5156 43.9335V31.4268H74.6516C75.473 31.4268 76.1636 31.7131 76.7236 32.2855C77.2961 32.858 77.5823 33.5611 77.5823 34.3949V35.5522C77.5823 36.7095 77.0907 37.5931 76.1076 38.2029L78.0116 43.9335H76.1076L74.4276 38.5762H73.3076V43.9335H71.5156ZM75.4916 36.5975C75.6036 36.4606 75.6783 36.3051 75.7156 36.1309C75.7654 35.9566 75.7903 35.7637 75.7903 35.5522V34.3949C75.7903 34.0091 75.6845 33.698 75.473 33.4615C75.2614 33.2126 74.9628 33.0882 74.577 33.0882H73.3077V36.9895H74.5583C74.9317 36.9895 75.2427 36.8589 75.4916 36.5975Z" fill="white"/>
<path d="M80.1357 43.9335V33.0882H78.0264V31.4268H84.0557V33.0882H81.909V43.9335H80.1357Z" fill="white"/>
<path d="M86.6786 43.9335V38.5575L84.252 31.4268H86.1186L87.5746 36.3175L89.0493 31.4268H90.9346L88.452 38.5575V43.9335H86.6786Z" fill="white"/>
<path d="M22.1444 43.3642V17.9042L17.8564 21.1202V16.5642L22.1444 13.4375H26.3878V43.3642H22.1444Z" fill="white"/>
<path d="M31.6946 74.7492C32.467 73.9769 32.9009 72.9294 32.9009 71.8371C32.9009 71.2963 32.7943 70.7607 32.5874 70.261C32.3804 69.7614 32.0771 69.3074 31.6946 68.925C31.3122 68.5425 30.8582 68.2392 30.3585 68.0322C29.8589 67.8252 29.3233 67.7187 28.7825 67.7187C28.2416 67.7187 27.7061 67.8252 27.2064 68.0322C26.7068 68.2392 26.2527 68.5425 25.8703 68.925C25.4879 69.3074 25.1845 69.7614 24.9776 70.261C24.7706 70.7607 24.6641 71.2963 24.6641 71.8371C24.6641 72.9294 25.098 73.9769 25.8703 74.7492C26.6427 75.5216 27.6902 75.9555 28.7825 75.9555C29.8747 75.9555 30.9223 75.5216 31.6946 74.7492Z" fill="white"/>
<path d="M66.5706 77.0293C67.3429 76.2569 67.7768 75.2094 67.7768 74.1171C67.7768 73.5763 67.6703 73.0407 67.4633 72.5411C67.2564 72.0414 66.953 71.5874 66.5706 71.205C66.1882 70.8226 65.7342 70.5192 65.2345 70.3122C64.7348 70.1053 64.1993 69.9987 63.6584 69.9987C62.5662 69.9987 61.5186 70.4326 60.7463 71.205C59.9739 71.9773 59.54 73.0249 59.54 74.1171C59.54 75.2094 59.9739 76.2569 60.7463 77.0293C61.5186 77.8016 62.5662 78.2355 63.6584 78.2355C64.7507 78.2355 65.7982 77.8016 66.5706 77.0293Z" fill="white"/>
<path d="M90.8735 74.1171C90.8735 75.2094 90.4396 76.2569 89.6673 77.0293C88.8949 77.8016 87.8474 78.2355 86.7551 78.2355C85.6628 78.2355 84.6153 77.8016 83.843 77.0293C83.0706 76.2569 82.6367 75.2094 82.6367 74.1171C82.6367 73.0249 83.0706 71.9773 83.843 71.205C84.6153 70.4326 85.6628 69.9987 86.7551 69.9987C87.296 69.9987 87.8315 70.1053 88.3312 70.3122C88.8308 70.5192 89.2848 70.8226 89.6673 71.205C90.0497 71.5874 90.3531 72.0414 90.56 72.5411C90.767 73.0407 90.8735 73.5763 90.8735 74.1171Z" fill="white"/>
<path d="M122.015 74.8443C122.787 74.0719 123.221 73.0244 123.221 71.9321C123.221 70.8399 122.787 69.7923 122.015 69.02C121.243 68.2476 120.195 67.8137 119.103 67.8137C118.562 67.8137 118.026 67.9203 117.527 68.1272C117.027 68.3342 116.573 68.6375 116.191 69.02C115.808 69.4024 115.505 69.8564 115.298 70.3561C115.091 70.8558 114.984 71.3913 114.984 71.9321C114.984 73.0244 115.418 74.0719 116.191 74.8443C116.963 75.6166 118.011 76.0505 119.103 76.0505C120.195 76.0505 121.243 75.6166 122.015 74.8443Z" fill="white"/>
<path d="M48.6148 92.5558C48.6148 93.4297 48.2677 94.2677 47.6498 94.8856C47.032 95.5034 46.1939 95.8506 45.3201 95.8506C44.4463 95.8506 43.6083 95.5034 42.9904 94.8856C42.3725 94.2677 42.0254 93.4297 42.0254 92.5558C42.0254 92.1232 42.1106 91.6947 42.2762 91.295C42.4418 90.8953 42.6844 90.5321 42.9904 90.2261C43.2963 89.9202 43.6595 89.6775 44.0593 89.5119C44.459 89.3463 44.8874 89.2611 45.3201 89.2611C45.7528 89.2611 46.1812 89.3463 46.581 89.5119C46.9807 89.6775 47.3439 89.9202 47.6498 90.2261C47.9558 90.5321 48.1985 90.8953 48.364 91.295C48.5296 91.6947 48.6148 92.1232 48.6148 92.5558Z" fill="white"/>
<path d="M106.696 93.8167C106.862 93.4169 106.947 92.9885 106.947 92.5558C106.947 92.1232 106.862 91.6947 106.696 91.295C106.531 90.8953 106.288 90.5321 105.982 90.2261C105.676 89.9202 105.313 89.6775 104.913 89.5119C104.513 89.3463 104.085 89.2611 103.652 89.2611C103.219 89.2611 102.791 89.3464 102.391 89.5119C101.992 89.6775 101.628 89.9202 101.322 90.2261C101.016 90.5321 100.774 90.8953 100.608 91.295C100.443 91.6947 100.357 92.1232 100.357 92.5558C100.357 93.4297 100.705 94.2677 101.322 94.8856C101.94 95.5034 102.778 95.8506 103.652 95.8506C104.085 95.8506 104.513 95.7653 104.913 95.5998C105.313 95.4342 105.676 95.1915 105.982 94.8856C106.288 94.5796 106.531 94.2164 106.696 93.8167Z" fill="white"/>
<path d="M118.279 97.0861V113.94C118.279 116.824 114.034 116.836 114.034 113.94V84.4141C114.034 83.3465 112.576 83.2584 112.576 84.4141V94.3616C112.576 96.7147 109.472 96.8135 109.472 94.3616V82.2598C109.472 79.7826 111.347 77.6346 114.097 77.6346H124.108C126.858 77.6346 128.733 79.7826 128.733 82.2598V94.3616C128.733 96.8135 125.629 96.7147 125.629 94.3616V84.4141C125.629 83.2584 124.171 83.3465 124.171 84.4141V113.94C124.171 116.836 119.926 116.824 119.926 113.94V97.0861C119.926 96.1531 118.279 96.1216 118.279 97.0861Z" fill="white"/>
<path d="M19.0155 82.2598C19.0155 79.7825 20.8901 77.6348 23.6405 77.6348H33.6502C36.4007 77.6348 38.2752 79.7825 38.2752 82.2598V94.3613C38.2752 96.8132 35.1717 96.7145 35.1717 94.3613V84.4141C35.1717 83.2584 33.7147 83.3465 33.7147 84.4141V113.939C33.7147 116.836 29.4686 116.823 29.4686 113.939V97.0859C29.4686 96.153 27.8221 96.1214 27.8221 97.0859V113.939C27.8221 116.823 23.576 116.836 23.576 113.939V84.4141C23.576 83.3465 22.119 83.2584 22.119 84.4141V94.3613C22.119 95.3219 21.6005 95.9008 20.9881 96.0898L17.5448 114.973C17.3506 116.037 15.8818 115.797 16.1014 114.699L19.8456 95.9805C19.3736 95.7241 19.0155 95.1928 19.0155 94.3613V82.2598Z" fill="white"/>
<path d="M62.9295 102.122V114.054C62.9295 117.009 58.8061 116.96 58.8061 114.054V102.122H54.8541L59.333 86.2263C59.5355 85.5078 58.3551 84.9754 58.0596 85.9189L55.3371 94.6133C54.6934 96.6692 51.9333 95.9398 52.6585 93.5594L56.0836 82.3182C56.4748 81.0344 57.784 80.0348 59.2013 80.0348H67.9422C69.3594 80.0348 70.6687 81.0344 71.0599 82.3182L74.4849 93.5594C75.2102 95.9398 72.4501 96.6692 71.8063 94.6133L69.0838 85.9189C68.7884 84.9754 67.608 85.5078 67.8104 86.2263L72.2894 102.122H68.3374V114.054C68.3374 116.96 64.2139 117.009 64.2139 114.054V102.122H62.9295Z" fill="white"/>
<path d="M86.1551 114.054V102.122H87.4395V114.054C87.4395 117.009 91.5629 116.96 91.5629 114.054V102.122H95.5149L91.036 86.2263C90.8336 85.5078 92.014 84.9754 92.3094 85.9189L95.0319 94.6133C95.6757 96.6692 98.4358 95.9398 97.7105 93.5594L94.2854 82.3182C93.8943 81.0344 92.585 80.0348 91.1677 80.0348H82.4269C81.0096 80.0348 79.7003 81.0344 79.3092 82.3182L75.8841 93.5594C75.1589 95.9398 77.9189 96.6692 78.5627 94.6133L81.2852 85.9189C81.5806 84.9754 82.7611 85.5078 82.5586 86.2263L78.0797 102.122H82.0317V114.054C82.0317 116.96 86.1551 117.009 86.1551 114.054Z" fill="white"/>
<path d="M104.445 109.367V114.329C104.445 116.437 107.343 116.7 107.343 114.329V102.495C107.343 101.868 108.015 101.85 108.243 102.451L109.761 106.457C110.278 107.821 111.868 107.24 111.298 105.842L108.287 98.4555C108.026 97.8147 107.388 97.2919 106.53 97.2919H100.895C100.038 97.2919 99.3996 97.8147 99.1384 98.4555L96.1274 105.842C95.5576 107.24 97.1474 107.821 97.6643 106.457L99.1824 102.451C99.4105 101.85 100.083 101.868 100.083 102.495V114.329C100.083 116.7 102.981 116.437 102.981 114.329V109.367C102.981 108.487 104.445 108.425 104.445 109.367Z" fill="white"/>
<path d="M44.7234 114.738V109.669C44.7234 108.555 46.3202 108.524 46.3202 109.669V114.738C46.3202 116.559 48.9718 116.867 48.9718 114.738V109.162H50.8045L49.2057 103.352C48.9309 102.354 49.1421 101.334 49.6347 100.467L52.4032 95.5926C53.233 94.1317 51.2136 93.3183 50.5705 94.3448L48.5428 97.5813C48.2692 98.018 47.9355 98.0148 47.5299 98.0109C47.4913 98.0106 47.452 98.0102 47.412 98.0102H43.6315C43.5916 98.0102 43.5523 98.0106 43.5136 98.0109C43.1081 98.0148 42.7744 98.018 42.5007 97.5813L40.4731 94.3448C39.83 93.3183 37.8106 94.1317 38.6404 95.5926L41.4089 100.467C41.9015 101.334 42.1127 102.354 41.8378 103.352L40.2391 109.162H42.0718V114.738C42.0718 116.867 44.7234 116.559 44.7234 114.738Z" fill="white"/>
</svg>
