<svg viewBox="0 0 149 150" fill="none" xmlns="http://www.w3.org/2000/svg">
<path fill-rule="evenodd" clip-rule="evenodd" d="M1.61383 0.728333H148.053C148.511 0.728333 148.88 1.09705 148.88 1.55508V148.236C148.88 148.694 148.511 149.063 148.053 149.063H1.61383C1.15581 149.063 0.787109 148.694 0.787109 148.236V1.55508C0.787109 1.09705 1.15581 0.728333 1.61383 0.728333Z" fill="#CF8D2A"/>
<path d="M48.4424 25.9625V13.4558H51.5784C52.3997 13.4558 53.0903 13.742 53.6503 14.3145C54.2228 14.8869 54.509 15.59 54.509 16.4238V17.5811C54.509 18.7384 54.0175 19.622 53.0344 20.2318L54.9384 25.9625H53.0344L51.3544 20.6051H50.2344V25.9625H48.4424ZM52.4183 18.6265C52.5303 18.4896 52.605 18.334 52.6423 18.1598C52.6921 17.9856 52.717 17.7927 52.717 17.5811V16.4238C52.717 16.038 52.6113 15.7269 52.3997 15.4904C52.1882 15.2416 51.8895 15.1171 51.5037 15.1171H50.2344V19.0185H51.485C51.8584 19.0185 52.1694 18.8878 52.4183 18.6265Z" fill="white"/>
<path d="M60.7783 24.1705V25.9625H55.4209V13.4558H60.7783V15.0984H57.1942V18.7945H60.3302V20.4931H57.1942V24.1705H60.7783Z" fill="white"/>
<path d="M62.8068 22.8451C62.8068 22.9696 62.8068 23.0753 62.8068 23.1624C62.8068 23.2496 62.813 23.3243 62.8255 23.3865C62.8504 23.5109 62.9437 23.6913 63.1055 23.9278C63.2797 24.1767 63.5908 24.3011 64.0388 24.3011C64.2877 24.3011 64.5179 24.2513 64.7295 24.1518C64.941 24.0398 65.0966 23.8967 65.1962 23.7225C65.2708 23.5856 65.3144 23.4549 65.3268 23.3305C65.3517 23.206 65.3641 23.094 65.3641 22.9944V22.8264V21.9491V21.7811C65.3641 21.5073 65.3143 21.2958 65.2148 21.1465C65.1152 20.9847 64.8912 20.8042 64.5428 20.6051C64.3063 20.4807 63.8833 20.3065 63.2735 20.0825C62.6637 19.8585 62.1535 19.5038 61.7428 19.0185C61.3321 18.5331 61.1268 17.8736 61.1268 17.0398V16.4798C61.1268 15.6211 61.413 14.8869 61.9855 14.2771C62.5704 13.6549 63.2797 13.3438 64.1135 13.3438C64.9846 13.3438 65.7064 13.6487 66.2788 14.2585C66.8637 14.8682 67.1561 15.6087 67.1561 16.4798V17.0398H65.3641V16.4798C65.3641 16.3927 65.3579 16.3118 65.3455 16.2371C65.3455 16.1625 65.3392 16.094 65.3267 16.0318C65.3143 15.9696 65.2832 15.8949 65.2335 15.8078C65.1837 15.7207 65.1152 15.6149 65.0281 15.4904C64.8539 15.2416 64.5614 15.1171 64.1508 15.1171C63.7899 15.1171 63.4912 15.2478 63.2548 15.5091C63.0308 15.7705 62.9188 16.094 62.9188 16.4798V17.0398V17.2078C62.9188 17.4567 62.9561 17.6558 63.0308 17.8051C63.1179 17.942 63.317 18.0976 63.6281 18.2718C63.7277 18.3216 63.877 18.3901 64.0761 18.4771C64.2877 18.5518 64.5428 18.6451 64.8414 18.7571C65.4388 18.9563 65.9739 19.3109 66.4468 19.8211C66.9197 20.3314 67.1561 21.0033 67.1561 21.8371V22.8451C67.1561 23.2807 67.1126 23.6478 67.0255 23.9465C66.9508 24.2451 66.6956 24.6807 66.2601 25.2531C65.8245 25.8007 65.0966 26.0745 64.0761 26.0745C62.9934 26.0745 62.2095 25.726 61.7241 25.0291C61.2388 24.3198 60.9961 23.5918 60.9961 22.8451V22.3971H62.8068L62.8068 22.8451Z" fill="white"/>
<path d="M67.9678 25.9625V13.4558H70.8984H70.9357C71.3091 13.4558 71.6637 13.5367 71.9997 13.6985C72.3357 13.8478 72.6344 14.0469 72.8958 14.2958C73.1571 14.5447 73.3624 14.8309 73.5117 15.1544C73.6735 15.4656 73.7606 15.7891 73.7731 16.1251V17.9358V18.1225C73.7731 18.5331 73.6922 18.9189 73.5304 19.2798C73.3811 19.6282 73.1757 19.9331 72.9144 20.1945C72.653 20.4558 72.342 20.6611 71.9811 20.8105C71.6326 20.9598 71.2593 21.0345 70.8611 21.0345H70.6931H69.7597V25.9625H67.9678ZM71.7571 18.9811C71.8691 18.8691 71.9375 18.7509 71.9624 18.6265C71.9997 18.502 72.0184 18.3465 72.0184 18.1598V16.3118C72.0184 15.9634 71.9127 15.6771 71.7011 15.4531C71.4896 15.2167 71.2033 15.0984 70.8424 15.0984H69.7598V19.3358H70.6931C70.942 19.3358 71.1411 19.3171 71.2904 19.2798C71.4522 19.23 71.6077 19.1305 71.7571 18.9811Z" fill="white"/>
<path d="M75.1946 14.6318C75.4809 14.2336 75.8418 13.9225 76.2773 13.6985C76.7253 13.462 77.1857 13.3438 77.6586 13.3438C78.1191 13.3438 78.5484 13.4371 78.9467 13.6238C79.3573 13.8105 79.6995 14.0656 79.9733 14.3891C80.2471 14.7127 80.4338 15.0487 80.5333 15.3971C80.6329 15.7331 80.6827 16.1003 80.6827 16.4985V22.8638C80.6827 23.2371 80.6453 23.5669 80.5707 23.8531C80.5085 24.1393 80.3591 24.4567 80.1227 24.8051C79.8987 25.1536 79.5689 25.4523 79.1333 25.7011C78.7102 25.95 78.2373 26.0745 77.7147 26.0745C77.416 26.0745 77.1298 26.0371 76.856 25.9625C76.5822 25.8754 76.3271 25.7634 76.0907 25.6265C75.8543 25.4896 75.6427 25.334 75.456 25.1598C75.2818 24.9856 75.1449 24.8051 75.0453 24.6185C74.8587 24.2327 74.7467 23.9216 74.7094 23.6851C74.672 23.4487 74.6533 23.1749 74.6533 22.8638V16.4985C74.6533 16.1251 74.6907 15.7953 74.7653 15.5091C74.8524 15.2105 74.9955 14.918 75.1946 14.6318ZM78.6667 15.6211C78.4302 15.2727 78.1067 15.0984 77.696 15.0984C77.4844 15.0984 77.2729 15.1607 77.0613 15.2851C76.8622 15.3971 76.7191 15.5278 76.632 15.6771C76.5574 15.8265 76.5076 15.9758 76.4827 16.1251C76.4578 16.2745 76.4454 16.3989 76.4454 16.4985V22.8638C76.4454 22.926 76.4454 22.9944 76.4454 23.0691C76.4454 23.1313 76.4516 23.1998 76.4641 23.2745C76.4765 23.3989 76.5761 23.6043 76.7628 23.8905C76.9494 24.1518 77.2605 24.2825 77.696 24.2825C77.92 24.2825 78.1192 24.2327 78.2934 24.1331C78.4801 24.0211 78.6108 23.8967 78.6854 23.7598C78.7725 23.6105 78.8285 23.4736 78.8534 23.3491C78.8783 23.2247 78.8907 23.0629 78.8907 22.8638V16.4985C78.8907 16.2496 78.8783 16.0754 78.8534 15.9758C78.8409 15.8762 78.7787 15.758 78.6667 15.6211Z" fill="white"/>
<path d="M86.5372 25.9625L83.7559 18.3651V25.9625H81.9639V13.4558H83.6625L86.4252 21.0345V13.4558H88.2172V25.9625H86.5372Z" fill="white"/>
<path d="M90.5519 22.8451C90.5519 22.9696 90.5519 23.0753 90.5519 23.1624C90.5519 23.2496 90.5582 23.3243 90.5706 23.3865C90.5955 23.5109 90.6888 23.6913 90.8506 23.9278C91.0248 24.1767 91.3359 24.3011 91.7839 24.3011C92.0328 24.3011 92.2631 24.2513 92.4746 24.1518C92.6862 24.0398 92.8417 23.8967 92.9413 23.7225C93.016 23.5856 93.0595 23.4549 93.072 23.3305C93.0968 23.206 93.1093 23.094 93.1093 22.9944V22.8264V21.9491V21.7811C93.1093 21.5073 93.0595 21.2958 92.9599 21.1465C92.8603 20.9847 92.6363 20.8042 92.2879 20.6051C92.0515 20.4807 91.6283 20.3065 91.0186 20.0825C90.4088 19.8585 89.8986 19.5038 89.4879 19.0185C89.0772 18.5331 88.8719 17.8736 88.8719 17.0398V16.4798C88.8719 15.6211 89.1582 14.8869 89.7306 14.2771C90.3155 13.6549 91.0248 13.3438 91.8586 13.3438C92.7297 13.3438 93.4515 13.6487 94.0239 14.2585C94.6088 14.8682 94.9012 15.6087 94.9012 16.4798V17.0398H93.1093V16.4798C93.1093 16.3927 93.103 16.3118 93.0906 16.2371C93.0906 16.1625 93.0843 16.094 93.0718 16.0318C93.0594 15.9696 93.0283 15.8949 92.9786 15.8078C92.9288 15.7207 92.8603 15.6149 92.7732 15.4904C92.599 15.2416 92.3065 15.1171 91.8959 15.1171C91.535 15.1171 91.2363 15.2478 90.9999 15.5091C90.7759 15.7705 90.6639 16.094 90.6639 16.4798V17.0398V17.2078C90.6639 17.4567 90.7012 17.6558 90.7759 17.8051C90.863 17.942 91.0621 18.0976 91.3732 18.2718C91.4728 18.3216 91.6221 18.3901 91.8212 18.4771C92.0328 18.5518 92.2879 18.6451 92.5865 18.7571C93.1839 18.9563 93.719 19.3109 94.1919 19.8211C94.6648 20.3314 94.9012 21.0033 94.9012 21.8371V22.8451C94.9012 23.2807 94.8577 23.6478 94.7706 23.9465C94.6959 24.2451 94.4408 24.6807 94.0052 25.2531C93.5697 25.8007 92.8417 26.0745 91.8212 26.0745C90.7386 26.0745 89.9546 25.726 89.4692 25.0291C88.9839 24.3198 88.7412 23.5918 88.7412 22.8451V22.3971H90.5519V22.8451Z" fill="white"/>
<path d="M95.8838 25.9625V13.4558H97.6571V25.9625H95.8838Z" fill="white"/>
<path d="M101.868 13.4558C102.254 13.4558 102.615 13.5367 102.951 13.6985C103.324 13.8727 103.704 14.1527 104.09 14.5385C104.5 14.9367 104.706 15.5589 104.706 16.4051V17.3571C104.706 18.3153 104.326 18.9874 103.567 19.3731C104.326 19.8211 104.706 20.518 104.706 21.4638V22.9198C104.706 23.8034 104.419 24.5313 103.847 25.1038C103.287 25.6762 102.565 25.9625 101.682 25.9625H98.9189V13.4558H101.868ZM102.932 17.1705V16.4051C102.932 16.0193 102.82 15.7144 102.596 15.4904C102.372 15.254 102.074 15.1358 101.7 15.1358H100.692V18.5891H101.756C102.167 18.5891 102.466 18.4647 102.652 18.2158C102.839 17.9545 102.932 17.606 102.932 17.1705ZM102.932 22.9198V21.4638C102.932 21.0656 102.82 20.7545 102.596 20.5305C102.385 20.294 102.086 20.1758 101.7 20.1758H100.692V24.1891H101.719C102.08 24.1891 102.372 24.0709 102.596 23.8345C102.82 23.5856 102.932 23.2807 102.932 22.9198Z" fill="white"/>
<path d="M110.969 25.9625H105.63V13.4558H107.422V24.1705H110.969V25.9625Z" fill="white"/>
<path d="M116.822 24.1705V25.9625H111.465V13.4558H116.822V15.0984H113.238V18.7945H116.374V20.4931H113.238V24.1705H116.822Z" fill="white"/>
<path d="M54.1364 40.0548C54.1364 40.453 54.1114 40.7952 54.0616 41.0815C54.0243 41.3677 53.8999 41.6788 53.6884 42.0148C53.5764 42.189 53.4332 42.357 53.259 42.5188C53.0972 42.6681 52.9105 42.805 52.699 42.9294C52.4999 43.0414 52.2821 43.1348 52.0457 43.2094C51.8092 43.2841 51.579 43.3214 51.355 43.3214C50.795 43.3214 50.2848 43.2032 49.8243 42.9668C49.3763 42.7303 49.0466 42.4317 48.835 42.0708C48.6235 41.7099 48.4865 41.3739 48.4243 41.0628C48.3745 40.7517 48.3496 40.4157 48.3496 40.0548V33.6148C48.3496 33.2663 48.3807 32.9552 48.4429 32.6814C48.5176 32.3952 48.6669 32.0903 48.8909 31.7668C49.1149 31.4432 49.4323 31.1694 49.843 30.9454C50.2536 30.709 50.6829 30.5908 51.1309 30.5908C51.9896 30.5908 52.7051 30.877 53.2776 31.4494C53.85 32.0094 54.1363 32.7312 54.1363 33.6148V34.2868H52.3629V33.6148C52.3629 33.2663 52.2634 32.9739 52.0643 32.7374C51.8776 32.501 51.5976 32.3828 51.2243 32.3828C50.8759 32.3828 50.6021 32.501 50.403 32.7374C50.2163 32.9739 50.1229 33.2663 50.1229 33.6148V40.5401C50.1478 40.7268 50.2349 40.9383 50.3843 41.1748C50.5585 41.4237 50.8447 41.5481 51.2429 41.5481C51.666 41.5481 51.9461 41.4361 52.0829 41.2121C52.2198 40.9881 52.3007 40.8263 52.3256 40.7268C52.3505 40.6148 52.3629 40.4654 52.3629 40.2788V39.6441H54.1362L54.1364 40.0548Z" fill="white"/>
<path d="M56.0902 31.8788C56.3764 31.4806 56.7373 31.1694 57.1729 30.9454C57.6209 30.709 58.0813 30.5908 58.5542 30.5908C59.0146 30.5908 59.444 30.6841 59.8422 30.8708C60.2529 31.0574 60.5951 31.3125 60.8688 31.6361C61.1426 31.9597 61.3293 32.2957 61.4288 32.6441C61.5284 32.9801 61.5782 33.3472 61.5782 33.7455V40.1108C61.5782 40.4841 61.5409 40.8139 61.4662 41.1001C61.404 41.3863 61.2547 41.7037 61.0182 42.0521C60.7942 42.4006 60.4644 42.6992 60.0289 42.9481C59.6058 43.197 59.1328 43.3214 58.6102 43.3214C58.3115 43.3214 58.0253 43.2841 57.7515 43.2094C57.4777 43.1223 57.2226 43.0103 56.9862 42.8734C56.7498 42.7366 56.5382 42.581 56.3515 42.4068C56.1773 42.2325 56.0404 42.0521 55.9409 41.8654C55.7542 41.4797 55.6422 41.1685 55.6049 40.9321C55.5675 40.6957 55.5488 40.4219 55.5488 40.1108V33.7455C55.5488 33.3721 55.5862 33.0423 55.6609 32.7561C55.748 32.4574 55.8911 32.165 56.0902 31.8788ZM59.5622 32.8681C59.3257 32.5197 59.0022 32.3454 58.5916 32.3454C58.38 32.3454 58.1684 32.4077 57.9568 32.5321C57.7577 32.6441 57.6146 32.7748 57.5275 32.9241C57.4529 33.0734 57.4031 33.2228 57.3782 33.3721C57.3533 33.5214 57.3409 33.6459 57.3409 33.7455V40.1108C57.3409 40.173 57.3409 40.2414 57.3409 40.3161C57.3409 40.3783 57.3472 40.4468 57.3596 40.5215C57.3721 40.6459 57.4716 40.8512 57.6583 41.1375C57.8449 41.3988 58.1561 41.5294 58.5916 41.5294C58.8156 41.5294 59.0147 41.4796 59.1889 41.3801C59.3756 41.2681 59.5063 41.1437 59.5809 41.0068C59.668 40.8574 59.724 40.7205 59.7489 40.5961C59.7738 40.4717 59.7863 40.3099 59.7863 40.1108V33.7455C59.7863 33.4966 59.7738 33.3223 59.7489 33.2228C59.7364 33.1232 59.6742 33.005 59.5622 32.8681Z" fill="white"/>
<path d="M67.3477 43.2094L64.5664 35.6121V43.2094H62.7744V30.7028H64.4731L67.2357 38.2814V30.7028H69.0277V43.2094H67.3477Z" fill="white"/>
<path d="M71.2775 40.0921C71.2775 40.2165 71.2775 40.3223 71.2775 40.4095C71.2775 40.4966 71.2837 40.5712 71.2962 40.6335C71.3211 40.7579 71.4144 40.9383 71.5762 41.1748C71.7504 41.4237 72.0615 41.5481 72.5095 41.5481C72.7584 41.5481 72.9886 41.4983 73.2002 41.3988C73.4117 41.2868 73.5673 41.1437 73.6669 40.9695C73.7415 40.8326 73.7851 40.7019 73.7975 40.5775C73.8224 40.453 73.8348 40.341 73.8348 40.2415V40.0734V39.1961V39.0281C73.8348 38.7543 73.785 38.5428 73.6855 38.3934C73.5859 38.2317 73.3619 38.0512 73.0135 37.8521C72.777 37.7277 72.3539 37.5534 71.7441 37.3294C71.1344 37.1054 70.6242 36.7508 70.2135 36.2654C69.8028 35.7801 69.5975 35.1206 69.5975 34.2868V33.7268C69.5975 32.8681 69.8837 32.1339 70.4562 31.5241C71.0411 30.9019 71.7504 30.5908 72.5842 30.5908C73.4553 30.5908 74.1771 30.8957 74.7495 31.5054C75.3344 32.1152 75.6268 32.8557 75.6268 33.7268V34.2868H73.8348V33.7268C73.8348 33.6397 73.8286 33.5588 73.8161 33.4841C73.8161 33.4094 73.8099 33.341 73.7974 33.2788C73.785 33.2166 73.7538 33.1419 73.7041 33.0548C73.6543 32.9677 73.5859 32.8619 73.4988 32.7374C73.3246 32.4885 73.0321 32.3641 72.6215 32.3641C72.2606 32.3641 71.9619 32.4948 71.7255 32.7561C71.5015 33.0174 71.3895 33.341 71.3895 33.7268V34.2868V34.4548C71.3895 34.7037 71.4268 34.9028 71.5015 35.0521C71.5886 35.189 71.7877 35.3445 72.0988 35.5188C72.1984 35.5686 72.3477 35.637 72.5468 35.7241C72.7584 35.7988 73.0135 35.8921 73.3121 36.0041C73.9095 36.2032 74.4446 36.5579 74.9175 37.0681C75.3904 37.5783 75.6268 38.2503 75.6268 39.0841V40.0921C75.6268 40.5277 75.5833 40.8948 75.4962 41.1935C75.4215 41.4921 75.1663 41.9277 74.7308 42.5001C74.2952 43.0477 73.5673 43.3214 72.5468 43.3214C71.4641 43.3214 70.6802 42.973 70.1948 42.2761C69.7095 41.5668 69.4668 40.8388 69.4668 40.0921V39.6441H71.2775L71.2775 40.0921Z" fill="white"/>
<path d="M81.8519 41.9028C81.5781 42.3259 81.2234 42.6681 80.7878 42.9294C80.3647 43.1908 79.8918 43.3214 79.3691 43.3214C79.1078 43.3214 78.8465 43.2841 78.5851 43.2094C78.3363 43.1348 78.0999 43.0414 77.8759 42.9294C77.6519 42.805 77.4527 42.6681 77.2785 42.5188C77.1043 42.357 76.9736 42.189 76.8865 42.0148C76.6999 41.6663 76.5754 41.3614 76.5132 41.1001C76.4634 40.8388 76.4385 40.5588 76.4385 40.2601V30.7028H78.2305V40.2601C78.2305 40.3472 78.2305 40.4281 78.2305 40.5028C78.2429 40.565 78.2554 40.6272 78.2678 40.6895C78.2802 40.789 78.3736 40.9632 78.5478 41.2121C78.7096 41.4361 78.9895 41.5481 79.3878 41.5481C79.7486 41.5481 80.0162 41.4174 80.1904 41.1561C80.3771 40.8823 80.4705 40.5837 80.4705 40.2601V30.7028H82.2625V40.2601C82.2625 40.5588 82.2313 40.845 82.1691 41.1188C82.1069 41.3926 82.0012 41.6539 81.8519 41.9028Z" fill="white"/>
<path d="M89.1391 43.2094V35.5934L87.3471 40.9321H86.4511L84.6777 35.5934V43.2094H82.8857V30.7028H84.5657L86.9364 37.3668L89.2698 30.7028H90.9124V43.2094H89.1391Z" fill="white"/>
<path d="M92.1553 43.2094V30.7028H95.0859H95.1232C95.4966 30.7028 95.8513 30.7837 96.1873 30.9454C96.5233 31.0948 96.8219 31.2939 97.0833 31.5428C97.3446 31.7916 97.5499 32.0779 97.6993 32.4014C97.8611 32.7125 97.9481 33.0361 97.9606 33.3721V35.1828V35.3694C97.9606 35.7801 97.8797 36.1659 97.7179 36.5268C97.5686 36.8752 97.3633 37.1801 97.1019 37.4414C96.8406 37.7028 96.5295 37.9081 96.1686 38.0574C95.8201 38.2068 95.4468 38.2814 95.0486 38.2814H94.8806H93.9473V43.2094H92.1553ZM95.9446 36.2281C96.0566 36.1161 96.1251 35.9979 96.15 35.8734C96.1873 35.749 96.2059 35.5934 96.2059 35.4068V33.5588C96.2059 33.2103 96.1002 32.9241 95.8886 32.7001C95.6771 32.4637 95.3909 32.3454 95.03 32.3454H93.9473V36.5828H94.8806C95.1295 36.5828 95.3286 36.5641 95.478 36.5268C95.6397 36.477 95.7953 36.3774 95.9446 36.2281Z" fill="white"/>
<path d="M100.409 43.2094V32.3641H98.2998V30.7028H104.329V32.3641H102.182V43.2094H100.409Z" fill="white"/>
<path d="M104.973 43.2094V30.7028H106.746V43.2094H104.973Z" fill="white"/>
<path d="M108.589 31.8788C108.875 31.4806 109.236 31.1694 109.672 30.9454C110.12 30.709 110.58 30.5908 111.053 30.5908C111.514 30.5908 111.943 30.6841 112.341 30.8708C112.752 31.0574 113.094 31.3125 113.368 31.6361C113.642 31.9597 113.828 32.2957 113.928 32.6441C114.027 32.9801 114.077 33.3472 114.077 33.7455V40.1108C114.077 40.4841 114.04 40.8139 113.965 41.1001C113.903 41.3863 113.754 41.7037 113.517 42.0521C113.293 42.4006 112.963 42.6992 112.528 42.9481C112.105 43.197 111.632 43.3214 111.109 43.3214C110.811 43.3214 110.524 43.2841 110.251 43.2094C109.977 43.1223 109.722 43.0103 109.485 42.8734C109.249 42.7366 109.037 42.581 108.851 42.4068C108.676 42.2325 108.539 42.0521 108.44 41.8654C108.253 41.4797 108.141 41.1685 108.104 40.9321C108.067 40.6957 108.048 40.4219 108.048 40.1108V33.7455C108.048 33.3721 108.085 33.0423 108.16 32.7561C108.247 32.4574 108.39 32.165 108.589 31.8788ZM112.061 32.8681C111.825 32.5197 111.501 32.3454 111.091 32.3454C110.879 32.3454 110.667 32.4077 110.456 32.5321C110.257 32.6441 110.114 32.7748 110.027 32.9241C109.952 33.0734 109.902 33.2228 109.877 33.3721C109.852 33.5214 109.84 33.6459 109.84 33.7455V40.1108C109.84 40.173 109.84 40.2414 109.84 40.3161C109.84 40.3783 109.846 40.4468 109.859 40.5215C109.871 40.6459 109.971 40.8512 110.157 41.1375C110.344 41.3988 110.655 41.5294 111.091 41.5294C111.315 41.5294 111.514 41.4796 111.688 41.3801C111.875 41.2681 112.005 41.1437 112.08 41.0068C112.167 40.8574 112.223 40.7205 112.248 40.5961C112.273 40.4717 112.285 40.3099 112.285 40.1108V33.7455C112.285 33.4966 112.273 33.3223 112.248 33.2228C112.235 33.1232 112.173 33.005 112.061 32.8681Z" fill="white"/>
<path d="M120.017 43.2094L117.235 35.6121V43.2094H115.443V30.7028H117.142L119.905 38.2814V30.7028H121.697V43.2094H120.017Z" fill="white"/>
<path d="M47.7656 60.4564L50.5656 47.9497H52.115L54.915 60.4564H52.9923L52.4883 57.7684H50.1736L49.6509 60.4564H47.7656ZM50.491 56.1071H52.171L51.331 51.5524L50.491 56.1071Z" fill="white"/>
<path d="M60.3145 60.4564L57.5332 52.8591V60.4564H55.7412V47.9497H57.4399L60.2025 55.5284V47.9497H61.9945V60.4564H60.3145Z" fill="white"/>
<path d="M65.8422 47.9497C66.6511 47.9497 67.3418 48.236 67.9142 48.8084C68.4991 49.3684 68.7916 50.0529 68.7916 50.8618V57.3578C68.7916 58.2786 68.5115 59.0253 67.9515 59.5977C67.3915 60.1702 66.6698 60.4564 65.7863 60.4564H63.0049V47.9497H65.8422ZM67.0182 57.3578V50.8618C67.0182 50.5133 66.8876 50.2208 66.6262 49.9844C66.3773 49.748 66.0724 49.6298 65.7115 49.6298H64.7783V58.7951H65.6556C66.564 58.7951 67.0182 58.316 67.0182 57.3578Z" fill="white"/>
<path d="M71.7695 60.4564V47.9497H74.7002H74.7375C75.1108 47.9497 75.4655 48.0306 75.8015 48.1924C76.1375 48.3417 76.4362 48.5409 76.6975 48.7898C76.9588 49.0387 77.1641 49.3248 77.3135 49.6484C77.4753 49.9595 77.5624 50.2831 77.5748 50.6191V52.4297V52.6164C77.5748 53.0271 77.4939 53.4129 77.3322 53.7737C77.1828 54.1222 76.9775 54.4271 76.7161 54.6884C76.4548 54.9497 76.1437 55.1551 75.7828 55.3044C75.4344 55.4537 75.0611 55.5284 74.6628 55.5284H74.4948H73.5615V60.4564H71.7695ZM75.5588 53.4751C75.6708 53.3631 75.7393 53.2449 75.7642 53.1204C75.8015 52.996 75.8202 52.8404 75.8202 52.6537V50.8058C75.8202 50.4573 75.7144 50.1711 75.5029 49.9471C75.2913 49.7106 75.0051 49.5924 74.6442 49.5924H73.5615V53.8297H74.4949C74.7438 53.8297 74.9428 53.8111 75.0922 53.7737C75.2539 53.7239 75.4095 53.6244 75.5588 53.4751Z" fill="white"/>
<path d="M78.6523 60.4564V47.9497H81.7884C82.6097 47.9497 83.3004 48.236 83.8604 48.8084C84.4328 49.3809 84.7191 50.084 84.7191 50.9178V52.0751C84.7191 53.2324 84.2275 54.116 83.2444 54.7257L85.1484 60.4564H83.2444L81.5644 55.0991H80.4443V60.4564H78.6523ZM82.6284 53.1204C82.7404 52.9835 82.815 52.828 82.8524 52.6537C82.9022 52.4795 82.9271 52.2866 82.9271 52.0751V50.9178C82.9271 50.532 82.8213 50.2208 82.6097 49.9844C82.3982 49.7355 82.0995 49.6111 81.7137 49.6111H80.4444V53.5124H81.6951C82.0684 53.5124 82.3795 53.3818 82.6284 53.1204Z" fill="white"/>
<path d="M86.0423 49.1258C86.3285 48.7275 86.6894 48.4164 87.1249 48.1924C87.5729 47.956 88.0334 47.8377 88.5063 47.8377C88.9667 47.8377 89.3961 47.9311 89.7943 48.1177C90.205 48.3044 90.5472 48.5595 90.821 48.8831C91.0948 49.2066 91.2814 49.5426 91.381 49.8911C91.4805 50.2271 91.5303 50.5942 91.5303 50.9924V57.3578C91.5303 57.7311 91.4929 58.0609 91.4183 58.3471C91.3561 58.6333 91.2067 58.9506 90.9703 59.2991C90.7463 59.6475 90.4165 59.9462 89.981 60.1951C89.5579 60.444 89.085 60.5684 88.5623 60.5684C88.2637 60.5684 87.9774 60.5311 87.7036 60.4564C87.4298 60.3693 87.1747 60.2573 86.9383 60.1204C86.7018 59.9835 86.4903 59.828 86.3036 59.6537C86.1294 59.4795 85.9925 59.2991 85.8929 59.1124C85.7063 58.7266 85.5943 58.4155 85.5569 58.1791C85.5196 57.9426 85.501 57.6689 85.501 57.3578V50.9924C85.501 50.6191 85.5383 50.2893 85.613 50.0031C85.7001 49.7044 85.8432 49.412 86.0423 49.1258ZM89.5143 50.1151C89.2778 49.7666 88.9543 49.5924 88.5436 49.5924C88.3321 49.5924 88.1205 49.6546 87.9089 49.7791C87.7098 49.8911 87.5667 50.0217 87.4796 50.1711C87.4049 50.3204 87.3552 50.4697 87.3303 50.6191C87.3055 50.7684 87.293 50.8929 87.293 50.9924V57.3578C87.293 57.42 87.293 57.4884 87.293 57.5631C87.293 57.6253 87.2992 57.6937 87.3117 57.7684C87.3242 57.8929 87.4237 58.0982 87.6104 58.3844C87.797 58.6458 88.1081 58.7764 88.5437 58.7764C88.7677 58.7764 88.9668 58.7266 89.1411 58.6271C89.3277 58.5151 89.4584 58.3906 89.533 58.2538C89.6201 58.1044 89.6762 57.9675 89.701 57.8431C89.7259 57.7186 89.7383 57.5569 89.7383 57.3578V50.9924C89.7383 50.7435 89.7259 50.5693 89.701 50.4698C89.6886 50.3702 89.6263 50.252 89.5143 50.1151Z" fill="white"/>
<path d="M95.5629 47.9497C96.3718 47.9497 97.0625 48.236 97.6349 48.8084C98.2198 49.3684 98.5123 50.0529 98.5123 50.8618V57.3578C98.5123 58.2786 98.2322 59.0253 97.6722 59.5977C97.1122 60.1702 96.3905 60.4564 95.5069 60.4564H92.7256V47.9497H95.5629ZM96.739 57.3578V50.8618C96.739 50.5133 96.6083 50.2208 96.3469 49.9844C96.098 49.748 95.7931 49.6298 95.4323 49.6298H94.4989V58.7951H95.3763C96.2847 58.7951 96.739 58.316 96.739 57.3578Z" fill="white"/>
<path d="M105.38 59.1497C105.106 59.5729 104.752 59.9151 104.316 60.1764C103.893 60.4378 103.42 60.5684 102.898 60.5684C102.636 60.5684 102.375 60.5311 102.114 60.4564C101.865 60.3818 101.628 60.2884 101.404 60.1764C101.18 60.052 100.981 59.9151 100.807 59.7657C100.633 59.604 100.502 59.436 100.415 59.2617C100.228 58.9133 100.104 58.6084 100.042 58.3471C99.9917 58.0857 99.9668 57.8057 99.9668 57.5071V47.9497H101.759V57.5071C101.759 57.5942 101.759 57.6751 101.759 57.7498C101.771 57.812 101.784 57.8742 101.796 57.9364C101.809 58.036 101.902 58.2102 102.076 58.4591C102.238 58.6831 102.518 58.7951 102.916 58.7951C103.277 58.7951 103.545 58.6644 103.719 58.4031C103.905 58.1293 103.999 57.8306 103.999 57.5071V47.9497H105.791V57.5071C105.791 57.8057 105.76 58.092 105.697 58.3658C105.635 58.6395 105.53 58.9009 105.38 59.1497Z" fill="white"/>
<path d="M112.944 57.3018C112.944 57.7 112.919 58.0422 112.869 58.3284C112.832 58.6146 112.707 58.9257 112.496 59.2617C112.384 59.436 112.241 59.604 112.067 59.7657C111.905 59.9151 111.718 60.052 111.507 60.1764C111.307 60.2884 111.09 60.3818 110.853 60.4564C110.617 60.5311 110.387 60.5684 110.163 60.5684C109.603 60.5684 109.092 60.4502 108.632 60.2137C108.184 59.9773 107.854 59.6786 107.643 59.3177C107.431 58.9569 107.294 58.6209 107.232 58.3098C107.182 57.9986 107.157 57.6626 107.157 57.3018V50.8618C107.157 50.5133 107.188 50.2022 107.25 49.9284C107.325 49.6422 107.474 49.3373 107.698 49.0138C107.922 48.6902 108.24 48.4164 108.651 48.1924C109.061 47.956 109.491 47.8377 109.939 47.8377C110.797 47.8377 111.513 48.124 112.085 48.6964C112.658 49.2564 112.944 49.9782 112.944 50.8618V51.5338H111.171V50.8618C111.171 50.5133 111.071 50.2208 110.872 49.9844C110.685 49.748 110.405 49.6298 110.032 49.6298C109.683 49.6298 109.41 49.748 109.211 49.9844C109.024 50.2208 108.93 50.5133 108.93 50.8618V57.7871C108.955 57.9737 109.042 58.1853 109.192 58.4218C109.366 58.6706 109.652 58.7951 110.051 58.7951C110.474 58.7951 110.754 58.6831 110.891 58.4591C111.027 58.2351 111.108 58.0733 111.133 57.9738C111.158 57.8618 111.17 57.7124 111.17 57.5258V56.8911H112.944L112.944 57.3018Z" fill="white"/>
<path d="M115.327 60.4564V49.6111H113.218V47.9497H119.247V49.6111H117.1V60.4564H115.327Z" fill="white"/>
<path d="M119.976 60.4564V47.9497H121.749V60.4564H119.976Z" fill="white"/>
<path d="M123.422 49.1258C123.708 48.7275 124.069 48.4164 124.505 48.1924C124.953 47.956 125.413 47.8377 125.886 47.8377C126.347 47.8377 126.776 47.9311 127.174 48.1177C127.585 48.3044 127.927 48.5595 128.201 48.8831C128.475 49.2066 128.661 49.5426 128.761 49.8911C128.86 50.2271 128.91 50.5942 128.91 50.9924V57.3578C128.91 57.7311 128.873 58.0609 128.798 58.3471C128.736 58.6333 128.587 58.9506 128.35 59.2991C128.126 59.6475 127.796 59.9462 127.361 60.1951C126.938 60.444 126.465 60.5684 125.942 60.5684C125.644 60.5684 125.357 60.5311 125.083 60.4564C124.81 60.3693 124.555 60.2573 124.318 60.1204C124.082 59.9835 123.87 59.828 123.684 59.6537C123.509 59.4795 123.372 59.2991 123.273 59.1124C123.086 58.7266 122.974 58.4155 122.937 58.1791C122.899 57.9426 122.881 57.6689 122.881 57.3578V50.9924C122.881 50.6191 122.918 50.2893 122.993 50.0031C123.08 49.7044 123.223 49.412 123.422 49.1258ZM126.894 50.1151C126.658 49.7666 126.334 49.5924 125.924 49.5924C125.712 49.5924 125.5 49.6546 125.289 49.7791C125.09 49.8911 124.947 50.0217 124.859 50.1711C124.785 50.3204 124.735 50.4697 124.71 50.6191C124.685 50.7684 124.673 50.8929 124.673 50.9924V57.3578C124.673 57.42 124.673 57.4884 124.673 57.5631C124.673 57.6253 124.679 57.6937 124.692 57.7684C124.704 57.8929 124.804 58.0982 124.99 58.3844C125.177 58.6458 125.488 58.7764 125.924 58.7764C126.148 58.7764 126.347 58.7266 126.521 58.6271C126.708 58.5151 126.838 58.3906 126.913 58.2538C127 58.1044 127.056 57.9675 127.081 57.8431C127.106 57.7186 127.118 57.5569 127.118 57.3578V50.9924C127.118 50.7435 127.106 50.5693 127.081 50.4698C127.068 50.3702 127.006 50.252 126.894 50.1151Z" fill="white"/>
<path d="M134.679 60.4564L131.897 52.8591V60.4564H130.105V47.9497H131.804L134.567 55.5284V47.9497H136.359V60.4564H134.679Z" fill="white"/>
<path d="M16.082 42.9819V17.5219L11.7939 20.7379V16.1819L16.082 13.0552H20.3253V42.9819H16.082Z" fill="white"/>
<path d="M36.6416 42.9819H23.9116V39.0512L31.8622 23.5966C32.2196 22.8819 32.3983 22.1523 32.3983 21.4079V19.1746C32.3983 18.579 32.1898 18.0728 31.7729 17.6559C31.3561 17.2092 30.8498 16.9859 30.2543 16.9859C29.7183 16.9859 29.2269 17.1794 28.7803 17.5666C28.3634 17.9537 28.1549 18.4301 28.1549 18.9959V21.6312H23.8223V19.4872C23.8223 18.3259 24.2541 16.9115 25.1176 15.2439C26.0109 13.6061 27.7976 12.7872 30.4776 12.7872C32.1749 12.7872 33.6191 13.4274 34.8102 14.7079C36.0311 16.0181 36.6416 17.507 36.6416 19.1746V21.8992C36.6416 23.1201 36.314 24.341 35.6589 25.5619L28.9589 38.7386H36.6416V42.9819Z" fill="white"/>
<path d="M76.8596 84.3324C80.2865 80.3193 87.2449 72.6035 97.971 72.6035C103.048 72.6035 108.658 74.2145 113.106 78.2012C117.553 82.1879 120.578 88.5544 120.578 97.041C120.578 102.687 118.79 108.242 115.27 112.525C111.75 116.809 106.349 119.723 99.9026 119.723C93.6757 119.723 88.0539 117.695 83.3108 113.9C78.5678 110.106 74.6466 104.676 71.0432 97.7773C69.3463 94.5285 66.8325 89.8416 63.3284 86.0977C59.8243 82.3537 55.6097 79.6445 49.9397 79.6445C46.0374 79.6445 42.3099 80.8348 39.5706 83.4062C36.8313 85.9777 34.8251 90.0244 34.7952 96.7051C34.749 107.033 41.5337 112.607 50.01 112.607C53.5999 112.607 56.4883 111.224 58.1299 110.204L55.8729 108.198C55.4132 107.789 55.5684 107.035 56.1524 106.841L69.3687 102.451C69.9537 102.256 70.5292 102.769 70.4043 103.372L67.5969 117.013C67.4718 117.615 66.7417 117.857 66.2819 117.448L63.4343 114.917C61.5709 116.327 56.6339 119.508 50.01 119.508C38.1853 119.508 27.8358 110.304 27.8968 96.6738C27.9331 88.5517 30.6132 82.3502 34.8479 78.375C39.0827 74.3998 44.6181 72.7441 49.9397 72.7441C57.8837 72.7441 64.0441 76.7656 68.3655 81.3828C72.6626 85.9739 75.4163 91.2463 77.1294 94.5264L77.1585 94.582C80.4928 100.966 83.9569 105.582 87.6214 108.514C91.2859 111.445 95.0952 112.822 99.9026 112.822C104.362 112.822 107.574 111.024 109.94 108.145C112.306 105.265 113.678 101.205 113.678 97.041C113.678 90.119 111.462 85.9929 108.5 83.3379C105.538 80.6829 101.569 79.5039 97.971 79.5039C87.7695 79.5039 80.9495 90.5742 80.9495 90.5742C79.4823 89.7658 76.8596 84.3324 76.8596 84.3324Z" fill="white"/>
</svg>
