<svg viewBox="0 0 150 149" fill="none" xmlns="http://www.w3.org/2000/svg">
<path fill-rule="evenodd" clip-rule="evenodd" d="M1.7457 0.039917H148.185C148.643 0.039917 149.012 0.408679 149.012 0.866699V147.548C149.012 148.006 148.643 148.375 148.185 148.375H1.7457C1.28768 148.375 0.918945 148.006 0.918945 147.548V0.866699C0.918945 0.408679 1.28768 0.039917 1.7457 0.039917Z" fill="#48773E"/>
<path d="M52.8453 22.4255C52.8453 22.8237 52.8204 23.1659 52.7706 23.4521C52.7333 23.7384 52.6088 24.0495 52.3973 24.3855C52.2853 24.5597 52.1422 24.7277 51.9679 24.8895C51.8062 25.0388 51.6195 25.1757 51.4079 25.3001C51.2088 25.4121 50.991 25.5055 50.7546 25.5801C50.5182 25.6548 50.2879 25.6921 50.0639 25.6921C49.5039 25.6921 48.9937 25.5739 48.5333 25.3375C48.0853 25.101 47.7555 24.8024 47.5439 24.4415C47.3324 24.0806 47.1955 23.7446 47.1333 23.4335C47.0835 23.1224 47.0586 22.7864 47.0586 22.4255V15.9855C47.0586 15.637 47.0897 15.3259 47.1519 15.0521C47.2266 14.7659 47.3759 14.461 47.5999 14.1375C47.8239 13.8139 48.1413 13.5402 48.5519 13.3162C48.9626 13.0797 49.3919 12.9615 49.8399 12.9615C50.6986 12.9615 51.4142 13.2477 51.9866 13.8201C52.559 14.3801 52.8453 15.1019 52.8453 15.9855V16.6575H51.0719V15.9855C51.0719 15.637 50.9724 15.3446 50.7733 15.1082C50.5866 14.8717 50.3066 14.7535 49.9333 14.7535C49.5848 14.7535 49.311 14.8717 49.1119 15.1082C48.9253 15.3446 48.8319 15.637 48.8319 15.9855V22.9108C48.8568 23.0975 48.9439 23.309 49.0933 23.5455C49.2675 23.7944 49.5537 23.9188 49.9519 23.9188C50.375 23.9188 50.655 23.8068 50.7919 23.5828C50.9288 23.3588 51.0097 23.197 51.0346 23.0975C51.0595 22.9855 51.0719 22.8361 51.0719 22.6495V22.0148H52.8453L52.8453 22.4255Z" fill="white"/>
<path d="M59.4471 25.5801H54.1084V13.0735H55.9004V23.7881H59.4471V25.5801Z" fill="white"/>
<path d="M59.8584 25.5801V13.0735H61.6317V25.5801H59.8584Z" fill="white"/>
<path d="M69.4457 25.5801V17.9641L67.6537 23.3028H66.7577L64.9844 17.9641V25.5801H63.1924V13.0735H64.8724L67.243 19.7375L69.5764 13.0735H71.219V25.5801H69.4457Z" fill="white"/>
<path d="M71.5527 25.5801L74.3527 13.0735H75.9021L78.7021 25.5801H76.7794L76.2754 22.8922H73.9607L73.4381 25.5801H71.5527ZM74.2781 21.2308H75.9581L75.1181 16.6761L74.2781 21.2308Z" fill="white"/>
<path d="M80.3251 25.5801V14.7348H78.2158V13.0735H84.2452V14.7348H82.0985V25.5801H80.3251Z" fill="white"/>
<path d="M90.4589 23.7881V25.5801H85.1016V13.0735H90.4589V14.7161H86.8749V18.4122H90.0109V20.1108H86.8749V23.7881H90.4589Z" fill="white"/>
<path d="M46.3037 42.8271L49.1037 30.3204H50.653L53.453 42.8271H51.5304L51.0264 40.1391H48.7117L48.189 42.8271H46.3037ZM49.029 38.4778H50.709L49.869 33.9231L49.029 38.4778Z" fill="white"/>
<path d="M60.0396 39.6724C60.0396 40.0706 60.0147 40.4129 59.9649 40.6991C59.9276 40.9853 59.8032 41.2964 59.5916 41.6324C59.4796 41.8067 59.3365 41.9747 59.1623 42.1365C59.0005 42.2858 58.8138 42.4227 58.6023 42.5471C58.4032 42.6591 58.1854 42.7525 57.9489 42.8271C57.7125 42.9018 57.4823 42.9391 57.2583 42.9391C56.6983 42.9391 56.188 42.8209 55.7276 42.5845C55.2796 42.348 54.9498 42.0494 54.7383 41.6885C54.5267 41.3276 54.3898 40.9915 54.3276 40.6804C54.2778 40.3693 54.2529 40.0333 54.2529 39.6724V33.2324C54.2529 32.884 54.284 32.5729 54.3463 32.2991C54.4209 32.0129 54.5703 31.708 54.7943 31.3845C55.0183 31.0609 55.3356 30.7871 55.7463 30.5631C56.1569 30.3267 56.5863 30.2084 57.0343 30.2084C57.8929 30.2084 58.6085 30.4947 59.1809 31.0671C59.7534 31.6271 60.0396 32.3489 60.0396 33.2324V33.9045H58.2663V33.2324C58.2663 32.884 58.1667 32.5915 57.9676 32.3551C57.7809 32.1187 57.5009 32.0004 57.1276 32.0004C56.7791 32.0004 56.5054 32.1187 56.3063 32.3551C56.1196 32.5915 56.0263 32.884 56.0263 33.2324V40.1578C56.0511 40.3444 56.1382 40.556 56.2876 40.7925C56.4618 41.0414 56.748 41.1658 57.1463 41.1658C57.5694 41.1658 57.8494 41.0538 57.9863 40.8298C58.1231 40.6058 58.204 40.444 58.2289 40.3444C58.2538 40.2324 58.2662 40.0831 58.2662 39.8964V39.2618H60.0396L60.0396 39.6724Z" fill="white"/>
<path d="M63.0214 42.8271V31.9818H60.9121V30.3204H66.9414V31.9818H64.7948V42.8271H63.0214Z" fill="white"/>
<path d="M67.8408 42.8271V30.3204H69.6142V42.8271H67.8408Z" fill="white"/>
<path d="M71.5433 31.4965C71.8295 31.0982 72.1904 30.7871 72.626 30.5631C73.074 30.3267 73.5344 30.2084 74.0073 30.2084C74.4677 30.2084 74.8971 30.3018 75.2953 30.4885C75.7059 30.6751 76.0482 30.9302 76.322 31.2538C76.5957 31.5773 76.7824 31.9133 76.882 32.2618C76.9815 32.5978 77.0313 32.9649 77.0313 33.3631V39.7285C77.0313 40.1018 76.9939 40.4316 76.9193 40.7178C76.8571 41.004 76.7077 41.3214 76.4713 41.6698C76.2473 42.0182 75.9175 42.3169 75.482 42.5658C75.0588 42.8147 74.586 42.9391 74.0633 42.9391C73.7646 42.9391 73.4784 42.9018 73.2046 42.8271C72.9308 42.74 72.6757 42.628 72.4393 42.4911C72.2028 42.3543 71.9913 42.1987 71.8046 42.0245C71.6304 41.8503 71.4935 41.6698 71.394 41.4831C71.2073 41.0973 71.0953 40.7863 71.058 40.5498C71.0206 40.3134 71.002 40.0396 71.002 39.7285V33.3631C71.002 32.9898 71.0393 32.66 71.114 32.3738C71.2011 32.0751 71.3442 31.7827 71.5433 31.4965ZM75.0153 32.4858C74.7788 32.1373 74.4553 31.9631 74.0446 31.9631C73.8331 31.9631 73.6215 32.0253 73.41 32.1498C73.2108 32.2618 73.0677 32.3925 72.9806 32.5418C72.9059 32.6911 72.8562 32.8405 72.8313 32.9898C72.8064 33.1391 72.794 33.2635 72.794 33.3631V39.7285C72.794 39.7907 72.794 39.8591 72.794 39.9338C72.794 39.996 72.8002 40.0644 72.8127 40.1391C72.8251 40.2635 72.9247 40.4689 73.1114 40.7551C73.298 41.0165 73.6091 41.1471 74.0447 41.1471C74.2687 41.1471 74.4678 41.0974 74.642 40.9978C74.8287 40.8858 74.9594 40.7613 75.034 40.6245C75.1211 40.4751 75.1771 40.3383 75.202 40.2138C75.2269 40.0894 75.2393 39.9276 75.2393 39.7285V33.3631C75.2393 33.1142 75.2269 32.94 75.202 32.8405C75.1896 32.7409 75.1273 32.6227 75.0153 32.4858Z" fill="white"/>
<path d="M83.1417 42.8271L80.3604 35.2298V42.8271H78.5684V30.3204H80.267L83.0297 37.8991V30.3204H84.8217V42.8271H83.1417Z" fill="white"/>
<path d="M15.4247 42.9828V17.5228L11.1367 20.7388V16.1829L15.4247 13.0562H19.6681V42.9828H15.4247Z" fill="white"/>
<path d="M35.7317 36.1042V36.6402C35.7317 36.8486 35.7168 37.0869 35.687 37.3549C35.687 37.5931 35.6424 37.9504 35.553 38.4269C35.1361 39.8562 34.347 41.0175 33.1857 41.9108C32.0541 42.8042 30.729 43.2509 29.2104 43.2509C28.0193 43.2509 26.8877 42.8935 25.8157 42.1788C24.7437 41.4344 24.0588 40.7048 23.761 39.9902C23.5824 39.6031 23.4335 39.2606 23.3144 38.9628C23.225 38.6651 23.1506 38.3822 23.091 38.1142C23.0315 37.8462 22.9868 37.5633 22.957 37.2655C22.957 36.9379 22.957 36.5509 22.957 36.1042V34.3622H27.245V36.8188C27.3046 37.206 27.4684 37.6378 27.7364 38.1142C28.0341 38.6502 28.5701 38.9182 29.3444 38.9182C30.1186 38.9182 30.6695 38.6502 30.997 38.1142C31.3246 37.5782 31.4884 36.9082 31.4884 36.1042V31.5035C31.4586 30.9378 31.3395 30.506 31.131 30.2082C30.9524 29.9104 30.729 29.7019 30.461 29.5828C30.193 29.4339 29.9101 29.3595 29.6124 29.3595C29.3146 29.3297 29.0466 29.3148 28.8084 29.3148H28.049V25.5181H28.8084C30.595 25.5181 31.4884 24.6844 31.4884 23.0168V19.4435C31.4884 19.0861 31.4586 18.7884 31.399 18.5502C31.399 18.4608 31.3544 18.3268 31.265 18.1481C31.1757 17.9695 31.0417 17.7908 30.863 17.6121C30.7142 17.4335 30.5206 17.2846 30.2824 17.1655C30.0442 17.0464 29.7613 16.9868 29.4337 16.9868C28.6893 16.9868 28.1384 17.225 27.781 17.7015C27.4237 18.1481 27.245 18.7288 27.245 19.4435V21.6321H22.957V19.4435C22.957 17.5675 23.5675 15.9892 24.7884 14.7088C25.9795 13.4284 27.5279 12.7881 29.4337 12.7881C30.4759 12.7881 31.4735 13.0562 32.4264 13.5922C33.409 14.1282 34.1237 14.7535 34.5704 15.4681C35.0468 16.1828 35.3595 16.8528 35.5084 17.4781C35.6573 18.1035 35.7317 18.7586 35.7317 19.4435V22.9275C35.7317 24.863 34.883 26.337 33.1857 27.3495C34.1386 28.0344 34.7937 28.7193 35.151 29.4042C35.5381 30.0593 35.7317 30.9526 35.7317 32.0842L35.7317 36.1042Z" fill="white"/>
<path d="M77.6934 66.0488C56.1094 65.8474 34.3819 75.6917 21.7324 94.2871C46.2647 130.351 104.942 133.503 130.498 94.2871C118.12 75.292 97.9692 66.238 77.6934 66.0488ZM76.4512 71.4453C77.598 71.4456 78.7228 71.5114 79.2266 71.6445C79.6652 71.7601 80.4731 71.9287 81.0215 72.0176C82.2363 72.2144 84.0236 72.7507 84.7402 73.1347C85.0313 73.2908 85.4207 73.4199 85.6035 73.4199C85.7863 73.4199 86.0699 73.5542 86.2344 73.7187C86.3989 73.8832 86.7065 74.0176 86.918 74.0176C87.1295 74.0176 87.3027 74.1083 87.3027 74.2207C87.3027 74.3331 87.5296 74.5118 87.8066 74.6172C88.0837 74.7225 88.4205 74.903 88.5547 75.0176C88.6889 75.1321 89.2752 75.575 89.8594 76.0019C90.9116 76.7709 93.6836 79.3119 93.6836 79.5078C93.6836 79.5638 94.1314 80.1792 94.6797 80.8769C95.228 81.5747 95.6777 82.2389 95.6777 82.3535C95.6777 82.4681 95.7887 82.6835 95.9258 82.8301C96.6868 83.6439 98.2695 87.799 98.2695 88.9844C98.2695 90.3591 97.0812 90.8107 96.2051 89.7695C94.9193 88.2414 93.6795 89.9119 94.7988 91.664C94.9964 91.9733 94.9998 92.1305 94.8164 92.3691C94.5145 92.7621 92.9817 93.5586 92.5254 93.5586C91.9837 93.5586 91.1587 94.6456 91.0137 95.5527C90.8639 96.4891 91.1505 97.7799 91.5898 98.1445C91.8668 98.3743 92.0217 99.3398 91.7812 99.3398C91.6215 99.3398 90.5043 98.526 89.75 97.8594C89.1557 97.3342 88.8461 96.8021 87.9961 94.8535C87.8526 94.5245 87.6844 94.0249 87.623 93.7422C87.4282 92.8443 86.6209 92.1621 85.7539 92.1621C84.5448 92.1621 84.2299 92.5151 84.1992 93.9062C84.181 94.728 84.0552 95.2575 83.793 95.6172C83.3387 96.2401 83.2934 96.2477 82.7559 95.8008C81.8003 95.0064 81.427 94.7539 81.2051 94.7539C81.0763 94.7539 80.8592 94.6195 80.7227 94.4551C80.5861 94.2905 80.2393 94.151 79.9512 94.1445C78.9115 94.1211 77.6669 93.317 77.1875 92.3594C76.941 91.8669 76.7375 91.3731 76.7363 91.2617C76.7343 91.0835 74.9149 89.7695 74.6699 89.7695C74.6181 89.7695 74.1094 89.4615 73.5391 89.0859C72.3597 88.3092 71.9492 88.3461 71.9492 89.2285C71.9492 89.7339 72.2276 90.1094 73.5312 91.3633C75.2709 93.0364 75.61 93.7242 75.0176 94.3789C74.6731 94.7595 73.5179 95.3515 73.1191 95.3515C73.0215 95.3515 72.2723 94.6724 71.4551 93.8418C70.327 92.6952 69.8596 92.3474 69.5137 92.3965C69.1794 92.4439 69.0402 92.6132 68.9922 93.0332C68.9562 93.3481 69.0242 93.7021 69.1426 93.8203C69.2608 93.9385 69.3574 94.1942 69.3574 94.3867C69.3574 95.0177 71.0705 97.1465 71.5781 97.1465C71.6709 97.1465 71.9771 97.3458 72.2578 97.5898C72.9307 98.1749 72.7831 98.7419 71.666 99.875C70.8301 100.723 70.806 100.783 70.6992 102.342C70.639 103.221 70.5016 104.049 70.3945 104.182C70.2874 104.315 70.1433 104.694 70.0723 105.023C70.0013 105.352 69.6771 105.926 69.3516 106.297C69.0113 106.685 68.7598 107.197 68.7598 107.504C68.7598 107.797 68.6278 108.211 68.4668 108.424C68.3058 108.637 68.1695 108.919 68.166 109.051C68.158 109.358 67.2828 110.307 67.0078 110.307C66.8925 110.307 66.7638 110.408 66.7227 110.531C66.6814 110.655 66.1971 110.799 65.6465 110.852C64.7391 110.939 64.6153 110.901 64.3105 110.436V110.434C64.0838 110.088 63.9727 109.506 63.9727 108.648C63.9727 107.574 63.8961 107.286 63.4707 106.797C63.1937 106.478 62.9231 106.016 62.8711 105.77C62.8191 105.523 62.7287 105.09 62.6699 104.809C62.5978 104.463 62.3393 104.205 61.873 104.01C61.4931 103.851 61.1816 103.64 61.1816 103.541C61.1816 103.442 60.8187 102.981 60.375 102.52C59.5979 101.711 59.5339 101.685 58.6445 101.807C58.1367 101.876 57.5737 102.068 57.3926 102.232C57.2114 102.396 56.7561 102.528 56.3809 102.525C55.8018 102.521 55.6458 102.413 55.3496 101.818C55.1577 101.433 55 100.945 55 100.734C55 100.523 54.8734 100.055 54.7188 99.6953C54.3513 98.8395 53.9932 96.512 53.873 94.2051C53.7793 92.404 53.7914 92.3381 54.3887 91.4531C54.7252 90.9545 55 90.4687 55 90.373C55 90.1735 56.3951 89.6576 56.6953 89.7461C56.805 89.7785 57.4024 89.8859 58.0215 89.9863C58.6406 90.0866 59.4018 90.3035 59.7148 90.4668C60.0279 90.6301 60.4195 90.7673 60.584 90.7715C60.7485 90.7755 61.0567 90.9093 61.2695 91.0703C61.4824 91.2313 61.8587 91.3633 62.1055 91.3633C62.3522 91.3633 62.6015 91.4423 62.6602 91.5371C62.7188 91.632 63.0985 91.7623 63.5039 91.8281C64.7942 92.0375 66.556 90.942 66.5625 89.9258C66.5665 89.1679 65.8604 88.5722 64.957 88.5722C64.5465 88.5722 64.1112 88.4404 63.9727 88.2734C63.8361 88.1089 63.4064 87.9746 63.0156 87.9746C62.5713 87.9746 62.1403 87.8189 61.8652 87.5605C61.2827 87.0132 59.7832 86.9361 59.2422 87.4258C59.0305 87.6173 58.6576 87.7754 58.4141 87.7754C58.1705 87.7754 57.7297 87.8986 57.4336 88.0488C57.1375 88.1991 56.4626 88.3839 55.9336 88.4609L54.9707 88.6015L55.0352 88.039C55.0927 87.537 55.1976 87.4629 55.998 87.3515C57.7467 87.1083 58.6835 86.7072 58.7559 86.1719C58.8135 85.7459 59.0229 85.5026 60.0859 84.6269C60.1956 84.5365 60.7658 84.3054 61.3535 84.1133C62.3526 83.7866 62.5065 83.7859 63.7109 84.0879C65.2757 84.4803 65.9863 84.3506 66.8555 83.5176C67.2162 83.1718 67.7469 82.6874 68.0352 82.4414C68.6378 81.927 68.677 81.7404 68.2578 81.3926C67.7545 80.9748 66.5731 81.2967 65.8984 82.0351C65.3831 82.5992 65.1727 82.6874 64.3867 82.6758C63.2907 82.6596 61.8271 82.0561 61.668 81.5547C61.3852 80.6639 62.9804 79.8989 65.4883 79.7226C66.5606 79.6472 67.5339 79.5093 67.6504 79.414C67.9444 79.1737 70.5564 78.9145 70.5449 79.1269C70.5399 79.222 70.1582 79.4862 69.6973 79.7129C68.9565 80.0772 68.8594 80.204 68.8594 80.8066C68.8594 81.3054 68.9553 81.5079 69.2188 81.5586C69.6406 81.6399 71.1896 80.9524 72.0547 80.3008C72.3872 80.0503 72.8284 79.8115 73.0352 79.7715C73.2419 79.7314 73.4985 79.4363 73.6055 79.1152C73.7807 78.5893 73.7344 78.4716 73.125 77.9336C72.1758 77.0955 71.7535 76.4086 71.752 75.6992C71.749 74.4496 71.4778 74.3286 68.4258 74.2011C66.909 74.1378 65.8585 74.0698 66.0918 74.0508C66.3251 74.0319 66.6291 73.8813 66.7656 73.7168C66.9021 73.5523 67.1647 73.4179 67.3496 73.4179C67.5345 73.4179 67.8594 73.286 68.0723 73.125C68.2852 72.964 68.6254 72.8296 68.8281 72.8261C69.0309 72.8221 69.4806 72.6884 69.8262 72.5273C70.1718 72.3662 70.9476 72.1464 71.5508 72.039C72.1539 71.9316 73.0514 71.7531 73.5449 71.6426C74.1365 71.51 75.3044 71.4449 76.4512 71.4453ZM60.5273 78.0039C61.253 78.0039 61.1308 78.869 60.3164 79.4902C59.5593 80.0677 58.7891 80.1637 58.7891 79.6816C58.7891 79.1885 60.0162 78.0039 60.5273 78.0039ZM58.6855 81.8164C58.7955 81.8075 58.9042 81.8093 59.0098 81.8242C59.4442 81.8856 59.3526 82.0208 58.0234 83.289C56.4503 84.79 56.1987 84.9629 56.1934 84.5508C56.1924 84.4045 56.394 83.8746 56.6426 83.373C57.074 82.5028 57.916 81.8788 58.6855 81.8164ZM98.1152 91.791C98.2187 91.816 98.3575 91.9285 98.5371 92.1269C98.9952 92.6331 99.0343 97.5449 98.5801 97.5449C98.4221 97.5449 98.2227 97.432 98.1367 97.2949C97.2421 95.8683 96.9936 94.2001 97.5645 93.4453C97.7255 93.2324 97.8598 92.7666 97.8633 92.4101C97.8677 91.9515 97.9428 91.7494 98.1152 91.791ZM81.6191 96.5488C81.7836 96.5488 81.918 96.5838 81.918 96.6269C81.918 96.67 81.7836 96.7572 81.6191 96.8203C81.4546 96.8835 81.3203 96.8465 81.3203 96.7402C81.3203 96.634 81.4546 96.5488 81.6191 96.5488ZM94.168 98.8437C94.2334 98.8339 94.3088 98.8412 94.3867 98.8711C94.5471 98.9326 94.6271 99.062 94.5664 99.1601C94.4372 99.3693 94.2017 99.3931 94.0215 99.2129C93.8623 99.0536 93.9716 98.8732 94.168 98.8437ZM73.2441 100.336C73.4623 100.336 73.3239 101.268 73.0215 101.832C72.845 102.161 72.6286 102.654 72.541 102.928C72.42 103.307 72.3783 103.153 72.3652 102.281C72.3518 101.385 72.4345 101.046 72.7461 100.734C72.9654 100.515 73.1893 100.336 73.2441 100.336ZM96.5859 100.371C96.8134 100.402 96.9949 100.68 97.1895 101.24C97.4287 101.93 97.4231 102.12 97.1484 102.728C96.5781 103.992 96.0546 105.014 95.666 105.621C95.4555 105.95 95.198 106.411 95.0938 106.646C94.9895 106.882 94.8315 107.106 94.7422 107.145C94.6528 107.183 94.3204 107.596 94.0039 108.062C93.6874 108.529 93.3526 108.91 93.2578 108.91C93.1631 108.91 93.084 109.044 93.084 109.209C93.084 109.373 92.9282 109.517 92.7363 109.527C90.6874 109.639 90.3116 109.599 90.2227 109.26C90.1106 108.832 89.4314 108.803 89.0254 109.209C88.8609 109.373 88.4949 109.508 88.2129 109.508C87.7839 109.508 87.7012 109.418 87.7012 108.949C87.7012 108.641 87.5692 108.215 87.4082 108.002C87.2316 107.769 87.1132 107.157 87.1094 106.463C87.1024 105.233 87.5673 104.233 88.5234 103.426C88.9753 103.044 91.4902 102.123 92.0605 102.129C92.7558 102.136 95.4986 101.084 96.1133 100.574C96.2958 100.423 96.4494 100.353 96.5859 100.371ZM88.6113 111.924C88.9027 111.945 89.1081 112.042 89.1797 112.228C89.2489 112.409 89.2819 112.566 89.252 112.578C89.222 112.59 89.0162 112.714 88.7969 112.855C88.5775 112.997 88.1531 113.218 87.8516 113.348C87.55 113.477 87.3027 113.646 87.3027 113.723C87.3027 113.799 87.0402 113.922 86.7188 113.992C86.3973 114.063 86.0272 114.249 85.8965 114.406C85.7658 114.564 85.5294 114.693 85.3711 114.693C85.2128 114.693 84.886 114.801 84.6465 114.936C84.1172 115.232 82.8841 115.605 81.0215 116.029C79.4793 116.381 73.9014 116.578 73.2461 116.305H73.2441C73.0248 116.213 72.3532 116.072 71.75 115.99C70.5663 115.829 70.3621 115.666 70.3574 114.881C70.3544 114.325 71.461 113.098 71.9648 113.098C72.1271 113.098 72.4602 112.957 72.7051 112.785C73.5532 112.191 77.9317 112.593 79.5918 113.416C79.9023 113.57 80.3329 113.695 80.5488 113.695C80.7647 113.695 81.1843 113.819 81.4805 113.969C82.1721 114.319 83.324 114.503 83.7344 114.33C83.9102 114.256 84.4712 113.842 84.9824 113.412C86.0914 112.48 87.7373 111.86 88.6113 111.924Z" fill="white"/>
</svg>
