<svg viewBox="0 0 149 150" fill="none" xmlns="http://www.w3.org/2000/svg">
<path fill-rule="evenodd" clip-rule="evenodd" d="M1.71933 0.934555H148.159C148.617 0.934555 148.985 1.30329 148.985 1.76131V148.442C148.985 148.9 148.617 149.269 148.159 149.269H1.71933C1.2613 149.269 0.892578 148.9 0.892578 148.442V1.76131C0.892578 1.30329 1.2613 0.934555 1.71933 0.934555Z" fill="#D3A029"/>
<path d="M43.6611 26.6866V25.0812L47.0211 15.8412H43.9038V14.1799H49.0185V15.6172L45.6771 24.8945H49.0185V26.6866H43.6611Z" fill="white"/>
<path d="M55.8818 24.8945V26.6866H50.5244V14.1799H55.8818V15.8226H52.2978V19.5186H55.4338V21.2172H52.2978V24.8945H55.8818Z" fill="white"/>
<path d="M56.7988 26.6866V14.1799H59.9348C60.7561 14.1799 61.4468 14.4661 62.0068 15.0385C62.5793 15.611 62.8655 16.3141 62.8655 17.1479V18.3052C62.8655 19.4626 62.3739 20.3461 61.3908 20.9559L63.2948 26.6866H61.3908L59.7108 21.3292H58.5908V26.6866H56.7988ZM60.7748 19.3506C60.8868 19.2137 60.9615 19.0581 60.9988 18.8839C61.0486 18.7097 61.0735 18.5168 61.0735 18.3052V17.1479C61.0735 16.7621 60.9678 16.451 60.7562 16.2146C60.5446 15.9657 60.2459 15.8412 59.8602 15.8412H58.5909V19.7426H59.8415C60.2149 19.7426 60.5259 19.6119 60.7748 19.3506Z" fill="white"/>
<path d="M64.4622 15.3559C64.7484 14.9577 65.1093 14.6465 65.5449 14.4225C65.9929 14.1861 66.4533 14.0679 66.9262 14.0679C67.3867 14.0679 67.816 14.1612 68.2142 14.3479C68.6249 14.5346 68.9671 14.7897 69.2409 15.1132C69.5146 15.4368 69.7013 15.7728 69.8009 16.1212C69.9004 16.4572 69.9502 16.8243 69.9502 17.2225V23.5879C69.9502 23.9612 69.9129 24.291 69.8382 24.5772C69.776 24.8634 69.6267 25.1808 69.3902 25.5292C69.1662 25.8777 68.8364 26.1763 68.4009 26.4252C67.9778 26.6741 67.5049 26.7986 66.9822 26.7986C66.6835 26.7986 66.3973 26.7612 66.1235 26.6866C65.8498 26.5994 65.5947 26.4874 65.3582 26.3506C65.1218 26.2137 64.9102 26.0581 64.7235 25.8839C64.5493 25.7097 64.4125 25.5292 64.3129 25.3425C64.1262 24.9568 64.0142 24.6457 63.9769 24.4092C63.9396 24.1728 63.9209 23.899 63.9209 23.5879V17.2225C63.9209 16.8492 63.9582 16.5194 64.0329 16.2332C64.12 15.9345 64.2631 15.6421 64.4622 15.3559ZM67.9342 16.3452C67.6978 15.9968 67.3742 15.8226 66.9635 15.8226C66.752 15.8226 66.5404 15.8848 66.3289 16.0092C66.1298 16.1212 65.9866 16.2519 65.8995 16.4012C65.8249 16.5505 65.7751 16.6999 65.7502 16.8492C65.7253 16.9985 65.7129 17.123 65.7129 17.2225V23.5879C65.7129 23.6501 65.7129 23.7185 65.7129 23.7932C65.7129 23.8554 65.7192 23.9239 65.7316 23.9986C65.7441 24.123 65.8436 24.3283 66.0303 24.6145C66.2169 24.8759 66.5281 25.0065 66.9636 25.0065C67.1876 25.0065 67.3867 24.9568 67.5609 24.8572C67.7476 24.7452 67.8783 24.6208 67.9529 24.4839C68.04 24.3346 68.096 24.1977 68.1209 24.0732C68.1458 23.9488 68.1583 23.787 68.1583 23.5879V17.2225C68.1583 16.9737 68.1458 16.7994 68.1209 16.6999C68.1085 16.6003 68.0462 16.4821 67.9342 16.3452Z" fill="white"/>
<path d="M44.0342 43.9335V31.4268H45.8075V36.7655H48.0848V31.4268H49.8582V43.9335H48.0848V38.3522H45.8075V43.9335H44.0342Z" fill="white"/>
<path d="M57.2132 42.6269C56.9394 43.05 56.5847 43.3922 56.1492 43.6535C55.7261 43.9149 55.2532 44.0455 54.7305 44.0455C54.4692 44.0455 54.2078 44.0082 53.9465 43.9335C53.6976 43.8589 53.4612 43.7655 53.2372 43.6535C53.0132 43.5291 52.8141 43.3922 52.6398 43.2429C52.4656 43.0811 52.3349 42.9131 52.2478 42.7389C52.0612 42.3904 51.9367 42.0855 51.8745 41.8242C51.8247 41.5629 51.7998 41.2829 51.7998 40.9842V31.4268H53.5918V40.9842C53.5918 41.0713 53.5918 41.1522 53.5918 41.2269C53.6043 41.2891 53.6167 41.3513 53.6291 41.4135C53.6416 41.5131 53.7349 41.6873 53.9091 41.9362C54.0709 42.1602 54.3509 42.2722 54.7491 42.2722C55.11 42.2722 55.3775 42.1415 55.5518 41.8802C55.7384 41.6064 55.8318 41.3077 55.8318 40.9842V31.4268H57.6237V40.9842C57.6237 41.2829 57.5927 41.5691 57.5305 41.8429C57.4683 42.1166 57.3625 42.378 57.2132 42.6269Z" fill="white"/>
<path d="M63.3253 43.9335L60.544 36.3362V43.9335H58.752V31.4268H60.4506L63.2133 39.0055V31.4268H65.0053V43.9335H63.3253Z" fill="white"/>
<path d="M71.9114 42.6269C71.6252 43.0749 71.2581 43.4233 70.8101 43.6722C70.3621 43.9211 69.8705 44.0455 69.3354 44.0455C68.8625 44.0455 68.4021 43.9335 67.9541 43.7095C67.5185 43.4855 67.1763 43.2118 66.9274 42.8882C66.691 42.5522 66.5292 42.2162 66.4421 41.8802C66.3674 41.5442 66.3301 41.1646 66.3301 40.7415V34.4882C66.3301 34.1771 66.3612 33.866 66.4234 33.5549C66.5105 33.2438 66.7407 32.802 67.114 32.2295C67.4998 31.6197 68.2589 31.3148 69.3914 31.3148C69.8892 31.3148 70.3558 31.4331 70.7914 31.6695C71.2269 31.906 71.5567 32.1984 71.7807 32.5469C72.0172 32.8829 72.1665 33.2064 72.2287 33.5175C72.3034 33.8162 72.3407 34.1397 72.3407 34.4882V35.0109H70.5674V34.4882C70.5674 34.3886 70.5611 34.3015 70.5487 34.2269C70.5487 34.1398 70.5424 34.0651 70.53 34.0029C70.5175 33.8909 70.4242 33.7104 70.25 33.4615C70.0757 33.2126 69.7833 33.0882 69.3727 33.0882C68.8873 33.0882 68.5638 33.2189 68.402 33.4802C68.2526 33.7415 68.1655 33.9344 68.1407 34.0589C68.1158 34.1833 68.1033 34.3264 68.1033 34.4882V40.7415C68.1033 40.866 68.1033 40.9718 68.1033 41.0589C68.1033 41.146 68.1096 41.2206 68.122 41.2829C68.1345 41.3824 68.2278 41.5753 68.402 41.8615C68.5638 42.1229 68.8811 42.2535 69.354 42.2535C69.8394 42.2535 70.1505 42.1229 70.2874 41.8615C70.3621 41.7247 70.418 41.6127 70.4554 41.5255C70.4927 41.426 70.5176 41.3389 70.5301 41.2642C70.555 41.1895 70.5674 41.1149 70.5674 41.0402C70.5674 40.9531 70.5674 40.8535 70.5674 40.7415V38.5575H69.13V36.9895H72.3407V40.7415C72.3407 41.0028 72.3345 41.2269 72.322 41.4135C72.3096 41.5878 72.2846 41.7433 72.2473 41.8802C72.21 42.0171 72.1602 42.1477 72.098 42.2722C72.0482 42.3842 71.9861 42.5024 71.9114 42.6269Z" fill="white"/>
<path d="M79.0497 42.1415V43.9335H73.6924V31.4268H79.0497V33.0695H75.4657V36.7655H78.6017V38.4642H75.4657V42.1415H79.0497Z" fill="white"/>
<path d="M79.8262 43.9335V31.4268H82.9622C83.7835 31.4268 84.4742 31.7131 85.0342 32.2855C85.6066 32.858 85.8929 33.5611 85.8929 34.3949V35.5522C85.8929 36.7095 85.4013 37.5931 84.4182 38.2029L86.3222 43.9335H84.4182L82.7382 38.5762H81.6182V43.9335H79.8262ZM83.8022 36.5975C83.9142 36.4606 83.9889 36.3051 84.0262 36.1309C84.076 35.9566 84.1009 35.7637 84.1009 35.5522V34.3949C84.1009 34.0091 83.9951 33.698 83.7835 33.4615C83.572 33.2126 83.2733 33.0882 82.8875 33.0882H81.6182V36.9895H82.8689C83.2422 36.9895 83.5533 36.8589 83.8022 36.5975Z" fill="white"/>
<path d="M29.417 43.3642H16.687V39.4335L24.6377 23.9788C24.995 23.2642 25.1737 22.5346 25.1737 21.7902V19.5568C25.1737 18.9613 24.9652 18.4551 24.5483 18.0382C24.1314 17.5915 23.6252 17.3682 23.0297 17.3682C22.4937 17.3682 22.0023 17.5617 21.5557 17.9488C21.1388 18.336 20.9303 18.8124 20.9303 19.3782V22.0135H16.5977V19.8695C16.5977 18.7082 17.0294 17.2937 17.893 15.6262C18.7863 13.9884 20.573 13.1695 23.253 13.1695C24.9503 13.1695 26.3945 13.8097 27.5857 15.0902C28.8065 16.4004 29.417 17.8893 29.417 19.5568V22.2815C29.417 23.5024 29.0894 24.7233 28.4343 25.9442L21.7343 39.1208H29.417V43.3642Z" fill="white"/>
<path fill-rule="evenodd" clip-rule="evenodd" d="M84.4385 130.141C85.6126 130.141 85.822 128.862 85.7643 128.035C85.6941 127.029 86.6612 126.87 87.1681 126.709C92.8838 124.897 98.8795 121.421 103.623 116.415C108.171 111.616 111.76 106.636 113.06 98.3221C113.217 97.3151 112.65 96.5285 111.656 96.5285H34.3185C33.3248 96.5285 32.7573 97.3151 32.9147 98.3221C34.2146 106.636 37.8034 111.616 42.3511 116.415C47.0949 121.421 53.0906 124.897 58.8063 126.709C59.3131 126.87 60.2802 127.029 60.21 128.035C60.1523 128.862 60.3617 130.141 61.5358 130.141H84.4385ZM58.0668 93.1301H63.1953C63.1953 93.1301 65.5458 86.5615 59.9417 80.9431C58.1488 79.1456 57.0126 76.4512 57.0126 73.9124C57.0126 69.0834 59.1796 66.2871 59.8201 65.2558C61.4711 62.5974 57.5363 60.7275 55.8428 62.7603C53.2271 65.9 51.7095 70.2157 51.7095 74.3023C51.7095 78.9077 53.9455 81.2463 56.2327 83.9726C60.4803 89.0357 58.0668 93.1301 58.0668 93.1301ZM88.9495 93.1301H94.078C94.078 93.1301 96.4285 86.5615 90.8244 80.9431C89.0315 79.1456 87.8953 76.4512 87.8953 73.9124C87.8953 69.0834 90.0623 66.2871 90.7028 65.2558C92.3538 62.5974 88.419 60.7275 86.7255 62.7603C84.1097 65.9 82.5922 70.2157 82.5922 74.3023C82.5922 78.9077 84.8282 81.2463 87.1154 83.9726C91.363 89.0357 88.9495 93.1301 88.9495 93.1301ZM73.5861 93.1301H78.7146C78.7146 93.1301 81.0651 86.5615 75.4611 80.9431C73.6681 79.1456 72.5319 76.4512 72.5319 73.9124C72.5319 69.0834 74.6989 66.2871 75.3394 65.2558C76.9904 62.5974 73.0556 60.7275 71.3621 62.7603C68.7464 65.9 67.2288 70.2157 67.2288 74.3023C67.2288 78.9077 69.4648 81.2463 71.752 83.9726C75.9996 89.0357 73.5861 93.1301 73.5861 93.1301Z" fill="white"/>
</svg>
