<svg viewBox="0 0 149 150" fill="none" xmlns="http://www.w3.org/2000/svg">
<path fill-rule="evenodd" clip-rule="evenodd" d="M1.61383 0.934555H148.053C148.511 0.934555 148.88 1.30329 148.88 1.76131V148.442C148.88 148.9 148.511 149.269 148.053 149.269H1.61383C1.15581 149.269 0.787109 148.9 0.787109 148.442V1.76131C0.787109 1.30329 1.15581 0.934555 1.61383 0.934555Z" fill="#00AED9"/>
<path d="M49.8239 23.5319C49.8239 23.9301 49.7989 24.2723 49.7491 24.5585C49.7118 24.8448 49.5873 25.1559 49.3758 25.4919C49.2638 25.6661 49.1207 25.8341 48.9465 25.9959C48.7847 26.1452 48.598 26.2821 48.3865 26.4066C48.1874 26.5186 47.9696 26.6119 47.7332 26.6866C47.4967 26.7612 47.2665 26.7986 47.0425 26.7986C46.4825 26.7986 45.9722 26.6803 45.5118 26.4439C45.0638 26.2074 44.734 25.9088 44.5225 25.5479C44.3109 25.187 44.174 24.851 44.1118 24.5399C44.062 24.2288 44.0371 23.8928 44.0371 23.5319V17.0919C44.0371 16.7434 44.0682 16.4323 44.1304 16.1586C44.2051 15.8723 44.3544 15.5674 44.5784 15.2439C44.8024 14.9203 45.1197 14.6465 45.5304 14.4225C45.9411 14.1861 46.3704 14.0679 46.8184 14.0679C47.6771 14.0679 48.3926 14.3541 48.9651 14.9265C49.5375 15.4865 49.8237 16.2083 49.8237 17.0919V17.7639H48.0504V17.0919C48.0504 16.7434 47.9509 16.451 47.7518 16.2146C47.5651 15.9781 47.2851 15.8599 46.9117 15.8599C46.5633 15.8599 46.2895 15.9781 46.0904 16.2146C45.9037 16.451 45.8104 16.7434 45.8104 17.0919V24.0172C45.8353 24.2039 45.9224 24.4154 46.0718 24.6519C46.246 24.9008 46.5322 25.0252 46.9304 25.0252C47.3535 25.0252 47.6335 24.9132 47.7704 24.6892C47.9073 24.4652 47.9882 24.3034 48.0131 24.2039C48.0379 24.0919 48.0504 23.9426 48.0504 23.7559V23.1212H49.8237L49.8239 23.5319Z" fill="white"/>
<path d="M56.4422 26.6866H51.1035V14.1799H52.8955V24.8945H56.4422V26.6866Z" fill="white"/>
<path d="M62.3729 24.8945V26.6866H57.0156V14.1799H62.3729V15.8226H58.7889V19.5186H61.9249V21.2172H58.7889V24.8945H62.3729Z" fill="white"/>
<path d="M62.7109 26.6866L65.5109 14.1799H67.0602L69.8602 26.6866H67.9376L67.4336 23.9986H65.1189L64.5963 26.6866H62.7109ZM65.4363 22.3372H67.1163L66.2762 17.7825L65.4363 22.3372Z" fill="white"/>
<path d="M75.2042 26.6866L72.4229 19.0892V26.6866H70.6309V14.1799H72.3295L75.0922 21.7585V14.1799H76.8842V26.6866H75.2042Z" fill="white"/>
<path d="M85.9103 26.6866L84.4357 19.0706L82.9984 26.6866H81.337L79.5264 14.1799H81.4304L82.3264 21.7399L83.7637 14.1799H85.0891L86.5637 21.7399L87.4597 14.1799H89.345L87.5904 26.6866H85.9103Z" fill="white"/>
<path d="M88.8936 26.6866L91.6935 14.1799H93.2429L96.0429 26.6866H94.1202L93.6162 23.9986H91.3016L90.7789 26.6866H88.8936ZM91.6189 22.3372H93.2989L92.4589 17.7825L91.6189 22.3372Z" fill="white"/>
<path d="M97.4023 26.6866V15.8412H95.293V14.1799H101.322V15.8412H99.1757V26.6866H97.4023Z" fill="white"/>
<path d="M107.71 24.8945V26.6866H102.353V14.1799H107.71V15.8226H104.126V19.5186H107.262V21.2172H104.126V24.8945H107.71Z" fill="white"/>
<path d="M108.627 26.6866V14.1799H111.763C112.584 14.1799 113.275 14.4661 113.835 15.0385C114.407 15.611 114.694 16.3141 114.694 17.1479V18.3052C114.694 19.4626 114.202 20.3461 113.219 20.9559L115.123 26.6866H113.219L111.539 21.3292H110.419V26.6866H108.627ZM112.603 19.3506C112.715 19.2137 112.79 19.0581 112.827 18.8839C112.877 18.7097 112.902 18.5168 112.902 18.3052V17.1479C112.902 16.7621 112.796 16.451 112.584 16.2146C112.373 15.9657 112.074 15.8412 111.688 15.8412H110.419V19.7426H111.67C112.043 19.7426 112.354 19.6119 112.603 19.3506Z" fill="white"/>
<path d="M43.6211 43.9335L46.4211 31.4268H47.9704L50.7704 43.9335H48.8478L48.3438 41.2455H46.0291L45.5064 43.9335H43.6211ZM46.3464 39.5842H48.0264L47.1864 35.0295L46.3464 39.5842Z" fill="white"/>
<path d="M56.1143 43.9335L53.333 36.3362V43.9335H51.541V31.4268H53.2397L56.0023 39.0055V31.4268H57.7943V43.9335H56.1143Z" fill="white"/>
<path d="M61.7338 31.4268C62.5427 31.4268 63.2333 31.7131 63.8058 32.2855C64.3907 32.8455 64.6831 33.53 64.6831 34.3389V40.8349C64.6831 41.7558 64.4031 42.5024 63.8431 43.0749C63.2831 43.6473 62.5613 43.9335 61.6778 43.9335H58.8965V31.4268H61.7338ZM62.9098 40.8349V34.3389C62.9098 33.9904 62.7792 33.698 62.5178 33.4615C62.2689 33.2251 61.964 33.1069 61.6031 33.1069H60.6698V42.2722H61.5471C62.4556 42.2722 62.9098 41.7931 62.9098 40.8349Z" fill="white"/>
<path d="M69.921 40.8162C69.921 40.9406 69.921 41.0464 69.921 41.1335C69.921 41.2207 69.9273 41.2953 69.9398 41.3575C69.9646 41.482 70.0579 41.6624 70.2197 41.8989C70.3939 42.1478 70.7051 42.2722 71.1531 42.2722C71.402 42.2722 71.6322 42.2224 71.8438 42.1229C72.0553 42.0109 72.2109 41.8678 72.3104 41.6935C72.3851 41.5567 72.4286 41.426 72.441 41.3015C72.4659 41.1771 72.4784 41.0651 72.4784 40.9655V40.7975V39.9202V39.7522C72.4784 39.4784 72.4286 39.2669 72.329 39.1175C72.2295 38.9557 72.0055 38.7753 71.657 38.5762C71.4206 38.4518 70.9975 38.2775 70.3877 38.0535C69.7779 37.8295 69.2677 37.4749 68.8571 36.9895C68.4464 36.5042 68.241 35.8446 68.241 35.0109V34.4509C68.241 33.5922 68.5272 32.858 69.0997 32.2482C69.6846 31.626 70.3939 31.3148 71.2277 31.3148C72.0988 31.3148 72.8206 31.6197 73.393 32.2295C73.9779 32.8393 74.2704 33.5798 74.2704 34.4509V35.0109H72.4784V34.4509C72.4784 34.3638 72.4721 34.2829 72.4597 34.2082C72.4597 34.1335 72.4534 34.0651 72.441 34.0029C72.4285 33.9407 72.3974 33.866 72.3477 33.7789C72.2979 33.6918 72.2294 33.586 72.1423 33.4615C71.9681 33.2126 71.6757 33.0882 71.265 33.0882C70.9041 33.0882 70.6055 33.2189 70.369 33.4802C70.145 33.7415 70.033 34.0651 70.033 34.4509V35.0109V35.1789C70.033 35.4278 70.0704 35.6269 70.145 35.7762C70.2321 35.9131 70.4312 36.0686 70.7423 36.2429C70.8419 36.2927 70.9912 36.3611 71.1903 36.4482C71.4019 36.5229 71.657 36.6162 71.9557 36.7282C72.553 36.9273 73.0881 37.282 73.561 37.7922C74.0339 38.3024 74.2703 38.9744 74.2703 39.8082V40.8162C74.2703 41.2517 74.2268 41.6189 74.1396 41.9175C74.065 42.2162 73.8099 42.6518 73.3743 43.2242C72.9388 43.7718 72.2107 44.0455 71.1903 44.0455C70.1076 44.0455 69.3237 43.6971 68.8383 43.0002C68.353 42.2909 68.1104 41.5629 68.1104 40.8162V40.3682H69.921V40.8162Z" fill="white"/>
<path d="M74.6162 43.9335L77.4162 31.4268H78.9656L81.7656 43.9335H79.8429L79.3389 41.2455H77.0242L76.5016 43.9335H74.6162ZM77.3416 39.5842H79.0215L78.1816 35.0295L77.3416 39.5842Z" fill="white"/>
<path d="M87.251 43.9335L84.4697 36.3362V43.9335H82.6777V31.4268H84.3764L87.139 39.0055V31.4268H88.931V43.9335H87.251Z" fill="white"/>
<path d="M90.1035 43.9335V31.4268H91.8768V43.9335H90.1035Z" fill="white"/>
<path d="M94.9766 43.9335V33.0882H92.8672V31.4268H98.8965V33.0882H96.7499V43.9335H94.9766Z" fill="white"/>
<path d="M98.2676 43.9335L101.068 31.4268H102.617L105.417 43.9335H103.494L102.99 41.2455H100.676L100.153 43.9335H98.2676ZM100.993 39.5842H102.673L101.833 35.0295L100.993 39.5842Z" fill="white"/>
<path d="M106.989 43.9335V33.0882H104.88V31.4268H110.909V33.0882H108.763V43.9335H106.989Z" fill="white"/>
<path d="M111.868 43.9335V31.4268H113.641V43.9335H111.868Z" fill="white"/>
<path d="M115.644 32.6029C115.93 32.2047 116.291 31.8935 116.727 31.6695C117.175 31.4331 117.635 31.3148 118.108 31.3148C118.568 31.3148 118.998 31.4082 119.396 31.5948C119.807 31.7815 120.149 32.0366 120.423 32.3602C120.696 32.6838 120.883 33.0197 120.983 33.3682C121.082 33.7042 121.132 34.0713 121.132 34.4695V40.8349C121.132 41.2082 121.095 41.538 121.02 41.8242C120.958 42.1104 120.808 42.4278 120.572 42.7762C120.348 43.1247 120.018 43.4233 119.583 43.6722C119.159 43.9211 118.687 44.0455 118.164 44.0455C117.865 44.0455 117.579 44.0082 117.305 43.9335C117.031 43.8464 116.776 43.7344 116.54 43.5975C116.303 43.4606 116.092 43.3051 115.905 43.1309C115.731 42.9566 115.594 42.7762 115.495 42.5895C115.308 42.2038 115.196 41.8926 115.159 41.6562C115.121 41.4197 115.103 41.146 115.103 40.8349V34.4695C115.103 34.0962 115.14 33.7664 115.215 33.4802C115.302 33.1815 115.445 32.8891 115.644 32.6029ZM119.116 33.5922C118.879 33.2437 118.556 33.0695 118.145 33.0695C117.934 33.0695 117.722 33.1317 117.511 33.2562C117.311 33.3682 117.168 33.4989 117.081 33.6482C117.007 33.7975 116.957 33.9469 116.932 34.0962C116.907 34.2455 116.895 34.37 116.895 34.4695V40.8349C116.895 40.8971 116.895 40.9655 116.895 41.0402C116.895 41.1024 116.901 41.1709 116.913 41.2455C116.926 41.37 117.025 41.5753 117.212 41.8615C117.399 42.1229 117.71 42.2535 118.145 42.2535C118.369 42.2535 118.568 42.2037 118.743 42.1042C118.929 41.9922 119.06 41.8678 119.135 41.7309C119.222 41.5815 119.278 41.4446 119.303 41.3202C119.327 41.1957 119.34 41.034 119.34 40.8349V34.4695C119.34 34.2207 119.327 34.0464 119.303 33.9469C119.29 33.8473 119.228 33.7291 119.116 33.5922Z" fill="white"/>
<path d="M127.217 43.9335L124.436 36.3362V43.9335H122.644V31.4268H124.342L127.105 39.0055V31.4268H128.897V43.9335H127.217Z" fill="white"/>
<path d="M29.1781 28.0435C29.4163 28.4604 29.5652 28.8922 29.6248 29.3388C29.7141 29.7855 29.7588 30.3364 29.7588 30.9915V36.7088C29.7588 37.3937 29.6843 38.0786 29.5354 38.7635C29.3865 39.4186 28.9399 40.3417 28.1954 41.5328C27.4212 42.7537 25.9621 43.4535 23.8181 43.6322C22.4781 43.6322 21.2572 43.3493 20.1555 42.7835C19.0835 42.188 18.3241 41.4882 17.8774 40.6842C17.4605 39.8504 17.1925 39.1506 17.0734 38.5848C16.9841 38.0191 16.9395 37.3937 16.9395 36.7088V32.0188C16.9395 31.3637 16.9543 30.9022 16.9841 30.6342C17.0139 30.3364 17.1182 29.9493 17.2968 29.4728L23.2375 13.4375H28.0615L23.2375 25.9888C23.7735 25.7804 24.4137 25.6762 25.1581 25.6762H25.5601C27.1979 25.9144 28.4039 26.7035 29.1781 28.0435ZM25.1134 30.3215C24.6667 29.726 24.0712 29.4282 23.3268 29.4282C22.6717 29.4282 22.1654 29.6664 21.8081 30.1428C21.4508 30.6193 21.2721 31.2446 21.2721 32.0188V36.7088C21.2721 37.3342 21.421 37.9297 21.7188 38.4955C22.0463 39.0315 22.5972 39.2995 23.3714 39.2995H23.6394C24.4136 39.2995 24.9199 39.0315 25.1581 38.4955C25.3963 37.9595 25.5154 37.3639 25.5154 36.7088V32.0188C25.5154 31.6317 25.4857 31.3191 25.4261 31.0808C25.3963 30.8128 25.292 30.5597 25.1134 30.3215Z" fill="white"/>
<path d="M48.6135 60.7324C47.9043 60.7324 47.2112 61.355 47.3655 62.293L56.0999 115.4C56.2129 116.088 56.649 116.727 57.3479 116.727H67.9534L68.7346 125.383H64.2112L74.9338 136.107L85.6565 125.383H81.1331L81.9143 116.727H92.5198C93.2187 116.727 93.6548 116.088 93.7678 115.4L102.502 62.293C102.656 61.355 101.963 60.7324 101.254 60.7324H48.6135ZM50.2268 63.3789H99.6409L98.1819 72.252C92.4545 71.5891 83.8671 78.9258 74.219 74.0781C62.3441 68.1116 62.0868 74.5434 51.9729 74L50.2268 63.3789ZM74.8948 81.9453C79.5573 90.0209 83.5374 93.1316 83.5374 98.5957C83.5374 102.248 81.2326 106.979 74.8948 106.979C68.557 106.979 66.2522 102.248 66.2522 98.5957C66.2522 93.1316 70.2323 90.0209 74.8948 81.9453Z" fill="white"/>
</svg>
