<svg viewBox="0 0 150 150" fill="none" xmlns="http://www.w3.org/2000/svg">
<path fill-rule="evenodd" clip-rule="evenodd" d="M1.7457 0.728333H148.185C148.643 0.728333 149.012 1.09705 149.012 1.55508V148.236C149.012 148.694 148.643 149.063 148.185 149.063H1.7457C1.28768 149.063 0.918945 148.694 0.918945 148.236V1.55508C0.918945 1.09705 1.28768 0.728333 1.7457 0.728333Z" fill="#FDB713"/>
<path d="M42.8955 26.3043L45.6955 13.7976H47.2448L50.0448 26.3043H48.1222L47.6182 23.6163H45.3035L44.7808 26.3043H42.8955ZM45.6208 21.955H47.3008L46.4608 17.4003L45.6208 21.955Z" fill="white"/>
<path d="M50.8418 26.3043V13.7976H56.1805V15.4776H52.6151V19.2296H55.7325V20.9096H52.6151V26.3043H50.8418Z" fill="white"/>
<path d="M57.043 26.3043V13.7976H62.3816V15.4776H58.8163V19.2296H61.9336V20.9096H58.8163V26.3043H57.043Z" fill="white"/>
<path d="M63.1937 14.9736C63.4799 14.5754 63.8408 14.2643 64.2763 14.0403C64.7243 13.8038 65.1848 13.6856 65.6577 13.6856C66.1181 13.6856 66.5475 13.7789 66.9457 13.9656C67.3564 14.1523 67.6986 14.4074 67.9723 14.731C68.2461 15.0545 68.4328 15.3905 68.5323 15.739C68.6319 16.075 68.6817 16.4421 68.6817 16.8403V23.2056C68.6817 23.579 68.6444 23.9087 68.5697 24.1949C68.5075 24.4812 68.3582 24.7985 68.1217 25.147C67.8977 25.4954 67.5679 25.7941 67.1323 26.043C66.7092 26.2919 66.2364 26.4163 65.7137 26.4163C65.415 26.4163 65.1288 26.379 64.855 26.3043C64.5812 26.2172 64.3261 26.1052 64.0897 25.9683C63.8532 25.8314 63.6417 25.6758 63.455 25.5016C63.2808 25.3274 63.1439 25.147 63.0443 24.9603C62.8577 24.5745 62.7457 24.2634 62.7083 24.0269C62.671 23.7905 62.6523 23.5167 62.6523 23.2056V16.8403C62.6523 16.467 62.6897 16.1372 62.7643 15.851C62.8515 15.5523 62.9946 15.2599 63.1937 14.9736ZM66.6657 15.963C66.4292 15.6145 66.1057 15.4403 65.695 15.4403C65.4835 15.4403 65.2719 15.5025 65.0603 15.627C64.8612 15.739 64.7181 15.8696 64.631 16.019C64.5564 16.1683 64.5066 16.3176 64.4817 16.4669C64.4568 16.6163 64.4444 16.7407 64.4444 16.8403V23.2056C64.4444 23.2678 64.4444 23.3363 64.4444 23.4109C64.4444 23.4731 64.4506 23.5416 64.4631 23.6163C64.4756 23.7407 64.5751 23.9461 64.7618 24.2323C64.9484 24.4936 65.2595 24.6243 65.6951 24.6243C65.9191 24.6243 66.1182 24.5745 66.2924 24.4749C66.4791 24.3629 66.6098 24.2385 66.6844 24.1016C66.7715 23.9523 66.8275 23.8154 66.8524 23.6909C66.8773 23.5665 66.8897 23.4047 66.8897 23.2056V16.8403C66.8897 16.5914 66.8773 16.4172 66.8524 16.3176C66.84 16.2181 66.7777 16.0998 66.6657 15.963Z" fill="white"/>
<path d="M70.2275 26.3043V13.7976H73.3635C74.1849 13.7976 74.8755 14.0838 75.4355 14.6563C76.008 15.2287 76.2942 15.9319 76.2942 16.7656V17.923C76.2942 19.0803 75.8026 19.9638 74.8195 20.5736L76.7235 26.3043H74.8195L73.1395 20.947H72.0195V26.3043H70.2275ZM74.2035 18.9683C74.3155 18.8314 74.3902 18.6758 74.4275 18.5016C74.4773 18.3274 74.5022 18.1345 74.5022 17.923V16.7656C74.5022 16.3799 74.3965 16.0687 74.1849 15.8323C73.9733 15.5834 73.6747 15.459 73.2889 15.459H72.0196V19.3603H73.2702C73.6436 19.3603 73.9547 19.2296 74.2035 18.9683Z" fill="white"/>
<path d="M80.2377 13.7976C81.0466 13.7976 81.7373 14.0838 82.3097 14.6563C82.8946 15.2163 83.1871 15.9007 83.1871 16.7096V23.2056C83.1871 24.1265 82.9071 24.8732 82.3471 25.4456C81.7871 26.0181 81.0653 26.3043 80.1817 26.3043H77.4004V13.7976H80.2377ZM81.4137 23.2056V16.7096C81.4137 16.3612 81.2831 16.0687 81.0217 15.8323C80.7728 15.5958 80.4679 15.4776 80.1071 15.4776H79.1737V24.643H80.0511C80.9595 24.643 81.4137 24.1639 81.4137 23.2056Z" fill="white"/>
<path d="M84.0322 26.3043L86.8322 13.7976H88.3816L91.1816 26.3043H89.2589L88.7549 23.6163H86.4402L85.9176 26.3043H84.0322ZM86.7576 21.955H88.4376L87.5976 17.4003L86.7576 21.955Z" fill="white"/>
<path d="M95.0421 13.7976C95.4279 13.7976 95.7888 13.8785 96.1248 14.0403C96.4981 14.2145 96.8777 14.4945 97.2634 14.8803C97.6741 15.2785 97.8794 15.9007 97.8794 16.7469V17.699C97.8794 18.6572 97.4999 19.3292 96.7408 19.715C97.4999 20.163 97.8794 20.8599 97.8794 21.8056V23.2616C97.8794 24.1452 97.5932 24.8732 97.0208 25.4456C96.4608 26.0181 95.739 26.3043 94.8555 26.3043H92.0928V13.7976H95.0421ZM96.1061 17.5123V16.7469C96.1061 16.3612 95.9941 16.0563 95.7701 15.8323C95.5461 15.5958 95.2474 15.4776 94.8741 15.4776H93.8661V18.931H94.9301C95.3408 18.931 95.6394 18.8065 95.8261 18.5576C96.0128 18.2963 96.1061 17.9479 96.1061 17.5123ZM96.1061 23.2616V21.8056C96.1061 21.4074 95.9941 21.0963 95.7701 20.8723C95.5586 20.6358 95.2599 20.5176 94.8741 20.5176H93.8661V24.5309H94.8928C95.2537 24.5309 95.5461 24.4127 95.7701 24.1763C95.9941 23.9274 96.1061 23.6225 96.1061 23.2616Z" fill="white"/>
<path d="M104.652 26.3043H99.3135V13.7976H101.105V24.5123H104.652V26.3043Z" fill="white"/>
<path d="M110.556 24.5123V26.3043H105.198V13.7976H110.556V15.4403H106.972V19.1363H110.108V20.835H106.972V24.5123H110.556Z" fill="white"/>
<path d="M112.494 26.3043L115.294 13.7976H116.843L119.643 26.3043H117.721L117.217 23.6163H114.902L114.379 26.3043H112.494ZM115.219 21.955H116.899L116.059 17.4003L115.219 21.955Z" fill="white"/>
<path d="M125.129 26.3043L122.348 18.707V26.3043H120.556V13.7976H122.254L125.017 21.3763V13.7976H126.809V26.3043H125.129Z" fill="white"/>
<path d="M130.907 13.7976C131.716 13.7976 132.406 14.0838 132.979 14.6563C133.564 15.2163 133.856 15.9007 133.856 16.7096V23.2056C133.856 24.1265 133.576 24.8732 133.016 25.4456C132.456 26.0181 131.734 26.3043 130.851 26.3043H128.069V13.7976H130.907ZM132.083 23.2056V16.7096C132.083 16.3612 131.952 16.0687 131.691 15.8323C131.442 15.5958 131.137 15.4776 130.776 15.4776H129.843V24.643H130.72C131.628 24.643 132.083 24.1639 132.083 23.2056Z" fill="white"/>
<path d="M49.4068 40.3966C49.4068 40.7948 49.3819 41.1371 49.3321 41.4233C49.2948 41.7095 49.1703 42.0206 48.9588 42.3566C48.8468 42.5308 48.7037 42.6988 48.5295 42.8606C48.3677 43.0099 48.181 43.1468 47.9695 43.2713C47.7703 43.3833 47.5526 43.4766 47.3161 43.5513C47.0797 43.6259 46.8495 43.6633 46.6255 43.6633C46.0655 43.6633 45.5552 43.545 45.0948 43.3086C44.6468 43.0721 44.317 42.7735 44.1055 42.4126C43.8939 42.0517 43.757 41.7157 43.6948 41.4046C43.645 41.0935 43.6201 40.7575 43.6201 40.3966V33.9566C43.6201 33.6082 43.6512 33.2971 43.7134 33.0233C43.7881 32.7371 43.9374 32.4322 44.1614 32.1086C44.3854 31.7851 44.7028 31.5113 45.1134 31.2873C45.5241 31.0508 45.9535 30.9326 46.4015 30.9326C47.2601 30.9326 47.9757 31.2188 48.5481 31.7913C49.1206 32.3513 49.4068 33.0731 49.4068 33.9566V34.6286H47.6334V33.9566C47.6334 33.6082 47.5339 33.3157 47.3348 33.0793C47.1481 32.8428 46.8681 32.7246 46.4948 32.7246C46.1463 32.7246 45.8726 32.8428 45.6734 33.0793C45.4868 33.3157 45.3934 33.6082 45.3934 33.9566V40.8819C45.4183 41.0686 45.5054 41.2802 45.6548 41.5166C45.829 41.7655 46.1152 41.8899 46.5135 41.8899C46.9366 41.8899 47.2166 41.7779 47.3534 41.5539C47.4903 41.3299 47.5712 41.1682 47.5961 41.0686C47.621 40.9566 47.6334 40.8073 47.6334 40.6206V39.9859H49.4068L49.4068 40.3966Z" fill="white"/>
<path d="M55.9637 43.5513H50.625V31.0446H52.417V41.7593H55.9637V43.5513Z" fill="white"/>
<path d="M61.7519 41.7593V43.5513H56.3945V31.0446H61.7519V32.6873H58.1679V36.3833H61.3039V38.0819H58.1679V41.7593H61.7519Z" fill="white"/>
<path d="M61.9824 43.5513L64.7824 31.0446H66.3317L69.1317 43.5513H67.2091L66.7051 40.8633H64.3904L63.8677 43.5513H61.9824ZM64.7077 39.2019H66.3877L65.5477 34.6473L64.7077 39.2019Z" fill="white"/>
<path d="M74.6173 43.5513L71.8359 35.9539V43.5513H70.0439V31.0446H71.7426L74.5053 38.6233V31.0446H76.2973V43.5513H74.6173Z" fill="white"/>
<path d="M84.7382 41.7593V43.5513H79.3809V31.0446H84.7382V32.6873H81.1542V36.3833H84.2902V38.0819H81.1542V41.7593H84.7382Z" fill="white"/>
<path d="M90.0343 43.5513L87.2529 35.9539V43.5513H85.4609V31.0446H87.1596L89.9223 38.6233V31.0446H91.7143V43.5513H90.0343Z" fill="white"/>
<path d="M97.9862 41.7593V43.5513H92.6289V31.0446H97.9862V32.6873H94.4022V36.3833H97.5382V38.0819H94.4022V41.7593H97.9862Z" fill="white"/>
<path d="M98.9199 43.5513V31.0446H102.056C102.877 31.0446 103.568 31.3308 104.128 31.9033C104.7 32.4757 104.987 33.1788 104.987 34.0126V35.1699C104.987 36.3273 104.495 37.2108 103.512 37.8206L105.416 43.5513H103.512L101.832 38.1939H100.712V43.5513H98.9199ZM102.896 36.2153C103.008 36.0784 103.083 35.9228 103.12 35.7486C103.17 35.5744 103.195 35.3815 103.195 35.1699V34.0126C103.195 33.6268 103.089 33.3157 102.877 33.0793C102.666 32.8304 102.367 32.7059 101.981 32.7059H100.712V36.6073H101.963C102.336 36.6073 102.647 36.4766 102.896 36.2153Z" fill="white"/>
<path d="M111.658 42.2446C111.372 42.6926 111.005 43.041 110.557 43.2899C110.109 43.5388 109.618 43.6633 109.082 43.6633C108.61 43.6633 108.149 43.5513 107.701 43.3273C107.266 43.1033 106.923 42.8295 106.674 42.5059C106.438 42.1699 106.276 41.8339 106.189 41.4979C106.114 41.1619 106.077 40.7824 106.077 40.3593V34.1059C106.077 33.7948 106.108 33.4837 106.17 33.1726C106.258 32.8615 106.488 32.4197 106.861 31.8473C107.247 31.2375 108.006 30.9326 109.138 30.9326C109.636 30.9326 110.103 31.0508 110.538 31.2873C110.974 31.5237 111.304 31.8162 111.528 32.1646C111.764 32.5006 111.914 32.8242 111.976 33.1353C112.05 33.434 112.088 33.7575 112.088 34.1059V34.6286H110.314V34.1059C110.314 34.0064 110.308 33.9193 110.296 33.8446C110.296 33.7575 110.29 33.6828 110.277 33.6206C110.265 33.5086 110.171 33.3282 109.997 33.0793C109.823 32.8304 109.53 32.7059 109.12 32.7059C108.634 32.7059 108.311 32.8366 108.149 33.0979C108 33.3593 107.913 33.5522 107.888 33.6766C107.863 33.8011 107.85 33.9442 107.85 34.1059V40.3593C107.85 40.4837 107.85 40.5895 107.85 40.6766C107.85 40.7637 107.857 40.8384 107.869 40.9006C107.882 41.0002 107.975 41.1931 108.149 41.4793C108.311 41.7406 108.628 41.8713 109.101 41.8713C109.586 41.8713 109.898 41.7406 110.034 41.4793C110.109 41.3424 110.165 41.2304 110.202 41.1433C110.24 41.0437 110.265 40.9566 110.277 40.8819C110.302 40.8073 110.314 40.7326 110.314 40.6579C110.314 40.5708 110.314 40.4713 110.314 40.3593V38.1753H108.877V36.6073H112.088V40.3593C112.088 40.6206 112.082 40.8446 112.069 41.0313C112.057 41.2055 112.032 41.361 111.994 41.4979C111.957 41.6348 111.907 41.7655 111.845 41.8899C111.795 42.0019 111.733 42.1202 111.658 42.2446Z" fill="white"/>
<path d="M114.786 43.5513V38.1753L112.359 31.0446H114.226L115.682 35.9353L117.157 31.0446H119.042L116.559 38.1753V43.5513H114.786Z" fill="white"/>
<path d="M19.9773 20.5592H16.1807V13.0552H28.9553V16.9413L21.9873 42.9819H17.4313L24.712 17.0306H19.9773V20.5592Z" fill="white"/>
<path fill-rule="evenodd" clip-rule="evenodd" d="M45.201 74.387L53.2373 79.0268C54.1536 79.5558 54.4653 80.7193 53.9363 81.6355C53.4073 82.5518 52.2439 82.8635 51.3276 82.3345L43.2913 77.6948C42.3751 77.1658 42.0633 76.0023 42.5923 75.086C43.1213 74.1698 44.2848 73.858 45.201 74.387ZM59.1664 61.9257L63.8061 69.962C64.3351 70.8783 64.0234 72.0418 63.1071 72.5708C62.1909 73.0998 61.0274 72.788 60.4984 71.8718L55.8586 63.8355C55.3296 62.9192 55.6414 61.7557 56.5576 61.2267C57.4739 60.6977 58.6374 61.0095 59.1664 61.9257ZM77.4914 58.1167L77.4914 67.3962C77.4914 68.4542 76.6396 69.3059 75.5816 69.3059C74.5236 69.3059 73.6719 68.4542 73.6719 67.3961L73.6719 58.1167C73.6719 57.0587 74.5236 56.2069 75.5816 56.2069C76.6396 56.2069 77.4914 57.0587 77.4914 58.1167ZM95.2658 63.9804L90.6261 72.0167C90.0971 72.9329 88.9336 73.2447 88.0173 72.7157C87.1011 72.1867 86.7893 71.0232 87.3183 70.1069L91.958 62.0706C92.487 61.1544 93.6506 60.8426 94.5668 61.3716C95.4831 61.9006 95.7948 63.0641 95.2658 63.9804ZM107.727 77.9457L99.6908 82.5855C98.7745 83.1145 97.611 82.8027 97.082 81.8865C96.5531 80.9702 96.8648 79.8067 97.781 79.2777L105.817 74.6379C106.734 74.1089 107.897 74.4207 108.426 75.337C108.955 76.2532 108.643 77.4167 107.727 77.9457ZM111.536 96.2707L102.257 96.2707C101.199 96.2707 100.347 95.419 100.347 94.361C100.347 93.303 101.199 92.4512 102.257 92.4512L111.536 92.4512C112.594 92.4512 113.446 93.3029 113.446 94.361C113.446 95.4189 112.594 96.2707 111.536 96.2707ZM105.672 114.045L97.6362 109.405C96.7199 108.876 96.4081 107.713 96.9371 106.797C97.4661 105.88 98.6296 105.569 99.5459 106.098L107.582 110.737C108.498 111.266 108.81 112.43 108.281 113.346C107.752 114.262 106.589 114.574 105.672 114.045ZM91.7071 126.506L87.0674 118.47C86.5384 117.554 86.8501 116.39 87.7664 115.861C88.6826 115.332 89.8461 115.644 90.3751 116.56L95.0149 124.597C95.5439 125.513 95.2321 126.676 94.3159 127.205C93.3996 127.734 92.2361 127.423 91.7071 126.506ZM73.3821 130.316L73.3821 121.036C73.3821 119.978 74.2339 119.126 75.2919 119.126C76.3499 119.126 77.2016 119.978 77.2016 121.036L77.2016 130.316C77.2016 131.374 76.3499 132.225 75.2919 132.225C74.2339 132.225 73.3821 131.374 73.3821 130.316ZM55.6077 124.452L60.2474 116.416C60.7764 115.499 61.9399 115.188 62.8562 115.717C63.7724 116.246 64.0842 117.409 63.5552 118.325L58.9154 126.362C58.3864 127.278 57.2229 127.59 56.3067 127.061C55.3904 126.532 55.0787 125.368 55.6077 124.452ZM43.1464 110.486L51.1827 105.847C52.099 105.318 53.2625 105.629 53.7915 106.546C54.3205 107.462 54.0087 108.625 53.0924 109.154L45.0562 113.794C44.1399 114.323 42.9764 114.011 42.4474 113.095C41.9184 112.179 42.2301 111.015 43.1464 110.486ZM39.3373 92.1615L48.6168 92.1615C49.6748 92.1614 50.5266 93.0132 50.5266 94.0712C50.5266 95.1292 49.6748 95.9809 48.6168 95.9809L39.3373 95.981C38.2793 95.981 37.4276 95.1292 37.4276 94.0712C37.4276 93.0132 38.2793 92.1615 39.3373 92.1615ZM75.4359 72.3086C69.6258 72.3089 64.0538 74.6173 59.9456 78.7259C55.8374 82.8344 53.5295 88.4067 53.5297 94.2168C53.53 100.027 55.8381 105.598 59.9463 109.706C64.0544 113.815 69.6261 116.123 75.4359 116.123C81.246 116.123 86.8183 113.815 90.9269 109.707C95.0354 105.599 97.3438 100.027 97.3441 94.2168C97.3442 91.3398 96.7776 88.4909 95.6766 85.8328C94.5757 83.1747 92.9619 80.7596 90.9275 78.7252C88.8932 76.6908 86.478 75.077 83.8199 73.9761C81.1619 72.8751 78.313 72.3085 75.4359 72.3086ZM75.3539 79.752C76.0698 79.752 76.6449 80.329 76.6449 81.0449L76.6449 88.4277C76.6449 89.1436 76.0698 89.7207 75.3539 89.7207C74.638 89.7207 74.0609 89.1436 74.0609 88.4277L74.0609 81.0449C74.0609 80.329 74.638 79.752 75.3539 79.752ZM71.9828 83.5391L71.9828 87.3594C70.7127 87.999 69.6451 88.9789 68.8992 90.1897C68.1533 91.4005 67.7583 92.7947 67.7582 94.2168C67.7584 96.253 68.5673 98.2058 70.0071 99.6456C71.447 101.085 73.3997 101.894 75.4359 101.895C76.4443 101.895 77.4429 101.696 78.3746 101.31C79.3063 100.925 80.1528 100.359 80.866 99.6463C81.5791 98.9333 82.1448 98.0869 82.5308 97.1553C82.9168 96.2237 83.1155 95.2252 83.1156 94.2168C83.1142 92.8034 82.7226 91.4178 81.9841 90.2127C81.2456 89.0076 80.1888 88.0297 78.9301 87.3867L78.9301 83.5606C81.1771 84.2961 83.1347 85.7223 84.5235 87.6358C85.9123 89.5493 86.6616 91.8524 86.6644 94.2168C86.6644 95.6912 86.3739 97.1512 85.8096 98.5134C85.2453 99.8756 84.4181 101.113 83.3755 102.156C82.3328 103.198 81.095 104.025 79.7327 104.589C78.3704 105.153 76.9104 105.444 75.436 105.443C72.4585 105.443 69.603 104.26 67.4977 102.155C65.3923 100.05 64.2095 97.1942 64.2094 94.2168C64.2104 91.8439 64.9632 89.5323 66.3598 87.6139C67.7564 85.6955 69.725 84.269 71.9828 83.5391Z" fill="white"/>
</svg>
