<svg viewBox="0 0 149 150" fill="none" xmlns="http://www.w3.org/2000/svg">
<path fill-rule="evenodd" clip-rule="evenodd" d="M1.71933 0.728333H148.159C148.617 0.728333 148.985 1.09705 148.985 1.55508V148.236C148.985 148.694 148.617 149.063 148.159 149.063H1.71933C1.2613 149.063 0.892578 148.694 0.892578 148.236V1.55508C0.892578 1.09705 1.2613 0.728333 1.71933 0.728333Z" fill="#8F1838"/>
<path d="M43.6977 13.7976C44.5066 13.7976 45.1972 14.0838 45.7697 14.6563C46.3546 15.2163 46.647 15.9007 46.647 16.7096V23.2056C46.647 24.1265 46.367 24.8732 45.807 25.4456C45.247 26.0181 44.5252 26.3043 43.6417 26.3043H40.8604V13.7976H43.6977ZM44.8737 23.2056V16.7096C44.8737 16.3612 44.743 16.0687 44.4817 15.8323C44.2328 15.5958 43.9279 15.4776 43.567 15.4776H42.6337V24.643H43.511C44.4194 24.643 44.8737 24.1639 44.8737 23.2056Z" fill="white"/>
<path d="M53.5448 24.5123V26.3043H48.1875V13.7976H53.5448V15.4403H49.9608V19.1363H53.0968V20.835H49.9608V24.5123H53.5448Z" fill="white"/>
<path d="M60.0924 23.1496C60.0924 23.5479 60.0675 23.8901 60.0177 24.1763C59.9804 24.4625 59.8559 24.7736 59.6443 25.1096C59.5323 25.2838 59.3892 25.4518 59.215 25.6136C59.0532 25.7629 58.8666 25.8998 58.655 26.0243C58.4559 26.1363 58.2381 26.2296 58.0017 26.3043C57.7653 26.379 57.535 26.4163 57.311 26.4163C56.751 26.4163 56.2408 26.2981 55.7804 26.0616C55.3324 25.8252 55.0026 25.5265 54.791 25.1656C54.5795 24.8047 54.4426 24.4687 54.3804 24.1576C54.3306 23.8465 54.3057 23.5105 54.3057 23.1496V16.7096C54.3057 16.3612 54.3368 16.0501 54.399 15.7763C54.4736 15.4901 54.623 15.1852 54.847 14.8616C55.071 14.5381 55.3883 14.2643 55.799 14.0403C56.2096 13.8038 56.6389 13.6856 57.0869 13.6856C57.9456 13.6856 58.6612 13.9718 59.2336 14.5443C59.8061 15.1043 60.0923 15.8261 60.0923 16.7096V17.3816H58.319V16.7096C58.319 16.3612 58.2194 16.0687 58.0203 15.8323C57.8336 15.5958 57.5536 15.4776 57.1803 15.4776C56.8319 15.4776 56.5581 15.5958 56.3589 15.8323C56.1723 16.0687 56.0789 16.3612 56.0789 16.7096V23.6349C56.1038 23.8216 56.1909 24.0332 56.3403 24.2696C56.5145 24.5185 56.8008 24.643 57.199 24.643C57.6221 24.643 57.9021 24.5309 58.039 24.3069C58.1759 24.0829 58.2567 23.9212 58.2816 23.8216C58.3065 23.7096 58.3189 23.5603 58.3189 23.3736V22.739H60.0923L60.0924 23.1496Z" fill="white"/>
<path d="M66.6523 24.5123V26.3043H61.2949V13.7976H66.6523V15.4403H63.0683V19.1363H66.2043V20.835H63.0683V24.5123H66.6523Z" fill="white"/>
<path d="M72.2706 26.3043L69.4893 18.707V26.3043H67.6973V13.7976H69.3959L72.1586 21.3763V13.7976H73.9506V26.3043H72.2706Z" fill="white"/>
<path d="M76.4824 26.3043V15.459H74.373V13.7976H80.4024V15.459H78.2557V26.3043H76.4824Z" fill="white"/>
<path d="M89.1203 26.3043L87.6457 18.6883L86.2083 26.3043H84.547L82.7363 13.7976H84.6404L85.5363 21.3576L86.9737 13.7976H88.299L89.7737 21.3576L90.6697 13.7976H92.555L90.8004 26.3043H89.1203Z" fill="white"/>
<path d="M93.6898 14.9736C93.976 14.5754 94.3369 14.2643 94.7724 14.0403C95.2204 13.8038 95.6809 13.6856 96.1538 13.6856C96.6142 13.6856 97.0435 13.7789 97.4418 13.9656C97.8524 14.1523 98.1946 14.4074 98.4684 14.731C98.7422 15.0545 98.9289 15.3905 99.0284 15.739C99.128 16.075 99.1778 16.4421 99.1778 16.8403V23.2056C99.1778 23.579 99.1404 23.9087 99.0658 24.1949C99.0036 24.4812 98.8542 24.7985 98.6178 25.147C98.3938 25.4954 98.064 25.7941 97.6284 26.043C97.2053 26.2919 96.7324 26.4163 96.2098 26.4163C95.9111 26.4163 95.6249 26.379 95.3511 26.3043C95.0773 26.2172 94.8222 26.1052 94.5858 25.9683C94.3493 25.8314 94.1378 25.6758 93.9511 25.5016C93.7769 25.3274 93.64 25.147 93.5404 24.9603C93.3538 24.5745 93.2418 24.2634 93.2044 24.0269C93.1671 23.7905 93.1484 23.5167 93.1484 23.2056V16.8403C93.1484 16.467 93.1858 16.1372 93.2604 15.851C93.3475 15.5523 93.4906 15.2599 93.6898 14.9736ZM97.1618 15.963C96.9253 15.6145 96.6018 15.4403 96.1911 15.4403C95.9795 15.4403 95.768 15.5025 95.5564 15.627C95.3573 15.739 95.2142 15.8696 95.1271 16.019C95.0524 16.1683 95.0027 16.3176 94.9778 16.4669C94.9529 16.6163 94.9405 16.7407 94.9405 16.8403V23.2056C94.9405 23.2678 94.9405 23.3363 94.9405 23.4109C94.9405 23.4731 94.9467 23.5416 94.9592 23.6163C94.9716 23.7407 95.0712 23.9461 95.2578 24.2323C95.4445 24.4936 95.7556 24.6243 96.1912 24.6243C96.4152 24.6243 96.6143 24.5745 96.7885 24.4749C96.9752 24.3629 97.1058 24.2385 97.1805 24.1016C97.2676 23.9523 97.3236 23.8154 97.3485 23.6909C97.3734 23.5665 97.3858 23.4047 97.3858 23.2056V16.8403C97.3858 16.5914 97.3734 16.4172 97.3485 16.3176C97.336 16.2181 97.2737 16.0998 97.1618 15.963Z" fill="white"/>
<path d="M100.696 26.3043V13.7976H103.832C104.654 13.7976 105.344 14.0838 105.904 14.6563C106.477 15.2287 106.763 15.9319 106.763 16.7656V17.923C106.763 19.0803 106.271 19.9638 105.288 20.5736L107.192 26.3043H105.288L103.608 20.947H102.488V26.3043H100.696ZM104.672 18.9683C104.784 18.8314 104.859 18.6758 104.896 18.5016C104.946 18.3274 104.971 18.1345 104.971 17.923V16.7656C104.971 16.3799 104.865 16.0687 104.654 15.8323C104.442 15.5834 104.143 15.459 103.758 15.459H102.488V19.3603H103.739C104.112 19.3603 104.423 19.2296 104.672 18.9683Z" fill="white"/>
<path d="M112.558 26.3043L110.561 20.723L109.571 22.571V26.3043H107.798V13.7976H109.59V19.547L112.259 13.7976H114.033L111.587 18.7816L114.462 26.3043H112.558Z" fill="white"/>
<path d="M116.261 26.3043L119.061 13.7976H120.61L123.41 26.3043H121.487L120.983 23.6163H118.669L118.146 26.3043H116.261ZM118.986 21.955H120.666L119.826 17.4003L118.986 21.955Z" fill="white"/>
<path d="M128.896 26.3043L126.114 18.707V26.3043H124.322V13.7976H126.021L128.784 21.3763V13.7976H130.576V26.3043H128.896Z" fill="white"/>
<path d="M134.673 13.7976C135.482 13.7976 136.173 14.0838 136.745 14.6563C137.33 15.2163 137.623 15.9007 137.623 16.7096V23.2056C137.623 24.1265 137.343 24.8732 136.783 25.4456C136.223 26.0181 135.501 26.3043 134.617 26.3043H131.836V13.7976H134.673ZM135.849 23.2056V16.7096C135.849 16.3612 135.719 16.0687 135.457 15.8323C135.208 15.5958 134.903 15.4776 134.543 15.4776H133.609V24.643H134.487C135.395 24.643 135.849 24.1639 135.849 23.2056Z" fill="white"/>
<path d="M46.2177 41.7593V43.5513H40.8604V31.0446H46.2177V32.6873H42.6337V36.3833H45.7697V38.0819H42.6337V41.7593H46.2177Z" fill="white"/>
<path d="M52.6891 40.3966C52.6891 40.7948 52.6642 41.1371 52.6144 41.4233C52.577 41.7095 52.4526 42.0206 52.2411 42.3566C52.1291 42.5308 51.9859 42.6988 51.8117 42.8606C51.6499 43.0099 51.4633 43.1468 51.2517 43.2713C51.0526 43.3833 50.8348 43.4766 50.5984 43.5513C50.3619 43.6259 50.1317 43.6633 49.9077 43.6633C49.3477 43.6633 48.8375 43.545 48.377 43.3086C47.929 43.0721 47.5993 42.7735 47.3877 42.4126C47.1762 42.0517 47.0393 41.7157 46.9771 41.4046C46.9273 41.0935 46.9023 40.7575 46.9023 40.3966V33.9566C46.9023 33.6082 46.9335 33.2971 46.9957 33.0233C47.0703 32.7371 47.2196 32.4322 47.4436 32.1086C47.6676 31.7851 47.985 31.5113 48.3957 31.2873C48.8063 31.0508 49.2357 30.9326 49.6837 30.9326C50.5423 30.9326 51.2579 31.2188 51.8303 31.7913C52.4028 32.3513 52.689 33.0731 52.689 33.9566V34.6286H50.9156V33.9566C50.9156 33.6082 50.8161 33.3157 50.617 33.0793C50.4303 32.8428 50.1503 32.7246 49.777 32.7246C49.4285 32.7246 49.1548 32.8428 48.9557 33.0793C48.769 33.3157 48.6757 33.6082 48.6757 33.9566V40.8819C48.7005 41.0686 48.7876 41.2802 48.937 41.5166C49.1112 41.7655 49.3974 41.8899 49.7957 41.8899C50.2188 41.8899 50.4988 41.7779 50.6357 41.5539C50.7725 41.3299 50.8534 41.1682 50.8783 41.0686C50.9032 40.9566 50.9156 40.8073 50.9156 40.6206V39.9859H52.6889L52.6891 40.3966Z" fill="white"/>
<path d="M54.5228 32.2206C54.809 31.8224 55.1699 31.5113 55.6054 31.2873C56.0534 31.0508 56.5139 30.9326 56.9868 30.9326C57.4472 30.9326 57.8766 31.0259 58.2748 31.2126C58.6854 31.3993 59.0277 31.6544 59.3015 31.9779C59.5752 32.3015 59.7619 32.6375 59.8615 32.9859C59.961 33.3219 60.0108 33.6891 60.0108 34.0873V40.4526C60.0108 40.8259 59.9734 41.1557 59.8988 41.4419C59.8366 41.7282 59.6872 42.0455 59.4508 42.3939C59.2268 42.7424 58.897 43.041 58.4615 43.2899C58.0383 43.5388 57.5655 43.6633 57.0428 43.6633C56.7441 43.6633 56.4579 43.6259 56.1841 43.5513C55.9103 43.4642 55.6552 43.3522 55.4188 43.2153C55.1823 43.0784 54.9708 42.9228 54.7841 42.7486C54.6099 42.5744 54.473 42.3939 54.3734 42.2073C54.1868 41.8215 54.0748 41.5104 54.0374 41.2739C54.0001 41.0375 53.9814 40.7637 53.9814 40.4526V34.0873C53.9814 33.7139 54.0188 33.3842 54.0934 33.0979C54.1806 32.7993 54.3237 32.5068 54.5228 32.2206ZM57.9948 33.2099C57.7583 32.8615 57.4348 32.6873 57.0241 32.6873C56.8126 32.6873 56.601 32.7495 56.3894 32.8739C56.1903 32.9859 56.0472 33.1166 55.9601 33.2659C55.8854 33.4153 55.8356 33.5646 55.8108 33.7139C55.7859 33.8633 55.7735 33.9877 55.7735 34.0873V40.4526C55.7735 40.5148 55.7735 40.5832 55.7735 40.6579C55.7735 40.7201 55.7797 40.7886 55.7922 40.8633C55.8046 40.9877 55.9042 41.1931 56.0909 41.4793C56.2775 41.7406 56.5886 41.8713 57.0242 41.8713C57.2482 41.8713 57.4473 41.8215 57.6215 41.7219C57.8082 41.6099 57.9389 41.4855 58.0135 41.3486C58.1006 41.1993 58.1566 41.0624 58.1815 40.9379C58.2064 40.8135 58.2188 40.6517 58.2188 40.4526V34.0873C58.2188 33.8384 58.2064 33.6642 58.1815 33.5646C58.1691 33.4651 58.1068 33.3468 57.9948 33.2099Z" fill="white"/>
<path d="M66.0157 43.5513L63.2344 35.9539V43.5513H61.4424V31.0446H63.141L65.9037 38.6233V31.0446H67.6957V43.5513H66.0157Z" fill="white"/>
<path d="M69.3314 32.2206C69.6176 31.8224 69.9785 31.5113 70.414 31.2873C70.862 31.0508 71.3225 30.9326 71.7954 30.9326C72.2558 30.9326 72.6852 31.0259 73.0834 31.2126C73.494 31.3993 73.8363 31.6544 74.11 31.9779C74.3838 32.3015 74.5705 32.6375 74.67 32.9859C74.7696 33.3219 74.8194 33.6891 74.8194 34.0873V40.4526C74.8194 40.8259 74.782 41.1557 74.7074 41.4419C74.6452 41.7282 74.4958 42.0455 74.2594 42.3939C74.0354 42.7424 73.7056 43.041 73.2701 43.2899C72.8469 43.5388 72.374 43.6633 71.8514 43.6633C71.5527 43.6633 71.2665 43.6259 70.9927 43.5513C70.7189 43.4642 70.4638 43.3522 70.2274 43.2153C69.9909 43.0784 69.7794 42.9228 69.5927 42.7486C69.4185 42.5744 69.2816 42.3939 69.182 42.2073C68.9954 41.8215 68.8834 41.5104 68.846 41.2739C68.8087 41.0375 68.79 40.7637 68.79 40.4526V34.0873C68.79 33.7139 68.8274 33.3842 68.902 33.0979C68.9891 32.7993 69.1322 32.5068 69.3314 32.2206ZM72.8034 33.2099C72.5669 32.8615 72.2434 32.6873 71.8327 32.6873C71.6211 32.6873 71.4096 32.7495 71.198 32.8739C70.9989 32.9859 70.8558 33.1166 70.7687 33.2659C70.694 33.4153 70.6443 33.5646 70.6194 33.7139C70.5945 33.8633 70.5821 33.9877 70.5821 34.0873V40.4526C70.5821 40.5148 70.5821 40.5832 70.5821 40.6579C70.5821 40.7201 70.5883 40.7886 70.6008 40.8633C70.6132 40.9877 70.7128 41.1931 70.8994 41.4793C71.0861 41.7406 71.3972 41.8713 71.8328 41.8713C72.0568 41.8713 72.2559 41.8215 72.4301 41.7219C72.6168 41.6099 72.7474 41.4855 72.8221 41.3486C72.9092 41.1993 72.9652 41.0624 72.9901 40.9379C73.015 40.8135 73.0274 40.6517 73.0274 40.4526V34.0873C73.0274 33.8384 73.015 33.6642 72.9901 33.5646C72.9776 33.4651 72.9154 33.3468 72.8034 33.2099Z" fill="white"/>
<path d="M82.3832 43.5513V35.9353L80.5912 41.2739H79.6952L77.9219 35.9353V43.5513H76.1299V31.0446H77.8099L80.1805 37.7086L82.5139 31.0446H84.1566V43.5513H82.3832Z" fill="white"/>
<path d="M85.2373 43.5513V31.0446H87.0106V43.5513H85.2373Z" fill="white"/>
<path d="M94.3883 40.3966C94.3883 40.7948 94.3634 41.1371 94.3136 41.4233C94.2763 41.7095 94.1518 42.0206 93.9403 42.3566C93.8283 42.5308 93.6852 42.6988 93.5109 42.8606C93.3492 43.0099 93.1625 43.1468 92.9509 43.2713C92.7518 43.3833 92.5341 43.4766 92.2976 43.5513C92.0612 43.6259 91.8309 43.6633 91.6069 43.6633C91.0469 43.6633 90.5367 43.545 90.0763 43.3086C89.6283 43.0721 89.2985 42.7735 89.0869 42.4126C88.8754 42.0517 88.7385 41.7157 88.6763 41.4046C88.6265 41.0935 88.6016 40.7575 88.6016 40.3966V33.9566C88.6016 33.6082 88.6327 33.2971 88.6949 33.0233C88.7696 32.7371 88.9189 32.4322 89.1429 32.1086C89.3669 31.7851 89.6842 31.5113 90.0949 31.2873C90.5055 31.0508 90.9349 30.9326 91.3829 30.9326C92.2415 30.9326 92.9571 31.2188 93.5295 31.7913C94.102 32.3513 94.3882 33.0731 94.3882 33.9566V34.6286H92.6149V33.9566C92.6149 33.6082 92.5153 33.3157 92.3162 33.0793C92.1296 32.8428 91.8496 32.7246 91.4762 32.7246C91.1278 32.7246 90.854 32.8428 90.6549 33.0793C90.4682 33.3157 90.3749 33.6082 90.3749 33.9566V40.8819C90.3997 41.0686 90.4868 41.2802 90.6362 41.5166C90.8104 41.7655 91.0967 41.8899 91.4949 41.8899C91.918 41.8899 92.198 41.7779 92.3349 41.5539C92.4718 41.3299 92.5527 41.1682 92.5775 41.0686C92.6024 40.9566 92.6148 40.8073 92.6148 40.6206V39.9859H94.3882L94.3883 40.3966Z" fill="white"/>
<path d="M103.25 42.2446C102.964 42.6926 102.597 43.041 102.149 43.2899C101.701 43.5388 101.209 43.6633 100.674 43.6633C100.201 43.6633 99.741 43.5513 99.293 43.3273C98.8574 43.1033 98.5152 42.8295 98.2663 42.5059C98.0298 42.1699 97.8681 41.8339 97.7809 41.4979C97.7063 41.1619 97.6689 40.7824 97.6689 40.3593V34.1059C97.6689 33.7948 97.7001 33.4837 97.7623 33.1726C97.8494 32.8615 98.0796 32.4197 98.4529 31.8473C98.8387 31.2375 99.5978 30.9326 100.73 30.9326C101.228 30.9326 101.695 31.0508 102.13 31.2873C102.566 31.5237 102.896 31.8162 103.12 32.1646C103.356 32.5006 103.505 32.8242 103.568 33.1353C103.642 33.434 103.68 33.7575 103.68 34.1059V34.6286H101.906V34.1059C101.906 34.0064 101.9 33.9193 101.888 33.8446C101.888 33.7575 101.881 33.6828 101.869 33.6206C101.856 33.5086 101.763 33.3282 101.589 33.0793C101.415 32.8304 101.122 32.7059 100.712 32.7059C100.226 32.7059 99.9026 32.8366 99.7408 33.0979C99.5915 33.3593 99.5044 33.5522 99.4795 33.6766C99.4547 33.8011 99.4422 33.9442 99.4422 34.1059V40.3593C99.4422 40.4837 99.4422 40.5895 99.4422 40.6766C99.4422 40.7637 99.4484 40.8384 99.4609 40.9006C99.4734 41.0002 99.5667 41.1931 99.7409 41.4793C99.9027 41.7406 100.22 41.8713 100.693 41.8713C101.178 41.8713 101.489 41.7406 101.626 41.4793C101.701 41.3424 101.757 41.2304 101.794 41.1433C101.832 41.0437 101.856 40.9566 101.869 40.8819C101.894 40.8073 101.906 40.7326 101.906 40.6579C101.906 40.5708 101.906 40.4713 101.906 40.3593V38.1753H100.469V36.6073H103.68V40.3593C103.68 40.6206 103.673 40.8446 103.661 41.0313C103.648 41.2055 103.624 41.361 103.586 41.4979C103.549 41.6348 103.499 41.7655 103.437 41.8899C103.387 42.0019 103.325 42.1202 103.25 42.2446Z" fill="white"/>
<path d="M104.954 43.5513V31.0446H108.09C108.911 31.0446 109.602 31.3308 110.162 31.9033C110.735 32.4757 111.021 33.1788 111.021 34.0126V35.1699C111.021 36.3273 110.529 37.2108 109.546 37.8206L111.45 43.5513H109.546L107.866 38.1939H106.746V43.5513H104.954ZM108.93 36.2153C109.042 36.0784 109.117 35.9228 109.154 35.7486C109.204 35.5744 109.229 35.3815 109.229 35.1699V34.0126C109.229 33.6268 109.123 33.3157 108.911 33.0793C108.7 32.8304 108.401 32.7059 108.015 32.7059H106.746V36.6073H107.997C108.37 36.6073 108.681 36.4766 108.93 36.2153Z" fill="white"/>
<path d="M112.508 32.2206C112.794 31.8224 113.155 31.5113 113.591 31.2873C114.039 31.0508 114.499 30.9326 114.972 30.9326C115.433 30.9326 115.862 31.0259 116.26 31.2126C116.671 31.3993 117.013 31.6544 117.287 31.9779C117.561 32.3015 117.747 32.6375 117.847 32.9859C117.946 33.3219 117.996 33.6891 117.996 34.0873V40.4526C117.996 40.8259 117.959 41.1557 117.884 41.4419C117.822 41.7282 117.673 42.0455 117.436 42.3939C117.212 42.7424 116.882 43.041 116.447 43.2899C116.024 43.5388 115.551 43.6633 115.028 43.6633C114.729 43.6633 114.443 43.6259 114.169 43.5513C113.896 43.4642 113.641 43.3522 113.404 43.2153C113.168 43.0784 112.956 42.9228 112.769 42.7486C112.595 42.5744 112.458 42.3939 112.359 42.2073C112.172 41.8215 112.06 41.5104 112.023 41.2739C111.985 41.0375 111.967 40.7637 111.967 40.4526V34.0873C111.967 33.7139 112.004 33.3842 112.079 33.0979C112.166 32.7993 112.309 32.5068 112.508 32.2206ZM115.98 33.2099C115.744 32.8615 115.42 32.6873 115.009 32.6873C114.798 32.6873 114.586 32.7495 114.375 32.8739C114.176 32.9859 114.033 33.1166 113.945 33.2659C113.871 33.4153 113.821 33.5646 113.796 33.7139C113.771 33.8633 113.759 33.9877 113.759 34.0873V40.4526C113.759 40.5148 113.759 40.5832 113.759 40.6579C113.759 40.7201 113.765 40.7886 113.778 40.8633C113.79 40.9877 113.89 41.1931 114.076 41.4793C114.263 41.7406 114.574 41.8713 115.01 41.8713C115.234 41.8713 115.433 41.8215 115.607 41.7219C115.794 41.6099 115.924 41.4855 115.999 41.3486C116.086 41.1993 116.142 41.0624 116.167 40.9379C116.192 40.8135 116.204 40.6517 116.204 40.4526V34.0873C116.204 33.8384 116.192 33.6642 116.167 33.5646C116.154 33.4651 116.092 33.3468 115.98 33.2099Z" fill="white"/>
<path d="M125.316 43.5513L123.841 35.9353L122.404 43.5513H120.742L118.932 31.0446H120.836L121.732 38.6046L123.169 31.0446H124.494L125.969 38.6046L126.865 31.0446H128.75L126.996 43.5513H125.316Z" fill="white"/>
<path d="M131.254 43.5513V32.7059H129.145V31.0446H135.174V32.7059H133.027V43.5513H131.254Z" fill="white"/>
<path d="M136.053 43.5513V31.0446H137.826V36.3833H140.103V31.0446H141.877V43.5513H140.103V37.9699H137.826V43.5513H136.053Z" fill="white"/>
<path d="M29.0344 36.8179V37.1306C29.0344 37.7857 28.8855 38.4706 28.5878 39.1852C28.29 39.8999 27.8731 40.5699 27.3371 41.1953C26.8011 41.7908 26.1609 42.2821 25.4164 42.6693C24.672 43.0564 23.868 43.2499 23.0044 43.2499H22.8704C22.2451 43.2499 21.6198 43.1606 20.9944 42.9819C20.3989 42.8032 19.8331 42.565 19.2971 42.2672C18.7909 41.9695 18.3442 41.6419 17.9571 41.2846C17.57 40.8975 17.2871 40.4955 17.1084 40.0786C16.7213 39.2448 16.4831 38.5599 16.3938 38.0239C16.3044 37.4581 16.2598 36.8923 16.2598 36.3266V31.1006C16.2598 29.5521 16.9744 28.2419 18.4038 27.1699C16.9744 26.0979 16.2598 24.6239 16.2598 22.7479V18.7279C16.2598 18.1026 16.364 17.5219 16.5724 16.9859C16.7809 16.4201 17.3169 15.5715 18.1804 14.4399C19.0142 13.3381 20.5478 12.7872 22.7811 12.7872C23.5851 12.7872 24.3742 12.9659 25.1484 13.3232C25.8929 13.6806 26.7267 14.3357 27.6498 15.2886C28.5729 16.2117 29.0344 17.5219 29.0344 19.2192V23.0606C29.0344 24.7877 28.3198 26.1575 26.8904 27.1699C28.3198 28.2121 29.0344 29.6266 29.0344 31.4132V36.8179ZM22.6918 17.0306C22.0664 17.0306 21.5453 17.2539 21.1284 17.7006C20.7116 18.1174 20.5031 18.6237 20.5031 19.2192V23.0606C20.5031 23.7455 20.6818 24.341 21.0391 24.8472C21.4262 25.3237 21.9622 25.5619 22.6471 25.5619C23.3916 25.5619 23.9275 25.3386 24.2551 24.8919C24.6124 24.4155 24.7911 23.805 24.7911 23.0606V19.2192C24.7911 18.6535 24.5827 18.1472 24.1658 17.7006C23.7787 17.2539 23.2873 17.0306 22.6918 17.0306ZM22.6918 28.8226C22.0367 28.8226 21.5007 29.0459 21.0838 29.4926C20.6967 29.9095 20.5031 30.4454 20.5031 31.1006V36.3266C20.5031 37.1008 20.6818 37.741 21.0391 38.2473C21.3964 38.7237 21.9771 38.9619 22.7811 38.9619C23.5553 38.9619 24.0764 38.7088 24.3444 38.2026C24.6422 37.6666 24.7911 37.0412 24.7911 36.3266V31.1006C24.7911 30.4454 24.5976 29.9095 24.2104 29.4926C23.8531 29.0459 23.3469 28.8226 22.6918 28.8226Z" fill="white"/>
<path d="M110.182 55.0606C110.12 55.0599 110.056 55.0666 109.992 55.084L97.7734 58.3574C97.262 58.4945 97.0914 59.1343 97.4668 59.5078L100.107 62.1484L74.0176 88.2558L63.6328 77.873C62.6565 76.8971 61.074 76.8971 60.0977 77.873L39.1309 98.8398L42.668 102.375L61.8652 83.1758L72.248 93.5605C73.2246 94.5377 74.8086 94.5377 75.7852 93.5605L103.643 65.6836L106.41 68.4512C106.542 68.5825 106.72 68.6551 106.906 68.6523C107.213 68.6483 107.481 68.441 107.561 68.1445L110.834 55.9258C110.954 55.4784 110.612 55.065 110.182 55.0606ZM103.643 72.7559L87.1816 89.2285V129.467C87.1816 130.525 88.0338 131.375 89.0918 131.375H103.092C104.15 131.375 105.002 130.525 105.002 129.467V74.1152L103.643 72.7559ZM61.375 90.7383L43.5566 108.559V129.467C43.5566 130.525 44.4088 131.375 45.4668 131.375H59.4668C60.5248 131.375 61.375 130.525 61.375 129.467V90.7383ZM83.1875 93.2246L75.7852 100.633C74.8086 101.61 73.2246 101.61 72.248 100.633L65.3691 93.752V129.467C65.3691 130.525 66.2213 131.375 67.2793 131.375H81.2793C82.3373 131.375 83.1875 130.525 83.1875 129.467V93.2246Z" fill="white"/>
<path d="M110.182 55.0606C110.12 55.0599 110.056 55.0666 109.992 55.084L97.7734 58.3574C97.262 58.4945 97.0914 59.1343 97.4668 59.5078L100.107 62.1484L74.0176 88.2558L63.6328 77.873C62.6565 76.8971 61.074 76.8971 60.0977 77.873L39.1309 98.8398L42.668 102.375L61.8652 83.1758L72.248 93.5605C73.2246 94.5377 74.8086 94.5377 75.7852 93.5605L103.643 65.6836L106.41 68.4512C106.542 68.5825 106.72 68.6551 106.906 68.6523C107.213 68.6483 107.481 68.441 107.561 68.1445L110.834 55.9258C110.954 55.4784 110.612 55.065 110.182 55.0606Z" fill="white"/>
</svg>
