<svg viewBox="0 0 149 150" fill="none" xmlns="http://www.w3.org/2000/svg">
<path fill-rule="evenodd" clip-rule="evenodd" d="M1.69296 0.728333H148.132C148.59 0.728333 148.959 1.09705 148.959 1.55508V148.236C148.959 148.694 148.59 149.063 148.132 149.063H1.69296C1.23494 149.063 0.866211 148.694 0.866211 148.236V1.55508C0.866211 1.09705 1.23494 0.728333 1.69296 0.728333Z" fill="#F36D25"/>
<path d="M36.5391 25.9625V13.4558H38.3124V25.9625H36.5391Z" fill="white"/>
<path d="M43.5919 25.9625L40.8105 18.3651V25.9625H39.0186V13.4558H40.7172L43.4799 21.0345V13.4558H45.2719V25.9625H43.5919Z" fill="white"/>
<path d="M48.9907 13.4558C49.7996 13.4558 50.4902 13.742 51.0627 14.3145C51.6475 14.8745 51.94 15.5589 51.94 16.3678V22.8638C51.94 23.7847 51.66 24.5313 51.1 25.1038C50.54 25.6762 49.8182 25.9625 48.9347 25.9625H46.1533V13.4558H48.9907ZM50.1667 22.8638V16.3678C50.1667 16.0194 50.036 15.7269 49.7747 15.4904C49.5258 15.254 49.2209 15.1358 48.86 15.1358H47.9266V24.3011H48.804C49.7124 24.3011 50.1667 23.822 50.1667 22.8638Z" fill="white"/>
<path d="M58.3811 24.6558C58.1074 25.0789 57.7527 25.4211 57.3171 25.6825C56.894 25.9438 56.4211 26.0745 55.8985 26.0745C55.6371 26.0745 55.3758 26.0371 55.1145 25.9625C54.8656 25.8878 54.6292 25.7945 54.4052 25.6825C54.1812 25.558 53.982 25.4211 53.8078 25.2718C53.6336 25.11 53.5029 24.942 53.4158 24.7678C53.2291 24.4193 53.1047 24.1145 53.0425 23.8531C52.9927 23.5918 52.9678 23.3118 52.9678 23.0131V13.4558H54.7598V23.0131C54.7598 23.1002 54.7598 23.1811 54.7598 23.2558C54.7723 23.318 54.7847 23.3802 54.7971 23.4425C54.8096 23.542 54.9029 23.7162 55.0771 23.9651C55.2389 24.1891 55.5189 24.3011 55.9171 24.3011C56.278 24.3011 56.5455 24.1705 56.7198 23.9091C56.9064 23.6353 56.9998 23.3367 56.9998 23.0131V13.4558H58.7917V23.0131C58.7917 23.3118 58.7607 23.598 58.6985 23.8718C58.6363 24.1456 58.5305 24.4069 58.3811 24.6558Z" fill="white"/>
<path d="M61.2951 22.8451C61.2951 22.9696 61.2951 23.0753 61.2951 23.1624C61.2951 23.2496 61.3013 23.3243 61.3138 23.3865C61.3386 23.5109 61.432 23.6913 61.5938 23.9278C61.768 24.1767 62.0791 24.3011 62.5271 24.3011C62.776 24.3011 63.0062 24.2513 63.2178 24.1518C63.4293 24.0398 63.5849 23.8967 63.6844 23.7225C63.7591 23.5856 63.8027 23.4549 63.8151 23.3305C63.84 23.206 63.8524 23.094 63.8524 22.9944V22.8264V21.9491V21.7811C63.8524 21.5073 63.8026 21.2958 63.7031 21.1465C63.6035 20.9847 63.3795 20.8042 63.0311 20.6051C62.7946 20.4807 62.3715 20.3065 61.7617 20.0825C61.1519 19.8585 60.6417 19.5038 60.231 19.0185C59.8204 18.5331 59.6151 17.8736 59.6151 17.0398V16.4798C59.6151 15.6211 59.9013 14.8869 60.4737 14.2771C61.0586 13.6549 61.7679 13.3438 62.6017 13.3438C63.4728 13.3438 64.1946 13.6487 64.7671 14.2585C65.352 14.8682 65.6444 15.6087 65.6444 16.4798V17.0398H63.8524V16.4798C63.8524 16.3927 63.8462 16.3118 63.8337 16.2371C63.8337 16.1625 63.8275 16.094 63.815 16.0318C63.8025 15.9696 63.7714 15.8949 63.7217 15.8078C63.6719 15.7207 63.6034 15.6149 63.5164 15.4904C63.3421 15.2416 63.0497 15.1171 62.639 15.1171C62.2782 15.1171 61.9795 15.2478 61.743 15.5091C61.519 15.7705 61.407 16.094 61.407 16.4798V17.0398V17.2078C61.407 17.4567 61.4444 17.6558 61.519 17.8051C61.6062 17.942 61.8053 18.0976 62.1164 18.2718C62.2159 18.3216 62.3652 18.3901 62.5644 18.4771C62.7759 18.5518 63.031 18.6451 63.3297 18.7571C63.927 18.9563 64.4621 19.3109 64.935 19.8211C65.4079 20.3314 65.6444 21.0033 65.6444 21.8371V22.8451C65.6444 23.2807 65.6008 23.6478 65.5137 23.9465C65.439 24.2451 65.1839 24.6807 64.7484 25.2531C64.3128 25.8007 63.5848 26.0745 62.5644 26.0745C61.4817 26.0745 60.6977 25.726 60.2124 25.0291C59.727 24.3198 59.4844 23.5918 59.4844 22.8451V22.3971H61.295L61.2951 22.8451Z" fill="white"/>
<path d="M67.5087 25.9625V15.1171H65.3994V13.4558H71.4287V15.1171H69.2821V25.9625H67.5087Z" fill="white"/>
<path d="M71.7979 25.9625V13.4558H74.9338C75.7552 13.4558 76.4459 13.742 77.0059 14.3145C77.5783 14.8869 77.8645 15.59 77.8645 16.4238V17.5811C77.8645 18.7384 77.373 19.622 76.3899 20.2318L78.2939 25.9625H76.3899L74.7098 20.6051H73.5898V25.9625H71.7979ZM75.7739 18.6265C75.8859 18.4896 75.9605 18.334 75.9979 18.1598C76.0477 17.9856 76.0725 17.7927 76.0725 17.5811V16.4238C76.0725 16.038 75.9668 15.7269 75.7552 15.4904C75.5437 15.2416 75.245 15.1171 74.8592 15.1171H73.5899V19.0185H74.8405C75.2139 19.0185 75.525 18.8878 75.7739 18.6265Z" fill="white"/>
<path d="M80.0292 25.9625V20.5865L77.6025 13.4558H79.4692L80.9252 18.3465L82.3999 13.4558H84.2852L81.8025 20.5865V25.9625H80.0292Z" fill="white"/>
<path d="M83.1953 27.2878V24.1891H84.9873V25.9625L83.1953 27.2878Z" fill="white"/>
<path d="M87.7061 25.9625V13.4558H89.4794V25.9625H87.7061Z" fill="white"/>
<path d="M94.9708 25.9625L92.1895 18.3651V25.9625H90.3975V13.4558H92.0961L94.8588 21.0345V13.4558H96.6508V25.9625H94.9708Z" fill="white"/>
<path d="M101.724 25.9625L98.9424 18.3651V25.9625H97.1504V13.4558H98.849L101.612 21.0345V13.4558H103.404V25.9625H101.724Z" fill="white"/>
<path d="M104.495 14.6318C104.782 14.2336 105.143 13.9225 105.578 13.6985C106.026 13.462 106.487 13.3438 106.959 13.3438C107.42 13.3438 107.849 13.4371 108.247 13.6238C108.658 13.8105 109 14.0656 109.274 14.3891C109.548 14.7127 109.735 15.0487 109.834 15.3971C109.934 15.7331 109.983 16.1003 109.983 16.4985V22.8638C109.983 23.2371 109.946 23.5669 109.871 23.8531C109.809 24.1393 109.66 24.4567 109.423 24.8051C109.199 25.1536 108.87 25.4523 108.434 25.7011C108.011 25.95 107.538 26.0745 107.015 26.0745C106.717 26.0745 106.431 26.0371 106.157 25.9625C105.883 25.8754 105.628 25.7634 105.391 25.6265C105.155 25.4896 104.943 25.334 104.757 25.1598C104.583 24.9856 104.446 24.8051 104.346 24.6185C104.159 24.2327 104.047 23.9216 104.01 23.6851C103.973 23.4487 103.954 23.1749 103.954 22.8638V16.4985C103.954 16.1251 103.991 15.7953 104.066 15.5091C104.153 15.2105 104.296 14.918 104.495 14.6318ZM107.967 15.6211C107.731 15.2727 107.407 15.0984 106.997 15.0984C106.785 15.0984 106.574 15.1607 106.362 15.2851C106.163 15.3971 106.02 15.5278 105.933 15.6771C105.858 15.8265 105.808 15.9758 105.783 16.1251C105.759 16.2745 105.746 16.3989 105.746 16.4985V22.8638C105.746 22.926 105.746 22.9944 105.746 23.0691C105.746 23.1313 105.752 23.1998 105.765 23.2745C105.777 23.3989 105.877 23.6043 106.064 23.8905C106.25 24.1518 106.561 24.2825 106.997 24.2825C107.221 24.2825 107.42 24.2327 107.594 24.1331C107.781 24.0211 107.912 23.8967 107.986 23.7598C108.073 23.6105 108.129 23.4736 108.154 23.3491C108.179 23.2247 108.191 23.0629 108.191 22.8638V16.4985C108.191 16.2496 108.179 16.0754 108.154 15.9758C108.142 15.8762 108.079 15.758 107.967 15.6211Z" fill="white"/>
<path d="M112.751 25.9625L110.193 13.4558H112.06L113.516 22.1358L114.991 13.4558H116.895L114.281 25.9625H112.751Z" fill="white"/>
<path d="M116.121 25.9625L118.921 13.4558H120.47L123.27 25.9625H121.348L120.844 23.2745H118.529L118.006 25.9625H116.121ZM118.846 21.6131H120.526L119.686 17.0585L118.846 21.6131Z" fill="white"/>
<path d="M124.472 25.9625V15.1171H122.362V13.4558H128.392V15.1171H126.245V25.9625H124.472Z" fill="white"/>
<path d="M128.727 25.9625V13.4558H130.5V25.9625H128.727Z" fill="white"/>
<path d="M131.829 14.6318C132.116 14.2336 132.477 13.9225 132.912 13.6985C133.36 13.462 133.821 13.3438 134.293 13.3438C134.754 13.3438 135.183 13.4371 135.581 13.6238C135.992 13.8105 136.334 14.0656 136.608 14.3891C136.882 14.7127 137.069 15.0487 137.168 15.3971C137.268 15.7331 137.317 16.1003 137.317 16.4985V22.8638C137.317 23.2371 137.28 23.5669 137.205 23.8531C137.143 24.1393 136.994 24.4567 136.757 24.8051C136.533 25.1536 136.204 25.4523 135.768 25.7011C135.345 25.95 134.872 26.0745 134.349 26.0745C134.051 26.0745 133.765 26.0371 133.491 25.9625C133.217 25.8754 132.962 25.7634 132.725 25.6265C132.489 25.4896 132.277 25.334 132.091 25.1598C131.917 24.9856 131.78 24.8051 131.68 24.6185C131.493 24.2327 131.381 23.9216 131.344 23.6851C131.307 23.4487 131.288 23.1749 131.288 22.8638V16.4985C131.288 16.1251 131.325 15.7953 131.4 15.5091C131.487 15.2105 131.63 14.918 131.829 14.6318ZM135.301 15.6211C135.065 15.2727 134.741 15.0984 134.331 15.0984C134.119 15.0984 133.908 15.1607 133.696 15.2851C133.497 15.3971 133.354 15.5278 133.267 15.6771C133.192 15.8265 133.142 15.9758 133.117 16.1251C133.093 16.2745 133.08 16.3989 133.08 16.4985V22.8638C133.08 22.926 133.08 22.9944 133.08 23.0691C133.08 23.1313 133.086 23.1998 133.099 23.2745C133.111 23.3989 133.211 23.6043 133.397 23.8905C133.584 24.1518 133.895 24.2825 134.331 24.2825C134.555 24.2825 134.754 24.2327 134.928 24.1331C135.115 24.0211 135.245 23.8967 135.32 23.7598C135.407 23.6105 135.463 23.4736 135.488 23.3491C135.513 23.2247 135.525 23.0629 135.525 22.8638V16.4985C135.525 16.2496 135.513 16.0754 135.488 15.9758C135.476 15.8762 135.413 15.758 135.301 15.6211Z" fill="white"/>
<path d="M142.959 25.9625L140.178 18.3651V25.9625H138.386V13.4558H140.084L142.847 21.0345V13.4558H144.639V25.9625H142.959Z" fill="white"/>
<path d="M35.9492 43.2094L38.7492 30.7028H40.2986L43.0985 43.2094H41.1759L40.6719 40.5215H38.3572L37.8346 43.2094H35.9492ZM38.6746 38.8601H40.3546L39.5146 34.3055L38.6746 38.8601Z" fill="white"/>
<path d="M47.7979 43.2094L45.0166 35.6121V43.2094H43.2246V30.7028H44.9233L47.6859 38.2814V30.7028H49.4779V43.2094H47.7979Z" fill="white"/>
<path d="M53.2387 30.7028C54.0476 30.7028 54.7383 30.989 55.3107 31.5614C55.8956 32.1214 56.188 32.8059 56.188 33.6148V40.1108C56.188 41.0317 55.908 41.7783 55.348 42.3508C54.788 42.9232 54.0663 43.2094 53.1827 43.2094H50.4014V30.7028H53.2387ZM54.4147 40.1108V33.6148C54.4147 33.2663 54.284 32.9739 54.0227 32.7374C53.7738 32.501 53.4689 32.3828 53.108 32.3828H52.1747V41.5481H53.052C53.9605 41.5481 54.4147 41.069 54.4147 40.1108Z" fill="white"/>
<path d="M58.7637 43.2094V30.7028H60.537V43.2094H58.7637Z" fill="white"/>
<path d="M65.9688 43.2094L63.1875 35.6121V43.2094H61.3955V30.7028H63.0942L65.8568 38.2814V30.7028H67.6488V43.2094H65.9688Z" fill="white"/>
<path d="M68.208 43.2094V30.7028H73.5467V32.3828H69.9813V36.1348H73.0987V37.8148H69.9813V43.2094H68.208Z" fill="white"/>
<path d="M73.8115 43.2094V30.7028H76.9475C77.7688 30.7028 78.4595 30.989 79.0195 31.5614C79.5919 32.1339 79.8782 32.837 79.8782 33.6708V34.8281C79.8782 35.9855 79.3866 36.869 78.4035 37.4788L80.3075 43.2094H78.4035L76.7235 37.8521H75.6035V43.2094H73.8115ZM77.7875 35.8734C77.8995 35.7366 77.9742 35.581 78.0115 35.4068C78.0613 35.2325 78.0862 35.0397 78.0862 34.8281V33.6708C78.0862 33.285 77.9804 32.9739 77.7689 32.7374C77.5573 32.4885 77.2586 32.3641 76.8729 32.3641H75.6035V36.2654H76.8542C77.2276 36.2654 77.5386 36.1348 77.7875 35.8734Z" fill="white"/>
<path d="M80.0635 43.2094L82.8635 30.7028H84.4128L87.2128 43.2094H85.2902L84.7862 40.5215H82.4715L81.9488 43.2094H80.0635ZM82.7888 38.8601H84.4688L83.6288 34.3055L82.7888 38.8601Z" fill="white"/>
<path d="M88.6642 40.0921C88.6642 40.2165 88.6642 40.3223 88.6642 40.4095C88.6642 40.4966 88.6705 40.5712 88.6829 40.6335C88.7078 40.7579 88.8011 40.9383 88.9629 41.1748C89.1371 41.4237 89.4482 41.5481 89.8962 41.5481C90.1451 41.5481 90.3754 41.4983 90.5869 41.3988C90.7985 41.2868 90.954 41.1437 91.0536 40.9695C91.1283 40.8326 91.1718 40.7019 91.1843 40.5775C91.2091 40.453 91.2216 40.341 91.2216 40.2415V40.0734V39.1961V39.0281C91.2216 38.7543 91.1718 38.5428 91.0722 38.3934C90.9727 38.2317 90.7487 38.0512 90.4002 37.8521C90.1638 37.7277 89.7407 37.5534 89.1309 37.3294C88.5211 37.1054 88.0109 36.7508 87.6002 36.2654C87.1896 35.7801 86.9842 35.1206 86.9842 34.2868V33.7268C86.9842 32.8681 87.2704 32.1339 87.8429 31.5241C88.4278 30.9019 89.1371 30.5908 89.9709 30.5908C90.842 30.5908 91.5638 30.8957 92.1362 31.5054C92.7211 32.1152 93.0135 32.8557 93.0135 33.7268V34.2868H91.2216V33.7268C91.2216 33.6397 91.2153 33.5588 91.2029 33.4841C91.2029 33.4094 91.1966 33.341 91.1841 33.2788C91.1717 33.2166 91.1406 33.1419 91.0909 33.0548C91.0411 32.9677 90.9726 32.8619 90.8855 32.7374C90.7113 32.4885 90.4188 32.3641 90.0082 32.3641C89.6473 32.3641 89.3486 32.4948 89.1122 32.7561C88.8882 33.0174 88.7762 33.341 88.7762 33.7268V34.2868V34.4548C88.7762 34.7037 88.8135 34.9028 88.8882 35.0521C88.9753 35.189 89.1744 35.3445 89.4855 35.5188C89.5851 35.5686 89.7344 35.637 89.9335 35.7241C90.1451 35.7988 90.4002 35.8921 90.6989 36.0041C91.2962 36.2032 91.8313 36.5579 92.3042 37.0681C92.7771 37.5783 93.0135 38.2503 93.0135 39.0841V40.0921C93.0135 40.5277 92.9699 40.8948 92.8828 41.1935C92.8082 41.4921 92.5531 41.9277 92.1175 42.5001C91.682 43.0477 90.9539 43.3214 89.9335 43.3214C88.8508 43.3214 88.0668 42.973 87.5815 42.2761C87.0962 41.5668 86.8535 40.8388 86.8535 40.0921V39.6441H88.6642L88.6642 40.0921Z" fill="white"/>
<path d="M94.8232 43.2094V32.3641H92.7139V30.7028H98.7432V32.3641H96.5965V43.2094H94.8232Z" fill="white"/>
<path d="M99.0596 43.2094V30.7028H102.196C103.017 30.7028 103.708 30.989 104.268 31.5614C104.84 32.1339 105.126 32.837 105.126 33.6708V34.8281C105.126 35.9855 104.635 36.869 103.652 37.4788L105.556 43.2094H103.652L101.972 37.8521H100.852V43.2094H99.0596ZM103.036 35.8734C103.148 35.7366 103.222 35.581 103.26 35.4068C103.309 35.2325 103.334 35.0397 103.334 34.8281V33.6708C103.334 33.285 103.228 32.9739 103.017 32.7374C102.805 32.4885 102.507 32.3641 102.121 32.3641H100.852V36.2654H102.102C102.476 36.2654 102.787 36.1348 103.036 35.8734Z" fill="white"/>
<path d="M110.951 41.9028C110.678 42.3259 110.323 42.6681 109.887 42.9294C109.464 43.1908 108.991 43.3214 108.469 43.3214C108.207 43.3214 107.946 43.2841 107.685 43.2094C107.436 43.1348 107.199 43.0414 106.975 42.9294C106.751 42.805 106.552 42.6681 106.378 42.5188C106.204 42.357 106.073 42.189 105.986 42.0148C105.799 41.6663 105.675 41.3614 105.613 41.1001C105.563 40.8388 105.538 40.5588 105.538 40.2601V30.7028H107.33V40.2601C107.33 40.3472 107.33 40.4281 107.33 40.5028C107.343 40.565 107.355 40.6272 107.367 40.6895C107.38 40.789 107.473 40.9632 107.647 41.2121C107.809 41.4361 108.089 41.5481 108.487 41.5481C108.848 41.5481 109.116 41.4174 109.29 41.1561C109.477 40.8823 109.57 40.5837 109.57 40.2601V30.7028H111.362V40.2601C111.362 40.5588 111.331 40.845 111.269 41.1188C111.207 41.3926 111.101 41.6539 110.951 41.9028Z" fill="white"/>
<path d="M118.157 40.0548C118.157 40.453 118.132 40.7952 118.082 41.0815C118.045 41.3677 117.92 41.6788 117.709 42.0148C117.597 42.189 117.454 42.357 117.279 42.5188C117.118 42.6681 116.931 42.805 116.719 42.9294C116.52 43.0414 116.303 43.1348 116.066 43.2094C115.83 43.2841 115.599 43.3214 115.375 43.3214C114.815 43.3214 114.305 43.2032 113.845 42.9668C113.397 42.7303 113.067 42.4317 112.855 42.0708C112.644 41.7099 112.507 41.3739 112.445 41.0628C112.395 40.7517 112.37 40.4157 112.37 40.0548V33.6148C112.37 33.2663 112.401 32.9552 112.463 32.6814C112.538 32.3952 112.687 32.0903 112.911 31.7668C113.135 31.4432 113.453 31.1694 113.863 30.9454C114.274 30.709 114.703 30.5908 115.151 30.5908C116.01 30.5908 116.726 30.877 117.298 31.4494C117.871 32.0094 118.157 32.7312 118.157 33.6148V34.2868H116.383V33.6148C116.383 33.2663 116.284 32.9739 116.085 32.7374C115.898 32.501 115.618 32.3828 115.245 32.3828C114.896 32.3828 114.623 32.501 114.423 32.7374C114.237 32.9739 114.143 33.2663 114.143 33.6148V40.5401C114.168 40.7268 114.255 40.9383 114.405 41.1748C114.579 41.4237 114.865 41.5481 115.263 41.5481C115.687 41.5481 115.967 41.4361 116.103 41.2121C116.24 40.9881 116.321 40.8263 116.346 40.7268C116.371 40.6148 116.383 40.4654 116.383 40.2788V39.6441H118.157L118.157 40.0548Z" fill="white"/>
<path d="M120.413 43.2094V32.3641H118.304V30.7028H124.333V32.3641H122.186V43.2094H120.413Z" fill="white"/>
<path d="M130.021 41.9028C129.747 42.3259 129.392 42.6681 128.957 42.9294C128.534 43.1908 128.061 43.3214 127.538 43.3214C127.277 43.3214 127.015 43.2841 126.754 43.2094C126.505 43.1348 126.269 43.0414 126.045 42.9294C125.821 42.805 125.622 42.6681 125.447 42.5188C125.273 42.357 125.143 42.189 125.055 42.0148C124.869 41.6663 124.744 41.3614 124.682 41.1001C124.632 40.8388 124.607 40.5588 124.607 40.2601V30.7028H126.399V40.2601C126.399 40.3472 126.399 40.4281 126.399 40.5028C126.412 40.565 126.424 40.6272 126.437 40.6895C126.449 40.789 126.543 40.9632 126.717 41.2121C126.878 41.4361 127.158 41.5481 127.557 41.5481C127.918 41.5481 128.185 41.4174 128.359 41.1561C128.546 40.8823 128.639 40.5837 128.639 40.2601V30.7028H130.431V40.2601C130.431 40.5588 130.4 40.845 130.338 41.1188C130.276 41.3926 130.17 41.6539 130.021 41.9028Z" fill="white"/>
<path d="M131.291 43.2094V30.7028H134.427C135.248 30.7028 135.939 30.989 136.499 31.5614C137.071 32.1339 137.358 32.837 137.358 33.6708V34.8281C137.358 35.9855 136.866 36.869 135.883 37.4788L137.787 43.2094H135.883L134.203 37.8521H133.083V43.2094H131.291ZM135.267 35.8734C135.379 35.7366 135.454 35.581 135.491 35.4068C135.541 35.2325 135.566 35.0397 135.566 34.8281V33.6708C135.566 33.285 135.46 32.9739 135.248 32.7374C135.037 32.4885 134.738 32.3641 134.352 32.3641H133.083V36.2654H134.334C134.707 36.2654 135.018 36.1348 135.267 35.8734Z" fill="white"/>
<path d="M143.248 41.4174V43.2094H137.891V30.7028H143.248V32.3454H139.664V36.0414H142.8V37.7401H139.664V41.4174H143.248Z" fill="white"/>
<path d="M16.101 27.8399C15.8925 27.423 15.7585 27.0359 15.699 26.6786C15.6692 26.2914 15.6543 25.7257 15.6543 24.9812V18.9066C15.6543 18.2514 15.7585 17.6559 15.9669 17.1199C16.0861 16.8221 16.2647 16.4648 16.503 16.0479C16.771 15.631 17.1134 15.1248 17.5303 14.5292C18.3641 13.3679 19.8529 12.7872 21.9969 12.7872C24.0218 12.7872 25.5852 13.4721 26.687 14.8419C27.8483 16.1819 28.429 17.7304 28.429 19.4872V24.3559C28.429 25.5172 28.1907 26.6786 27.7143 27.8399L22.0863 42.9819H17.2176L22.2203 30.3859C21.4461 30.5646 20.8505 30.6539 20.4336 30.6539C19.4807 30.6539 18.6023 30.4008 17.7983 29.8946C17.0241 29.3586 16.4583 28.6737 16.101 27.8399ZM22.131 16.9859C21.4163 16.9859 20.8803 17.239 20.523 17.7452C20.1656 18.2217 19.987 18.8024 19.987 19.4872V24.3559C19.987 25.1003 20.1805 25.7108 20.5677 26.1872C20.9548 26.6637 21.5205 26.9019 22.265 26.9019C22.9201 26.9019 23.3965 26.6786 23.6943 26.2319C24.0219 25.7555 24.1857 25.1301 24.1857 24.3559V19.4872C24.1857 18.7428 24.0219 18.1472 23.6943 17.7006C23.3965 17.2241 22.8754 16.9859 22.131 16.9859Z" fill="white"/>
<path fill-rule="evenodd" clip-rule="evenodd" d="M77.8911 55.517C77.4889 55.2848 76.9934 55.2848 76.5911 55.517L58.2184 66.1245C57.8161 66.3567 57.5684 66.7859 57.5684 67.2503C57.5684 67.3865 57.5897 67.5196 57.6299 67.6456V87.5759L40.11 97.691C39.7077 97.9233 39.46 98.3524 39.46 98.8169V119.798C39.46 120.263 39.7077 120.692 40.11 120.924L57.7157 131.089C57.9325 131.503 58.3663 131.787 58.8665 131.787C59.323 131.788 59.7249 131.553 59.9573 131.198L77.1009 121.3L94.762 131.496C94.8123 131.525 94.864 131.551 94.9168 131.573C95.2867 131.725 95.7101 131.7 96.062 131.496C96.0638 131.495 96.0657 131.494 96.0675 131.493L114.233 121.006C114.635 120.773 114.883 120.344 114.883 119.88V98.8981C114.883 98.4337 114.635 98.0045 114.233 97.7723L96.5711 87.5754V67.4409C96.6042 67.3256 96.6217 67.2049 96.6217 67.0816C96.6217 66.6172 96.3739 66.188 95.9717 65.9558L77.8911 55.517ZM96.712 128.119L112.283 119.129V101.15L96.712 110.139V128.119ZM95.3218 107.94L110.982 98.8981L95.4119 89.9085L79.7514 98.9501L95.3218 107.94ZM75.7393 101.104L61.5299 109.308L75.7393 117.512V101.104ZM79.4981 77.7185L93.9711 69.3625V86.0745L79.4981 77.7185ZM60.2299 69.5375L74.3489 77.6892L60.2299 85.8408V69.5375ZM74.5008 119.799L60.1754 128.069L60.2232 111.556L74.5008 119.799ZM75.9414 96.4837L61.4686 88.1278L75.9414 79.772V96.4837ZM42.06 101.14L57.5684 110.093V128.002L42.06 119.048V101.14ZM78.5414 80.1684L92.671 88.3261L78.5414 96.4838V80.1684Z" fill="white"/>
</svg>
