<svg viewBox="0 0 149 150" fill="none" xmlns="http://www.w3.org/2000/svg">
<path fill-rule="evenodd" clip-rule="evenodd" d="M1.66663 0.728333H148.106C148.564 0.728333 148.933 1.09705 148.933 1.55508V148.236C148.933 148.694 148.564 149.063 148.106 149.063H1.66663C1.2086 149.063 0.839844 148.694 0.839844 148.236V1.55508C0.839844 1.09705 1.2086 0.728333 1.66663 0.728333Z" fill="#E11484"/>
<path d="M48.6465 25.9625V13.4558H51.7825C52.6038 13.4558 53.2944 13.742 53.8544 14.3145C54.4269 14.8869 54.7131 15.59 54.7131 16.4238V17.5811C54.7131 18.7384 54.2216 19.622 53.2385 20.2318L55.1425 25.9625H53.2385L51.5585 20.6051H50.4385V25.9625H48.6465ZM52.6224 18.6265C52.7344 18.4896 52.8091 18.334 52.8464 18.1598C52.8962 17.9856 52.9211 17.7927 52.9211 17.5811V16.4238C52.9211 16.038 52.8154 15.7269 52.6038 15.4904C52.3923 15.2416 52.0936 15.1171 51.7078 15.1171H50.4385V19.0185H51.6891C52.0625 19.0185 52.3735 18.8878 52.6224 18.6265Z" fill="white"/>
<path d="M61.2684 24.1705V25.9625H55.9111V13.4558H61.2684V15.0984H57.6844V18.7945H60.8204V20.4931H57.6844V24.1705H61.2684Z" fill="white"/>
<path d="M64.9623 13.4558C65.7712 13.4558 66.4619 13.742 67.0344 14.3145C67.6193 14.8745 67.9117 15.5589 67.9117 16.3678V22.8638C67.9117 23.7847 67.6317 24.5313 67.0717 25.1038C66.5117 25.6762 65.7899 25.9625 64.9064 25.9625H62.125V13.4558H64.9623ZM66.1384 22.8638V16.3678C66.1384 16.0194 66.0077 15.7269 65.7463 15.4904C65.4975 15.254 65.1926 15.1358 64.8317 15.1358H63.8983V24.3011H64.7757C65.6841 24.3011 66.1384 23.822 66.1384 22.8638Z" fill="white"/>
<path d="M75.1224 24.6558C74.8486 25.0789 74.4939 25.4211 74.0583 25.6825C73.6352 25.9438 73.1624 26.0745 72.6397 26.0745C72.3784 26.0745 72.117 26.0371 71.8557 25.9625C71.6068 25.8878 71.3704 25.7945 71.1464 25.6825C70.9224 25.558 70.7232 25.4211 70.549 25.2718C70.3748 25.11 70.2442 24.942 70.157 24.7678C69.9704 24.4193 69.8459 24.1145 69.7837 23.8531C69.7339 23.5918 69.709 23.3118 69.709 23.0131V13.4558H71.501V23.0131C71.501 23.1002 71.501 23.1811 71.501 23.2558C71.5134 23.318 71.5259 23.3802 71.5383 23.4425C71.5507 23.542 71.6441 23.7162 71.8183 23.9651C71.9801 24.1891 72.26 24.3011 72.6583 24.3011C73.0192 24.3011 73.2867 24.1705 73.4609 23.9091C73.6476 23.6353 73.741 23.3367 73.741 23.0131V13.4558H75.533V23.0131C75.533 23.3118 75.5018 23.598 75.4396 23.8718C75.3774 24.1456 75.2717 24.4069 75.1224 24.6558Z" fill="white"/>
<path d="M82.7496 22.8078C82.7496 23.206 82.7247 23.5483 82.6749 23.8345C82.6376 24.1207 82.5131 24.4318 82.3016 24.7678C82.1896 24.942 82.0465 25.11 81.8723 25.2718C81.7105 25.4211 81.5238 25.558 81.3123 25.6825C81.1131 25.7945 80.8954 25.8878 80.6589 25.9625C80.4225 26.0371 80.1923 26.0745 79.9683 26.0745C79.4083 26.0745 78.898 25.9562 78.4376 25.7198C77.9896 25.4833 77.6598 25.1847 77.4482 24.8238C77.2367 24.4629 77.0998 24.1269 77.0376 23.8158C76.9878 23.5047 76.9629 23.1687 76.9629 22.8078V16.3678C76.9629 16.0194 76.994 15.7082 77.0562 15.4344C77.1308 15.1482 77.2802 14.8434 77.5042 14.5198C77.7282 14.1962 78.0455 13.9225 78.4562 13.6985C78.8668 13.462 79.2962 13.3438 79.7442 13.3438C80.6029 13.3438 81.3184 13.63 81.8909 14.2025C82.4633 14.7625 82.7495 15.4842 82.7495 16.3678V17.0398H80.9762V16.3678C80.9762 16.0194 80.8766 15.7269 80.6775 15.4904C80.4908 15.254 80.2109 15.1358 79.8375 15.1358C79.4891 15.1358 79.2153 15.254 79.0162 15.4904C78.8295 15.7269 78.7361 16.0194 78.7361 16.3678V23.2931C78.761 23.4798 78.8481 23.6913 78.9975 23.9278C79.1717 24.1767 79.458 24.3011 79.8562 24.3011C80.2793 24.3011 80.5593 24.1891 80.6962 23.9651C80.8331 23.7411 80.9139 23.5794 80.9388 23.4798C80.9637 23.3678 80.9761 23.2185 80.9761 23.0318V22.3971H82.7495L82.7496 22.8078Z" fill="white"/>
<path d="M89.4696 24.1705V25.9625H84.1123V13.4558H89.4696V15.0984H85.8856V18.7945H89.0216V20.4931H85.8856V24.1705H89.4696Z" fill="white"/>
<path d="M93.1645 13.4558C93.9734 13.4558 94.6641 13.742 95.2365 14.3145C95.8214 14.8745 96.1138 15.5589 96.1138 16.3678V22.8638C96.1138 23.7847 95.8339 24.5313 95.2739 25.1038C94.7139 25.6762 93.9921 25.9625 93.1085 25.9625H90.3271V13.4558H93.1645ZM94.3405 22.8638V16.3678C94.3405 16.0194 94.2098 15.7269 93.9485 15.4904C93.6996 15.254 93.3947 15.1358 93.0338 15.1358H92.1005V24.3011H92.9778C93.8863 24.3011 94.3405 23.822 94.3405 22.8638Z" fill="white"/>
<path d="M48.9072 43.2094V30.7028H50.6805V43.2094H48.9072Z" fill="white"/>
<path d="M56.7159 43.2094L53.9346 35.6121V43.2094H52.1426V30.7028H53.8412L56.6039 38.2814V30.7028H58.3959V43.2094H56.7159Z" fill="white"/>
<path d="M64.8563 41.4174V43.2094H59.499V30.7028H64.8563V32.3454H61.2723V36.0414H64.4083V37.7401H61.2723V41.4174H64.8563Z" fill="white"/>
<path d="M66.1713 42.2388C65.885 41.9277 65.6921 41.5979 65.5926 41.2495C65.5055 40.901 65.4619 40.4903 65.4619 40.0174V33.8015C65.4619 32.893 65.7482 32.1339 66.3206 31.5241C66.9055 30.9019 67.6397 30.5908 68.5233 30.5908C69.3197 30.5908 70.0228 30.8832 70.6326 31.4681C71.2299 32.053 71.5286 32.7499 71.5286 33.5588V40.0174C71.5286 40.3783 71.5099 40.6459 71.4726 40.8201C71.4477 40.9943 71.3979 41.1686 71.3232 41.3428L72.4993 42.3321L71.5099 43.5268L70.39 42.6308C69.8424 43.0788 69.1828 43.3028 68.4113 43.3028C68.0006 43.3028 67.5899 43.2032 67.1793 43.0041C66.781 42.805 66.445 42.5499 66.1713 42.2388ZM69.1393 39.5508L69.7366 40.0174V33.8015C69.7366 33.4032 69.6246 33.0672 69.4006 32.7934C69.1766 32.5072 68.8655 32.3641 68.4673 32.3641C68.2184 32.3641 68.0006 32.4263 67.8139 32.5508C67.6272 32.6752 67.4904 32.8246 67.4033 32.9988C67.3286 33.173 67.285 33.3099 67.2726 33.4095C67.2601 33.4966 67.2539 33.6272 67.2539 33.8015V40.0174V40.1481C67.2539 40.509 67.3534 40.8326 67.5526 41.1188C67.7641 41.3926 68.0877 41.5356 68.5233 41.5481C68.6477 41.5481 68.797 41.5108 68.9713 41.4361L68.1499 40.7455L69.1393 39.5508Z" fill="white"/>
<path d="M78.3607 41.9028C78.0869 42.3259 77.7322 42.6681 77.2966 42.9294C76.8735 43.1908 76.4007 43.3214 75.878 43.3214C75.6167 43.3214 75.3553 43.2841 75.094 43.2094C74.8451 43.1348 74.6086 43.0414 74.3846 42.9294C74.1606 42.805 73.9616 42.6681 73.7874 42.5188C73.6131 42.357 73.4824 42.189 73.3953 42.0148C73.2087 41.6663 73.0842 41.3614 73.022 41.1001C72.9722 40.8388 72.9473 40.5588 72.9473 40.2601V30.7028H74.7393V40.2601C74.7393 40.3472 74.7393 40.4281 74.7393 40.5028C74.7517 40.565 74.7642 40.6272 74.7766 40.6895C74.7891 40.789 74.8824 40.9632 75.0566 41.2121C75.2184 41.4361 75.4984 41.5481 75.8966 41.5481C76.2575 41.5481 76.5251 41.4174 76.6993 41.1561C76.8859 40.8823 76.9792 40.5837 76.9792 40.2601V30.7028H78.7712V40.2601C78.7712 40.5588 78.7402 40.845 78.678 41.1188C78.6158 41.3926 78.51 41.6539 78.3607 41.9028Z" fill="white"/>
<path d="M79.4824 43.2094L82.2824 30.7028H83.8317L86.6318 43.2094H84.7091L84.2051 40.5215H81.8904L81.3677 43.2094H79.4824ZM82.2078 38.8601H83.8878L83.0477 34.3055L82.2078 38.8601Z" fill="white"/>
<path d="M92.9012 43.2094H87.5625V30.7028H89.3545V41.4174H92.9012V43.2094Z" fill="white"/>
<path d="M93.2852 43.2094V30.7028H95.0585V43.2094H93.2852Z" fill="white"/>
<path d="M98.3203 43.2094V32.3641H96.2109V30.7028H102.24V32.3641H100.094V43.2094H98.3203Z" fill="white"/>
<path d="M102.817 43.2094V30.7028H104.591V43.2094H102.817Z" fill="white"/>
<path d="M111.471 41.4174V43.2094H106.113V30.7028H111.471V32.3454H107.887V36.0414H111.023V37.7401H107.887V41.4174H111.471Z" fill="white"/>
<path d="M113.713 40.0921C113.713 40.2165 113.713 40.3223 113.713 40.4095C113.713 40.4966 113.719 40.5712 113.732 40.6335C113.757 40.7579 113.85 40.9383 114.012 41.1748C114.186 41.4237 114.497 41.5481 114.945 41.5481C115.194 41.5481 115.424 41.4983 115.636 41.3988C115.847 41.2868 116.003 41.1437 116.102 40.9695C116.177 40.8326 116.221 40.7019 116.233 40.5775C116.258 40.453 116.27 40.341 116.27 40.2415V40.0734V39.1961V39.0281C116.27 38.7543 116.221 38.5428 116.121 38.3934C116.021 38.2317 115.797 38.0512 115.449 37.8521C115.213 37.7277 114.789 37.5534 114.18 37.3294C113.57 37.1054 113.06 36.7508 112.649 36.2654C112.238 35.7801 112.033 35.1206 112.033 34.2868V33.7268C112.033 32.8681 112.319 32.1339 112.892 31.5241C113.477 30.9019 114.186 30.5908 115.02 30.5908C115.891 30.5908 116.613 30.8957 117.185 31.5054C117.77 32.1152 118.062 32.8557 118.062 33.7268V34.2868H116.27V33.7268C116.27 33.6397 116.264 33.5588 116.252 33.4841C116.252 33.4094 116.245 33.341 116.233 33.2788C116.221 33.2166 116.189 33.1419 116.14 33.0548C116.09 32.9677 116.021 32.8619 115.934 32.7374C115.76 32.4885 115.468 32.3641 115.057 32.3641C114.696 32.3641 114.397 32.4948 114.161 32.7561C113.937 33.0174 113.825 33.341 113.825 33.7268V34.2868V34.4548C113.825 34.7037 113.862 34.9028 113.937 35.0521C114.024 35.189 114.223 35.3445 114.534 35.5188C114.634 35.5686 114.783 35.637 114.982 35.7241C115.194 35.7988 115.449 35.8921 115.748 36.0041C116.345 36.2032 116.88 36.5579 117.353 37.0681C117.826 37.5783 118.062 38.2503 118.062 39.0841V40.0921C118.062 40.5277 118.019 40.8948 117.932 41.1935C117.857 41.4921 117.602 41.9277 117.166 42.5001C116.731 43.0477 116.003 43.3214 114.982 43.3214C113.9 43.3214 113.116 42.973 112.63 42.2761C112.145 41.5668 111.902 40.8388 111.902 40.0921V39.6441H113.713V40.0921Z" fill="white"/>
<path d="M15.415 42.9819V17.5219L11.127 20.7379V16.1819L15.415 13.0552H19.6583V42.9819H15.415Z" fill="white"/>
<path d="M30.0341 43.0712C26.8776 42.5054 25.0463 40.6592 24.54 37.5326V18.2812C24.9272 15.9288 25.9545 14.3506 27.6221 13.5466C28.7239 13.0403 29.8703 12.7872 31.0614 12.7872C31.8058 12.7872 32.58 12.8766 33.384 13.0552C34.456 13.7103 35.3196 14.4101 35.9747 15.1546C36.6298 15.8692 37.0765 16.9115 37.3147 18.2812V37.4432C36.8978 40.3615 35.3494 42.2226 32.6694 43.0266H31.8207C31.6719 43.0564 31.0763 43.0712 30.0341 43.0712ZM30.4807 38.7832C31.7909 38.7832 32.6247 38.1877 32.9821 36.9966V18.9512C32.8034 18.3855 32.6098 17.9239 32.4014 17.5666C31.8951 17.1794 31.4038 16.9859 30.9274 16.9859C30.4211 16.9859 30.0043 17.1794 29.6767 17.5666C29.3491 17.9239 29.0961 18.3855 28.9174 18.9512V36.9072C29.0961 37.8303 29.6172 38.4557 30.4807 38.7832Z" fill="white"/>
<path fill-rule="evenodd" clip-rule="evenodd" d="M61.3281 80.5488V89.9609H89.5352V80.5488H61.3281ZM61.3281 97.9688V107.531H89.5352V97.9688H61.3281ZM75.4023 55.0273L61.3906 69.0391H89.4141L75.4023 55.0273ZM50.5898 79.8398L36.6074 93.8223L50.5898 107.805V79.8398ZM100.273 79.8984V107.664L114.156 93.7812L100.273 79.8984ZM61.6504 118.865L75.3613 132.576L89.0723 118.865H61.6504Z" fill="white"/>
</svg>
