<svg viewBox="0 0 149 150" fill="none" xmlns="http://www.w3.org/2000/svg">
<path fill-rule="evenodd" clip-rule="evenodd" d="M1.64026 0.728333H148.079C148.537 0.728333 148.906 1.09705 148.906 1.55508V148.236C148.906 148.694 148.537 149.063 148.079 149.063H1.64026C1.18224 149.063 0.813477 148.694 0.813477 148.236V1.55508C0.813477 1.09705 1.18224 0.728333 1.64026 0.728333Z" fill="#F99D26"/>
<path d="M43.4709 22.8451C43.4709 22.9696 43.4709 23.0753 43.4709 23.1624C43.4709 23.2496 43.4771 23.3243 43.4896 23.3865C43.5144 23.5109 43.6078 23.6913 43.7696 23.9278C43.9438 24.1767 44.2549 24.3011 44.7029 24.3011C44.9518 24.3011 45.182 24.2513 45.3936 24.1518C45.6051 24.0398 45.7607 23.8967 45.8602 23.7225C45.9349 23.5856 45.9785 23.4549 45.9909 23.3305C46.0158 23.206 46.0282 23.094 46.0282 22.9944V22.8264V21.9491V21.7811C46.0282 21.5073 45.9785 21.2958 45.8789 21.1465C45.7793 20.9847 45.5553 20.8042 45.2068 20.6051C44.9704 20.4807 44.5473 20.3065 43.9376 20.0825C43.3278 19.8585 42.8175 19.5038 42.4069 19.0185C41.9962 18.5331 41.7909 17.8736 41.7909 17.0398V16.4798C41.7909 15.6211 42.0771 14.8869 42.6495 14.2771C43.2344 13.6549 43.9438 13.3438 44.7775 13.3438C45.6486 13.3438 46.3704 13.6487 46.9429 14.2585C47.5278 14.8682 47.8202 15.6087 47.8202 16.4798V17.0398H46.0282V16.4798C46.0282 16.3927 46.022 16.3118 46.0095 16.2371C46.0095 16.1625 46.0033 16.094 45.9908 16.0318C45.9783 15.9696 45.9473 15.8949 45.8975 15.8078C45.8477 15.7207 45.7793 15.6149 45.6922 15.4904C45.518 15.2416 45.2255 15.1171 44.8148 15.1171C44.4539 15.1171 44.1553 15.2478 43.9188 15.5091C43.6948 15.7705 43.5828 16.094 43.5828 16.4798V17.0398V17.2078C43.5828 17.4567 43.6202 17.6558 43.6948 17.8051C43.7819 17.942 43.9811 18.0976 44.2922 18.2718C44.3917 18.3216 44.5411 18.3901 44.7402 18.4771C44.9517 18.5518 45.2068 18.6451 45.5055 18.7571C46.1028 18.9563 46.6379 19.3109 47.1108 19.8211C47.5837 20.3314 47.8202 21.0033 47.8202 21.8371V22.8451C47.8202 23.2807 47.7766 23.6478 47.6895 23.9465C47.6148 24.2451 47.3597 24.6807 46.9242 25.2531C46.4886 25.8007 45.7606 26.0745 44.7402 26.0745C43.6575 26.0745 42.8735 25.726 42.3882 25.0291C41.9029 24.3198 41.6602 23.5918 41.6602 22.8451V22.3971H43.4708L43.4709 22.8451Z" fill="white"/>
<path d="M54.4515 24.6558C54.1777 25.0789 53.823 25.4211 53.3875 25.6825C52.9643 25.9438 52.4915 26.0745 51.9688 26.0745C51.7075 26.0745 51.4461 26.0371 51.1848 25.9625C50.9359 25.8878 50.6995 25.7945 50.4755 25.6825C50.2515 25.558 50.0523 25.4211 49.8781 25.2718C49.7039 25.11 49.5733 24.942 49.4861 24.7678C49.2995 24.4193 49.175 24.1145 49.1128 23.8531C49.063 23.5918 49.0381 23.3118 49.0381 23.0131V13.4558H50.8301V23.0131C50.8301 23.1002 50.8301 23.1811 50.8301 23.2558C50.8425 23.318 50.855 23.3802 50.8674 23.4425C50.8798 23.542 50.9732 23.7162 51.1474 23.9651C51.3092 24.1891 51.5891 24.3011 51.9874 24.3011C52.3483 24.3011 52.6158 24.1705 52.79 23.9091C52.9767 23.6353 53.0701 23.3367 53.0701 23.0131V13.4558H54.8621V23.0131C54.8621 23.3118 54.8309 23.598 54.7687 23.8718C54.7065 24.1456 54.6008 24.4069 54.4515 24.6558Z" fill="white"/>
<path d="M57.4884 22.8451C57.4884 22.9696 57.4884 23.0753 57.4884 23.1624C57.4884 23.2496 57.4946 23.3243 57.5071 23.3865C57.5319 23.5109 57.6253 23.6913 57.7871 23.9278C57.9613 24.1767 58.2725 24.3011 58.7205 24.3011C58.9693 24.3011 59.1996 24.2513 59.4111 24.1518C59.6227 24.0398 59.7783 23.8967 59.8778 23.7225C59.9525 23.5856 59.996 23.4549 60.0084 23.3305C60.0333 23.206 60.0458 23.094 60.0458 22.9944V22.8264V21.9491V21.7811C60.0458 21.5073 59.996 21.2958 59.8964 21.1465C59.7969 20.9847 59.5729 20.8042 59.2244 20.6051C58.988 20.4807 58.5649 20.3065 57.9551 20.0825C57.3453 19.8585 56.8351 19.5038 56.4244 19.0185C56.0138 18.5331 55.8084 17.8736 55.8084 17.0398V16.4798C55.8084 15.6211 56.0946 14.8869 56.6671 14.2771C57.2519 13.6549 57.9613 13.3438 58.7951 13.3438C59.6662 13.3438 60.3879 13.6487 60.9604 14.2585C61.5453 14.8682 61.8378 15.6087 61.8378 16.4798V17.0398H60.0458V16.4798C60.0458 16.3927 60.0395 16.3118 60.027 16.2371C60.027 16.1625 60.0208 16.094 60.0084 16.0318C59.9959 15.9696 59.9648 15.8949 59.915 15.8078C59.8652 15.7207 59.7968 15.6149 59.7097 15.4904C59.5355 15.2416 59.2431 15.1171 58.8324 15.1171C58.4715 15.1171 58.1728 15.2478 57.9364 15.5091C57.7124 15.7705 57.6004 16.094 57.6004 16.4798V17.0398V17.2078C57.6004 17.4567 57.6377 17.6558 57.7124 17.8051C57.7995 17.942 57.9986 18.0976 58.3097 18.2718C58.4092 18.3216 58.5586 18.3901 58.7577 18.4771C58.9692 18.5518 59.2244 18.6451 59.5231 18.7571C60.1204 18.9563 60.6555 19.3109 61.1284 19.8211C61.6013 20.3314 61.8377 21.0033 61.8377 21.8371V22.8451C61.8377 23.2807 61.7941 23.6478 61.707 23.9465C61.6324 24.2451 61.3773 24.6807 60.9417 25.2531C60.5062 25.8007 59.7781 26.0745 58.7577 26.0745C57.675 26.0745 56.891 25.726 56.4057 25.0291C55.9204 24.3198 55.6777 23.5918 55.6777 22.8451V22.3971H57.4884V22.8451Z" fill="white"/>
<path d="M64.2509 25.9625V15.1171H62.1416V13.4558H68.1709V15.1171H66.0242V25.9625H64.2509Z" fill="white"/>
<path d="M67.252 25.9625L70.0519 13.4558H71.6013L74.4012 25.9625H72.4786L71.9746 23.2745H69.6599L69.1373 25.9625H67.252ZM69.9773 21.6131H71.6573L70.8173 17.0585L69.9773 21.6131Z" fill="white"/>
<path d="M75.3135 25.9625V13.4558H77.0869V25.9625H75.3135Z" fill="white"/>
<path d="M83.002 25.9625L80.2207 18.3651V25.9625H78.4287V13.4558H80.1274L82.89 21.0345V13.4558H84.682V25.9625H83.002Z" fill="white"/>
<path d="M84.9541 25.9625L87.7541 13.4558H89.3034L92.1035 25.9625H90.1807L89.6768 23.2745H87.3621L86.8394 25.9625H84.9541ZM87.6794 21.6131H89.3594L88.5194 17.0585L87.6794 21.6131Z" fill="white"/>
<path d="M95.7228 13.4558C96.1086 13.4558 96.4694 13.5367 96.8054 13.6985C97.1788 13.8727 97.5583 14.1527 97.9441 14.5385C98.3548 14.9367 98.5601 15.5589 98.5601 16.4051V17.3571C98.5601 18.3153 98.1806 18.9874 97.4214 19.3731C98.1806 19.8211 98.5601 20.518 98.5601 21.4638V22.9198C98.5601 23.8034 98.2739 24.5313 97.7015 25.1038C97.1415 25.6762 96.4197 25.9625 95.5361 25.9625H92.7734V13.4558H95.7228ZM96.7868 17.1705V16.4051C96.7868 16.0193 96.6748 15.7144 96.4508 15.4904C96.2268 15.254 95.9281 15.1358 95.5548 15.1358H94.5468V18.5891H95.6108C96.0214 18.5891 96.3201 18.4647 96.5068 18.2158C96.6934 17.9545 96.7868 17.606 96.7868 17.1705ZM96.7868 22.9198V21.4638C96.7868 21.0656 96.6748 20.7545 96.4508 20.5305C96.2393 20.294 95.9406 20.1758 95.5548 20.1758H94.5468V24.1891H95.5734C95.9343 24.1891 96.2268 24.0709 96.4508 23.8345C96.6748 23.5856 96.7868 23.2807 96.7868 22.9198Z" fill="white"/>
<path d="M104.832 25.9625H99.4932V13.4558H101.285V24.1705H104.832V25.9625Z" fill="white"/>
<path d="M110.694 24.1705V25.9625H105.337V13.4558H110.694V15.0984H107.11V18.7945H110.246V20.4931H107.11V24.1705H110.694Z" fill="white"/>
<path d="M118.792 22.8078C118.792 23.206 118.767 23.5483 118.717 23.8345C118.68 24.1207 118.555 24.4318 118.344 24.7678C118.232 24.942 118.088 25.11 117.914 25.2718C117.752 25.4211 117.566 25.558 117.354 25.6825C117.155 25.7945 116.937 25.8878 116.701 25.9625C116.464 26.0371 116.234 26.0745 116.01 26.0745C115.45 26.0745 114.94 25.9562 114.48 25.7198C114.032 25.4833 113.702 25.1847 113.49 24.8238C113.279 24.4629 113.142 24.1269 113.08 23.8158C113.03 23.5047 113.005 23.1687 113.005 22.8078V16.3678C113.005 16.0194 113.036 15.7082 113.098 15.4344C113.173 15.1482 113.322 14.8434 113.546 14.5198C113.77 14.1962 114.088 13.9225 114.498 13.6985C114.909 13.462 115.338 13.3438 115.786 13.3438C116.645 13.3438 117.36 13.63 117.933 14.2025C118.505 14.7625 118.792 15.4842 118.792 16.3678V17.0398H117.018V16.3678C117.018 16.0194 116.919 15.7269 116.719 15.4904C116.533 15.254 116.253 15.1358 115.88 15.1358C115.531 15.1358 115.257 15.254 115.058 15.4904C114.871 15.7269 114.778 16.0194 114.778 16.3678V23.2931C114.803 23.4798 114.89 23.6913 115.039 23.9278C115.214 24.1767 115.5 24.3011 115.898 24.3011C116.321 24.3011 116.601 24.1891 116.738 23.9651C116.875 23.7411 116.956 23.5794 116.981 23.4798C117.006 23.3678 117.018 23.2185 117.018 23.0318V22.3971H118.791L118.792 22.8078Z" fill="white"/>
<path d="M119.853 25.9625V13.4558H121.626V25.9625H119.853Z" fill="white"/>
<path d="M124.525 25.9625V15.1171H122.416V13.4558H128.445V15.1171H126.299V25.9625H124.525Z" fill="white"/>
<path d="M129.203 25.9625V13.4558H130.977V25.9625H129.203Z" fill="white"/>
<path d="M137.312 24.1705V25.9625H131.955V13.4558H137.312V15.0984H133.728V18.7945H136.864V20.4931H133.728V24.1705H137.312Z" fill="white"/>
<path d="M139.676 22.8451C139.676 22.9696 139.676 23.0753 139.676 23.1624C139.676 23.2496 139.682 23.3243 139.695 23.3865C139.72 23.5109 139.813 23.6913 139.975 23.9278C140.149 24.1767 140.46 24.3011 140.908 24.3011C141.157 24.3011 141.387 24.2513 141.599 24.1518C141.81 24.0398 141.966 23.8967 142.065 23.7225C142.14 23.5856 142.184 23.4549 142.196 23.3305C142.221 23.206 142.233 23.094 142.233 22.9944V22.8264V21.9491V21.7811C142.233 21.5073 142.183 21.2958 142.084 21.1465C141.984 20.9847 141.76 20.8042 141.412 20.6051C141.175 20.4807 140.752 20.3065 140.143 20.0825C139.533 19.8585 139.023 19.5038 138.612 19.0185C138.201 18.5331 137.996 17.8736 137.996 17.0398V16.4798C137.996 15.6211 138.282 14.8869 138.855 14.2771C139.44 13.6549 140.149 13.3438 140.983 13.3438C141.854 13.3438 142.576 13.6487 143.148 14.2585C143.733 14.8682 144.025 15.6087 144.025 16.4798V17.0398H142.233V16.4798C142.233 16.3927 142.227 16.3118 142.215 16.2371C142.215 16.1625 142.208 16.094 142.196 16.0318C142.183 15.9696 142.152 15.8949 142.103 15.8078C142.053 15.7207 141.984 15.6149 141.897 15.4904C141.723 15.2416 141.431 15.1171 141.02 15.1171C140.659 15.1171 140.36 15.2478 140.124 15.5091C139.9 15.7705 139.788 16.094 139.788 16.4798V17.0398V17.2078C139.788 17.4567 139.825 17.6558 139.9 17.8051C139.987 17.942 140.186 18.0976 140.497 18.2718C140.597 18.3216 140.746 18.3901 140.945 18.4771C141.157 18.5518 141.412 18.6451 141.711 18.7571C142.308 18.9563 142.843 19.3109 143.316 19.8211C143.789 20.3314 144.025 21.0033 144.025 21.8371V22.8451C144.025 23.2807 143.982 23.6478 143.895 23.9465C143.82 24.2451 143.565 24.6807 143.129 25.2531C142.694 25.8007 141.966 26.0745 140.945 26.0745C139.863 26.0745 139.079 25.726 138.593 25.0291C138.108 24.3198 137.865 23.5918 137.865 22.8451V22.3971H139.676L139.676 22.8451Z" fill="white"/>
<path d="M41.6768 43.2094L44.4767 30.7028H46.0261L48.8261 43.2094H46.9034L46.3994 40.5215H44.0848L43.5621 43.2094H41.6768ZM44.4021 38.8601H46.0821L45.2421 34.3055L44.4021 38.8601Z" fill="white"/>
<path d="M54.0704 43.2094L51.2891 35.6121V43.2094H49.4971V30.7028H51.1957L53.9584 38.2814V30.7028H55.7504V43.2094H54.0704Z" fill="white"/>
<path d="M59.6909 30.7028C60.4998 30.7028 61.1904 30.989 61.7628 31.5614C62.3477 32.1214 62.6402 32.8059 62.6402 33.6148V40.1108C62.6402 41.0317 62.3602 41.7783 61.8002 42.3508C61.2402 42.9232 60.5184 43.2094 59.6348 43.2094H56.8535V30.7028H59.6909ZM60.8668 40.1108V33.6148C60.8668 33.2663 60.7362 32.9739 60.4749 32.7374C60.226 32.501 59.9211 32.3828 59.5602 32.3828H58.6268V41.5481H59.5042C60.4127 41.5481 60.8668 41.069 60.8668 40.1108Z" fill="white"/>
<path d="M71.4957 40.0548C71.4957 40.453 71.4708 40.7952 71.421 41.0815C71.3837 41.3677 71.2593 41.6788 71.0477 42.0148C70.9357 42.189 70.7926 42.357 70.6183 42.5188C70.4566 42.6681 70.2699 42.805 70.0583 42.9294C69.8592 43.0414 69.6415 43.1348 69.405 43.2094C69.1686 43.2841 68.9384 43.3214 68.7144 43.3214C68.1544 43.3214 67.6442 43.2032 67.1837 42.9668C66.7357 42.7303 66.406 42.4317 66.1944 42.0708C65.9828 41.7099 65.8459 41.3739 65.7837 41.0628C65.7339 40.7517 65.709 40.4157 65.709 40.0548V33.6148C65.709 33.2663 65.7401 32.9552 65.8023 32.6814C65.877 32.3952 66.0263 32.0903 66.2503 31.7668C66.4743 31.4432 66.7917 31.1694 67.2023 30.9454C67.613 30.709 68.0423 30.5908 68.4903 30.5908C69.349 30.5908 70.0645 30.877 70.637 31.4494C71.2094 32.0094 71.4957 32.7312 71.4957 33.6148V34.2868H69.7223V33.6148C69.7223 33.2663 69.6228 32.9739 69.4236 32.7374C69.237 32.501 68.957 32.3828 68.5836 32.3828C68.2352 32.3828 67.9614 32.501 67.7623 32.7374C67.5757 32.9739 67.4823 33.2663 67.4823 33.6148V40.5401C67.5072 40.7268 67.5943 40.9383 67.7437 41.1748C67.9179 41.4237 68.2041 41.5481 68.6023 41.5481C69.0254 41.5481 69.3054 41.4361 69.4423 41.2121C69.5792 40.9881 69.66 40.8263 69.6849 40.7268C69.7098 40.6148 69.7223 40.4654 69.7223 40.2788V39.6441H71.4956L71.4957 40.0548Z" fill="white"/>
<path d="M73.2094 31.8788C73.4956 31.4806 73.8564 31.1694 74.292 30.9454C74.74 30.709 75.2005 30.5908 75.6733 30.5908C76.1338 30.5908 76.5631 30.6841 76.9613 30.8708C77.372 31.0574 77.7142 31.3125 77.988 31.6361C78.2617 31.9597 78.4484 32.2957 78.548 32.6441C78.6475 32.9801 78.6973 33.3472 78.6973 33.7455V40.1108C78.6973 40.4841 78.66 40.8139 78.5853 41.1001C78.5231 41.3863 78.3738 41.7037 78.1373 42.0521C77.9133 42.4006 77.5836 42.6992 77.148 42.9481C76.7249 43.197 76.252 43.3214 75.7293 43.3214C75.4306 43.3214 75.1444 43.2841 74.8707 43.2094C74.5969 43.1223 74.3418 43.0103 74.1053 42.8734C73.8689 42.7366 73.6573 42.581 73.4706 42.4068C73.2964 42.2325 73.1596 42.0521 73.06 41.8654C72.8733 41.4797 72.7613 41.1685 72.724 40.9321C72.6867 40.6957 72.668 40.4219 72.668 40.1108V33.7455C72.668 33.3721 72.7053 33.0423 72.78 32.7561C72.8671 32.4574 73.0102 32.165 73.2094 31.8788ZM76.6813 32.8681C76.4449 32.5197 76.1213 32.3454 75.7106 32.3454C75.4991 32.3454 75.2875 32.4077 75.076 32.5321C74.8769 32.6441 74.7338 32.7748 74.6467 32.9241C74.572 33.0734 74.5222 33.2228 74.4973 33.3721C74.4724 33.5214 74.46 33.6459 74.46 33.7455V40.1108C74.46 40.173 74.46 40.2414 74.46 40.3161C74.46 40.3783 74.4662 40.4468 74.4787 40.5215C74.4912 40.6459 74.5908 40.8512 74.7774 41.1375C74.9641 41.3988 75.2752 41.5294 75.7108 41.5294C75.9348 41.5294 76.1338 41.4796 76.308 41.3801C76.4947 41.2681 76.6254 41.1437 76.7001 41.0068C76.7872 40.8574 76.8431 40.7205 76.868 40.5961C76.8929 40.4717 76.9054 40.3099 76.9054 40.1108V33.7455C76.9054 33.4966 76.8929 33.3223 76.868 33.2228C76.8556 33.1232 76.7933 33.005 76.6813 32.8681Z" fill="white"/>
<path d="M85.6566 43.2094V35.5934L83.8646 40.9321H82.9686L81.1953 35.5934V43.2094H79.4033V30.7028H81.0833L83.454 37.3668L85.7873 30.7028H87.43V43.2094H85.6566Z" fill="white"/>
<path d="M94.4008 43.2094V35.5934L92.6088 40.9321H91.7128L89.9395 35.5934V43.2094H88.1475V30.7028H89.8275L92.1981 37.3668L94.5314 30.7028H96.1741V43.2094H94.4008Z" fill="white"/>
<path d="M102.909 41.9028C102.636 42.3259 102.281 42.6681 101.845 42.9294C101.422 43.1908 100.949 43.3214 100.427 43.3214C100.165 43.3214 99.9042 43.2841 99.6428 43.2094C99.3939 43.1348 99.1575 43.0414 98.9335 42.9294C98.7095 42.805 98.5103 42.6681 98.3361 42.5188C98.1619 42.357 98.0313 42.189 97.9442 42.0148C97.7575 41.6663 97.633 41.3614 97.5708 41.1001C97.521 40.8388 97.4961 40.5588 97.4961 40.2601V30.7028H99.2881V40.2601C99.2881 40.3472 99.2881 40.4281 99.2881 40.5028C99.3006 40.565 99.313 40.6272 99.3254 40.6895C99.3378 40.789 99.4312 40.9632 99.6054 41.2121C99.7672 41.4361 100.047 41.5481 100.445 41.5481C100.806 41.5481 101.074 41.4174 101.248 41.1561C101.435 40.8823 101.528 40.5837 101.528 40.2601V30.7028H103.32V40.2601C103.32 40.5588 103.289 40.845 103.227 41.1188C103.165 41.3926 103.059 41.6539 102.909 41.9028Z" fill="white"/>
<path d="M108.953 43.2094L106.172 35.6121V43.2094H104.38V30.7028H106.079L108.841 38.2814V30.7028H110.633V43.2094H108.953Z" fill="white"/>
<path d="M111.616 43.2094V30.7028H113.39V43.2094H111.616Z" fill="white"/>
<path d="M116.651 43.2094V32.3641H114.542V30.7028H120.571V32.3641H118.425V43.2094H116.651Z" fill="white"/>
<path d="M120.967 43.2094V30.7028H122.74V43.2094H120.967Z" fill="white"/>
<path d="M129.197 41.4174V43.2094H123.84V30.7028H129.197V32.3454H125.613V36.0414H128.749V37.7401H125.613V41.4174H129.197Z" fill="white"/>
<path d="M131.319 40.0921C131.319 40.2165 131.319 40.3223 131.319 40.4095C131.319 40.4966 131.326 40.5712 131.338 40.6335C131.363 40.7579 131.456 40.9383 131.618 41.1748C131.792 41.4237 132.104 41.5481 132.552 41.5481C132.8 41.5481 133.031 41.4983 133.242 41.3988C133.454 41.2868 133.609 41.1437 133.709 40.9695C133.784 40.8326 133.827 40.7019 133.839 40.5775C133.864 40.453 133.877 40.341 133.877 40.2415V40.0734V39.1961V39.0281C133.877 38.7543 133.827 38.5428 133.727 38.3934C133.628 38.2317 133.404 38.0512 133.055 37.8521C132.819 37.7277 132.396 37.5534 131.786 37.3294C131.176 37.1054 130.666 36.7508 130.255 36.2654C129.845 35.7801 129.639 35.1206 129.639 34.2868V33.7268C129.639 32.8681 129.926 32.1339 130.498 31.5241C131.083 30.9019 131.792 30.5908 132.626 30.5908C133.497 30.5908 134.219 30.8957 134.792 31.5054C135.376 32.1152 135.669 32.8557 135.669 33.7268V34.2868H133.877V33.7268C133.877 33.6397 133.871 33.5588 133.858 33.4841C133.858 33.4094 133.852 33.341 133.839 33.2788C133.827 33.2166 133.796 33.1419 133.746 33.0548C133.696 32.9677 133.628 32.8619 133.541 32.7374C133.367 32.4885 133.074 32.3641 132.663 32.3641C132.303 32.3641 132.004 32.4948 131.767 32.7561C131.543 33.0174 131.431 33.341 131.431 33.7268V34.2868V34.4548C131.431 34.7037 131.469 34.9028 131.543 35.0521C131.631 35.189 131.83 35.3445 132.141 35.5188C132.24 35.5686 132.39 35.637 132.589 35.7241C132.8 35.7988 133.055 35.8921 133.354 36.0041C133.951 36.2032 134.487 36.5579 134.959 37.0681C135.432 37.5783 135.669 38.2503 135.669 39.0841V40.0921C135.669 40.5277 135.625 40.8948 135.538 41.1935C135.463 41.4921 135.208 41.9277 134.773 42.5001C134.337 43.0477 133.609 43.3214 132.589 43.3214C131.506 43.3214 130.722 42.973 130.237 42.2761C129.751 41.5668 129.509 40.8388 129.509 40.0921V39.6441H131.319V40.0921Z" fill="white"/>
<path d="M15.663 42.9819V17.5219L11.375 20.7379V16.1819L15.663 13.0552H19.9064V42.9819H15.663Z" fill="white"/>
<path d="M27.0097 42.9819V17.5219L22.7217 20.7379V16.1819L27.0097 13.0552H31.2531V42.9819H27.0097Z" fill="white"/>
<path d="M38.3565 98.5153L48.8437 112.288C49.2336 112.8 49.1273 113.406 48.2939 113.406H26.9081C26.0748 113.406 25.9684 112.8 26.3584 112.288L36.8456 98.5153C37.3535 97.8482 37.8555 97.8573 38.3565 98.5153ZM104.015 103.688H125.218C125.715 103.688 126.114 104.087 126.114 104.584V108.34C126.114 108.837 125.715 109.237 125.218 109.237H104.015C103.518 109.237 103.118 108.837 103.118 108.34V104.584C103.118 104.087 103.518 103.688 104.015 103.688ZM104.016 110.76C103.519 110.76 103.119 111.16 103.119 111.656V133.24C103.119 133.737 103.519 134.137 104.016 134.137H125.219C125.715 134.137 126.115 133.737 126.115 133.24V111.656C126.115 111.16 125.715 110.76 125.219 110.76H104.016ZM107.119 114.018H112.537C113.034 114.018 113.434 114.417 113.434 114.914V117.426C113.434 117.922 113.034 118.322 112.537 118.322H107.119C106.623 118.322 106.225 117.922 106.225 117.426V114.914C106.225 114.417 106.623 114.018 107.119 114.018ZM117.08 114.018H122.496C122.993 114.018 123.393 114.417 123.393 114.914V117.426C123.393 117.922 122.993 118.322 122.496 118.322H117.08C116.583 118.322 116.184 117.922 116.184 117.426V114.914C116.184 114.417 116.583 114.018 117.08 114.018ZM107.119 121.389H112.537C113.034 121.389 113.434 121.789 113.434 122.285V124.795C113.434 125.292 113.034 125.691 112.537 125.691H107.119C106.623 125.691 106.225 125.292 106.225 124.795V122.285C106.225 121.789 106.623 121.389 107.119 121.389ZM117.08 121.389H122.496C122.993 121.389 123.393 121.789 123.393 122.285V124.795C123.393 125.292 122.993 125.691 122.496 125.691H117.08C116.583 125.691 116.184 125.292 116.184 124.795V122.285C116.184 121.789 116.583 121.389 117.08 121.389ZM53.0527 59.0664C52.5561 59.0664 52.1562 59.4663 52.1562 59.9629V133.24C52.1562 133.737 52.5561 134.137 53.0527 134.137H73.7578C74.2544 134.137 74.6543 133.737 74.6543 133.24V59.9629C74.6543 59.4663 74.2544 59.0664 73.7578 59.0664H53.0527ZM57.0977 69.3184H60.2598C60.7564 69.3184 61.1562 69.7182 61.1562 70.2148V74.0273C61.1562 74.524 60.7564 74.9238 60.2598 74.9238H57.0977C56.601 74.9238 56.2012 74.524 56.2012 74.0273V70.2148C56.2012 69.7182 56.601 69.3184 57.0977 69.3184ZM66.7598 69.3184H69.9219C70.4185 69.3184 70.8184 69.7182 70.8184 70.2148V74.0273C70.8184 74.524 70.4185 74.9238 69.9219 74.9238H66.7598C66.2632 74.9238 65.8633 74.524 65.8633 74.0273V70.2148C65.8633 69.7182 66.2632 69.3184 66.7598 69.3184ZM57.0977 82.0059H60.2598C60.7564 82.0059 61.1562 82.4057 61.1562 82.9023V86.7148C61.1562 87.2115 60.7564 87.6113 60.2598 87.6113H57.0977C56.601 87.6113 56.2012 87.2115 56.2012 86.7148V82.9023C56.2012 82.4057 56.601 82.0059 57.0977 82.0059ZM66.7598 82.0059H69.9219C70.4185 82.0059 70.8184 82.4057 70.8184 82.9023V86.7148C70.8184 87.2115 70.4185 87.6113 69.9219 87.6113H66.7598C66.2632 87.6113 65.8633 87.2115 65.8633 86.7148V82.9023C65.8633 82.4057 66.2632 82.0059 66.7598 82.0059ZM57.0977 94.6934H60.2598C60.7564 94.6934 61.1562 95.0932 61.1562 95.5898V99.4023C61.1562 99.899 60.7564 100.299 60.2598 100.299H57.0977C56.601 100.299 56.2012 99.899 56.2012 99.4023V95.5898C56.2012 95.0932 56.601 94.6934 57.0977 94.6934ZM66.7598 94.6934H69.9219C70.4185 94.6934 70.8184 95.0932 70.8184 95.5898V99.4023C70.8184 99.899 70.4185 100.299 69.9219 100.299H66.7598C66.2632 100.299 65.8633 99.899 65.8633 99.4023V95.5898C65.8633 95.0932 66.2632 94.6934 66.7598 94.6934ZM57.0977 107.381H60.2598C60.7564 107.381 61.1562 107.781 61.1562 108.277V112.09C61.1562 112.586 60.7564 112.986 60.2598 112.986H57.0977C56.601 112.986 56.2012 112.586 56.2012 112.09V108.277C56.2012 107.781 56.601 107.381 57.0977 107.381ZM66.7598 107.381H69.9219C70.4185 107.381 70.8184 107.781 70.8184 108.277V112.09C70.8184 112.586 70.4185 112.986 69.9219 112.986H66.7598C66.2632 112.986 65.8633 112.586 65.8633 112.09V108.277C65.8633 107.781 66.2632 107.381 66.7598 107.381ZM57.0977 120.068H60.2598C60.7564 120.068 61.1562 120.468 61.1562 120.965V124.779C61.1562 125.276 60.7564 125.676 60.2598 125.676H57.0977C56.601 125.676 56.2012 125.276 56.2012 124.779V120.965C56.2012 120.468 56.601 120.068 57.0977 120.068ZM66.7598 120.068H69.9219C70.4185 120.068 70.8184 120.468 70.8184 120.965V124.779C70.8184 125.276 70.4185 125.676 69.9219 125.676H66.7598C66.2632 125.676 65.8633 125.276 65.8633 124.779V120.965C65.8633 120.468 66.2632 120.068 66.7598 120.068ZM78.1855 101.142V133.24C78.1855 133.737 78.5854 134.137 79.082 134.137H99.4883C99.9849 134.137 100.385 133.737 100.385 133.24V73.9062C100.385 73.4096 99.728 72.7228 98.9409 73.7196L78.9705 99.0111C78.2891 99.874 78.1855 100.137 78.1855 101.142ZM97.3223 81.0645C97.6852 81.0625 97.7461 81.9322 97.7461 82.3047V87.7051C97.7461 88.2017 97.3462 88.6016 96.8496 88.6016H92.6777C92.1465 88.6016 91.2413 88.3759 91.7812 87.7051L96.8496 81.4082C97.0467 81.1634 97.2013 81.0651 97.3223 81.0645ZM91.4336 91.668H96.8496C97.3462 91.668 97.7461 92.0678 97.7461 92.5645V95.0742C97.7461 95.5708 97.3462 95.9707 96.8496 95.9707H91.4336C90.937 95.9707 90.5371 95.5708 90.5371 95.0742V92.5645C90.5371 92.0678 90.937 91.668 91.4336 91.668ZM87.3418 93.6504C87.698 93.5767 87.7852 94.3904 87.7852 94.959V102.646C87.7852 103.143 87.3853 103.543 86.8887 103.543H81.7539C81.2573 103.543 80.5045 103.149 80.8574 102.646L86.8887 94.0625C87.0737 93.7992 87.2231 93.6749 87.3418 93.6504ZM91.4336 99.0156H96.8496C97.3462 99.0156 97.7461 99.4155 97.7461 99.9121V102.424C97.7461 102.92 97.3462 103.32 96.8496 103.32H91.4336C90.937 103.32 90.5371 102.92 90.5371 102.424V99.9121C90.5371 99.4155 90.937 99.0156 91.4336 99.0156ZM81.7539 106.387H86.8887C87.3853 106.387 87.7852 106.787 87.7852 107.283V109.795C87.7852 110.292 87.3853 110.691 86.8887 110.691H81.7539C81.2573 110.691 80.8574 110.292 80.8574 109.795V107.283C80.8574 106.787 81.2573 106.387 81.7539 106.387ZM91.4336 106.387H96.8496C97.3462 106.387 97.7461 106.787 97.7461 107.283V109.795C97.7461 110.292 97.3462 110.691 96.8496 110.691H91.4336C90.937 110.691 90.5371 110.292 90.5371 109.795V107.283C90.5371 106.787 90.937 106.387 91.4336 106.387ZM81.7539 114.018H86.8887C87.3853 114.018 87.7852 114.417 87.7852 114.914V117.426C87.7852 117.922 87.3853 118.322 86.8887 118.322H81.7539C81.2573 118.322 80.8574 117.922 80.8574 117.426V114.914C80.8574 114.417 81.2573 114.018 81.7539 114.018ZM91.4336 114.018H96.8496C97.3462 114.018 97.7461 114.417 97.7461 114.914V117.426C97.7461 117.922 97.3462 118.322 96.8496 118.322H91.4336C90.937 118.322 90.5371 117.922 90.5371 117.426V114.914C90.5371 114.417 90.937 114.018 91.4336 114.018ZM81.7539 121.389H86.8887C87.3853 121.389 87.7852 121.789 87.7852 122.285V124.795C87.7852 125.292 87.3853 125.691 86.8887 125.691H81.7539C81.2573 125.691 80.8574 125.292 80.8574 124.795V122.285C80.8574 121.789 81.2573 121.389 81.7539 121.389ZM91.4336 121.389H96.8496C97.3462 121.389 97.7461 121.789 97.7461 122.285V124.795C97.7461 125.292 97.3462 125.691 96.8496 125.691H91.4336C90.937 125.691 90.5371 125.292 90.5371 124.795V122.285C90.5371 121.789 90.937 121.389 91.4336 121.389ZM26.625 115.441C26.1284 115.441 25.7285 115.841 25.7285 116.338V133.24C25.7285 133.737 26.1284 134.137 26.625 134.137H33.8633C33.8613 134.103 33.8533 134.071 33.8533 134.037V124.197C33.8533 123.425 34.4753 122.803 35.2478 122.803H39.8044C40.5769 122.803 41.199 123.425 41.199 124.197V134.037C41.199 134.071 41.192 134.103 41.189 134.137H48.0269C48.5235 134.137 48.9233 133.737 48.9233 133.24V116.338C48.9233 115.841 48.5235 115.441 48.0269 115.441H26.625Z" fill="white"/>
</svg>
