<svg viewBox="0 0 149 149" fill="none" xmlns="http://www.w3.org/2000/svg">
<path fill-rule="evenodd" clip-rule="evenodd" d="M1.71933 0.039917H148.159C148.617 0.039917 148.985 0.408679 148.985 0.866699V147.548C148.985 148.006 148.617 148.375 148.159 148.375H1.71933C1.2613 148.375 0.892578 148.006 0.892578 147.548V0.866699C0.892578 0.408679 1.2613 0.039917 1.71933 0.039917Z" fill="#007DBC"/>
<path d="M54.6131 25.5801H49.2744V13.0735H51.0664V23.7881H54.6131V25.5801Z" fill="white"/>
<path d="M55.1953 25.5801V13.0735H56.9687V25.5801H55.1953Z" fill="white"/>
<path d="M58.4863 25.5801V13.0735H63.825V14.7535H60.2597V18.5055H63.377V20.1855H60.2597V25.5801H58.4863Z" fill="white"/>
<path d="M69.7948 23.7881V25.5801H64.4375V13.0735H69.7948V14.7161H66.2108V18.4122H69.3468V20.1108H66.2108V23.7881H69.7948Z" fill="white"/>
<path d="M52.2052 30.3204C52.5909 30.3204 52.9518 30.4013 53.2878 30.5631C53.6612 30.7373 54.0407 31.0174 54.4265 31.4031C54.8372 31.8014 55.0425 32.4236 55.0425 33.2698V34.2218C55.0425 35.18 54.663 35.852 53.9038 36.2378C54.663 36.6858 55.0425 37.3827 55.0425 38.3284V39.7844C55.0425 40.668 54.7563 41.396 54.1838 41.9684C53.6238 42.5409 52.9021 42.8271 52.0185 42.8271H49.2559V30.3204H52.2052ZM53.2692 34.0351V33.2698C53.2692 32.884 53.1572 32.5791 52.9332 32.3551C52.7092 32.1187 52.4105 32.0004 52.0372 32.0004H51.0292V35.4538H52.0932C52.5038 35.4538 52.8025 35.3293 52.9892 35.0804C53.1759 34.8191 53.2692 34.4706 53.2692 34.0351ZM53.2692 39.7844V38.3284C53.2692 37.9302 53.1572 37.6191 52.9332 37.3951C52.7216 37.1587 52.423 37.0405 52.0372 37.0405H51.0292V41.0538H52.0558C52.4167 41.0538 52.7092 40.9355 52.9332 40.6991C53.1572 40.4502 53.2692 40.1453 53.2692 39.7844Z" fill="white"/>
<path d="M62.1601 41.0351V42.8271H56.8027V30.3204H62.1601V31.9631H58.576V35.6591H61.7121V37.3578H58.576V41.0351H62.1601Z" fill="white"/>
<path d="M68.2205 42.8271H62.8818V30.3204H64.6738V41.0351H68.2205V42.8271Z" fill="white"/>
<path d="M68.9564 31.4965C69.2426 31.0982 69.6035 30.7871 70.039 30.5631C70.487 30.3267 70.9475 30.2084 71.4204 30.2084C71.8808 30.2084 72.3102 30.3018 72.7084 30.4885C73.119 30.6751 73.4613 30.9302 73.735 31.2538C74.0088 31.5773 74.1955 31.9133 74.295 32.2618C74.3946 32.5978 74.4444 32.9649 74.4444 33.3631V39.7285C74.4444 40.1018 74.407 40.4316 74.3324 40.7178C74.2702 41.004 74.1208 41.3214 73.8844 41.6698C73.6604 42.0182 73.3306 42.3169 72.8951 42.5658C72.4719 42.8147 71.999 42.9391 71.4764 42.9391C71.1777 42.9391 70.8915 42.9018 70.6177 42.8271C70.3439 42.74 70.0888 42.628 69.8524 42.4911C69.6159 42.3543 69.4044 42.1987 69.2177 42.0245C69.0435 41.8503 68.9066 41.6698 68.807 41.4831C68.6204 41.0973 68.5084 40.7863 68.471 40.5498C68.4337 40.3134 68.415 40.0396 68.415 39.7285V33.3631C68.415 32.9898 68.4524 32.66 68.527 32.3738C68.6142 32.0751 68.7573 31.7827 68.9564 31.4965ZM72.4284 32.4858C72.1919 32.1373 71.8684 31.9631 71.4577 31.9631C71.2461 31.9631 71.0346 32.0253 70.823 32.1498C70.6239 32.2618 70.4808 32.3925 70.3937 32.5418C70.319 32.6911 70.2692 32.8405 70.2444 32.9898C70.2195 33.1391 70.2071 33.2635 70.2071 33.3631V39.7285C70.2071 39.7907 70.2071 39.8591 70.2071 39.9338C70.2071 39.996 70.2133 40.0644 70.2258 40.1391C70.2382 40.2635 70.3378 40.4689 70.5244 40.7551C70.7111 41.0165 71.0222 41.1471 71.4578 41.1471C71.6818 41.1471 71.8809 41.0974 72.0551 40.9978C72.2418 40.8858 72.3724 40.7613 72.4471 40.6245C72.5342 40.4751 72.5902 40.3383 72.6151 40.2138C72.6399 40.0894 72.6524 39.9276 72.6524 39.7285V33.3631C72.6524 33.1142 72.6399 32.94 72.6151 32.8405C72.6026 32.7409 72.5404 32.6227 72.4284 32.4858Z" fill="white"/>
<path d="M81.7639 42.8271L80.2892 35.2111L78.8519 42.8271H77.1906L75.3799 30.3204H77.2839L78.1799 37.8804L79.6172 30.3204H80.9426L82.4172 37.8804L83.3132 30.3204H85.1986L83.4439 42.8271H81.7639Z" fill="white"/>
<path d="M93.9113 42.8271L92.4367 35.2111L90.9993 42.8271H89.338L87.5273 30.3204H89.4313L90.3273 37.8804L91.7647 30.3204H93.09L94.5647 37.8804L95.4607 30.3204H97.346L95.5913 42.8271H93.9113Z" fill="white"/>
<path d="M96.9473 42.8271L99.7473 30.3204H101.297L104.097 42.8271H102.174L101.67 40.1391H99.3553L98.8326 42.8271H96.9473ZM99.6726 38.4778H101.353L100.513 33.9231L99.6726 38.4778Z" fill="white"/>
<path d="M105.591 42.8271V31.9818H103.481V30.3204H109.511V31.9818H107.364V42.8271H105.591Z" fill="white"/>
<path d="M115.853 41.0351V42.8271H110.496V30.3204H115.853V31.9631H112.269V35.6591H115.405V37.3578H112.269V41.0351H115.853Z" fill="white"/>
<path d="M116.537 42.8271V30.3204H119.673C120.494 30.3204 121.185 30.6067 121.745 31.1791C122.318 31.7516 122.604 32.4547 122.604 33.2885V34.4458C122.604 35.6031 122.112 36.4867 121.129 37.0964L123.033 42.8271H121.129L119.449 37.4698H118.329V42.8271H116.537ZM120.513 35.4911C120.625 35.3543 120.7 35.1987 120.737 35.0245C120.787 34.8503 120.812 34.6574 120.812 34.4458V33.2885C120.812 32.9027 120.706 32.5915 120.495 32.3551C120.283 32.1062 119.984 31.9818 119.598 31.9818H118.329V35.8831H119.58C119.953 35.8831 120.264 35.7525 120.513 35.4911Z" fill="white"/>
<path d="M15.5458 42.9828V17.5228L11.2578 20.7388V16.1829L15.5458 13.0562H19.7891V42.9828H15.5458Z" fill="white"/>
<path d="M31.1026 42.9828V38.4269H22.5713V34.4069L28.78 13.0562H33.2913L26.904 34.4069H31.1026V25.8755H35.3906V34.4069H37.49V38.4269H35.3906V42.9828H31.1026Z" fill="white"/>
<path d="M83.584 91.0898C73.4818 91.3246 63.5771 96.6601 53.748 103.949C49.4203 96.5157 43.7137 91.2268 34.625 91.1992C43.3116 104.13 41.5679 115.647 34.625 126.459C43.7137 126.431 49.4203 121.142 53.748 113.709C73.4062 128.287 93.3662 135.048 114.604 108.83C103.985 95.7213 93.6861 90.855 83.584 91.0898ZM93.3652 101.289C94.0016 101.289 94.6318 101.414 95.2198 101.658C95.8077 101.901 96.3419 102.258 96.7919 102.708C97.2419 103.158 97.5989 103.692 97.8423 104.28C98.0858 104.868 98.2111 105.498 98.2109 106.135C98.2107 107.42 97.7 108.652 96.7913 109.56C95.8825 110.469 94.6501 110.979 93.3652 110.979C92.0807 110.978 90.8488 110.468 89.9405 109.56C89.0322 108.651 88.5218 107.419 88.5215 106.135C88.5212 104.85 89.0314 103.617 89.9398 102.709C90.8482 101.8 92.0803 101.289 93.3652 101.289ZM113.857 74.2179L114.206 78.202C106.665 83.3905 101.064 81.3291 96.0286 77.1562C89.8058 81.7475 82.9538 83.1137 74.6144 76.8574C68.4604 80.6249 62.1601 83.9128 52.7519 77.0068C47.8423 80.8361 42.9155 84.6081 35.0229 78.451L34.8237 74.2677C42.0761 78.5148 47.7824 76.0931 53.2001 71.7777C60.388 76.6416 67.492 78.0679 74.4152 72.0765C82.4445 79.4383 89.1895 76.2915 95.7796 71.8773C100.608 74.9694 105.056 78.9327 113.857 74.2179ZM113.857 61.967L114.206 65.951C106.665 71.1396 101.064 69.0782 96.0286 64.9052C89.8058 69.4965 82.9538 70.8627 74.6144 64.6064C68.4604 68.3739 62.1601 71.6618 52.7519 64.7558C47.8423 68.5851 42.9155 72.3571 35.0229 66.2L34.8237 62.0168C42.0761 66.2639 47.7824 63.8421 53.2001 59.5267C60.388 64.3907 67.492 65.817 74.4152 59.8256C82.4445 67.1874 89.1895 64.0405 95.7796 59.6263C100.608 62.7185 105.056 66.6818 113.857 61.967Z" fill="white"/>
</svg>
