<svg viewBox="0 0 149 149" fill="none" xmlns="http://www.w3.org/2000/svg">
<path fill-rule="evenodd" clip-rule="evenodd" d="M1.69296 0.039917H148.132C148.59 0.039917 148.959 0.408679 148.959 0.866699V147.548C148.959 148.006 148.59 148.375 148.132 148.375H1.69296C1.23494 148.375 0.866211 148.006 0.866211 147.548V0.866699C0.866211 0.408679 1.23494 0.039917 1.69296 0.039917Z" fill="#3EB049"/>
<path d="M53.7674 25.5801H48.4287V13.0735H50.2207V23.7881H53.7674V25.5801Z" fill="white"/>
<path d="M54.1221 25.5801V13.0735H55.8954V25.5801H54.1221Z" fill="white"/>
<path d="M57.0342 25.5801V13.0735H62.3728V14.7535H58.8075V18.5055H61.9248V20.1855H58.8075V25.5801H57.0342Z" fill="white"/>
<path d="M68.3427 23.7881V25.5801H62.9854V13.0735H68.3427V14.7161H64.7587V18.4122H67.8947V20.1108H64.7587V23.7881H68.3427Z" fill="white"/>
<path d="M48.8206 31.4965C49.1069 31.0982 49.4677 30.7871 49.9033 30.5631C50.3513 30.3267 50.8118 30.2084 51.2846 30.2084C51.7451 30.2084 52.1744 30.3018 52.5726 30.4885C52.9833 30.6751 53.3255 30.9302 53.5993 31.2538C53.8731 31.5773 54.0597 31.9133 54.1593 32.2618C54.2589 32.5978 54.3086 32.9649 54.3086 33.3631V39.7285C54.3086 40.1018 54.2713 40.4316 54.1966 40.7178C54.1344 41.004 53.9851 41.3214 53.7486 41.6698C53.5246 42.0182 53.1949 42.3169 52.7593 42.5658C52.3362 42.8147 51.8633 42.9391 51.3406 42.9391C51.042 42.9391 50.7557 42.9018 50.482 42.8271C50.2082 42.74 49.9531 42.628 49.7166 42.4911C49.4802 42.3543 49.2686 42.1987 49.082 42.0245C48.9078 41.8503 48.7708 41.6698 48.6713 41.4831C48.4846 41.0973 48.3726 40.7863 48.3353 40.5498C48.298 40.3134 48.2793 40.0396 48.2793 39.7285V33.3631C48.2793 32.9898 48.3166 32.66 48.3913 32.3738C48.4784 32.0751 48.6215 31.7827 48.8206 31.4965ZM52.2926 32.4858C52.0562 32.1373 51.7326 31.9631 51.322 31.9631C51.1104 31.9631 50.8989 32.0253 50.6873 32.1498C50.4882 32.2618 50.3451 32.3925 50.258 32.5418C50.1833 32.6911 50.1335 32.8405 50.1086 32.9898C50.0838 33.1391 50.0713 33.2635 50.0713 33.3631V39.7285C50.0713 39.7907 50.0713 39.8591 50.0713 39.9338C50.0713 39.996 50.0776 40.0644 50.09 40.1391C50.1025 40.2635 50.2021 40.4689 50.3887 40.7551C50.5754 41.0165 50.8865 41.1471 51.322 41.1471C51.546 41.1471 51.7451 41.0974 51.9194 40.9978C52.106 40.8858 52.2367 40.7613 52.3114 40.6245C52.3985 40.4751 52.4545 40.3383 52.4794 40.2138C52.5042 40.0894 52.5167 39.9276 52.5167 39.7285V33.3631C52.5167 33.1142 52.5042 32.94 52.4794 32.8405C52.4669 32.7409 52.4046 32.6227 52.2926 32.4858Z" fill="white"/>
<path d="M59.9942 42.8271L57.2129 35.2298V42.8271H55.4209V30.3204H57.1195L59.8822 37.8991V30.3204H61.6742V42.8271H59.9942Z" fill="white"/>
<path d="M72.1472 42.8271H66.8086V30.3204H68.6006V41.0351H72.1472V42.8271Z" fill="white"/>
<path d="M72.2432 42.8271L75.0432 30.3204H76.5925L79.3925 42.8271H77.4698L76.9659 40.1391H74.6512L74.1285 42.8271H72.2432ZM74.9685 38.4778H76.6485L75.8085 33.9231L74.9685 38.4778Z" fill="white"/>
<path d="M84.4991 42.8271L81.7178 35.2298V42.8271H79.9258V30.3204H81.6245L84.3871 37.8991V30.3204H86.1791V42.8271H84.4991Z" fill="white"/>
<path d="M90.2084 30.3204C91.0173 30.3204 91.708 30.6067 92.2804 31.1791C92.8653 31.7391 93.1578 32.4235 93.1578 33.2324V39.7285C93.1578 40.6493 92.8778 41.396 92.3178 41.9684C91.7578 42.5409 91.036 42.8271 90.1524 42.8271H87.3711V30.3204H90.2084ZM91.3844 39.7285V33.2324C91.3844 32.884 91.2538 32.5915 90.9924 32.3551C90.7435 32.1187 90.4386 32.0004 90.0778 32.0004H89.1444V41.1658H90.0218C90.9302 41.1658 91.3844 40.6867 91.3844 39.7285Z" fill="white"/>
<path d="M15.6659 42.9828V17.5228L11.3779 20.7388V16.1829L15.6659 13.0562H19.9093V42.9828H15.6659Z" fill="white"/>
<path d="M30.9863 23.7315C31.7307 23.7315 32.4752 23.94 33.2196 24.3569C33.9938 24.7738 34.5596 25.2651 34.917 25.8309C35.3041 26.3967 35.5572 26.9922 35.6763 27.6175C35.8252 28.213 35.8996 28.8533 35.8996 29.5382V36.2382C35.8996 36.8933 35.8698 37.4591 35.8103 37.9355C35.7805 38.3822 35.6168 39.0075 35.319 39.8115C35.0212 40.6155 34.2916 41.3897 33.1303 42.1342C32.0285 42.8786 30.8077 43.2509 29.4677 43.2509C28.4552 43.2509 27.4874 43.0126 26.5643 42.5362C25.6412 42.03 24.9265 41.4195 24.4203 40.7048C23.9141 39.9902 23.5716 39.2606 23.393 38.5162C23.2143 37.7717 23.125 37.0124 23.125 36.2382V35.4788H27.5023V37.1315C27.5023 37.2804 27.547 37.4591 27.6363 37.6675C27.7257 37.876 27.8448 38.0844 27.9937 38.2928C28.1425 38.4715 28.351 38.6353 28.619 38.7842C28.887 38.9033 29.1996 38.9628 29.557 38.9628C30.361 38.9628 30.897 38.7395 31.165 38.2928C31.433 37.8462 31.5819 37.5037 31.6116 37.2655C31.6414 36.9975 31.6563 36.7146 31.6563 36.4169V30.1188C31.6563 29.9699 31.6563 29.836 31.6563 29.7169C31.6563 29.568 31.6414 29.4191 31.6116 29.2702C31.6116 29.1213 31.567 28.9426 31.4777 28.7342C31.4181 28.5258 31.299 28.3322 31.1203 28.1535C30.9714 27.9451 30.763 27.7813 30.495 27.6622C30.2568 27.5133 29.959 27.4388 29.6017 27.4388C28.5594 27.4388 27.8597 27.9749 27.5023 29.0469H23.661V13.0562H35.8997V17.0315H27.5023V25.0715C28.5148 24.1782 29.6761 23.7315 30.9863 23.7315Z" fill="white"/>
<path d="M49.8076 69.2949C38.652 70.0684 39.8138 80.9075 45.2422 83.9935C40.655 91.1966 45.2078 98.0239 50.6985 98.0239H68.6263C78.4945 98.0239 85.4286 81.2729 70.0182 74.3615C75.6409 54.8789 49.6466 56.1967 49.8076 69.2949Z" fill="white"/>
<path d="M86.518 90.177C91.5205 87.8567 97.6201 93.0116 97.6201 93.0116C97.6201 93.0116 102.849 88.1446 108.565 90.2557C110.035 90.7986 109.922 89.27 109.431 88.9171C106.514 86.8218 102.861 84.8028 97.7776 88.8385C91.6358 84.9086 88.234 86.6912 85.8094 88.8385C85.1734 89.4017 85.3957 90.6975 86.518 90.177Z" fill="white"/>
<path d="M78.9175 72.1534C82.872 69.8783 88.2728 73.6843 88.2728 73.6843C88.2728 73.6843 92.2295 69.2939 97.0929 70.6192C98.3437 70.9601 98.14 69.7085 97.7096 69.4533C95.1537 67.9379 91.9963 66.539 88.0999 70.2336C82.7531 67.4403 80.0789 69.1562 78.2364 71.1017C77.7531 71.612 78.0303 72.6638 78.9175 72.1534Z" fill="white"/>
<path d="M93.2591 61.3005C96.8901 60.7642 99.8097 65.2061 99.8097 65.2061C99.8097 65.2061 104.066 63.0873 107.315 65.514C108.151 66.1381 108.368 65.1411 108.121 64.8232C106.655 62.935 104.705 60.9565 100.698 62.5724C97.5204 58.9044 95.0126 59.3998 93.0596 60.3124C92.5473 60.5518 92.4445 61.4208 93.2591 61.3005Z" fill="white"/>
<path fill-rule="evenodd" clip-rule="evenodd" d="M59.4713 100.825H63.1911C63.6491 100.825 64.0179 101.194 64.0179 101.652V111.564C64.0179 112.022 63.6491 112.391 63.1911 112.391H59.4713C59.0133 112.391 58.6445 112.022 58.6445 111.564V101.652C58.6445 101.194 59.0133 100.825 59.4713 100.825Z" fill="white"/>
<path fill-rule="evenodd" clip-rule="evenodd" d="M39.8746 116.85H110.748C111.206 116.85 111.575 117.219 111.575 117.677V121.202C111.575 121.66 111.206 122.029 110.748 122.029H39.8746C39.4166 122.029 39.0479 121.66 39.0479 121.202V117.677C39.0479 117.219 39.4166 116.85 39.8746 116.85Z" fill="white"/>
<path fill-rule="evenodd" clip-rule="evenodd" d="M39.8746 125.354H110.748C111.206 125.354 111.575 125.723 111.575 126.181V129.706C111.575 130.164 111.206 130.533 110.748 130.533H39.8746C39.4166 130.533 39.0479 130.164 39.0479 129.706V126.181C39.0479 125.723 39.4166 125.354 39.8746 125.354Z" fill="white"/>
</svg>
