<svg viewBox="0 0 149 149" fill="none" xmlns="http://www.w3.org/2000/svg">
<path fill-rule="evenodd" clip-rule="evenodd" d="M1.66663 0.039917H148.106C148.564 0.039917 148.933 0.408679 148.933 0.866699V147.548C148.933 148.006 148.564 148.375 148.106 148.375H1.66663C1.2086 148.375 0.839844 148.006 0.839844 147.548V0.866699C0.839844 0.408679 1.2086 0.039917 1.66663 0.039917Z" fill="#02558B"/>
<path d="M47.7998 25.5801V13.0735H50.7305H50.7678C51.1411 13.0735 51.4958 13.1544 51.8318 13.3162C52.1678 13.4655 52.4664 13.6646 52.7278 13.9135C52.9891 14.1623 53.1945 14.4486 53.3438 14.7722C53.5056 15.0833 53.5927 15.4068 53.6051 15.7428V17.5535V17.7401C53.6051 18.1508 53.5242 18.5366 53.3624 18.8975C53.2131 19.2459 53.0078 19.5508 52.7465 19.8121C52.4851 20.0735 52.174 20.2788 51.8131 20.4282C51.4647 20.5775 51.0913 20.6522 50.6931 20.6522H50.5251H49.5918V25.5801H47.7998ZM51.5892 18.5988C51.7012 18.4868 51.7696 18.3686 51.7945 18.2441C51.8318 18.1197 51.8505 17.9641 51.8505 17.7775V15.9294C51.8505 15.581 51.7447 15.2948 51.5331 15.0708C51.3216 14.8344 51.0354 14.7161 50.6745 14.7161H49.5919V18.9535H50.5251C50.774 18.9535 50.9732 18.9348 51.1225 18.8975C51.2843 18.8477 51.4398 18.7481 51.5892 18.5988Z" fill="white"/>
<path d="M60.2304 23.7881V25.5801H54.873V13.0735H60.2304V14.7161H56.6464V18.4122H59.7824V20.1108H56.6464V23.7881H60.2304Z" fill="white"/>
<path d="M60.7412 25.5801L63.5413 13.0735H65.0906L67.8906 25.5801H65.9679L65.4639 22.8922H63.1492L62.6266 25.5801H60.7412ZM63.4666 21.2308H65.1465L64.3066 16.6761L63.4666 21.2308Z" fill="white"/>
<path d="M74.3883 22.4255C74.3883 22.8237 74.3634 23.1659 74.3136 23.4521C74.2763 23.7384 74.1518 24.0495 73.9402 24.3855C73.8282 24.5597 73.6851 24.7277 73.5109 24.8895C73.3491 25.0388 73.1625 25.1757 72.9509 25.3001C72.7518 25.4121 72.534 25.5055 72.2976 25.5801C72.0612 25.6548 71.8309 25.6921 71.6069 25.6921C71.0469 25.6921 70.5367 25.5739 70.0762 25.3375C69.6282 25.101 69.2985 24.8024 69.0869 24.4415C68.8754 24.0806 68.7385 23.7446 68.6763 23.4335C68.6265 23.1224 68.6016 22.7864 68.6016 22.4255V15.9855C68.6016 15.637 68.6326 15.3259 68.6948 15.0521C68.7695 14.7659 68.9188 14.461 69.1428 14.1375C69.3668 13.8139 69.6842 13.5402 70.0948 13.3162C70.5055 13.0797 70.9349 12.9615 71.3829 12.9615C72.2415 12.9615 72.957 13.2477 73.5295 13.8201C74.1019 14.3801 74.3882 15.1019 74.3882 15.9855V16.6575H72.6149V15.9855C72.6149 15.637 72.5153 15.3446 72.3162 15.1082C72.1295 14.8717 71.8495 14.7535 71.4762 14.7535C71.1278 14.7535 70.854 14.8717 70.6548 15.1082C70.4682 15.3446 70.3748 15.637 70.3748 15.9855V22.9108C70.3997 23.0975 70.4868 23.309 70.6362 23.5455C70.8104 23.7944 71.0967 23.9188 71.4949 23.9188C71.918 23.9188 72.198 23.8068 72.3348 23.5828C72.4717 23.3588 72.5526 23.197 72.5775 23.0975C72.6024 22.9855 72.6148 22.8361 72.6148 22.6495V22.0148H74.3881L74.3883 22.4255Z" fill="white"/>
<path d="M81.0204 23.7881V25.5801H75.6631V13.0735H81.0204V14.7161H77.4364V18.4122H80.5724V20.1108H77.4364V23.7881H81.0204Z" fill="white"/>
<path d="M81.8906 26.9055V23.8068H83.6826V25.5801L81.8906 26.9055Z" fill="white"/>
<path d="M91.8574 24.3295C91.5836 24.7401 91.229 25.0699 90.7935 25.3188C90.3579 25.5677 89.8974 25.6921 89.4121 25.6921C88.9392 25.6921 88.4912 25.5926 88.0681 25.3935C87.6574 25.1819 87.2904 24.8957 86.9668 24.5348L88.3481 23.4148C88.6468 23.7259 88.989 23.8815 89.3748 23.8815C89.8974 23.8815 90.221 23.7446 90.3455 23.4708C90.4824 23.1846 90.557 22.9855 90.5695 22.8735C90.5819 22.7615 90.5881 22.6308 90.5881 22.4814V13.0735H92.3428V22.3135C92.3428 22.8984 92.3054 23.309 92.2308 23.5455C92.181 23.7695 92.0565 24.0308 91.8574 24.3295Z" fill="white"/>
<path d="M99.39 24.2735C99.1162 24.6966 98.7615 25.0388 98.3259 25.3001C97.9028 25.5614 97.43 25.6921 96.9073 25.6921C96.646 25.6921 96.3846 25.6548 96.1233 25.5801C95.8744 25.5055 95.6379 25.4121 95.4139 25.3001C95.1899 25.1757 94.9909 25.0388 94.8167 24.8895C94.6424 24.7277 94.5117 24.5597 94.4246 24.3855C94.238 24.0371 94.1135 23.7322 94.0513 23.4708C94.0015 23.2095 93.9766 22.9295 93.9766 22.6308V13.0735H95.7686V22.6308C95.7686 22.7179 95.7686 22.7988 95.7686 22.8735C95.781 22.9357 95.7935 22.9979 95.8059 23.0601C95.8184 23.1597 95.9117 23.3339 96.0859 23.5828C96.2477 23.8068 96.5277 23.9188 96.9259 23.9188C97.2868 23.9188 97.5543 23.7881 97.7286 23.5268C97.9152 23.253 98.0085 22.9544 98.0085 22.6308V13.0735H99.8005V22.6308C99.8005 22.9295 99.7695 23.2157 99.7073 23.4894C99.6451 23.7632 99.5393 24.0246 99.39 24.2735Z" fill="white"/>
<path d="M102.762 22.4628C102.762 22.5873 102.762 22.693 102.762 22.7802C102.762 22.8673 102.768 22.9419 102.781 23.0042C102.805 23.1286 102.899 23.309 103.061 23.5455C103.235 23.7944 103.546 23.9188 103.994 23.9188C104.243 23.9188 104.473 23.869 104.685 23.7695C104.896 23.6575 105.052 23.5144 105.151 23.3401C105.226 23.2033 105.269 23.0726 105.282 22.9481C105.307 22.8237 105.319 22.7117 105.319 22.6121V22.4442V21.5668V21.3988C105.319 21.125 105.269 20.9135 105.17 20.7642C105.07 20.6024 104.846 20.4219 104.498 20.2228C104.261 20.0984 103.838 19.9241 103.229 19.7001C102.619 19.4761 102.109 19.1215 101.698 18.6362C101.287 18.1508 101.082 17.4913 101.082 16.6575V16.0975C101.082 15.2388 101.368 14.5046 101.941 13.8948C102.525 13.2726 103.235 12.9615 104.069 12.9615C104.94 12.9615 105.661 13.2664 106.234 13.8762C106.819 14.4859 107.111 15.2264 107.111 16.0975V16.6575H105.319V16.0975C105.319 16.0104 105.313 15.9295 105.301 15.8548C105.301 15.7801 105.294 15.7117 105.282 15.6495C105.269 15.5873 105.238 15.5126 105.189 15.4255C105.139 15.3384 105.07 15.2326 104.983 15.1082C104.809 14.8593 104.517 14.7348 104.106 14.7348C103.745 14.7348 103.446 14.8655 103.21 15.1268C102.986 15.3882 102.874 15.7117 102.874 16.0975V16.6575V16.8255C102.874 17.0744 102.911 17.2735 102.986 17.4228C103.073 17.5597 103.272 17.7152 103.583 17.8895C103.683 17.9393 103.832 18.0077 104.031 18.0948C104.243 18.1695 104.498 18.2628 104.797 18.3748C105.394 18.5739 105.929 18.9286 106.402 19.4388C106.875 19.949 107.111 20.6211 107.111 21.4548V22.4628C107.111 22.8984 107.068 23.2655 106.981 23.5641C106.906 23.8628 106.651 24.2983 106.215 24.8708C105.78 25.4183 105.052 25.6921 104.031 25.6921C102.949 25.6921 102.165 25.3437 101.679 24.6468C101.194 23.9375 100.951 23.2095 100.951 22.4628V22.0148H102.762L102.762 22.4628Z" fill="white"/>
<path d="M109.412 25.5801V14.7348H107.303V13.0735H113.332V14.7348H111.185V25.5801H109.412Z" fill="white"/>
<path d="M114.305 25.5801V13.0735H116.078V25.5801H114.305Z" fill="white"/>
<path d="M123.34 22.4255C123.34 22.8237 123.316 23.1659 123.266 23.4521C123.228 23.7384 123.104 24.0495 122.892 24.3855C122.78 24.5597 122.637 24.7277 122.463 24.8895C122.301 25.0388 122.115 25.1757 121.903 25.3001C121.704 25.4121 121.486 25.5055 121.25 25.5801C121.013 25.6548 120.783 25.6921 120.559 25.6921C119.999 25.6921 119.489 25.5739 119.028 25.3375C118.58 25.101 118.251 24.8024 118.039 24.4415C117.828 24.0806 117.691 23.7446 117.628 23.4335C117.579 23.1224 117.554 22.7864 117.554 22.4255V15.9855C117.554 15.637 117.585 15.3259 117.647 15.0521C117.722 14.7659 117.871 14.461 118.095 14.1375C118.319 13.8139 118.636 13.5402 119.047 13.3162C119.458 13.0797 119.887 12.9615 120.335 12.9615C121.194 12.9615 121.909 13.2477 122.482 13.8201C123.054 14.3801 123.34 15.1019 123.34 15.9855V16.6575H121.567V15.9855C121.567 15.637 121.467 15.3446 121.268 15.1082C121.082 14.8717 120.802 14.7535 120.428 14.7535C120.08 14.7535 119.806 14.8717 119.607 15.1082C119.42 15.3446 119.327 15.637 119.327 15.9855V22.9108C119.352 23.0975 119.439 23.309 119.588 23.5455C119.763 23.7944 120.049 23.9188 120.447 23.9188C120.87 23.9188 121.15 23.8068 121.287 23.5828C121.424 23.3588 121.505 23.197 121.53 23.0975C121.555 22.9855 121.567 22.8361 121.567 22.6495V22.0148H123.34L123.34 22.4255Z" fill="white"/>
<path d="M130.062 23.7881V25.5801H124.705V13.0735H130.062V14.7161H126.478V18.4122H129.614V20.1108H126.478V23.7881H130.062Z" fill="white"/>
<path d="M47.2061 42.8271L50.006 30.3204H51.5554L54.3554 42.8271H52.4327L51.9287 40.1391H49.6141L49.0914 42.8271H47.2061ZM49.9314 38.4778H51.6114L50.7714 33.9231L49.9314 38.4778Z" fill="white"/>
<path d="M59.8409 42.8271L57.0596 35.2298V42.8271H55.2676V30.3204H56.9662L59.7289 37.8991V30.3204H61.5209V42.8271H59.8409Z" fill="white"/>
<path d="M65.6811 30.3204C66.49 30.3204 67.1807 30.6067 67.7531 31.1791C68.338 31.7391 68.6304 32.4235 68.6304 33.2324V39.7285C68.6304 40.6493 68.3504 41.396 67.7904 41.9684C67.2304 42.5409 66.5087 42.8271 65.6251 42.8271H62.8438V30.3204H65.6811ZM66.8571 39.7285V33.2324C66.8571 32.884 66.7264 32.5915 66.4651 32.3551C66.2162 32.1187 65.9113 32.0004 65.5504 32.0004H64.6171V41.1658H65.4944C66.4029 41.1658 66.8571 40.6867 66.8571 39.7285Z" fill="white"/>
<path d="M73.5461 39.7098C73.5461 39.8342 73.5461 39.94 73.5461 40.0271C73.5461 40.1142 73.5523 40.1889 73.5648 40.2511C73.5896 40.3755 73.683 40.556 73.8448 40.7925C74.019 41.0414 74.3301 41.1658 74.7781 41.1658C75.027 41.1658 75.2572 41.116 75.4688 41.0165C75.6803 40.9045 75.8359 40.7613 75.9354 40.5871C76.0101 40.4502 76.0537 40.3196 76.0661 40.1951C76.091 40.0707 76.1034 39.9587 76.1034 39.8591V39.6911V38.8138V38.6458C76.1034 38.372 76.0536 38.1604 75.954 38.0111C75.8545 37.8493 75.6305 37.6689 75.282 37.4698C75.0456 37.3453 74.6225 37.1711 74.0128 36.9471C73.403 36.7231 72.8927 36.3685 72.4821 35.8831C72.0714 35.3978 71.8661 34.7383 71.8661 33.9045V33.3444C71.8661 32.4858 72.1523 31.7516 72.7247 31.1418C73.3096 30.5196 74.0189 30.2084 74.8527 30.2084C75.7238 30.2084 76.4456 30.5133 77.0181 31.1231C77.603 31.7329 77.8954 32.4733 77.8954 33.3444V33.9045H76.1034V33.3444C76.1034 33.2573 76.0972 33.1765 76.0847 33.1018C76.0847 33.0271 76.0784 32.9586 76.066 32.8964C76.0535 32.8342 76.0225 32.7596 75.9727 32.6724C75.9229 32.5853 75.8544 32.4795 75.7673 32.3551C75.5931 32.1062 75.3007 31.9818 74.89 31.9818C74.5291 31.9818 74.2305 32.1124 73.994 32.3738C73.77 32.6351 73.658 32.9586 73.658 33.3444V33.9045V34.0724C73.658 34.3213 73.6954 34.5205 73.77 34.6698C73.8571 34.8067 74.0563 34.9623 74.3674 35.1365C74.4669 35.1863 74.6163 35.2547 74.8154 35.3418C75.0269 35.4165 75.282 35.5098 75.5807 35.6218C76.178 35.8209 76.7131 36.1756 77.186 36.6858C77.6589 37.196 77.8953 37.868 77.8953 38.7018V39.7098C77.8953 40.1453 77.8518 40.5124 77.7647 40.8111C77.69 41.1098 77.4349 41.5454 76.9993 42.1178C76.5638 42.6654 75.8358 42.9391 74.8154 42.9391C73.7327 42.9391 72.9487 42.5907 72.4634 41.8938C71.978 41.1845 71.7354 40.4564 71.7354 39.7098V39.2618H73.546L73.5461 39.7098Z" fill="white"/>
<path d="M80.4658 42.8271V31.9818H78.3564V30.3204H84.3858V31.9818H82.2391V42.8271H80.4658Z" fill="white"/>
<path d="M85.1602 42.8271V30.3204H88.2962C89.1175 30.3204 89.8082 30.6067 90.3682 31.1791C90.9406 31.7516 91.2269 32.4547 91.2269 33.2885V34.4458C91.2269 35.6031 90.7353 36.4867 89.7522 37.0964L91.6562 42.8271H89.7522L88.0722 37.4698H86.9522V42.8271H85.1602ZM89.1362 35.4911C89.2482 35.3543 89.3228 35.1987 89.3602 35.0245C89.41 34.8503 89.4349 34.6574 89.4349 34.4458V33.2885C89.4349 32.9027 89.3291 32.5915 89.1176 32.3551C88.906 32.1062 88.6073 31.9818 88.2216 31.9818H86.9522V35.8831H88.2029C88.5762 35.8831 88.8873 35.7525 89.1362 35.4911Z" fill="white"/>
<path d="M92.7816 31.4965C93.0678 31.0982 93.4286 30.7871 93.8642 30.5631C94.3122 30.3267 94.7727 30.2084 95.2455 30.2084C95.706 30.2084 96.1353 30.3018 96.5336 30.4885C96.9442 30.6751 97.2864 30.9302 97.5602 31.2538C97.834 31.5773 98.0207 31.9133 98.1202 32.2618C98.2198 32.5978 98.2695 32.9649 98.2695 33.3631V39.7285C98.2695 40.1018 98.2322 40.4316 98.1575 40.7178C98.0953 41.004 97.946 41.3214 97.7095 41.6698C97.4855 42.0182 97.1558 42.3169 96.7202 42.5658C96.2971 42.8147 95.8242 42.9391 95.3015 42.9391C95.0028 42.9391 94.7167 42.9018 94.4429 42.8271C94.1691 42.74 93.914 42.628 93.6776 42.4911C93.4411 42.3543 93.2295 42.1987 93.0428 42.0245C92.8686 41.8503 92.7318 41.6698 92.6322 41.4831C92.4455 41.0973 92.3335 40.7863 92.2962 40.5498C92.2589 40.3134 92.2402 40.0396 92.2402 39.7285V33.3631C92.2402 32.9898 92.2776 32.66 92.3522 32.3738C92.4393 32.0751 92.5824 31.7827 92.7816 31.4965ZM96.2535 32.4858C96.0171 32.1373 95.6936 31.9631 95.2829 31.9631C95.0713 31.9631 94.8597 32.0253 94.6482 32.1498C94.4491 32.2618 94.306 32.3925 94.2189 32.5418C94.1442 32.6911 94.0944 32.8405 94.0695 32.9898C94.0447 33.1391 94.0322 33.2635 94.0322 33.3631V39.7285C94.0322 39.7907 94.0322 39.8591 94.0322 39.9338C94.0322 39.996 94.0385 40.0644 94.051 40.1391C94.0634 40.2635 94.163 40.4689 94.3496 40.7551C94.5363 41.0165 94.8474 41.1471 95.283 41.1471C95.507 41.1471 95.7061 41.0974 95.8803 40.9978C96.067 40.8858 96.1976 40.7613 96.2723 40.6245C96.3594 40.4751 96.4154 40.3383 96.4403 40.2138C96.4652 40.0894 96.4776 39.9276 96.4776 39.7285V33.3631C96.4776 33.1142 96.4652 32.94 96.4403 32.8405C96.4278 32.7409 96.3655 32.6227 96.2535 32.4858Z" fill="white"/>
<path d="M104.368 42.8271L101.587 35.2298V42.8271H99.7949V30.3204H101.494L104.256 37.8991V30.3204H106.048V42.8271H104.368Z" fill="white"/>
<path d="M112.732 41.5204C112.446 41.9684 112.078 42.3169 111.63 42.5658C111.182 42.8147 110.691 42.9391 110.156 42.9391C109.683 42.9391 109.222 42.8271 108.774 42.6031C108.339 42.3791 107.997 42.1054 107.748 41.7818C107.511 41.4458 107.349 41.1098 107.262 40.7738C107.188 40.4378 107.15 40.0582 107.15 39.6351V33.3818C107.15 33.0707 107.182 32.7595 107.244 32.4484C107.331 32.1373 107.561 31.6955 107.934 31.1231C108.32 30.5133 109.079 30.2084 110.212 30.2084C110.709 30.2084 111.176 30.3267 111.612 30.5631C112.047 30.7996 112.377 31.092 112.601 31.4404C112.837 31.7764 112.987 32.1 113.049 32.4111C113.124 32.7098 113.161 33.0333 113.161 33.3818V33.9045H111.388V33.3818C111.388 33.2822 111.381 33.1951 111.369 33.1204C111.369 33.0333 111.363 32.9586 111.35 32.8964C111.338 32.7844 111.245 32.604 111.07 32.3551C110.896 32.1062 110.604 31.9818 110.193 31.9818C109.708 31.9818 109.384 32.1124 109.222 32.3738C109.073 32.6351 108.986 32.828 108.961 32.9525C108.936 33.0769 108.924 33.22 108.924 33.3818V39.6351C108.924 39.7596 108.924 39.8653 108.924 39.9525C108.924 40.0396 108.93 40.1142 108.942 40.1765C108.955 40.276 109.048 40.4689 109.222 40.7551C109.384 41.0165 109.701 41.1471 110.174 41.1471C110.66 41.1471 110.971 41.0165 111.108 40.7551C111.182 40.6182 111.238 40.5062 111.276 40.4191C111.313 40.3196 111.338 40.2324 111.35 40.1578C111.375 40.0831 111.388 40.0084 111.388 39.9338C111.388 39.8467 111.388 39.7471 111.388 39.6351V37.4511H109.95V35.8831H113.161V39.6351C113.161 39.8965 113.155 40.1205 113.142 40.3071C113.13 40.4813 113.105 40.6369 113.068 40.7738C113.03 40.9107 112.98 41.0413 112.918 41.1658C112.868 41.2778 112.806 41.396 112.732 41.5204Z" fill="white"/>
<path d="M47.7998 60.0741V47.5674H49.5732V60.0741H47.7998Z" fill="white"/>
<path d="M55.6437 60.0741L52.8623 52.4767V60.0741H51.0703V47.5674H52.769L55.5317 55.1461V47.5674H57.3237V60.0741H55.6437Z" fill="white"/>
<path d="M59.882 56.9568C59.882 57.0812 59.882 57.187 59.882 57.2741C59.882 57.3612 59.8882 57.4359 59.9007 57.4981C59.9256 57.6226 60.0189 57.803 60.1807 58.0394C60.355 58.2883 60.666 58.4128 61.114 58.4128C61.3629 58.4128 61.5931 58.363 61.8047 58.2634C62.0162 58.1514 62.1718 58.0083 62.2714 57.8341C62.346 57.6972 62.3896 57.5665 62.402 57.4421C62.4269 57.3176 62.4393 57.2056 62.4393 57.1061V56.9381V56.0607V55.8928C62.4393 55.619 62.3895 55.4075 62.29 55.2581C62.1904 55.0963 61.9664 54.9158 61.618 54.7167C61.3815 54.5923 60.9585 54.4181 60.3487 54.1941C59.7389 53.9701 59.2287 53.6154 58.818 53.1301C58.4073 52.6447 58.202 51.9852 58.202 51.1514V50.5914C58.202 49.7328 58.4882 48.9985 59.0607 48.3887C59.6456 47.7665 60.3549 47.4554 61.1887 47.4554C62.0598 47.4554 62.7816 47.7603 63.354 48.3701C63.9389 48.9799 64.2313 49.7203 64.2313 50.5914V51.1514H62.4393V50.5914C62.4393 50.5043 62.4331 50.4234 62.4207 50.3488C62.4207 50.2741 62.4144 50.2057 62.4019 50.1434C62.3895 50.0812 62.3584 50.0066 62.3087 49.9194C62.2589 49.8323 62.1904 49.7266 62.1033 49.6021C61.9291 49.3532 61.6366 49.2288 61.226 49.2288C60.8651 49.2288 60.5664 49.3595 60.33 49.6208C60.106 49.8821 59.994 50.2057 59.994 50.5914V51.1514V51.3195C59.994 51.5683 60.0313 51.7674 60.106 51.9167C60.1931 52.0536 60.3922 52.2092 60.7033 52.3834C60.8029 52.4332 60.9522 52.5017 61.1513 52.5887C61.3629 52.6634 61.618 52.7568 61.9166 52.8688C62.514 53.0679 63.0491 53.4225 63.522 53.9327C63.9949 54.443 64.2313 55.115 64.2313 55.9487V56.9568C64.2313 57.3923 64.1878 57.7594 64.1006 58.0581C64.026 58.3568 63.7709 58.7923 63.3353 59.3647C62.8998 59.9123 62.1718 60.1861 61.1513 60.1861C60.0686 60.1861 59.2846 59.8376 58.7993 59.1407C58.314 58.4314 58.0713 57.7035 58.0713 56.9568V56.5088H59.882L59.882 56.9568Z" fill="white"/>
<path d="M66.7119 60.0741V49.2288H64.6025V47.5674H70.6319V49.2288H68.4852V60.0741H66.7119Z" fill="white"/>
<path d="M71.5146 60.0741V47.5674H73.288V60.0741H71.5146Z" fill="white"/>
<path d="M76.3124 60.0741V49.2288H74.2031V47.5674H80.2324V49.2288H78.0858V60.0741H76.3124Z" fill="white"/>
<path d="M86.6185 58.7674C86.3447 59.1905 85.99 59.5327 85.5544 59.7941C85.1313 60.0554 84.6585 60.1861 84.1358 60.1861C83.8745 60.1861 83.6131 60.1488 83.3518 60.0741C83.1029 59.9994 82.8665 59.9061 82.6425 59.7941C82.4185 59.6696 82.2194 59.5328 82.0452 59.3834C81.8709 59.2216 81.7402 59.0536 81.6531 58.8794C81.4665 58.531 81.342 58.2261 81.2798 57.9648C81.23 57.7034 81.2051 57.4234 81.2051 57.1248V47.5674H82.9971V57.1248C82.9971 57.2119 82.9971 57.2928 82.9971 57.3674C83.0095 57.4296 83.022 57.4918 83.0344 57.5541C83.0469 57.6536 83.1402 57.8279 83.3144 58.0768C83.4762 58.3008 83.7562 58.4128 84.1544 58.4128C84.5153 58.4128 84.7829 58.2821 84.9571 58.0208C85.1438 57.747 85.2371 57.4483 85.2371 57.1248V47.5674H87.0291V57.1248C87.0291 57.4234 86.998 57.7096 86.9358 57.9834C86.8736 58.2572 86.7678 58.5185 86.6185 58.7674Z" fill="white"/>
<path d="M89.9238 60.0741V49.2288H87.8145V47.5674H93.8438V49.2288H91.6971V60.0741H89.9238Z" fill="white"/>
<path d="M94.7266 60.0741V47.5674H96.4999V60.0741H94.7266Z" fill="white"/>
<path d="M98.5872 48.7434C98.8734 48.3452 99.2344 48.0341 99.6699 47.8101C100.118 47.5737 100.578 47.4554 101.051 47.4554C101.512 47.4554 101.941 47.5487 102.339 47.7354C102.75 47.9221 103.092 48.1772 103.366 48.5007C103.64 48.8243 103.826 49.1603 103.926 49.5088C104.025 49.8448 104.075 50.2119 104.075 50.6101V56.9754C104.075 57.3487 104.038 57.6786 103.963 57.9648C103.901 58.251 103.752 58.5683 103.515 58.9167C103.291 59.2652 102.961 59.5639 102.526 59.8127C102.103 60.0616 101.63 60.1861 101.107 60.1861C100.809 60.1861 100.522 60.1488 100.249 60.0741C99.9748 59.987 99.7197 59.875 99.4832 59.7381C99.2468 59.6012 99.0352 59.4457 98.8486 59.2714C98.6743 59.0972 98.5375 58.9168 98.4379 58.7301C98.2513 58.3443 98.1393 58.0332 98.1019 57.7968C98.0646 57.5603 98.0459 57.2865 98.0459 56.9754V50.6101C98.0459 50.2368 98.0832 49.907 98.1579 49.6208C98.245 49.3221 98.3881 49.0296 98.5872 48.7434ZM102.059 49.7328C101.823 49.3843 101.499 49.2101 101.089 49.2101C100.877 49.2101 100.665 49.2723 100.454 49.3968C100.255 49.5088 100.112 49.6394 100.025 49.7888C99.9499 49.9381 99.9001 50.0874 99.8752 50.2368C99.8504 50.3861 99.838 50.5106 99.838 50.6101V56.9754C99.838 57.0376 99.838 57.1061 99.838 57.1808C99.838 57.243 99.8442 57.3114 99.8566 57.3861C99.8691 57.5106 99.9686 57.7159 100.155 58.0021C100.342 58.2634 100.653 58.3941 101.089 58.3941C101.313 58.3941 101.512 58.3443 101.686 58.2448C101.873 58.1328 102.003 58.0083 102.078 57.8714C102.165 57.7221 102.221 57.5852 102.246 57.4608C102.271 57.3363 102.283 57.1745 102.283 56.9754V50.6101C102.283 50.3612 102.271 50.187 102.246 50.0874C102.234 49.9878 102.171 49.8697 102.059 49.7328Z" fill="white"/>
<path d="M109.995 60.0741L107.214 52.4767V60.0741H105.422V47.5674H107.121L109.883 55.1461V47.5674H111.675V60.0741H109.995Z" fill="white"/>
<path d="M114.322 56.9568C114.322 57.0812 114.322 57.187 114.322 57.2741C114.322 57.3612 114.329 57.4359 114.341 57.4981C114.366 57.6226 114.459 57.803 114.621 58.0394C114.795 58.2883 115.106 58.4128 115.554 58.4128C115.803 58.4128 116.034 58.363 116.245 58.2634C116.457 58.1514 116.612 58.0083 116.712 57.8341C116.786 57.6972 116.83 57.5665 116.842 57.4421C116.867 57.3176 116.88 57.2056 116.88 57.1061V56.9381V56.0607V55.8928C116.88 55.619 116.83 55.4075 116.73 55.2581C116.631 55.0963 116.407 54.9158 116.058 54.7167C115.822 54.5923 115.399 54.4181 114.789 54.1941C114.179 53.9701 113.669 53.6154 113.258 53.1301C112.848 52.6447 112.642 51.9852 112.642 51.1514V50.5914C112.642 49.7328 112.929 48.9985 113.501 48.3887C114.086 47.7665 114.795 47.4554 115.629 47.4554C116.5 47.4554 117.222 47.7603 117.794 48.3701C118.379 48.9799 118.672 49.7203 118.672 50.5914V51.1514H116.88V50.5914C116.88 50.5043 116.873 50.4234 116.861 50.3488C116.861 50.2741 116.855 50.2057 116.842 50.1434C116.83 50.0812 116.799 50.0066 116.749 49.9194C116.699 49.8323 116.631 49.7266 116.544 49.6021C116.369 49.3532 116.077 49.2288 115.666 49.2288C115.305 49.2288 115.007 49.3595 114.77 49.6208C114.546 49.8821 114.434 50.2057 114.434 50.5914V51.1514V51.3195C114.434 51.5683 114.472 51.7674 114.546 51.9167C114.634 52.0536 114.833 52.2092 115.144 52.3834C115.243 52.4332 115.393 52.5017 115.592 52.5887C115.803 52.6634 116.058 52.7568 116.357 52.8688C116.954 53.0679 117.489 53.4225 117.962 53.9327C118.435 54.443 118.672 55.115 118.672 55.9487V56.9568C118.672 57.3923 118.628 57.7594 118.541 58.0581C118.466 58.3568 118.211 58.7923 117.776 59.3647C117.34 59.9123 116.612 60.1861 115.592 60.1861C114.509 60.1861 113.725 59.8376 113.24 59.1407C112.754 58.4314 112.512 57.7035 112.512 56.9568V56.5088H114.322V56.9568Z" fill="white"/>
<path d="M16.8476 42.9828V17.5228L12.5596 20.7388V16.1829L16.8476 13.0562H21.0909V42.9828H16.8476Z" fill="white"/>
<path d="M36.8734 27.6622C37.1116 28.0791 37.2605 28.5109 37.3201 28.9575C37.4094 29.4042 37.4541 29.9551 37.4541 30.6102V36.3275C37.4541 37.0124 37.3797 37.6973 37.2308 38.3822C37.0819 39.0373 36.6352 39.9604 35.8907 41.1516C35.1165 42.3724 33.6574 43.0722 31.5134 43.2509C30.1734 43.2509 28.9525 42.9679 27.8507 42.4022C26.7787 41.8066 26.0194 41.1069 25.5728 40.3029C25.1559 39.4691 24.8879 38.7693 24.7687 38.2035C24.6794 37.6377 24.6348 37.0124 24.6348 36.3275V31.6375C24.6348 30.9824 24.6496 30.5209 24.6794 30.2529C24.7092 29.9551 24.8135 29.5679 24.9921 29.0915L30.9327 13.0562H35.7568L30.9327 25.6075C31.4687 25.3991 32.109 25.2949 32.8535 25.2949H33.2554C34.8932 25.5331 36.0992 26.3222 36.8734 27.6622ZM32.8087 29.9402C32.362 29.3446 31.7665 29.0469 31.0221 29.0469C30.367 29.0469 29.8608 29.2851 29.5034 29.7615C29.1461 30.238 28.9674 30.8633 28.9674 31.6375V36.3275C28.9674 36.9528 29.1163 37.5484 29.4141 38.1142C29.7416 38.6502 30.2925 38.9182 31.0667 38.9182H31.3347C32.1089 38.9182 32.6152 38.6502 32.8534 38.1142C33.0916 37.5782 33.2108 36.9826 33.2108 36.3275V31.6375C33.2108 31.2504 33.181 30.9377 33.1215 30.6995C33.0917 30.4315 32.9874 30.1784 32.8087 29.9402Z" fill="white"/>
<path fill-rule="evenodd" clip-rule="evenodd" d="M108.607 66.4941C105.219 66.4631 104.705 68.4165 104.635 70.6758C108.024 70.7068 108.537 68.7534 108.607 66.4941ZM99.498 67.0273C97.5349 69.7899 98.8451 71.328 100.658 72.6777C102.621 69.9152 101.311 68.3771 99.498 67.0273ZM95.5469 71.1641C93.5961 73.9354 94.9132 75.467 96.7324 76.8086C98.6832 74.0373 97.3661 72.5057 95.5469 71.1641ZM103.373 71.707C103.256 71.7057 103.143 71.7498 103.059 71.8301C100.408 74.2648 98.1145 76.8365 96.8555 79.7754C96.5593 80.4667 96.3277 81.1805 96.1582 81.9141C94.3945 80.1537 93.7531 78.2746 91.4766 78.3145C86.0244 78.41 83.188 86.8901 75.6094 86.9434C64.8991 87.0186 65.748 74.0213 45.5996 73.916C57.6683 83.5748 45.4282 92.4498 63.3047 99.3047C55.7185 100.722 55.551 107.21 45.5469 103.996C50.2095 105.805 55.2386 111.694 64.627 112.035V119.076C53.9416 118.758 43.5781 118.326 43.5781 118.326V122.793C43.5781 122.793 68.5133 121.715 81.0371 121.715C85.1808 121.715 88.6259 122.552 90.1074 122.977V125.803C90.1074 126.839 90.9425 127.672 91.9785 127.672H102.527C103.563 127.672 104.398 126.839 104.398 125.803V115.371C104.398 114.335 103.563 113.502 102.527 113.502H91.9785C90.9425 113.502 90.1074 114.335 90.1074 115.371V118.141C88.6259 118.565 85.1808 119.404 81.0371 119.404C78.2227 119.404 74.7438 119.346 71.0996 119.262V111.736C89.3812 109.626 88.7587 97.9599 88.6934 95.2949C88.4761 86.4286 92.6025 84.5255 95.877 84.0254C95.7933 85.8219 96.1003 87.7357 96.9336 89.7871C96.9559 89.8419 96.9888 89.8917 97.0303 89.9338C97.0719 89.9758 97.1214 90.0093 97.1759 90.0322C97.2304 90.0552 97.2889 90.0671 97.348 90.0674C97.4072 90.0678 97.4657 90.0565 97.5205 90.0342C97.5753 90.0119 97.6251 89.979 97.6672 89.9374C97.7092 89.8959 97.7427 89.8464 97.7656 89.7919C97.7886 89.7374 97.8005 89.6789 97.8008 89.6197C97.8012 89.5606 97.7899 89.502 97.7676 89.4473C96.9544 87.4455 96.6711 85.6275 96.7734 83.9277C97.5706 83.855 98.3057 83.8242 98.8262 83.7715C98.0721 83.4326 97.4574 83.0357 96.9316 82.6172C97.0903 81.7621 97.3372 80.9329 97.6816 80.1289C98.859 77.3807 101.06 74.8898 103.668 72.4941C103.736 72.4338 103.785 72.3542 103.807 72.2658C103.829 72.1774 103.823 72.0844 103.791 71.9991C103.759 71.9139 103.702 71.8403 103.628 71.7881C103.553 71.736 103.464 71.7077 103.373 71.707ZM105.939 73.5098C104.858 73.5673 103.926 74.3036 103.031 75.207C105.491 77.5379 107.199 76.4577 108.789 74.8516C107.713 73.8318 106.781 73.465 105.939 73.5098ZM102.355 77.8125C101.405 77.8127 100.468 78.3168 99.5352 78.9551C101.51 81.7089 103.39 80.9699 105.256 79.6934C104.268 78.3164 103.306 77.8123 102.355 77.8125ZM90.7246 108.361C89.6886 108.361 88.8535 109.196 88.8535 110.232V110.613C88.8535 111.649 89.6886 112.482 90.7246 112.482H103.695C104.731 112.482 105.564 111.649 105.564 110.613V110.232C105.564 109.196 104.731 108.361 103.695 108.361H90.7246ZM69.0371 111.926V119.211C68.2495 119.191 67.4841 119.161 66.6895 119.139V112.039C67.5009 112.017 68.2842 111.979 69.0371 111.926ZM39.8574 117C38.8214 117 37.9863 117.833 37.9863 118.869V122.035C37.9863 123.071 38.8214 123.904 39.8574 123.904H40.3848C41.4208 123.904 42.2539 123.071 42.2539 122.035V118.869C42.2539 117.833 41.4208 117 40.3848 117H39.8574ZM90.7246 128.404C89.6886 128.404 88.8535 129.239 88.8535 130.275V130.656C88.8535 131.692 89.6886 132.527 90.7246 132.527H103.695C104.731 132.527 105.564 131.692 105.564 130.656V130.275C105.564 129.239 104.731 128.404 103.695 128.404H90.7246Z" fill="white"/>
</svg>
