<svg viewBox="0 0 149 149" fill="none" xmlns="http://www.w3.org/2000/svg">
<path fill-rule="evenodd" clip-rule="evenodd" d="M1.64026 0.039917H148.079C148.537 0.039917 148.906 0.408679 148.906 0.866699V147.548C148.906 148.006 148.537 148.375 148.079 148.375H1.64026C1.18224 148.375 0.813477 148.006 0.813477 147.548V0.866699C0.813477 0.408679 1.18224 0.039917 1.64026 0.039917Z" fill="#183668"/>
<path d="M49.0312 25.5801V13.0735H51.9619H51.9993C52.3726 13.0735 52.7272 13.1544 53.0632 13.3162C53.3992 13.4655 53.6979 13.6646 53.9592 13.9135C54.2206 14.1623 54.4259 14.4486 54.5753 14.7722C54.737 15.0833 54.8241 15.4068 54.8365 15.7428V17.5535V17.7401C54.8365 18.1508 54.7557 18.5366 54.5939 18.8975C54.4445 19.2459 54.2392 19.5508 53.9779 19.8121C53.7166 20.0735 53.4054 20.2788 53.0446 20.4282C52.6961 20.5775 52.3228 20.6522 51.9246 20.6522H51.7566H50.8232V25.5801H49.0312ZM52.8206 18.5988C52.9326 18.4868 53.0011 18.3686 53.0259 18.2441C53.0633 18.1197 53.0819 17.9641 53.0819 17.7775V15.9294C53.0819 15.581 52.9761 15.2948 52.7646 15.0708C52.553 14.8344 52.2668 14.7161 51.9059 14.7161H50.8233V18.9535H51.7566C52.0055 18.9535 52.2046 18.9348 52.3539 18.8975C52.5157 18.8477 52.6713 18.7481 52.8206 18.5988Z" fill="white"/>
<path d="M54.9727 25.5801L57.7726 13.0735H59.322L62.122 25.5801H60.1993L59.6954 22.8922H57.3807L56.858 25.5801H54.9727ZM57.698 21.2308H59.378L58.538 16.6761L57.698 21.2308Z" fill="white"/>
<path d="M63.0156 25.5801V13.0735H66.1516C66.9729 13.0735 67.6636 13.3597 68.2236 13.9321C68.7961 14.5046 69.0823 15.2077 69.0823 16.0414V17.1988C69.0823 18.3561 68.5907 19.2397 67.6076 19.8495L69.5117 25.5801H67.6076L65.9276 20.2228H64.8076V25.5801H63.0156ZM66.9916 18.2441C67.1036 18.1073 67.1783 17.9517 67.2156 17.7775C67.2654 17.6032 67.2903 17.4103 67.2903 17.1988V16.0414C67.2903 15.6557 67.1845 15.3446 66.973 15.1082C66.7614 14.8593 66.4627 14.7348 66.077 14.7348H64.8077V18.6362H66.0583C66.4317 18.6362 66.7428 18.5055 66.9916 18.2441Z" fill="white"/>
<path d="M71.5732 25.5801V14.7348H69.4639V13.0735H75.4932V14.7348H73.3466V25.5801H71.5732Z" fill="white"/>
<path d="M80.7706 25.5801L77.9893 17.9828V25.5801H76.1973V13.0735H77.8959L80.6586 20.6522V13.0735H82.4506V25.5801H80.7706Z" fill="white"/>
<path d="M88.8622 23.7881V25.5801H83.5049V13.0735H88.8622V14.7161H85.2782V18.4122H88.4142V20.1108H85.2782V23.7881H88.8622Z" fill="white"/>
<path d="M89.6797 25.5801V13.0735H92.8157C93.6371 13.0735 94.3277 13.3597 94.8877 13.9321C95.4601 14.5046 95.7464 15.2077 95.7464 16.0414V17.1988C95.7464 18.3561 95.2548 19.2397 94.2717 19.8495L96.1757 25.5801H94.2717L92.5917 20.2228H91.4717V25.5801H89.6797ZM93.6557 18.2441C93.7677 18.1073 93.8424 17.9517 93.8797 17.7775C93.9295 17.6032 93.9544 17.4103 93.9544 17.1988V16.0414C93.9544 15.6557 93.8486 15.3446 93.6371 15.1082C93.4255 14.8593 93.1269 14.7348 92.7411 14.7348H91.4717V18.6362H92.7224C93.0957 18.6362 93.4068 18.5055 93.6557 18.2441Z" fill="white"/>
<path d="M98.215 22.4628C98.215 22.5873 98.215 22.693 98.215 22.7802C98.215 22.8673 98.2212 22.9419 98.2337 23.0042C98.2586 23.1286 98.3519 23.309 98.5137 23.5455C98.688 23.7944 98.999 23.9188 99.447 23.9188C99.6959 23.9188 99.9261 23.869 100.138 23.7695C100.349 23.6575 100.505 23.5144 100.604 23.3401C100.679 23.2033 100.723 23.0726 100.735 22.9481C100.76 22.8237 100.772 22.7117 100.772 22.6121V22.4442V21.5668V21.3988C100.772 21.125 100.723 20.9135 100.623 20.7642C100.523 20.6024 100.299 20.4219 99.951 20.2228C99.7145 20.0984 99.2915 19.9241 98.6817 19.7001C98.0719 19.4761 97.5617 19.1215 97.151 18.6362C96.7403 18.1508 96.535 17.4913 96.535 16.6575V16.0975C96.535 15.2388 96.8212 14.5046 97.3937 13.8948C97.9786 13.2726 98.6879 12.9615 99.5217 12.9615C100.393 12.9615 101.115 13.2664 101.687 13.8762C102.272 14.4859 102.564 15.2264 102.564 16.0975V16.6575H100.772V16.0975C100.772 16.0104 100.766 15.9295 100.754 15.8548C100.754 15.7801 100.747 15.7117 100.735 15.6495C100.722 15.5873 100.691 15.5126 100.642 15.4255C100.592 15.3384 100.523 15.2326 100.436 15.1082C100.262 14.8593 99.9696 14.7348 99.559 14.7348C99.1981 14.7348 98.8994 14.8655 98.663 15.1268C98.439 15.3882 98.327 15.7117 98.327 16.0975V16.6575V16.8255C98.327 17.0744 98.3643 17.2735 98.439 17.4228C98.5261 17.5597 98.7252 17.7152 99.0363 17.8895C99.1359 17.9393 99.2852 18.0077 99.4843 18.0948C99.6959 18.1695 99.951 18.2628 100.25 18.3748C100.847 18.5739 101.382 18.9286 101.855 19.4388C102.328 19.949 102.564 20.6211 102.564 21.4548V22.4628C102.564 22.8984 102.521 23.2655 102.434 23.5641C102.359 23.8628 102.104 24.2983 101.668 24.8708C101.233 25.4183 100.505 25.6921 99.4843 25.6921C98.4016 25.6921 97.6177 25.3437 97.1323 24.6468C96.647 23.9375 96.4043 23.2095 96.4043 22.4628V22.0148H98.215L98.215 22.4628Z" fill="white"/>
<path d="M103.607 25.5801V13.0735H105.381V18.4122H107.658V13.0735H109.431V25.5801H107.658V19.9988H105.381V25.5801H103.607Z" fill="white"/>
<path d="M111.193 25.5801V13.0735H112.967V25.5801H111.193Z" fill="white"/>
<path d="M114.465 25.5801V13.0735H117.396H117.433C117.806 13.0735 118.161 13.1544 118.497 13.3162C118.833 13.4655 119.131 13.6646 119.393 13.9135C119.654 14.1623 119.859 14.4486 120.009 14.7722C120.171 15.0833 120.258 15.4068 120.27 15.7428V17.5535V17.7401C120.27 18.1508 120.189 18.5366 120.027 18.8975C119.878 19.2459 119.673 19.5508 119.411 19.8121C119.15 20.0735 118.839 20.2788 118.478 20.4282C118.13 20.5775 117.756 20.6522 117.358 20.6522H117.19H116.257V25.5801H114.465ZM118.254 18.5988C118.366 18.4868 118.435 18.3686 118.459 18.2441C118.497 18.1197 118.516 17.9641 118.516 17.7775V15.9294C118.516 15.581 118.41 15.2948 118.198 15.0708C117.987 14.8344 117.7 14.7161 117.339 14.7161H116.257V18.9535H117.19C117.439 18.9535 117.638 18.9348 117.787 18.8975C117.949 18.8477 118.105 18.7481 118.254 18.5988Z" fill="white"/>
<path d="M122.952 22.4628C122.952 22.5873 122.952 22.693 122.952 22.7802C122.952 22.8673 122.959 22.9419 122.971 23.0042C122.996 23.1286 123.089 23.309 123.251 23.5455C123.425 23.7944 123.736 23.9188 124.184 23.9188C124.433 23.9188 124.663 23.869 124.875 23.7695C125.087 23.6575 125.242 23.5144 125.342 23.3401C125.416 23.2033 125.46 23.0726 125.472 22.9481C125.497 22.8237 125.51 22.7117 125.51 22.6121V22.4442V21.5668V21.3988C125.51 21.125 125.46 20.9135 125.36 20.7642C125.261 20.6024 125.037 20.4219 124.688 20.2228C124.452 20.0984 124.029 19.9241 123.419 19.7001C122.809 19.4761 122.299 19.1215 121.888 18.6362C121.478 18.1508 121.272 17.4913 121.272 16.6575V16.0975C121.272 15.2388 121.559 14.5046 122.131 13.8948C122.716 13.2726 123.425 12.9615 124.259 12.9615C125.13 12.9615 125.852 13.2664 126.424 13.8762C127.009 14.4859 127.302 15.2264 127.302 16.0975V16.6575H125.51V16.0975C125.51 16.0104 125.503 15.9295 125.491 15.8548C125.491 15.7801 125.485 15.7117 125.472 15.6495C125.46 15.5873 125.429 15.5126 125.379 15.4255C125.329 15.3384 125.261 15.2326 125.174 15.1082C124.999 14.8593 124.707 14.7348 124.296 14.7348C123.935 14.7348 123.637 14.8655 123.4 15.1268C123.176 15.3882 123.064 15.7117 123.064 16.0975V16.6575V16.8255C123.064 17.0744 123.102 17.2735 123.176 17.4228C123.263 17.5597 123.463 17.7152 123.774 17.8895C123.873 17.9393 124.023 18.0077 124.222 18.0948C124.433 18.1695 124.688 18.2628 124.987 18.3748C125.584 18.5739 126.119 18.9286 126.592 19.4388C127.065 19.949 127.302 20.6211 127.302 21.4548V22.4628C127.302 22.8984 127.258 23.2655 127.171 23.5641C127.096 23.8628 126.841 24.2983 126.406 24.8708C125.97 25.4183 125.242 25.6921 124.222 25.6921C123.139 25.6921 122.355 25.3437 121.87 24.6468C121.384 23.9375 121.142 23.2095 121.142 22.4628V22.0148H122.952L122.952 22.4628Z" fill="white"/>
<path d="M49.0312 42.8271V30.3204H54.3699V32.0004H50.8046V35.7524H53.9219V37.4324H50.8046V42.8271H49.0312Z" fill="white"/>
<path d="M55.2571 31.4965C55.5434 31.0982 55.9042 30.7871 56.3398 30.5631C56.7878 30.3267 57.2482 30.2084 57.7211 30.2084C58.1816 30.2084 58.6109 30.3018 59.0092 30.4885C59.4198 30.6751 59.762 30.9302 60.0358 31.2538C60.3095 31.5773 60.4963 31.9133 60.5958 32.2618C60.6954 32.5978 60.7451 32.9649 60.7451 33.3631V39.7285C60.7451 40.1018 60.7078 40.4316 60.6331 40.7178C60.5709 41.004 60.4216 41.3214 60.1851 41.6698C59.9611 42.0182 59.6314 42.3169 59.1958 42.5658C58.7727 42.8147 58.2998 42.9391 57.7771 42.9391C57.4784 42.9391 57.1922 42.9018 56.9185 42.8271C56.6447 42.74 56.3896 42.628 56.1531 42.4911C55.9167 42.3543 55.7051 42.1987 55.5184 42.0245C55.3442 41.8503 55.2073 41.6698 55.1078 41.4831C54.9211 41.0973 54.8091 40.7863 54.7718 40.5498C54.7345 40.3134 54.7158 40.0396 54.7158 39.7285V33.3631C54.7158 32.9898 54.7532 32.66 54.8278 32.3738C54.9149 32.0751 55.058 31.7827 55.2571 31.4965ZM58.7291 32.4858C58.4927 32.1373 58.1692 31.9631 57.7585 31.9631C57.5469 31.9631 57.3353 32.0253 57.1238 32.1498C56.9247 32.2618 56.7816 32.3925 56.6945 32.5418C56.6198 32.6911 56.57 32.8405 56.5451 32.9898C56.5202 33.1391 56.5078 33.2635 56.5078 33.3631V39.7285C56.5078 39.7907 56.5078 39.8591 56.5078 39.9338C56.5078 39.996 56.5141 40.0644 56.5266 40.1391C56.539 40.2635 56.6385 40.4689 56.8252 40.7551C57.0119 41.0165 57.323 41.1471 57.7585 41.1471C57.9825 41.1471 58.1816 41.0974 58.3558 40.9978C58.5425 40.8858 58.6732 40.7613 58.7479 40.6245C58.835 40.4751 58.891 40.3383 58.9159 40.2138C58.9408 40.0894 58.9532 39.9276 58.9532 39.7285V33.3631C58.9532 33.1142 58.9408 32.94 58.9159 32.8405C58.9034 32.7409 58.8411 32.6227 58.7291 32.4858Z" fill="white"/>
<path d="M62.252 42.8271V30.3204H65.3879C66.2093 30.3204 66.8999 30.6067 67.4599 31.1791C68.0323 31.7516 68.3186 32.4547 68.3186 33.2885V34.4458C68.3186 35.6031 67.827 36.4867 66.8439 37.0964L68.7479 42.8271H66.8439L65.1639 37.4698H64.0439V42.8271H62.252ZM66.2279 35.4911C66.3399 35.3543 66.4146 35.1987 66.4519 35.0245C66.5017 34.8503 66.5266 34.6574 66.5266 34.4458V33.2885C66.5266 32.9027 66.4208 32.5915 66.2093 32.3551C65.9977 32.1062 65.6991 31.9818 65.3133 31.9818H64.0439V35.8831H65.2946C65.668 35.8831 65.979 35.7525 66.2279 35.4911Z" fill="white"/>
<path d="M72.873 42.8271V31.9818H70.7637V30.3204H76.793V31.9818H74.6463V42.8271H72.873Z" fill="white"/>
<path d="M77.4971 42.8271V30.3204H79.2704V35.6591H81.5477V30.3204H83.321V42.8271H81.5477V37.2458H79.2704V42.8271H77.4971Z" fill="white"/>
<path d="M90.3515 41.0351V42.8271H84.9941V30.3204H90.3515V31.9631H86.7675V35.6591H89.9035V37.3578H86.7675V41.0351H90.3515Z" fill="white"/>
<path d="M98.6116 41.5204C98.3254 41.9684 97.9583 42.3169 97.5103 42.5658C97.0623 42.8147 96.5707 42.9391 96.0356 42.9391C95.5627 42.9391 95.1022 42.8271 94.6542 42.6031C94.2187 42.3791 93.8765 42.1054 93.6276 41.7818C93.3912 41.4458 93.2294 41.1098 93.1423 40.7738C93.0676 40.4378 93.0303 40.0582 93.0303 39.6351V33.3818C93.0303 33.0707 93.0614 32.7595 93.1236 32.4484C93.2107 32.1373 93.4409 31.6955 93.8142 31.1231C94.2 30.5133 94.9591 30.2084 96.0916 30.2084C96.5893 30.2084 97.056 30.3267 97.4916 30.5631C97.9271 30.7996 98.2569 31.092 98.4809 31.4404C98.7173 31.7764 98.8667 32.1 98.9289 32.4111C99.0036 32.7098 99.0409 33.0333 99.0409 33.3818V33.9045H97.2676V33.3818C97.2676 33.2822 97.2613 33.1951 97.2488 33.1204C97.2488 33.0333 97.2426 32.9586 97.2302 32.8964C97.2177 32.7844 97.1244 32.604 96.9502 32.3551C96.776 32.1062 96.4835 31.9818 96.0728 31.9818C95.5875 31.9818 95.2639 32.1124 95.1022 32.3738C94.9528 32.6351 94.8657 32.828 94.8408 32.9525C94.816 33.0769 94.8035 33.22 94.8035 33.3818V39.6351C94.8035 39.7596 94.8035 39.8653 94.8035 39.9525C94.8035 40.0396 94.8097 40.1142 94.8222 40.1765C94.8347 40.276 94.928 40.4689 95.1022 40.7551C95.264 41.0165 95.5813 41.1471 96.0542 41.1471C96.5395 41.1471 96.8507 41.0165 96.9875 40.7551C97.0622 40.6182 97.1182 40.5062 97.1556 40.4191C97.1929 40.3196 97.2178 40.2324 97.2303 40.1578C97.2552 40.0831 97.2676 40.0084 97.2676 39.9338C97.2676 39.8467 97.2676 39.7471 97.2676 39.6351V37.4511H95.8302V35.8831H99.0409V39.6351C99.0409 39.8965 99.0346 40.1205 99.0222 40.3071C99.0097 40.4813 98.9848 40.6369 98.9475 40.7738C98.9102 40.9107 98.8604 41.0413 98.7982 41.1658C98.7484 41.2778 98.6862 41.396 98.6116 41.5204Z" fill="white"/>
<path d="M101.049 31.4965C101.335 31.0982 101.696 30.7871 102.132 30.5631C102.58 30.3267 103.04 30.2084 103.513 30.2084C103.974 30.2084 104.403 30.3018 104.801 30.4885C105.212 30.6751 105.554 30.9302 105.828 31.2538C106.102 31.5773 106.288 31.9133 106.388 32.2618C106.487 32.5978 106.537 32.9649 106.537 33.3631V39.7285C106.537 40.1018 106.5 40.4316 106.425 40.7178C106.363 41.004 106.214 41.3214 105.977 41.6698C105.753 42.0182 105.423 42.3169 104.988 42.5658C104.565 42.8147 104.092 42.9391 103.569 42.9391C103.27 42.9391 102.984 42.9018 102.71 42.8271C102.437 42.74 102.182 42.628 101.945 42.4911C101.709 42.3543 101.497 42.1987 101.31 42.0245C101.136 41.8503 100.999 41.6698 100.9 41.4831C100.713 41.0973 100.601 40.7863 100.564 40.5498C100.526 40.3134 100.508 40.0396 100.508 39.7285V33.3631C100.508 32.9898 100.545 32.66 100.62 32.3738C100.707 32.0751 100.85 31.7827 101.049 31.4965ZM104.521 32.4858C104.285 32.1373 103.961 31.9631 103.55 31.9631C103.339 31.9631 103.127 32.0253 102.916 32.1498C102.717 32.2618 102.574 32.3925 102.486 32.5418C102.412 32.6911 102.362 32.8405 102.337 32.9898C102.312 33.1391 102.3 33.2635 102.3 33.3631V39.7285C102.3 39.7907 102.3 39.8591 102.3 39.9338C102.3 39.996 102.306 40.0644 102.319 40.1391C102.331 40.2635 102.431 40.4689 102.617 40.7551C102.804 41.0165 103.115 41.1471 103.551 41.1471C103.775 41.1471 103.974 41.0974 104.148 40.9978C104.334 40.8858 104.465 40.7613 104.54 40.6245C104.627 40.4751 104.683 40.3383 104.708 40.2138C104.733 40.0894 104.745 39.9276 104.745 39.7285V33.3631C104.745 33.1142 104.733 32.94 104.708 32.8405C104.695 32.7409 104.633 32.6227 104.521 32.4858Z" fill="white"/>
<path d="M107.289 42.8271L110.089 30.3204H111.638L114.438 42.8271H112.516L112.012 40.1391H109.697L109.174 42.8271H107.289ZM110.014 38.4778H111.694L110.854 33.9231L110.014 38.4778Z" fill="white"/>
<path d="M120.618 42.8271H115.279V30.3204H117.071V41.0351H120.618V42.8271Z" fill="white"/>
<path d="M122.488 39.7098C122.488 39.8342 122.488 39.94 122.488 40.0271C122.488 40.1142 122.495 40.1889 122.507 40.2511C122.532 40.3755 122.625 40.556 122.787 40.7925C122.961 41.0414 123.272 41.1658 123.72 41.1658C123.969 41.1658 124.2 41.116 124.411 41.0165C124.623 40.9045 124.778 40.7613 124.878 40.5871C124.952 40.4502 124.996 40.3196 125.008 40.1951C125.033 40.0707 125.046 39.9587 125.046 39.8591V39.6911V38.8138V38.6458C125.046 38.372 124.996 38.1604 124.896 38.0111C124.797 37.8493 124.573 37.6689 124.224 37.4698C123.988 37.3453 123.565 37.1711 122.955 36.9471C122.345 36.7231 121.835 36.3685 121.424 35.8831C121.014 35.3978 120.808 34.7383 120.808 33.9045V33.3444C120.808 32.4858 121.095 31.7516 121.667 31.1418C122.252 30.5196 122.961 30.2084 123.795 30.2084C124.666 30.2084 125.388 30.5133 125.96 31.1231C126.545 31.7329 126.838 32.4733 126.838 33.3444V33.9045H125.046V33.3444C125.046 33.2573 125.04 33.1765 125.027 33.1018C125.027 33.0271 125.021 32.9586 125.008 32.8964C124.996 32.8342 124.965 32.7596 124.915 32.6724C124.865 32.5853 124.797 32.4795 124.71 32.3551C124.535 32.1062 124.243 31.9818 123.832 31.9818C123.472 31.9818 123.173 32.1124 122.936 32.3738C122.712 32.6351 122.6 32.9586 122.6 33.3444V33.9045V34.0724C122.6 34.3213 122.638 34.5205 122.712 34.6698C122.8 34.8067 122.999 34.9623 123.31 35.1365C123.409 35.1863 123.559 35.2547 123.758 35.3418C123.969 35.4165 124.224 35.5098 124.523 35.6218C125.12 35.8209 125.656 36.1756 126.128 36.6858C126.601 37.196 126.838 37.868 126.838 38.7018V39.7098C126.838 40.1453 126.794 40.5124 126.707 40.8111C126.632 41.1098 126.377 41.5454 125.942 42.1178C125.506 42.6654 124.778 42.9391 123.758 42.9391C122.675 42.9391 121.891 42.5907 121.406 41.8938C120.92 41.1845 120.678 40.4564 120.678 39.7098V39.2618H122.488V39.7098Z" fill="white"/>
<path d="M18.4589 42.9828V17.5228L14.1709 20.7388V16.1829L18.4589 13.0562H22.7022V42.9828H18.4589Z" fill="white"/>
<path d="M29.1453 20.5602H25.3486V13.0562H38.1234V16.9422L31.1553 42.9828H26.5993L33.88 17.0315H29.1453V20.5602Z" fill="white"/>
<path fill-rule="evenodd" clip-rule="evenodd" d="M46.4184 105.688C45.8155 105.214 45.2383 104.703 44.6906 104.155C41.067 100.531 39.0312 95.6166 39.0312 90.4919C39.0313 85.3673 41.067 80.4526 44.6906 76.8289C48.1651 73.3544 52.8266 71.3398 57.7219 71.1798C57.827 70.8867 57.9393 70.5959 58.0587 70.3076C59.0298 67.9633 60.453 65.8332 62.2473 64.039C64.0416 62.2447 66.1716 60.8215 68.5159 59.8504C70.8602 58.8794 73.3729 58.3796 75.9103 58.3796C81.035 58.3796 85.9497 60.4153 89.5734 64.039C91.5579 66.0235 93.0662 68.3953 94.0246 70.9767C96.3084 71.0646 98.5606 71.557 100.676 72.4332C103.02 73.4042 105.15 74.8275 106.944 76.6218C108.739 78.416 110.162 80.5461 111.133 82.8905C112.104 85.2348 112.604 87.7474 112.604 90.2849C112.604 92.8223 112.104 95.3349 111.133 97.6792C110.162 100.024 108.739 102.154 106.944 103.948C106.382 104.51 105.787 105.036 105.163 105.522C105.662 107.25 105.922 109.054 105.922 110.885C105.922 116.01 103.887 120.925 100.263 124.548C96.6392 128.172 91.7244 130.208 86.5998 130.208C84.0623 130.208 81.5497 129.708 79.2054 128.737C78.0393 128.254 76.9262 127.659 75.8811 126.962C74.7883 127.707 73.6194 128.34 72.3916 128.848C70.0473 129.819 67.5347 130.319 64.9973 130.319C62.4598 130.319 59.9472 129.819 57.6029 128.848C55.2586 127.877 53.1285 126.454 51.3342 124.66C49.5399 122.865 48.1167 120.735 47.1456 118.391C46.1746 116.047 45.6748 113.534 45.6748 110.997C45.6748 109.197 45.9261 107.411 46.4184 105.688ZM75.9103 62.3796C73.8982 62.3796 71.9057 62.7759 70.0467 63.5459C68.1877 64.316 66.4985 65.4446 65.0757 66.8674C63.7403 68.2028 62.6641 69.7728 61.9002 71.4977C65.7061 72.2083 69.2404 74.0525 72.0168 76.8289C73.5714 78.3836 74.8338 80.1759 75.7685 82.1205C76.7203 80.079 78.0226 78.2176 79.6184 76.6218C81.4126 74.8275 83.5427 73.4042 85.887 72.4332C87.1562 71.9075 88.4747 71.5199 89.8197 71.275C89.0696 69.6514 88.0339 68.1564 86.745 66.8674C83.8715 63.9939 79.9741 62.3796 75.9103 62.3796ZM62.7075 91.8103C62.5519 91.6647 62.3985 91.5163 62.2473 91.3651C58.6236 87.7414 56.5879 82.8267 56.5879 77.702C56.5879 76.8819 56.6401 76.0644 56.7436 75.2543C53.2716 75.621 50.0105 77.1659 47.5191 79.6573C44.6456 82.5308 43.0313 86.4282 43.0312 90.4919C43.0312 94.5557 44.6456 98.4531 47.5191 101.327C47.6787 101.486 47.8414 101.642 48.0072 101.794C48.8935 100.157 50.0133 98.6544 51.3342 97.3335C53.1284 95.5393 55.2585 94.116 57.6029 93.1449C59.2387 92.4673 60.9565 92.0192 62.7075 91.8103ZM72.6597 124.266C72.0813 124.599 71.4806 124.896 70.8609 125.153C69.0019 125.923 67.0094 126.319 64.9973 126.319C62.9851 126.319 60.9926 125.923 59.1336 125.153C57.2746 124.383 55.5854 123.254 54.1626 121.831C52.7398 120.408 51.6112 118.719 50.8412 116.86C50.0711 115.001 49.6748 113.009 49.6748 110.997C49.6748 109.957 49.7805 108.923 49.9889 107.91C52.5751 109.152 55.4302 109.814 58.3537 109.814C60.8912 109.814 63.4038 109.315 65.7481 108.344C66.3754 108.084 66.9874 107.791 67.5818 107.468C67.3805 108.588 67.2773 109.732 67.2773 110.885C67.2773 113.423 67.7771 115.935 68.7482 118.28C69.6687 120.502 70.9956 122.532 72.6597 124.266ZM79.0745 124.232C79.6105 124.535 80.1653 124.805 80.7361 125.041C82.5951 125.811 84.5876 126.208 86.5998 126.208C90.6636 126.208 94.5609 124.593 97.4344 121.72C100.308 118.846 101.922 114.949 101.922 110.885C101.922 109.816 101.811 108.759 101.594 107.728C101.292 107.872 100.986 108.008 100.676 108.136C98.3315 109.107 95.8189 109.607 93.2814 109.607C90.744 109.607 88.2313 109.107 85.887 108.136C85.2209 107.861 84.572 107.548 83.9433 107.201C84.193 108.448 84.3197 109.719 84.3197 110.997C84.3197 113.534 83.82 116.047 82.8489 118.391C81.9538 120.552 80.6745 122.531 79.0745 124.232ZM75.8545 121.809C75.8246 121.779 75.7948 121.75 75.7652 121.72C74.3424 120.297 73.2137 118.608 72.4437 116.749C71.6737 114.89 71.2773 112.897 71.2773 110.885C71.2773 106.832 72.8832 102.945 75.7425 100.073C75.7724 100.103 75.8022 100.132 75.8319 100.162C77.2547 101.585 78.3834 103.274 79.1534 105.133C79.9234 106.992 80.3197 108.984 80.3197 110.997C80.3197 113.009 79.9234 115.001 79.1534 116.86C78.3875 118.709 77.2667 120.39 75.8545 121.809ZM72.0371 97.387C71.3043 98.8413 70.3432 100.172 69.1883 101.327C67.7655 102.749 66.0764 103.878 64.2174 104.648C62.3583 105.418 60.3659 105.814 58.3537 105.814C55.8811 105.814 53.4701 105.217 51.3139 104.101C52.0467 102.647 53.0077 101.317 54.1626 100.162C55.5855 98.7391 57.2746 97.6105 59.1336 96.8404C60.9926 96.0704 62.985 95.6741 64.9973 95.6741C67.0095 95.6741 69.0019 96.0704 70.8609 96.8404C71.2612 97.0062 71.6535 97.1886 72.0371 97.387ZM99.1451 104.441C99.5215 104.285 99.8909 104.114 100.253 103.93C99.5292 102.51 98.5823 101.198 97.4344 100.051C94.5609 97.1771 90.6636 95.5628 86.5998 95.5628C84.1534 95.5628 81.7673 96.1478 79.6286 97.2404C80.3575 98.6711 81.3079 99.9806 82.4468 101.119C83.8696 102.542 85.5587 103.671 87.4178 104.441C89.2768 105.211 91.2693 105.607 93.2814 105.607C95.2936 105.607 97.2861 105.211 99.1451 104.441ZM99.1451 76.1287C97.8339 75.5856 96.4562 75.2284 95.0521 75.065C95.1718 75.934 95.2328 76.8149 95.2328 77.702C95.2328 82.8267 93.1971 87.7414 89.5734 91.3651C89.4474 91.4911 89.3199 91.6151 89.1908 91.7372C93.3587 92.3011 97.2554 94.2148 100.263 97.2222C101.582 98.5415 102.691 100.032 103.568 101.641C103.755 101.472 103.937 101.298 104.116 101.119C105.539 99.6966 106.668 98.0075 107.438 96.1485C108.208 94.2895 108.604 92.2971 108.604 90.2849C108.604 88.2726 108.208 86.2802 107.438 84.4212C106.668 82.5622 105.539 80.8731 104.116 79.4502C102.693 78.0274 101.004 76.8987 99.1451 76.1287ZM91.2328 77.702C91.2328 76.8346 91.1592 75.9748 91.0156 75.1308C89.7829 75.3151 88.5745 75.6496 87.4178 76.1287C85.5588 76.8987 83.8696 78.0274 82.4468 79.4502C81.024 80.8731 79.8953 82.5622 79.1253 84.4212C78.3553 86.2802 77.959 88.2726 77.959 90.2849C77.959 91.1486 78.032 92.0086 78.1762 92.8561C81.4016 92.3738 84.411 90.8706 86.745 88.5367C89.6185 85.6631 91.2328 81.7658 91.2328 77.702ZM65.0757 88.5367C67.3739 90.8348 70.3269 92.3275 73.4962 92.8332C73.6157 92.0603 73.6761 91.2776 73.6761 90.4919C73.6761 86.4282 72.0618 82.5308 69.1883 79.6573C66.8902 77.3592 63.9371 75.8664 60.7678 75.3608C60.6483 76.1337 60.5879 76.9164 60.5879 77.702C60.5879 81.7658 62.2022 85.6631 65.0757 88.5367Z" fill="white"/>
</svg>
