<svg viewBox="0 0 149 150" fill="none" xmlns="http://www.w3.org/2000/svg">
<path fill-rule="evenodd" clip-rule="evenodd" d="M1.69296 0.934555H148.132C148.59 0.934555 148.959 1.30329 148.959 1.76131V148.442C148.959 148.9 148.59 149.269 148.132 149.269H1.69296C1.23494 149.269 0.866211 148.9 0.866211 148.442V1.76131C0.866211 1.30329 1.23494 0.934555 1.69296 0.934555Z" fill="#279B48"/>
<path d="M50.1966 25.3799C49.9103 25.8279 49.5432 26.1763 49.0952 26.4252C48.6472 26.6741 48.1557 26.7986 47.6206 26.7986C47.1477 26.7986 46.6872 26.6866 46.2392 26.4626C45.8037 26.2386 45.4614 25.9648 45.2126 25.6412C44.9761 25.3052 44.8143 24.9692 44.7272 24.6332C44.6526 24.2972 44.6152 23.9177 44.6152 23.4946V17.2412C44.6152 16.9301 44.6463 16.619 44.7085 16.3079C44.7956 15.9968 45.0259 15.555 45.3992 14.9825C45.785 14.3728 46.5441 14.0679 47.6765 14.0679C48.1743 14.0679 48.641 14.1861 49.0765 14.4225C49.5121 14.659 49.8419 14.9514 50.0659 15.2999C50.3023 15.6359 50.4517 15.9594 50.5139 16.2706C50.5886 16.5692 50.6259 16.8928 50.6259 17.2412V17.7639H48.8525V17.2412C48.8525 17.1417 48.8463 17.0546 48.8338 16.9799C48.8338 16.8928 48.8276 16.8181 48.8151 16.7559C48.8027 16.6439 48.7093 16.4634 48.5351 16.2146C48.3609 15.9657 48.0685 15.8412 47.6578 15.8412C47.1725 15.8412 46.8489 15.9719 46.6871 16.2332C46.5378 16.4945 46.4507 16.6874 46.4258 16.8119C46.4009 16.9363 46.3885 17.0794 46.3885 17.2412V23.4946C46.3885 23.619 46.3885 23.7248 46.3885 23.8119C46.3885 23.899 46.3947 23.9737 46.4072 24.0359C46.4197 24.1354 46.513 24.3283 46.6872 24.6145C46.849 24.8759 47.1663 25.0065 47.6392 25.0065C48.1246 25.0065 48.4357 24.8759 48.5725 24.6145C48.6472 24.4777 48.7032 24.3657 48.7405 24.2785C48.7779 24.179 48.8028 24.0919 48.8152 24.0172C48.8401 23.9426 48.8525 23.8679 48.8525 23.7932C48.8525 23.7061 48.8525 23.6066 48.8525 23.4946V21.3105H47.4152V19.7426H50.6259V23.4946C50.6259 23.7559 50.6196 23.9799 50.6072 24.1665C50.5947 24.3408 50.5698 24.4963 50.5325 24.6332C50.4951 24.7701 50.4454 24.9008 50.3831 25.0252C50.3333 25.1372 50.2712 25.2554 50.1966 25.3799Z" fill="white"/>
<path d="M52.6009 15.3559C52.8871 14.9577 53.248 14.6465 53.6836 14.4225C54.1316 14.1861 54.592 14.0679 55.0649 14.0679C55.5253 14.0679 55.9547 14.1612 56.3529 14.3479C56.7635 14.5346 57.1058 14.7897 57.3795 15.1132C57.6533 15.4368 57.84 15.7728 57.9395 16.1212C58.0391 16.4572 58.0889 16.8243 58.0889 17.2225V23.5879C58.0889 23.9612 58.0516 24.291 57.9769 24.5772C57.9147 24.8634 57.7654 25.1808 57.5289 25.5292C57.3049 25.8777 56.9751 26.1763 56.5396 26.4252C56.1164 26.6741 55.6435 26.7986 55.1209 26.7986C54.8222 26.7986 54.536 26.7612 54.2622 26.6866C53.9885 26.5994 53.7333 26.4874 53.4969 26.3506C53.2604 26.2137 53.0489 26.0581 52.8622 25.8839C52.688 25.7097 52.5511 25.5292 52.4516 25.3425C52.2649 24.9568 52.1529 24.6457 52.1156 24.4092C52.0782 24.1728 52.0596 23.899 52.0596 23.5879V17.2225C52.0596 16.8492 52.0969 16.5194 52.1716 16.2332C52.2587 15.9345 52.4018 15.6421 52.6009 15.3559ZM56.0729 16.3452C55.8364 15.9968 55.5129 15.8226 55.1022 15.8226C54.8907 15.8226 54.6791 15.8848 54.4676 16.0092C54.2684 16.1212 54.1253 16.2519 54.0382 16.4012C53.9636 16.5505 53.9138 16.6999 53.8889 16.8492C53.864 16.9985 53.8516 17.123 53.8516 17.2225V23.5879C53.8516 23.6501 53.8516 23.7185 53.8516 23.7932C53.8516 23.8554 53.8578 23.9239 53.8703 23.9986C53.8828 24.123 53.9823 24.3283 54.1689 24.6145C54.3556 24.8759 54.6667 25.0065 55.1023 25.0065C55.3263 25.0065 55.5254 24.9568 55.6996 24.8572C55.8863 24.7452 56.0169 24.6208 56.0916 24.4839C56.1787 24.3346 56.2347 24.1977 56.2596 24.0732C56.2845 23.9488 56.2969 23.787 56.2969 23.5879V17.2225C56.2969 16.9737 56.2845 16.7994 56.2596 16.6999C56.2471 16.6003 56.1849 16.4821 56.0729 16.3452Z" fill="white"/>
<path d="M60.1526 15.3559C60.4389 14.9577 60.7998 14.6465 61.2353 14.4225C61.6833 14.1861 62.1438 14.0679 62.6167 14.0679C63.0771 14.0679 63.5064 14.1612 63.9047 14.3479C64.3153 14.5346 64.6575 14.7897 64.9313 15.1132C65.2051 15.4368 65.3917 15.7728 65.4913 16.1212C65.5909 16.4572 65.6407 16.8243 65.6407 17.2225V23.5879C65.6407 23.9612 65.6033 24.291 65.5287 24.5772C65.4665 24.8634 65.3171 25.1808 65.0807 25.5292C64.8567 25.8777 64.5269 26.1763 64.0913 26.4252C63.6682 26.6741 63.1953 26.7986 62.6727 26.7986C62.374 26.7986 62.0878 26.7612 61.814 26.6866C61.5402 26.5994 61.2851 26.4874 61.0486 26.3506C60.8122 26.2137 60.6007 26.0581 60.414 25.8839C60.2398 25.7097 60.1029 25.5292 60.0033 25.3425C59.8167 24.9568 59.7047 24.6457 59.6673 24.4092C59.63 24.1728 59.6113 23.899 59.6113 23.5879V17.2225C59.6113 16.8492 59.6487 16.5194 59.7233 16.2332C59.8104 15.9345 59.9535 15.6421 60.1526 15.3559ZM63.6247 16.3452C63.3882 15.9968 63.0647 15.8226 62.654 15.8226C62.4424 15.8226 62.2309 15.8848 62.0193 16.0092C61.8202 16.1212 61.6771 16.2519 61.59 16.4012C61.5153 16.5505 61.4655 16.6999 61.4406 16.8492C61.4158 16.9985 61.4034 17.123 61.4034 17.2225V23.5879C61.4034 23.6501 61.4034 23.7185 61.4034 23.7932C61.4034 23.8554 61.4096 23.9239 61.4221 23.9986C61.4345 24.123 61.5341 24.3283 61.7207 24.6145C61.9074 24.8759 62.2185 25.0065 62.6541 25.0065C62.8781 25.0065 63.0772 24.9568 63.2514 24.8572C63.438 24.7452 63.5687 24.6208 63.6434 24.4839C63.7305 24.3346 63.7865 24.1977 63.8114 24.0732C63.8363 23.9488 63.8487 23.787 63.8487 23.5879V17.2225C63.8487 16.9737 63.8363 16.7994 63.8114 16.6999C63.7989 16.6003 63.7366 16.4821 63.6247 16.3452Z" fill="white"/>
<path d="M70.1303 14.1799C70.9392 14.1799 71.6299 14.4661 72.2023 15.0385C72.7872 15.5985 73.0797 16.283 73.0797 17.0919V23.5879C73.0797 24.5088 72.7997 25.2554 72.2397 25.8279C71.6797 26.4003 70.9579 26.6866 70.0743 26.6866H67.293V14.1799H70.1303ZM71.3063 23.5879V17.0919C71.3063 16.7434 71.1756 16.451 70.9143 16.2146C70.6654 15.9781 70.3606 15.8599 69.9997 15.8599H69.0663V25.0252H69.9437C70.8521 25.0252 71.3063 24.5461 71.3063 23.5879Z" fill="white"/>
<path d="M76.498 26.6866V14.1799H78.2714V19.5186H80.5487V14.1799H82.322V26.6866H80.5487V21.1052H78.2714V26.6866H76.498Z" fill="white"/>
<path d="M89.3378 24.8945V26.6866H83.9805V14.1799H89.3378V15.8226H85.7538V19.5186H88.8898V21.2172H85.7538V24.8945H89.3378Z" fill="white"/>
<path d="M89.6045 26.6866L92.4045 14.1799H93.9538L96.7538 26.6866H94.8312L94.3272 23.9986H92.0125L91.4898 26.6866H89.6045ZM92.3298 22.3372H94.0098L93.1698 17.7825L92.3298 22.3372Z" fill="white"/>
<path d="M103.023 26.6866H97.6846V14.1799H99.4766V24.8945H103.023V26.6866Z" fill="white"/>
<path d="M103.833 26.6866V15.8412H101.724V14.1799H107.753V15.8412H105.606V26.6866H103.833Z" fill="white"/>
<path d="M108.712 26.6866V14.1799H110.485V19.5186H112.763V14.1799H114.536V26.6866H112.763V21.1052H110.485V26.6866H108.712Z" fill="white"/>
<path d="M43.7939 43.9335L46.5939 31.4268H48.1433L50.9433 43.9335H49.0206L48.5166 41.2455H46.2019L45.6793 43.9335H43.7939ZM46.5193 39.5842H48.1993L47.3593 35.0295L46.5193 39.5842Z" fill="white"/>
<path d="M56.4288 43.9335L53.6475 36.3362V43.9335H51.8555V31.4268H53.5541L56.3168 39.0055V31.4268H58.1088V43.9335H56.4288Z" fill="white"/>
<path d="M62.8959 31.4268C63.7048 31.4268 64.3955 31.7131 64.9679 32.2855C65.5528 32.8455 65.8452 33.53 65.8452 34.3389V40.8349C65.8452 41.7558 65.5652 42.5024 65.0052 43.0749C64.4452 43.6473 63.7235 43.9335 62.8399 43.9335H60.0586V31.4268H62.8959ZM64.0719 40.8349V34.3389C64.0719 33.9904 63.9413 33.698 63.6799 33.4615C63.431 33.2251 63.1262 33.1069 62.7653 33.1069H61.8319V42.2722H62.7093C63.6177 42.2722 64.0719 41.7931 64.0719 40.8349Z" fill="white"/>
<path d="M75.0715 43.9335L73.5968 36.3175L72.1595 43.9335H70.4982L68.6875 31.4268H70.5915L71.4875 38.9868L72.9248 31.4268H74.2502L75.7249 38.9868L76.6208 31.4268H78.5062L76.7515 43.9335H75.0715Z" fill="white"/>
<path d="M84.788 42.1415V43.9335H79.4307V31.4268H84.788V33.0695H81.204V36.7655H84.34V38.4642H81.204V42.1415H84.788Z" fill="white"/>
<path d="M90.7986 43.9335H85.46V31.4268H87.252V42.1415H90.7986V43.9335Z" fill="white"/>
<path d="M96.659 43.9335H91.3203V31.4268H93.1123V42.1415H96.659V43.9335Z" fill="white"/>
<path d="M102.514 31.4268C102.9 31.4268 103.26 31.5077 103.596 31.6695C103.97 31.8437 104.349 32.1237 104.735 32.5095C105.146 32.9077 105.351 33.53 105.351 34.3762V35.3282C105.351 36.2864 104.972 36.9584 104.212 37.3442C104.972 37.7922 105.351 38.4891 105.351 39.4348V40.8909C105.351 41.7744 105.065 42.5024 104.492 43.0749C103.932 43.6473 103.211 43.9335 102.327 43.9335H99.5645V31.4268H102.514ZM103.578 35.1415V34.3762C103.578 33.9904 103.466 33.6855 103.242 33.4615C103.018 33.2251 102.719 33.1069 102.346 33.1069H101.338V36.5602H102.402C102.812 36.5602 103.111 36.4358 103.298 36.1869C103.484 35.9255 103.578 35.5771 103.578 35.1415ZM103.578 40.8909V39.4348C103.578 39.0366 103.466 38.7255 103.242 38.5015C103.03 38.2651 102.732 38.1469 102.346 38.1469H101.338V42.1602H102.364C102.725 42.1602 103.018 42.042 103.242 41.8055C103.466 41.5567 103.578 41.2518 103.578 40.8909Z" fill="white"/>
<path d="M112.045 42.1415V43.9335H106.688V31.4268H112.045V33.0695H108.461V36.7655H111.597V38.4642H108.461V42.1415H112.045Z" fill="white"/>
<path d="M112.84 43.9335V31.4268H114.613V43.9335H112.84Z" fill="white"/>
<path d="M120.707 43.9335L117.926 36.3362V43.9335H116.134V31.4268H117.832L120.595 39.0055V31.4268H122.387V43.9335H120.707Z" fill="white"/>
<path d="M128.94 42.6269C128.654 43.0749 128.286 43.4233 127.838 43.6722C127.39 43.9211 126.899 44.0455 126.364 44.0455C125.891 44.0455 125.43 43.9335 124.982 43.7095C124.547 43.4855 124.205 43.2118 123.956 42.8882C123.719 42.5522 123.558 42.2162 123.47 41.8802C123.396 41.5442 123.358 41.1646 123.358 40.7415V34.4882C123.358 34.1771 123.389 33.866 123.452 33.5549C123.539 33.2438 123.769 32.802 124.142 32.2295C124.528 31.6197 125.287 31.3148 126.42 31.3148C126.917 31.3148 127.384 31.4331 127.82 31.6695C128.255 31.906 128.585 32.1984 128.809 32.5469C129.045 32.8829 129.195 33.2064 129.257 33.5175C129.332 33.8162 129.369 34.1397 129.369 34.4882V35.0109H127.596V34.4882C127.596 34.3886 127.589 34.3015 127.577 34.2269C127.577 34.1398 127.571 34.0651 127.558 34.0029C127.546 33.8909 127.453 33.7104 127.278 33.4615C127.104 33.2126 126.812 33.0882 126.401 33.0882C125.916 33.0882 125.592 33.2189 125.43 33.4802C125.281 33.7415 125.194 33.9344 125.169 34.0589C125.144 34.1833 125.132 34.3264 125.132 34.4882V40.7415C125.132 40.866 125.132 40.9718 125.132 41.0589C125.132 41.146 125.138 41.2206 125.15 41.2829C125.163 41.3824 125.256 41.5753 125.43 41.8615C125.592 42.1229 125.909 42.2535 126.382 42.2535C126.868 42.2535 127.179 42.1229 127.316 41.8615C127.39 41.7247 127.446 41.6127 127.484 41.5255C127.521 41.426 127.546 41.3389 127.558 41.2642C127.583 41.1895 127.596 41.1149 127.596 41.0402C127.596 40.9531 127.596 40.8535 127.596 40.7415V38.5575H126.158V36.9895H129.369V40.7415C129.369 41.0028 129.363 41.2269 129.35 41.4135C129.338 41.5878 129.313 41.7433 129.276 41.8802C129.238 42.0171 129.189 42.1477 129.126 42.2722C129.076 42.3842 129.014 42.5024 128.94 42.6269Z" fill="white"/>
<path d="M30.1732 36.4855V37.0215C30.1732 37.23 30.1582 37.4682 30.1284 37.7362C30.1284 37.9744 30.0838 38.3317 29.9944 38.8082C29.5776 40.2375 28.7884 41.3988 27.6271 42.2922C26.4956 43.1855 25.1705 43.6322 23.6518 43.6322C22.4607 43.6322 21.3291 43.2748 20.2571 42.5602C19.1851 41.8157 18.5002 41.0862 18.2025 40.3715C18.0238 39.9844 17.8749 39.642 17.7558 39.3442C17.6664 39.0464 17.592 38.7635 17.5324 38.4955C17.4729 38.2275 17.4282 37.9446 17.3984 37.6468C17.3984 37.3193 17.3984 36.9322 17.3984 36.4855V34.7435H21.6864V37.2002C21.746 37.5873 21.9098 38.0191 22.1778 38.4955C22.4756 39.0315 23.0116 39.2995 23.7858 39.2995C24.56 39.2995 25.1109 39.0315 25.4384 38.4955C25.766 37.9595 25.9298 37.2895 25.9298 36.4855V31.8848C25.9 31.3191 25.7809 30.8873 25.5724 30.5895C25.3938 30.2917 25.1704 30.0833 24.9024 29.9642C24.6344 29.8153 24.3515 29.7408 24.0538 29.7408C23.756 29.711 23.488 29.6961 23.2498 29.6961H22.4904V25.8995H23.2498C25.0365 25.8995 25.9298 25.0657 25.9298 23.3981V19.8248C25.9298 19.4675 25.9 19.1697 25.8405 18.9315C25.8405 18.8421 25.7958 18.7081 25.7065 18.5295C25.6171 18.3508 25.4831 18.1721 25.3045 17.9935C25.1556 17.8148 24.962 17.6659 24.7238 17.5468C24.4856 17.4277 24.2027 17.3681 23.8752 17.3681C23.1307 17.3681 22.5798 17.6064 22.2225 18.0828C21.8651 18.5295 21.6865 19.1101 21.6865 19.8248V22.0135H17.3985V19.8248C17.3985 17.9488 18.0089 16.3706 19.2298 15.0901C20.4209 13.8097 21.9694 13.1695 23.8752 13.1695C24.9174 13.1695 25.9149 13.4375 26.8678 13.9735C27.8505 14.5095 28.5651 15.1348 29.0118 15.8495C29.4883 16.5641 29.8009 17.2341 29.9498 17.8595C30.0987 18.4848 30.1732 19.1399 30.1732 19.8248V23.3088C30.1732 25.2444 29.3245 26.7183 27.6272 27.7308C28.5801 28.4157 29.2351 29.1006 29.5925 29.7855C29.9796 30.4406 30.1732 31.3339 30.1732 32.4655V36.4855Z" fill="white"/>
<path fill-rule="evenodd" clip-rule="evenodd" d="M102.996 58.4185C102.69 57.789 102.03 57.411 101.332 57.4661C100.635 57.5212 100.042 57.9982 99.8394 58.6678L82.0505 117.371L77.112 89.4154C76.9868 88.7069 76.4293 88.154 75.7199 88.0347C75.0104 87.9153 74.3027 88.2555 73.9527 88.884L66.1246 102.941L62.561 79.0927C62.4498 78.3481 61.8621 77.7654 61.1166 77.6605C60.3711 77.5556 59.6454 77.9535 59.333 78.6384L51.184 96.5034H27.7928C26.8539 96.5034 26.0928 97.2645 26.0928 98.2034C26.0928 99.1423 26.8539 99.9034 27.7928 99.9034H52.2771C52.9429 99.9034 53.5475 99.5147 53.8238 98.9089L60.046 85.2679L63.4997 108.381C63.6072 109.1 64.1609 109.672 64.8768 109.802C65.5928 109.932 66.3122 109.592 66.6662 108.957L74.5959 94.7172L79.9401 124.969C80.0769 125.743 80.7274 126.323 81.5127 126.37C82.298 126.417 83.013 125.919 83.2411 125.166L101.834 63.8107L109.091 78.7627C109.501 79.6074 110.518 79.9598 111.363 79.5498C112.207 79.1398 112.56 78.1227 112.15 77.2781L102.996 58.4185ZM123.892 98.6341C120.493 102.033 113.754 108.889 113.754 108.889C113.325 109.29 113.032 109.283 112.661 108.889C112.661 108.889 105.922 102.033 102.523 98.6341C101.478 97.5892 100.651 95.9882 100.651 94.0719C100.651 90.6913 102.109 86.1952 107.124 86.1952C109.979 86.1952 112.381 88.9303 112.622 89.2367C112.95 89.6531 113.403 89.6746 113.793 89.2367L113.81 89.2173C114.144 88.8408 116.491 86.1952 119.291 86.1952C124.305 86.1952 125.764 90.6913 125.764 94.0719C125.764 95.9882 124.937 97.5892 123.892 98.6341Z" fill="white"/>
</svg>
