<svg viewBox="0 0 149 150" fill="none" xmlns="http://www.w3.org/2000/svg">
<path fill-rule="evenodd" clip-rule="evenodd" d="M1.66663 0.934555H148.106C148.564 0.934555 148.933 1.30329 148.933 1.76131V148.442C148.933 148.9 148.564 149.269 148.106 149.269H1.66663C1.2086 149.269 0.839844 148.9 0.839844 148.442V1.76131C0.839844 1.30329 1.2086 0.934555 1.66663 0.934555Z" fill="#C31F33"/>
<path d="M45.0023 25.7159C44.716 25.4048 44.5231 25.075 44.4236 24.7265C44.3365 24.3781 44.293 23.9674 44.293 23.4946V17.2785C44.293 16.3701 44.5792 15.611 45.1516 15.0012C45.7365 14.379 46.4707 14.0679 47.3542 14.0679C48.1507 14.0679 48.8538 14.3603 49.4636 14.9452C50.061 15.5301 50.3596 16.227 50.3596 17.0359V23.4946C50.3596 23.8554 50.3409 24.123 50.3036 24.2972C50.2787 24.4714 50.229 24.6457 50.1543 24.8199L51.3303 25.8092L50.3409 27.0039L49.2209 26.1079C48.6734 26.5559 48.0138 26.7799 47.2422 26.7799C46.8316 26.7799 46.4209 26.6803 46.0103 26.4812C45.612 26.2821 45.276 26.027 45.0023 25.7159ZM47.9703 23.0279L48.5676 23.4946V17.2785C48.5676 16.8803 48.4556 16.5443 48.2316 16.2706C48.0076 15.9843 47.6965 15.8412 47.2983 15.8412C47.0494 15.8412 46.8316 15.9034 46.645 16.0279C46.4583 16.1523 46.3214 16.3017 46.2343 16.4759C46.1596 16.6501 46.1161 16.787 46.1036 16.8866C46.0912 16.9737 46.0849 17.1043 46.0849 17.2785V23.4946V23.6252C46.0849 23.9861 46.1845 24.3097 46.3836 24.5959C46.5952 24.8697 46.9187 25.0128 47.3542 25.0252C47.4787 25.0252 47.628 24.9879 47.8022 24.9132L46.9809 24.2225L47.9703 23.0279Z" fill="white"/>
<path d="M57.4934 25.3799C57.2196 25.803 56.865 26.1452 56.4294 26.4066C56.0063 26.6679 55.5334 26.7986 55.0107 26.7986C54.7494 26.7986 54.4881 26.7612 54.2267 26.6866C53.9779 26.6119 53.7415 26.5186 53.5175 26.4066C53.2935 26.2821 53.0943 26.1452 52.9201 25.9959C52.7459 25.8341 52.6152 25.6661 52.5281 25.4919C52.3415 25.1435 52.217 24.8386 52.1548 24.5772C52.105 24.3159 52.0801 24.0359 52.0801 23.7372V14.1799H53.8721V23.7372C53.8721 23.8243 53.8721 23.9052 53.8721 23.9799C53.8845 24.0421 53.897 24.1043 53.9094 24.1665C53.9218 24.2661 54.0152 24.4403 54.1894 24.6892C54.3512 24.9132 54.6311 25.0252 55.0294 25.0252C55.3902 25.0252 55.6578 24.8946 55.832 24.6332C56.0187 24.3594 56.1121 24.0608 56.1121 23.7372V14.1799H57.9041V23.7372C57.9041 24.0359 57.8729 24.3221 57.8107 24.5959C57.7485 24.8697 57.6428 25.131 57.4934 25.3799Z" fill="white"/>
<path d="M58.8574 26.6866L61.6575 14.1799H63.2068L66.0068 26.6866H64.0841L63.5801 23.9986H61.2654L60.7428 26.6866H58.8574ZM61.5828 22.3372H63.2628L62.4228 17.7825L61.5828 22.3372Z" fill="white"/>
<path d="M72.2762 26.6866H66.9375V14.1799H68.7295V24.8945H72.2762V26.6866Z" fill="white"/>
<path d="M72.7783 26.6866V14.1799H74.5516V26.6866H72.7783Z" fill="white"/>
<path d="M77.6523 26.6866V15.8412H75.543V14.1799H81.5723V15.8412H79.4256V26.6866H77.6523Z" fill="white"/>
<path d="M84.1952 26.6866V21.3105L81.7686 14.1799H83.6352L85.0912 19.0706L86.5659 14.1799H88.4512L85.9685 21.3105V26.6866H84.1952Z" fill="white"/>
<path d="M49.7812 42.1415V43.9335H44.4238V31.4268H49.7812V33.0695H46.1972V36.7655H49.3332V38.4642H46.1972V42.1415H49.7812Z" fill="white"/>
<path d="M53.978 31.4268C54.7869 31.4268 55.4775 31.7131 56.0499 32.2855C56.6348 32.8455 56.9273 33.53 56.9273 34.3389V40.8349C56.9273 41.7558 56.6473 42.5024 56.0873 43.0749C55.5273 43.6473 54.8055 43.9335 53.9219 43.9335H51.1406V31.4268H53.978ZM55.1539 40.8349V34.3389C55.1539 33.9904 55.0233 33.698 54.762 33.4615C54.5131 33.2251 54.2082 33.1069 53.8473 33.1069H52.9139V42.2722H53.7913C54.6997 42.2722 55.1539 41.7931 55.1539 40.8349Z" fill="white"/>
<path d="M63.8548 42.6269C63.581 43.05 63.2263 43.3922 62.7908 43.6535C62.3677 43.9149 61.8947 44.0455 61.3721 44.0455C61.1107 44.0455 60.8494 44.0082 60.5881 43.9335C60.3392 43.8589 60.1028 43.7655 59.8788 43.6535C59.6548 43.5291 59.4557 43.3922 59.2814 43.2429C59.1072 43.0811 58.9766 42.9131 58.8895 42.7389C58.7028 42.3904 58.5783 42.0855 58.5161 41.8242C58.4663 41.5629 58.4414 41.2829 58.4414 40.9842V31.4268H60.2334V40.9842C60.2334 41.0713 60.2334 41.1522 60.2334 41.2269C60.2459 41.2891 60.2583 41.3513 60.2707 41.4135C60.2832 41.5131 60.3765 41.6873 60.5507 41.9362C60.7125 42.1602 60.9925 42.2722 61.3907 42.2722C61.7516 42.2722 62.0191 42.1415 62.1934 41.8802C62.38 41.6064 62.4734 41.3077 62.4734 40.9842V31.4268H64.2654V40.9842C64.2654 41.2829 64.2343 41.5691 64.1721 41.8429C64.1099 42.1166 64.0042 42.378 63.8548 42.6269Z" fill="white"/>
<path d="M71.563 40.7789C71.563 41.1771 71.5381 41.5193 71.4883 41.8055C71.451 42.0918 71.3266 42.4029 71.1151 42.7389C71.0031 42.9131 70.8599 43.0811 70.6857 43.2429C70.5239 43.3922 70.3373 43.5291 70.1257 43.6535C69.9266 43.7655 69.7088 43.8589 69.4724 43.9335C69.2359 44.0082 69.0057 44.0455 68.7817 44.0455C68.2217 44.0455 67.7115 43.9273 67.251 43.6909C66.803 43.4544 66.4733 43.1558 66.2617 42.7949C66.0502 42.434 65.9132 42.098 65.851 41.7869C65.8012 41.4758 65.7764 41.1398 65.7764 40.7789V34.3389C65.7764 33.9904 65.8074 33.6793 65.8696 33.4055C65.9443 33.1193 66.0936 32.8144 66.3176 32.4909C66.5416 32.1673 66.859 31.8935 67.2697 31.6695C67.6803 31.4331 68.1096 31.3148 68.5576 31.3148C69.4163 31.3148 70.1318 31.6011 70.7043 32.1735C71.2767 32.7335 71.563 33.4553 71.563 34.3389V35.0109H69.7896V34.3389C69.7896 33.9904 69.6901 33.698 69.491 33.4615C69.3043 33.2251 69.0243 33.1069 68.6509 33.1069C68.3025 33.1069 68.0288 33.2251 67.8297 33.4615C67.643 33.698 67.5496 33.9904 67.5496 34.3389V41.2642C67.5745 41.4509 67.6616 41.6624 67.811 41.8989C67.9852 42.1478 68.2714 42.2722 68.6696 42.2722C69.0927 42.2722 69.3728 42.1602 69.5096 41.9362C69.6465 41.7122 69.7274 41.5504 69.7523 41.4509C69.7772 41.3389 69.7896 41.1895 69.7896 41.0029V40.3682H71.5629L71.563 40.7789Z" fill="white"/>
<path d="M72.1543 43.9335L74.9543 31.4268H76.5037L79.3036 43.9335H77.381L76.877 41.2455H74.5623L74.0396 43.9335H72.1543ZM74.8796 39.5842H76.5596L75.7196 35.0295L74.8796 39.5842Z" fill="white"/>
<path d="M80.8056 43.9335V33.0882H78.6963V31.4268H84.7256V33.0882H82.5789V43.9335H80.8056Z" fill="white"/>
<path d="M85.6846 43.9335V31.4268H87.4579V43.9335H85.6846Z" fill="white"/>
<path d="M89.6136 32.6029C89.8998 32.2047 90.2607 31.8935 90.6962 31.6695C91.1442 31.4331 91.6047 31.3148 92.0776 31.3148C92.538 31.3148 92.9673 31.4082 93.3655 31.5948C93.7762 31.7815 94.1184 32.0366 94.3922 32.3602C94.666 32.6838 94.8527 33.0197 94.9522 33.3682C95.0518 33.7042 95.1016 34.0713 95.1016 34.4695V40.8349C95.1016 41.2082 95.0642 41.538 94.9896 41.8242C94.9274 42.1104 94.778 42.4278 94.5416 42.7762C94.3176 43.1247 93.9878 43.4233 93.5522 43.6722C93.1291 43.9211 92.6562 44.0455 92.1335 44.0455C91.8349 44.0455 91.5487 44.0082 91.2749 43.9335C91.0011 43.8464 90.746 43.7344 90.5096 43.5975C90.2731 43.4606 90.0615 43.3051 89.8749 43.1309C89.7007 42.9566 89.5638 42.7762 89.4642 42.5895C89.2776 42.2038 89.1656 41.8926 89.1282 41.6562C89.0909 41.4197 89.0723 41.146 89.0723 40.8349V34.4695C89.0723 34.0962 89.1096 33.7664 89.1843 33.4802C89.2714 33.1815 89.4145 32.8891 89.6136 32.6029ZM93.0856 33.5922C92.8491 33.2437 92.5256 33.0695 92.1149 33.0695C91.9034 33.0695 91.6918 33.1317 91.4802 33.2562C91.2811 33.3682 91.138 33.4989 91.0509 33.6482C90.9762 33.7975 90.9264 33.9469 90.9016 34.0962C90.8767 34.2455 90.8643 34.37 90.8643 34.4695V40.8349C90.8643 40.8971 90.8643 40.9655 90.8643 41.0402C90.8643 41.1024 90.8705 41.1709 90.883 41.2455C90.8955 41.37 90.995 41.5753 91.1816 41.8615C91.3683 42.1229 91.6794 42.2535 92.115 42.2535C92.339 42.2535 92.5381 42.2037 92.7123 42.1042C92.8989 41.9922 93.0296 41.8678 93.1043 41.7309C93.1914 41.5815 93.2474 41.4446 93.2723 41.3202C93.2971 41.1957 93.3096 41.034 93.3096 40.8349V34.4695C93.3096 34.2207 93.2971 34.0464 93.2723 33.9469C93.2598 33.8473 93.1976 33.7291 93.0856 33.5922Z" fill="white"/>
<path d="M100.986 43.9335L98.2051 36.3362V43.9335H96.4131V31.4268H98.1118L100.874 39.0055V31.4268H102.666V43.9335H100.986Z" fill="white"/>
<path d="M24.7598 43.3642V38.8082H16.2285V34.7882L22.4371 13.4375H26.9485L20.5612 34.7882H24.7598V26.2568H29.0479V34.7882H31.1472V38.8082H29.0479V43.3642H24.7598Z" fill="white"/>
<path fill-rule="evenodd" clip-rule="evenodd" d="M113.799 60.8301C112.278 60.8381 110.756 61.6718 110.756 63.3066V67.7637H116.84V63.3066C116.84 61.6409 115.319 60.8223 113.799 60.8301ZM110.756 69.6797V114.23L113.799 124.213L116.84 114.23V69.6797H110.756ZM40.1785 65.3728V114.637L66.2844 122.688V80.5571L40.1785 65.3728ZM66.0638 128.312L34.4658 119.379V67.4326L37.215 65.3338V117.351L66.7003 125.953H69.0975L98.5828 117.351V65.3338L101.332 67.4326V119.379L69.7339 128.312H66.0638ZM95.6193 65.3728V114.637L69.5134 122.688V80.5571L95.6193 65.3728Z" fill="white"/>
</svg>
