<svg viewBox="0 0 149 150" fill="none" xmlns="http://www.w3.org/2000/svg">
<path fill-rule="evenodd" clip-rule="evenodd" d="M1.64026 0.934555H148.079C148.537 0.934555 148.906 1.30329 148.906 1.76131V148.442C148.906 148.9 148.537 149.269 148.079 149.269H1.64026C1.18224 149.269 0.813477 148.9 0.813477 148.442V1.76131C0.813477 1.30329 1.18224 0.934555 1.64026 0.934555Z" fill="#EF402B"/>
<path d="M50.4006 25.3799C50.1144 25.8279 49.7473 26.1763 49.2993 26.4252C48.8513 26.6741 48.3598 26.7986 47.8246 26.7986C47.3518 26.7986 46.8913 26.6866 46.4433 26.4626C46.0077 26.2386 45.6655 25.9648 45.4166 25.6412C45.1802 25.3052 45.0184 24.9692 44.9313 24.6332C44.8567 24.2972 44.8193 23.9177 44.8193 23.4946V17.2412C44.8193 16.9301 44.8504 16.619 44.9126 16.3079C44.9997 15.9968 45.2299 15.555 45.6033 14.9825C45.9891 14.3728 46.7482 14.0679 47.8806 14.0679C48.3784 14.0679 48.845 14.1861 49.2806 14.4225C49.7161 14.659 50.046 14.9514 50.27 15.2999C50.5064 15.6359 50.6557 15.9594 50.718 16.2706C50.7926 16.5692 50.83 16.8928 50.83 17.2412V17.7639H49.0566V17.2412C49.0566 17.1417 49.0504 17.0546 49.0379 16.9799C49.0379 16.8928 49.0317 16.8181 49.0192 16.7559C49.0068 16.6439 48.9134 16.4634 48.7392 16.2146C48.565 15.9657 48.2725 15.8412 47.8619 15.8412C47.3765 15.8412 47.053 15.9719 46.8912 16.2332C46.7419 16.4945 46.6548 16.6874 46.6299 16.8119C46.605 16.9363 46.5926 17.0794 46.5926 17.2412V23.4946C46.5926 23.619 46.5926 23.7248 46.5926 23.8119C46.5926 23.899 46.5988 23.9737 46.6113 24.0359C46.6237 24.1354 46.7171 24.3283 46.8913 24.6145C47.0531 24.8759 47.3704 25.0065 47.8433 25.0065C48.3286 25.0065 48.6397 24.8759 48.7766 24.6145C48.8513 24.4777 48.9073 24.3657 48.9446 24.2785C48.982 24.179 49.0068 24.0919 49.0193 24.0172C49.0442 23.9426 49.0566 23.8679 49.0566 23.7932C49.0566 23.7061 49.0566 23.6066 49.0566 23.4946V21.3105H47.6193V19.7426H50.83V23.4946C50.83 23.7559 50.8237 23.9799 50.8112 24.1665C50.7988 24.3408 50.7739 24.4963 50.7366 24.6332C50.6992 24.7701 50.6494 24.9008 50.5872 25.0252C50.5374 25.1372 50.4753 25.2554 50.4006 25.3799Z" fill="white"/>
<path d="M57.9638 24.8945V26.6866H52.6064V14.1799H57.9638V15.8226H54.3798V19.5186H57.5158V21.2172H54.3798V24.8945H57.9638Z" fill="white"/>
<path d="M63.1905 26.6866L60.4092 19.0892V26.6866H58.6172V14.1799H60.3159L63.0785 21.7585V14.1799H64.8705V26.6866H63.1905Z" fill="white"/>
<path d="M68.9506 14.1799C69.7595 14.1799 70.4501 14.4661 71.0226 15.0385C71.6075 15.5985 71.8999 16.283 71.8999 17.0919V23.5879C71.8999 24.5088 71.6199 25.2554 71.0599 25.8279C70.4999 26.4003 69.7781 26.6866 68.8946 26.6866H66.1133V14.1799H68.9506ZM70.1266 23.5879V17.0919C70.1266 16.7434 69.996 16.451 69.7346 16.2146C69.4857 15.9781 69.1808 15.8599 68.8199 15.8599H67.8866V25.0252H68.7639C69.6724 25.0252 70.1266 24.5461 70.1266 23.5879Z" fill="white"/>
<path d="M78.4882 24.8945V26.6866H73.1309V14.1799H78.4882V15.8226H74.9042V19.5186H78.0402V21.2172H74.9042V24.8945H78.4882Z" fill="white"/>
<path d="M79.4062 26.6866V14.1799H82.5422C83.3636 14.1799 84.0543 14.4661 84.6143 15.0385C85.1867 15.611 85.4729 16.3141 85.4729 17.1479V18.3052C85.4729 19.4626 84.9813 20.3461 83.9982 20.9559L85.9022 26.6866H83.9982L82.3182 21.3292H81.1982V26.6866H79.4062ZM83.3823 19.3506C83.4943 19.2137 83.5689 19.0581 83.6063 18.8839C83.6561 18.7097 83.681 18.5168 83.681 18.3052V17.1479C83.681 16.7621 83.5751 16.451 83.3636 16.2146C83.152 15.9657 82.8534 15.8412 82.4676 15.8412H81.1983V19.7426H82.449C82.8223 19.7426 83.1334 19.6119 83.3823 19.3506Z" fill="white"/>
<path d="M50.3076 42.1415V43.9335H44.9502V31.4268H50.3076V33.0695H46.7236V36.7655H49.8596V38.4642H46.7236V42.1415H50.3076Z" fill="white"/>
<path d="M51.681 42.9629C51.3947 42.6518 51.2019 42.322 51.1024 41.9735C51.0152 41.6251 50.9717 41.2144 50.9717 40.7415V34.5255C50.9717 33.6171 51.2579 32.858 51.8303 32.2482C52.4152 31.626 53.1495 31.3148 54.033 31.3148C54.8295 31.3148 55.5326 31.6073 56.1423 32.1922C56.7397 32.7771 57.0383 33.474 57.0383 34.2829V40.7415C57.0383 41.1024 57.0197 41.37 56.9824 41.5442C56.9575 41.7184 56.9077 41.8926 56.833 42.0669L58.009 43.0562L57.0197 44.2509L55.8997 43.3549C55.3521 43.8029 54.6926 44.0269 53.921 44.0269C53.5104 44.0269 53.0996 43.9273 52.689 43.7282C52.2907 43.5291 51.9547 43.274 51.681 42.9629ZM54.649 40.2749L55.2463 40.7415V34.5255C55.2463 34.1273 55.1343 33.7913 54.9103 33.5175C54.6863 33.2313 54.3752 33.0882 53.977 33.0882C53.7281 33.0882 53.5103 33.1504 53.3237 33.2749C53.137 33.3993 53.0001 33.5486 52.913 33.7229C52.8383 33.8971 52.7948 34.034 52.7823 34.1335C52.7699 34.2207 52.7636 34.3513 52.7636 34.5255V40.7415V40.8722C52.7636 41.2331 52.8632 41.5566 53.0623 41.8429C53.2739 42.1166 53.5974 42.2597 54.033 42.2722C54.1574 42.2722 54.3067 42.2349 54.481 42.1602L53.6596 41.4695L54.649 40.2749Z" fill="white"/>
<path d="M64.1712 42.6269C63.8974 43.05 63.5427 43.3922 63.1072 43.6535C62.6841 43.9149 62.2112 44.0455 61.6885 44.0455C61.4272 44.0455 61.1659 44.0082 60.9045 43.9335C60.6557 43.8589 60.4192 43.7655 60.1952 43.6535C59.9712 43.5291 59.7721 43.3922 59.5978 43.2429C59.4236 43.0811 59.293 42.9131 59.2059 42.7389C59.0192 42.3904 58.8947 42.0855 58.8325 41.8242C58.7827 41.5629 58.7578 41.2829 58.7578 40.9842V31.4268H60.5498V40.9842C60.5498 41.0713 60.5498 41.1522 60.5498 41.2269C60.5623 41.2891 60.5747 41.3513 60.5871 41.4135C60.5996 41.5131 60.6929 41.6873 60.8671 41.9362C61.0289 42.1602 61.3089 42.2722 61.7071 42.2722C62.068 42.2722 62.3355 42.1415 62.5098 41.8802C62.6964 41.6064 62.7898 41.3077 62.7898 40.9842V31.4268H64.5818V40.9842C64.5818 41.2829 64.5507 41.5691 64.4885 41.8429C64.4263 42.1166 64.3206 42.378 64.1712 42.6269Z" fill="white"/>
<path d="M64.9697 43.9335L67.7698 31.4268H69.3191L72.1191 43.9335H70.1964L69.6924 41.2455H67.3777L66.8551 43.9335H64.9697ZM67.6951 39.5842H69.3751L68.5351 35.0295L67.6951 39.5842Z" fill="white"/>
<path d="M78.3885 43.9335H73.0498V31.4268H74.8418V42.1415H78.3885V43.9335Z" fill="white"/>
<path d="M78.8916 43.9335V31.4268H80.6649V43.9335H78.8916Z" fill="white"/>
<path d="M83.7646 43.9335V33.0882H81.6553V31.4268H87.6846V33.0882H85.5379V43.9335H83.7646Z" fill="white"/>
<path d="M90.3075 43.9335V38.5575L87.8809 31.4268H89.7475L91.2035 36.3175L92.6782 31.4268H94.5635L92.0808 38.5575V43.9335H90.3075Z" fill="white"/>
<path d="M24.9726 24.1128C25.717 24.1128 26.4615 24.3213 27.2059 24.7382C27.9802 25.1551 28.5459 25.6464 28.9033 26.2122C29.2904 26.7779 29.5435 27.3735 29.6626 27.9988C29.8115 28.5944 29.8859 29.2346 29.8859 29.9195V36.6195C29.8859 37.2746 29.8562 37.8404 29.7966 38.3168C29.7668 38.7635 29.6031 39.3888 29.3053 40.1928C29.0075 40.9968 28.278 41.7711 27.1166 42.5155C26.0149 43.2599 24.794 43.6322 23.454 43.6322C22.4415 43.6322 21.4738 43.394 20.5507 42.9175C19.6275 42.4113 18.9128 41.8008 18.4066 41.0862C17.9004 40.3715 17.5579 39.6419 17.3793 38.8975C17.2006 38.153 17.1113 37.3937 17.1113 36.6195V35.8602H21.4886V37.5128C21.4886 37.6617 21.5333 37.8404 21.6226 38.0488C21.712 38.2573 21.8311 38.4657 21.98 38.6742C22.1289 38.8528 22.3373 39.0166 22.6053 39.1655C22.8733 39.2846 23.1859 39.3442 23.5433 39.3442C24.3473 39.3442 24.8833 39.1208 25.1513 38.6742C25.4193 38.2275 25.5682 37.885 25.598 37.6468C25.6278 37.3788 25.6427 37.0959 25.6427 36.7982V30.5002C25.6427 30.3513 25.6427 30.2173 25.6427 30.0982C25.6427 29.9493 25.6278 29.8004 25.598 29.6515C25.598 29.5026 25.5533 29.324 25.464 29.1155C25.4045 28.9071 25.2853 28.7135 25.1066 28.5348C24.9577 28.3264 24.7493 28.1626 24.4813 28.0435C24.2431 27.8946 23.9453 27.8202 23.588 27.8202C22.5457 27.8202 21.846 28.3562 21.4886 29.4282H17.6473V13.4375H29.886V17.4128H21.4886V25.4528C22.5011 24.5595 23.6624 24.1128 24.9726 24.1128Z" fill="white"/>
<path fill-rule="evenodd" clip-rule="evenodd" d="M63.5801 83.582V89.4648H85.9629V83.582H63.5801ZM63.5801 92.707V98.8672H85.9629V92.707H63.5801ZM90.0527 57.4512V63.8477H97.6621L89.5566 71.9551C85.3123 68.6134 80.0699 66.7916 74.668 66.7812C68.265 66.7813 62.1243 69.3249 57.5967 73.8525C53.0691 78.3801 50.5255 84.5208 50.5254 90.9238C50.5324 96.7772 52.6657 102.429 56.5284 106.827C60.391 111.225 65.7199 114.07 71.5234 114.832V121.916H63.9141V129.029H71.5234V135.979H78.582V129.029H86.1367V121.916H78.582V114.719C84.226 113.791 89.3574 110.89 93.062 106.533C96.7666 102.175 98.8038 96.6435 98.8105 90.9238C98.7998 85.9539 97.2556 81.1085 94.3887 77.0488L102.406 69.0312V76.0352H108.967V57.4512H90.0527ZM74.668 73.3691C79.3237 73.3694 83.7887 75.219 87.0807 78.5111C90.3728 81.8032 92.2224 86.2681 92.2227 90.9238C92.2229 95.5799 90.3736 100.045 87.0814 103.338C83.7893 106.63 79.324 108.48 74.668 108.48C72.3624 108.481 70.0793 108.027 67.9492 107.144C65.819 106.262 63.8836 104.969 62.2533 103.339C60.623 101.708 59.3298 99.7727 58.4475 97.6426C57.5653 95.5125 57.1112 93.2294 57.1113 90.9238C57.1116 86.2678 58.9615 81.8025 62.254 78.5104C65.5465 75.2182 70.0119 73.3689 74.668 73.3691Z" fill="white"/>
</svg>
