<svg width="52" height="52" viewBox="0 0 52 52" fill="none" xmlns="http://www.w3.org/2000/svg">
<g id="acc" clip-path="url(#clip0_10501_19604)">
<path id="Vector" d="M43.9768 39.1617H42.2367V37.4218C42.2367 36.5805 41.5547 35.8984 40.7134 35.8984C39.8721 35.8984 39.19 36.5805 39.19 37.4218V39.1617H37.4501C36.6088 39.1617 35.9268 39.8438 35.9268 40.6851C35.9268 41.5264 36.6088 42.2084 37.4501 42.2084H39.19V43.9484C39.19 44.7896 39.8721 45.4717 40.7134 45.4717C41.5547 45.4717 42.2367 44.7896 42.2367 43.9484V42.2084H43.9768C45.9954 42.1338 45.9947 39.2361 43.9768 39.1617Z" fill="#ADBCD0"/>
<path id="Vector_2" d="M44.3265 29.9651C49.3754 15.6431 38.0331 -0.280405 22.7648 0.00374841C10.2088 0.00344374 0.0300892 10.1823 0.0300892 22.7384C-0.253048 38.004 15.6697 49.3527 29.9917 44.2999C31.5027 48.7717 35.738 52 40.7132 52C53.5625 51.7479 56.2836 34.1983 44.3265 29.9651ZM3.07676 22.7384C3.07676 11.8823 11.9089 3.05012 22.765 3.05012C36.1294 2.80537 46.0085 16.9225 41.3005 29.3885C39.0687 29.2723 36.8602 29.8122 34.9665 30.9395C33.1514 29.2393 31.0062 27.9469 28.6874 27.1286C35.9046 21.5797 31.9877 9.80865 22.7649 9.79352C13.5489 9.80845 9.62772 21.5682 16.8324 27.1207C12.8731 28.5121 9.49438 31.2725 7.34353 34.975C4.57816 31.5039 3.07676 27.2326 3.07676 22.7384ZM22.765 26.1101C19.1065 26.1101 16.13 23.1336 16.13 19.4751C16.4636 10.685 29.0678 10.6874 29.4 19.4752C29.4 23.1337 26.4235 26.1101 22.765 26.1101ZM29.415 41.2736C22.7034 43.7367 14.7739 42.1797 9.53886 37.3179C13.6347 28.7514 25.5196 26.4487 32.5459 32.8562C30.3945 35.0789 29.249 38.1313 29.415 41.2736ZM40.7132 48.9533C36.155 48.9533 32.4467 45.2449 32.4467 40.6867C32.8623 29.7349 48.566 29.738 48.98 40.6868C48.98 45.245 45.2716 48.9533 40.7132 48.9533Z" fill="#ADBCD0"/>
</g>
<defs>
<clipPath id="clip0_10501_19604">
<rect width="52" height="52" fill="white"/>
</clipPath>
</defs>
</svg>
