<svg width="52" height="52" viewBox="0 0 52 52" fill="none" xmlns="http://www.w3.org/2000/svg">
<g id="artificial-intelligence" clip-path="url(#clip0_10501_19569)">
<path id="path2829" d="M8.96715 27.8066C8.96715 29.1945 9.13432 30.5431 9.44734 31.8347L5.37793 35.4897L9.03601 41.8257L14.2385 40.1282C16.1812 41.9834 18.5627 43.3826 21.2113 44.1568L22.3418 49.5078H29.6579L30.7885 44.1564C33.4355 43.382 35.8165 41.9826 37.7593 40.1276L42.9637 41.8257L46.6217 35.4897L42.552 31.8344C42.8653 30.5429 43.0325 29.1944 43.0325 27.8066" stroke="#ADBCD0" stroke-width="3" stroke-miterlimit="10" stroke-linecap="round" stroke-linejoin="round"/>
<path id="path2833" d="M32.6065 12.582C32.9927 11.6988 33.207 10.7232 33.207 9.69766C33.207 5.71752 29.9805 2.49109 26.0005 2.49109C22.0204 2.49109 18.7939 5.71752 18.7939 9.69766C18.7939 10.7232 19.0082 11.6988 19.3944 12.582" stroke="#ADBCD0" stroke-width="3" stroke-miterlimit="10" stroke-linecap="round" stroke-linejoin="round"/>
<path id="path2837" d="M8.22852 27.8086H26.0001H43.7717" stroke="#ADBCD0" stroke-width="3" stroke-miterlimit="10" stroke-linecap="round" stroke-linejoin="round"/>
<path id="path2841" d="M19.1972 7.3153C18.0637 6.42968 16.6382 5.90145 15.0916 5.90145C11.408 5.90145 8.41113 8.89836 8.41113 12.5819C8.41113 13.1788 8.48984 13.7576 8.63731 14.3086" stroke="#ADBCD0" stroke-width="3" stroke-miterlimit="10" stroke-linecap="round" stroke-linejoin="round"/>
<path id="path2845" d="M32.8027 7.3153C33.9362 6.42968 35.3617 5.90145 36.9083 5.90145C40.5919 5.90145 43.5888 8.89836 43.5888 12.5819C43.5888 13.1788 43.5101 13.7576 43.3626 14.3086" stroke="#ADBCD0" stroke-width="3" stroke-miterlimit="10" stroke-linecap="round" stroke-linejoin="round"/>
<path id="path2849" d="M8.22839 27.8086C4.53121 27.8086 1.52344 24.8008 1.52344 21.1036C1.52344 17.4065 4.53121 14.3986 8.22839 14.3986C9.57094 14.3986 10.8227 14.7953 11.8725 15.4775" stroke="#ADBCD0" stroke-width="3" stroke-miterlimit="10" stroke-linecap="round" stroke-linejoin="round"/>
<path id="path2853" d="M43.772 27.8086C47.4692 27.8086 50.4769 24.8008 50.4769 21.1036C50.4769 17.4065 47.4692 14.3986 43.772 14.3986C42.4294 14.3986 41.1777 14.7953 40.1279 15.4775" stroke="#ADBCD0" stroke-width="3" stroke-miterlimit="10" stroke-linecap="round" stroke-linejoin="round"/>
<path id="path2857" d="M31.8555 27.8086V21.2051H43.6727" stroke="#ADBCD0" stroke-width="3" stroke-miterlimit="10" stroke-linecap="round" stroke-linejoin="round"/>
<path id="path2861" d="M43.6721 18.6638C42.2686 18.6638 41.1309 19.8015 41.1309 21.205C41.1309 22.6084 42.2686 23.7461 43.6721 23.7461C45.0755 23.7461 46.2132 22.6084 46.2132 21.205C46.2132 19.8015 45.0755 18.6638 43.6721 18.6638Z" fill="#ADBCD0"/>
<path id="path2865" d="M20.1453 27.8086V21.2051H8.32812" stroke="#ADBCD0" stroke-width="3" stroke-miterlimit="10" stroke-linecap="round" stroke-linejoin="round"/>
<path id="path2869" d="M8.32733 18.6638C9.73082 18.6638 10.8685 19.8015 10.8685 21.205C10.8685 22.6084 9.73082 23.7461 8.32733 23.7461C6.92384 23.7461 5.78613 22.6084 5.78613 21.205C5.78613 19.8015 6.92384 18.6638 8.32733 18.6638Z" fill="#ADBCD0"/>
<path id="path2873" d="M26.0002 7.49584C27.4037 7.49584 28.5414 8.63354 28.5414 10.037C28.5414 11.4404 27.4037 12.5781 26.0002 12.5781C24.5967 12.5781 23.459 11.4404 23.459 10.037C23.459 8.63354 24.5967 7.49584 26.0002 7.49584Z" fill="#ADBCD0"/>
<path id="path2877" d="M26 27.0977V10.0384" stroke="#ADBCD0" stroke-width="3" stroke-miterlimit="10" stroke-linecap="round" stroke-linejoin="round"/>
<path id="path2881" d="M37.4407 27.809C37.4407 34.1176 32.3083 39.25 25.9997 39.25C19.6911 39.25 14.5586 34.1176 14.5586 27.809" stroke="#ADBCD0" stroke-width="3" stroke-miterlimit="10" stroke-linecap="round" stroke-linejoin="round"/>
<path id="path2885" d="M31.8548 27.809C31.8548 31.0426 29.2334 33.6641 25.9997 33.6641C22.766 33.6641 20.1445 31.0426 20.1445 27.809" stroke="#ADBCD0" stroke-width="3" stroke-miterlimit="10" stroke-linecap="round" stroke-linejoin="round"/>
</g>
<defs>
<clipPath id="clip0_10501_19569">
<rect width="52" height="52" fill="white"/>
</clipPath>
</defs>
</svg>
