<svg width="124" height="124" viewBox="0 0 124 124" fill="none" xmlns="http://www.w3.org/2000/svg">
<rect width="124" height="124" rx="16" fill="#1A3651"/>
<g clip-path="url(#clip0_5228_17482)">
<path d="M60.6875 73.3438C60.6875 74.1204 61.3171 74.75 62.0938 74.75H63.9688C64.7454 74.75 65.375 74.1204 65.375 73.3438C65.375 72.5671 64.7454 71.9375 63.9688 71.9375H62.0938C61.3171 71.9375 60.6875 72.5671 60.6875 73.3438Z" fill="white"/>
<path d="M69.5938 74.75C68.8171 74.75 68.1875 74.1204 68.1875 73.3437C68.1875 72.5671 68.8171 71.9375 69.5938 71.9375H71.4688C72.2454 71.9375 72.875 72.5671 72.875 73.3437C72.875 74.1204 72.2454 74.75 71.4688 74.75H69.5938Z" fill="white"/>
<path d="M77.0938 74.75C76.3171 74.75 75.6875 74.1204 75.6875 73.3437C75.6875 72.5671 76.3171 71.9375 77.0938 71.9375H78.9687C79.7454 71.9375 80.375 72.5671 80.375 73.3437C80.375 74.1204 79.7454 74.75 78.9687 74.75H77.0938Z" fill="white"/>
<path d="M45.125 72.875C45.9017 72.875 46.5313 72.2454 46.5313 71.4688V69.5938C46.5313 68.8171 45.9017 68.1875 45.125 68.1875C44.3484 68.1875 43.7188 68.8171 43.7188 69.5938V71.4688C43.7188 72.2454 44.3484 72.875 45.125 72.875Z" fill="white"/>
<path d="M50.75 72.875C51.5267 72.875 52.1563 72.2454 52.1563 71.4688V69.5938C52.1563 68.8171 51.5267 68.1875 50.75 68.1875C49.9734 68.1875 49.3438 68.8171 49.3438 69.5938V71.4688C49.3438 72.2454 49.9734 72.875 50.75 72.875Z" fill="white"/>
<path d="M52.1563 63.9688C52.1563 64.7454 51.5267 65.375 50.75 65.375C49.9734 65.375 49.3438 64.7454 49.3438 63.9688V62.0938C49.3438 61.3171 49.9734 60.6875 50.75 60.6875C51.5267 60.6875 52.1563 61.3171 52.1563 62.0938V63.9688Z" fill="white"/>
<path d="M45.125 65.375C45.9017 65.375 46.5313 64.7454 46.5313 63.9688V62.0938C46.5313 61.3171 45.9017 60.6875 45.125 60.6875C44.3484 60.6875 43.7188 61.3171 43.7188 62.0938V63.9688C43.7188 64.7454 44.3484 65.375 45.125 65.375Z" fill="white"/>
<path fill-rule="evenodd" clip-rule="evenodd" d="M39.4062 86C38.6296 86 38 85.3704 38 84.5938V56.4688C38 55.6921 38.6296 55.0625 39.4062 55.0625H56.4688C57.2454 55.0625 57.875 55.6921 57.875 56.4688V66.3125H59.9149L61.6359 52.5443C61.7238 51.8406 62.3221 51.3125 63.0313 51.3125H67.7188C68.428 51.3125 69.0262 51.8406 69.1142 52.5443L70.8352 66.3125H73.0399L74.7609 52.5443C74.8489 51.8406 75.4471 51.3125 76.1563 51.3125H80.8438C81.553 51.3125 82.1512 51.8406 82.2392 52.5443L83.9602 66.3125H84.5937C85.3704 66.3125 86 66.9421 86 67.7188V84.5938C86 85.3704 85.3704 86 84.5937 86H39.4062ZM57.875 69.125V83.1875H62.5625V78.9688C62.5625 78.1921 63.1921 77.5625 63.9688 77.5625H77.0938C77.8704 77.5625 78.5 78.1921 78.5 78.9688V83.1875H83.1875V69.125H82.7227L82.7188 69.125H74.2813L74.2774 69.125H57.875ZM64.2727 54.125L62.7492 66.3125H68.0008L66.4774 54.125H64.2727ZM77.3977 54.125L75.8743 66.3125H81.1258L79.6024 54.125H77.3977ZM46.5313 83.1875H49.3438V78.5H46.5313V83.1875ZM43.7188 77.0938V83.1875H40.8125V57.875H55.0625V67.7132L55.0625 67.7188V83.1875H52.1563V77.0938C52.1563 76.3171 51.5267 75.6875 50.75 75.6875H45.125C44.3484 75.6875 43.7188 76.3171 43.7188 77.0938ZM65.375 83.1875H75.6875V80.375H65.375V83.1875Z" fill="white"/>
<path d="M56.4688 40.8125H75.6875C78.0174 40.8125 79.9063 42.7014 79.9063 45.0312V47.8438C79.9063 48.6204 79.2767 49.25 78.5 49.25C77.7234 49.25 77.0938 48.6204 77.0938 47.8438V45.0312C77.0938 44.2546 76.4641 43.625 75.6875 43.625H56.4688C54.1389 43.625 52.25 41.7361 52.25 39.4062C52.25 38.6296 52.8796 38 53.6563 38C54.4329 38 55.0625 38.6296 55.0625 39.4062C55.0625 40.1829 55.6922 40.8125 56.4688 40.8125Z" fill="white"/>
<path d="M50.8438 49.25C48.5139 49.25 46.625 47.3611 46.625 45.0312C46.625 44.2546 47.2546 43.625 48.0313 43.625C48.8079 43.625 49.4375 44.2546 49.4375 45.0312C49.4375 45.8079 50.0672 46.4375 50.8438 46.4375H65.375C66.1517 46.4375 66.7813 47.0671 66.7813 47.8438C66.7813 48.6204 66.1517 49.25 65.375 49.25H50.8438Z" fill="white"/>
</g>
<defs>
<clipPath id="clip0_5228_17482">
<rect width="48" height="48" fill="white" transform="translate(38 38)"/>
</clipPath>
</defs>
</svg>
