<svg width="125" height="124" viewBox="0 0 125 124" fill="none" xmlns="http://www.w3.org/2000/svg">
<rect x="0.333496" width="124" height="124" rx="16" fill="#1A3651"/>
<g clip-path="url(#clip0_5228_17477)">
<path fill-rule="evenodd" clip-rule="evenodd" d="M62.3335 58.6251C58.4503 58.6251 55.3022 55.4771 55.3022 51.5938C55.3022 47.7106 58.4503 44.5626 62.3335 44.5626C66.2167 44.5626 69.3647 47.7106 69.3647 51.5938C69.3647 55.4771 66.2167 58.6251 62.3335 58.6251ZM58.1147 51.5938C58.1147 53.9238 60.0035 55.8126 62.3335 55.8126C64.6634 55.8126 66.5522 53.9238 66.5522 51.5938C66.5522 49.2639 64.6634 47.3751 62.3335 47.3751C60.0035 47.3751 58.1147 49.2639 58.1147 51.5938Z" fill="white"/>
<path fill-rule="evenodd" clip-rule="evenodd" d="M72.8683 66.3126H69.5279L74.1043 58.3802C79.3309 49.3206 72.7926 38.0001 62.3335 38.0001C51.8744 38.0001 45.3361 49.3206 50.5626 58.3802L55.139 66.3126H51.7987C51.7799 66.3122 51.7611 66.3122 51.7425 66.3126H45.3648C44.7595 66.3126 44.2221 66.6999 44.0307 67.2741L42.1662 72.8676C42.1587 72.8883 42.1518 72.9091 42.1453 72.9302L40.2912 78.4926C40.2837 78.5133 40.2768 78.5342 40.2703 78.5552L38.4057 84.1491C38.2627 84.5779 38.3346 85.0494 38.5989 85.4161C38.8633 85.7828 39.2877 86.0001 39.7398 86.0001H48.2445C48.2541 86.0003 48.2637 86.0003 48.2733 86.0003C48.2761 86.0003 48.2788 86.0003 48.2816 86.0003C48.2878 86.0003 48.2941 86.0002 48.3004 86.0001H76.3666C76.3743 86.0002 76.3819 86.0003 76.3895 86.0003C76.3943 86.0004 76.399 86.0003 76.4038 86.0003L76.4084 86.0003L76.4149 86.0002L76.4225 86.0001H84.9272C85.3793 86.0001 85.8037 85.7828 86.0681 85.4161C86.3324 85.0494 86.4043 84.5779 86.2613 84.1491L84.3964 78.5544C84.3901 78.5339 84.3833 78.5136 84.3761 78.4934L82.5218 72.9306C82.5184 72.9193 82.5147 72.908 82.511 72.8967C82.5076 72.8868 82.5042 72.877 82.5007 72.8672L80.6363 67.2741C80.4449 66.6999 79.9075 66.3126 79.3022 66.3126H72.9245C72.9058 66.3122 72.8871 66.3122 72.8683 66.3126ZM56.7617 69.1251L59.8987 74.5626H56.7085C55.9318 74.5626 55.3022 75.1922 55.3022 75.9688C55.3022 76.7455 55.9318 77.3751 56.7085 77.3751H67.9585C68.7351 77.3751 69.3647 76.7455 69.3647 75.9688C69.3647 75.1922 68.7351 74.5626 67.9585 74.5626H64.7683L67.9053 69.1251H71.7505L72.685 73.6295C72.8204 74.2821 73.3954 74.7501 74.0619 74.7501H80.1637L81.1012 77.5626H75.229C74.8059 77.5626 74.4053 77.753 74.1383 78.0812C73.8712 78.4093 73.7661 78.8402 73.8521 79.2545L74.668 83.1876H49.9989L50.8149 79.2545C50.9009 78.8402 50.7957 78.4093 50.5287 78.0812C50.2616 77.753 49.8611 77.5626 49.438 77.5626H43.5658L44.5033 74.7501H50.605C51.2715 74.7501 51.8465 74.2821 51.9819 73.6295L52.9164 69.1251H56.7617ZM74.6229 69.1251L75.2064 71.9376H79.2262L78.2887 69.1251H74.6229ZM46.3783 69.1251L45.4408 71.9376H49.4606L50.044 69.1251H46.3783ZM47.1265 83.1876L47.71 80.3751H42.6283L41.6908 83.1876H47.1265ZM82.9762 83.1876L82.0387 80.3751H76.9569L77.5404 83.1876H82.9762ZM52.9988 56.9747L62.3335 73.1548L71.6682 56.9747C75.8131 49.7902 70.6279 40.8126 62.3335 40.8126C54.0391 40.8126 48.8539 49.7902 52.9988 56.9747Z" fill="white"/>
</g>
<defs>
<clipPath id="clip0_5228_17477">
<rect width="48" height="48" fill="white" transform="translate(38.3335 38)"/>
</clipPath>
</defs>
</svg>
