<svg width="125" height="124" viewBox="0 0 125 124" fill="none" xmlns="http://www.w3.org/2000/svg">
<rect x="0.666016" width="124" height="124" rx="16" fill="#1A3651"/>
<g clip-path="url(#clip0_5228_17487)">
<path d="M42.0094 50.8359C42.0094 51.7592 41.2612 52.5076 40.3377 52.5076C39.4143 52.5076 38.666 51.7592 38.666 50.8362V39.6721C38.666 38.7489 39.4143 38.0004 40.3377 38.0004H51.5022C52.4256 38.0004 53.1739 38.7489 53.1739 39.6721C53.1739 40.5953 52.4254 41.3438 51.5022 41.3438H44.373L55.1403 52.1087C55.7933 52.7613 55.7933 53.8198 55.1405 54.4727C54.8142 54.7992 54.3862 54.9624 53.9583 54.9624C53.5305 54.9624 53.1028 54.7992 52.7763 54.4729L42.0094 43.7083V50.8359Z" fill="white"/>
<path d="M83.3225 73.164C83.3225 72.2408 84.0708 71.4923 84.9942 71.4923C85.9175 71.4923 86.6659 72.2408 86.6662 73.164V84.3274C86.6662 85.2506 85.9179 85.9991 84.9945 85.9991H73.8306C72.9072 85.9991 72.1589 85.2506 72.1589 84.3274C72.1589 83.4042 72.9072 82.6557 73.8306 82.6557H80.9581L69.86 71.5576C69.2072 70.905 69.2072 69.8465 69.86 69.1936C70.5129 68.5408 71.5712 68.5408 72.2243 69.1936L83.3225 80.2919V73.164Z" fill="white"/>
<path d="M53.1077 69.1936L42.0105 80.2917V73.164C42.0105 72.2408 41.2622 71.4923 40.3388 71.4923C39.4154 71.4923 38.6671 72.2408 38.6671 73.164V84.3278C38.6671 85.2511 39.4154 85.9995 40.3388 85.9995H51.5022C52.4254 85.9995 53.1739 85.2511 53.1739 84.3278C53.1739 83.4046 52.4256 82.6561 51.5022 82.6561H44.3745L55.4719 71.5576C56.1248 70.9048 56.1248 69.8463 55.4717 69.1934C54.8193 68.5408 53.7607 68.5408 53.1077 69.1936Z" fill="white"/>
<path d="M73.8304 38.0004H84.9942C85.9175 38.0004 86.6659 38.7487 86.6662 39.6721V50.8359C86.6662 51.7592 85.9179 52.5076 84.9945 52.5076C84.071 52.5076 83.3228 51.7592 83.3228 50.8359V43.7078L72.5575 54.4738C72.2309 54.8001 71.803 54.9635 71.3753 54.9635C70.9475 54.9635 70.5196 54.8003 70.1933 54.474C69.5402 53.8211 69.5402 52.7626 70.193 52.1098L80.9583 41.3438H73.8304C72.907 41.3438 72.1587 40.5953 72.1587 39.6721C72.1587 38.7489 72.907 38.0004 73.8304 38.0004Z" fill="white"/>
</g>
<defs>
<clipPath id="clip0_5228_17487">
<rect width="48" height="48" fill="white" transform="translate(38.666 38)"/>
</clipPath>
</defs>
</svg>
