<svg width="36" height="36" viewBox="0 0 36 36" xmlns="http://www.w3.org/2000/svg">
    <g clip-path="url(#clip0_2219_26299)">
        <path d="M5.27344 6.29535C5.85593 6.29535 6.32812 5.82561 6.32812 5.24615C6.32812 4.66669 5.85593 4.19695 5.27344 4.19695C4.69095 4.19695 4.21875 4.66669 4.21875 5.24615C4.21875 5.82561 4.69095 6.29535 5.27344 6.29535Z"/>
        <path fill-rule="evenodd" clip-rule="evenodd"
              d="M1.05469 0H9.49219C10.0747 0 10.5469 0.469758 10.5469 1.0492V9.44304C10.5469 10.0225 10.0747 10.4922 9.49219 10.4922H1.05469C0.472219 10.4922 0 10.0225 0 9.44304V1.0492C0 0.469758 0.472219 0 1.05469 0ZM8.4375 8.39384V2.09848H2.10938V8.39384H8.4375Z"/>
        <path fill-rule="evenodd" clip-rule="evenodd"
              d="M13.9689 19.0466L28.9435 22.8319C29.831 23.0252 30.0221 24.3056 29.229 24.7471L25.6374 26.9051L27.6304 29.4461C28.6222 30.7105 28.5105 32.5193 27.3705 33.6534C26.2305 34.7875 24.4124 34.8988 23.1413 33.9121L20.587 31.9293L18.4178 35.5023C17.9711 36.2926 16.6879 36.1003 16.4929 35.2183L12.687 20.322C12.473 19.5806 13.2236 18.8338 13.9689 19.0466ZM23.2432 27.2636C22.8545 26.7906 22.9966 26.024 23.5294 25.72L25.9797 24.2477L15.1683 21.5148L17.9161 32.2698L19.396 29.8321C19.7019 29.3023 20.4705 29.1602 20.9476 29.5473L24.439 32.2575C24.8717 32.5935 25.4908 32.5557 25.879 32.1695C26.2671 31.7834 26.3052 31.1674 25.9675 30.7369L23.2432 27.2636Z"/>
        <path d="M6.32812 17.9069C6.32812 18.4864 5.85593 18.9561 5.27344 18.9561C4.69095 18.9561 4.21875 18.4864 4.21875 17.9069C4.21875 17.3274 4.69095 16.8577 5.27344 16.8577C5.85593 16.8577 6.32812 17.3274 6.32812 17.9069Z"/>
        <path fill-rule="evenodd" clip-rule="evenodd"
              d="M1.05469 12.6607C0.472219 12.6607 0 13.1305 0 13.71V22.1038C0 22.6832 0.472219 23.153 1.05469 23.153H9.49219C10.0747 23.153 10.5469 22.6832 10.5469 22.1038V13.71C10.5469 13.1305 10.0747 12.6607 9.49219 12.6607H1.05469ZM2.10938 21.0546V14.7592H8.4375V21.0546H2.10938Z"/>
        <path fill-rule="evenodd" clip-rule="evenodd"
              d="M1.05469 25.3215H9.49219C10.0747 25.3215 10.5469 25.7913 10.5469 26.3707V34.7646C10.5469 35.3441 10.0747 35.8138 9.49219 35.8138H1.05469C0.472219 35.8138 0 35.3441 0 34.7646V26.3707C0 25.7913 0.472219 25.3215 1.05469 25.3215ZM8.4375 33.7153V27.4199H2.10938V33.7153H8.4375Z"/>
        <path d="M13.7109 4.19695H34.9453C35.5278 4.19695 36 3.72719 36 3.14775C36 2.5683 35.5278 2.09854 34.9453 2.09854H13.7109C13.1285 2.09854 12.6562 2.5683 12.6562 3.14775C12.6562 3.72719 13.1285 4.19695 13.7109 4.19695Z"/>
        <path d="M26.4375 6.29542H34.9453C35.5278 6.29542 36 6.76518 36 7.34463C36 7.92407 35.5278 8.39383 34.9453 8.39383H26.4375C25.855 8.39383 25.3828 7.92407 25.3828 7.34463C25.3828 6.76518 25.855 6.29542 26.4375 6.29542Z"/>
        <path d="M13.7109 8.39383H22.2188C22.8012 8.39383 23.2734 7.92407 23.2734 7.34463C23.2734 6.76518 22.8012 6.29542 22.2188 6.29542H13.7109C13.1285 6.29542 12.6562 6.76518 12.6562 7.34463C12.6562 7.92407 13.1285 8.39383 13.7109 8.39383Z"/>
        <path d="M13.7109 14.7592H34.9453C35.5278 14.7592 36 15.229 36 15.8084C36 16.3879 35.5278 16.8576 34.9453 16.8576H13.7109C13.1285 16.8576 12.6562 16.3879 12.6562 15.8084C12.6562 15.229 13.1285 14.7592 13.7109 14.7592Z"/>
    </g>
    <defs>
        <clipPath id="clip0_2219_26299">
            <rect width="36" height="36" fill="white"/>
        </clipPath>
    </defs>
</svg>
