<svg width="36" height="36" viewBox="0 0 36 36" xmlns="http://www.w3.org/2000/svg">
    <g clip-path="url(#clip0_2219_26277)">
        <path d="M35.6514 31.1419L30.6556 26.2072L33.6873 23.1755C33.9889 22.8739 34.0791 22.4202 33.9159 22.0261C33.7527 21.632 33.3681 21.375 32.9415 21.375H22.3947C22.2201 21.375 22.0557 21.4181 21.9107 21.4933C22.7359 20.5623 23.2384 19.339 23.2384 18C23.2384 16.661 22.736 15.4378 21.9107 14.5067C22.0557 14.5818 22.22 14.625 22.3947 14.625H32.9415C33.3681 14.625 33.7527 14.368 33.9159 13.9739C34.0791 13.5798 33.9889 13.1262 33.6873 12.8245L30.6556 9.79286L35.6514 4.85812C36.0666 4.44805 36.0703 3.77636 35.6559 3.36201L32.6028 0.308897C32.189 -0.104892 31.5177 -0.102502 31.1067 0.313467L26.172 5.30931L23.1403 2.27765C22.8387 1.97594 22.385 1.8858 21.9909 2.04899C21.5968 2.21226 21.3398 2.5968 21.3398 3.02338V13.5703C21.3398 13.7448 21.3829 13.9092 21.4581 14.0541C20.5271 13.229 19.3039 12.7266 17.9649 12.7266C16.6259 12.7266 15.4026 13.2291 14.4716 14.0543C14.5467 13.9092 14.5899 13.745 14.5899 13.5703V3.02345C14.5899 2.59687 14.3329 2.21233 13.9388 2.04906C13.5446 1.8858 13.091 1.97608 12.7894 2.27772L9.75774 5.30931L4.823 0.313467C4.40808 -0.106509 3.72999 -0.103838 3.31824 0.317616L0.335444 3.37072C-0.0682905 3.78395 -0.0644233 4.44503 0.344092 4.85355L5.27876 9.78822L2.24253 12.8245C1.94089 13.1261 1.85068 13.5797 2.01387 13.9739C2.17714 14.368 2.56175 14.6249 2.98826 14.6249H13.5351C13.7097 14.6249 13.874 14.5818 14.0191 14.5067C13.1939 15.4377 12.6914 16.6609 12.6914 17.9999C12.6914 19.339 13.1939 20.5622 14.0191 21.4932C13.874 21.4181 13.7098 21.3749 13.5351 21.3749H2.98826C2.56168 21.3749 2.17707 21.6319 2.01387 22.026C1.85068 22.4201 1.94089 22.8738 2.24253 23.1754L5.27876 26.2117L0.344092 31.1464C-0.0644233 31.5549 -0.0682905 32.216 0.335444 32.6292L3.31824 35.6823C3.73083 36.1046 4.40893 36.1056 4.823 35.6865L9.75774 30.6906L12.7894 33.7223C13.091 34.0239 13.5446 34.1142 13.9388 33.9509C14.3329 33.7876 14.5899 33.4031 14.5899 32.9765V22.4297C14.5899 22.2551 14.5467 22.0908 14.4716 21.9457C15.4026 22.7709 16.6259 23.2735 17.9649 23.2735C19.3039 23.2735 20.5271 22.771 21.4582 21.9458C21.3831 22.0909 21.3399 22.2551 21.3399 22.4297V32.9766C21.3399 33.4032 21.5968 33.7877 21.991 33.951C22.385 34.1142 22.8388 34.024 23.1404 33.7224L26.1721 30.6907L31.1068 35.6866C31.5181 36.1029 32.1894 36.1046 32.6029 35.6911L35.656 32.638C36.0704 32.2237 36.0666 31.552 35.6514 31.1419ZM23.4493 5.56968L25.4309 7.55122C25.6295 7.74979 25.8973 7.86243 26.1799 7.86011C26.4607 7.85926 26.7296 7.74641 26.927 7.54658L31.8617 2.55074L33.4141 4.1031L28.4183 9.03791C28.2184 9.23528 28.1056 9.50415 28.1047 9.78498C28.1038 10.0658 28.2151 10.3354 28.4137 10.534L30.3952 12.5156H23.4493V5.56968ZM12.4805 12.5156H5.53456L7.51611 10.5341C7.928 10.1222 7.928 9.45444 7.51611 9.04255L2.57279 4.09916L4.07677 2.55967L9.0028 7.54665C9.20016 7.74648 9.46904 7.85933 9.74994 7.86018C9.75106 7.86018 9.75205 7.86018 9.75317 7.86018C10.0329 7.86018 10.3011 7.74908 10.4989 7.5513L12.4805 5.56975V12.5156ZM12.4805 30.4303L10.4989 28.4487C10.3003 28.2501 10.0302 28.1381 9.74994 28.1398C9.46904 28.1406 9.20016 28.2535 9.0028 28.4533L4.07677 33.4403L2.57279 31.9008L7.51611 26.9575C7.928 26.5456 7.928 25.8778 7.51611 25.4659L5.53456 23.4844H12.4805V30.4303ZM17.9649 21.1641C16.2202 21.1641 14.8008 19.7447 14.8008 18C14.8008 16.2554 16.2202 14.836 17.9649 14.836C19.7096 14.836 21.129 16.2554 21.129 18C21.129 19.7447 19.7096 21.1641 17.9649 21.1641ZM31.8617 33.4492L26.9269 28.4533C26.7295 28.2535 26.4606 28.1407 26.1798 28.1398C26.1787 28.1398 26.1777 28.1398 26.1766 28.1398C25.8969 28.1398 25.6286 28.2509 25.4308 28.4487L23.4492 30.4303V23.4844H23.4493H30.3952L28.4136 25.4659C28.2151 25.6645 28.1038 25.9341 28.1047 26.215C28.1055 26.4958 28.2184 26.7647 28.4182 26.962L33.414 31.8968L31.8617 33.4492Z"/>
    </g>
    <defs>
        <clipPath id="clip0_2219_26277">
            <rect width="36" height="36" fill="white"/>
        </clipPath>
    </defs>
</svg>
