<svg width="36" height="36" viewBox="0 0 36 36" xmlns="http://www.w3.org/2000/svg">
    <g clip-path="url(#clip0_2219_26288)">
        <path d="M10.6172 25.1016C10.6172 25.6841 10.145 26.1562 9.56253 26.1562C8.98005 26.1562 8.50785 25.6841 8.50785 25.1016V23.6953C8.50785 23.1128 8.98005 22.6406 9.56253 22.6406C10.145 22.6406 10.6172 23.1128 10.6172 23.6953V25.1016Z"/>
        <path d="M5.34378 26.1562C5.92627 26.1562 6.39847 25.6841 6.39847 25.1016V23.6953C6.39847 23.1128 5.92627 22.6406 5.34378 22.6406C4.7613 22.6406 4.2891 23.1128 4.2891 23.6953V25.1016C4.2891 25.6841 4.7613 26.1562 5.34378 26.1562Z"/>
        <path d="M10.6172 19.4766C10.6172 20.0591 10.145 20.5313 9.56253 20.5313C8.98005 20.5313 8.50785 20.0591 8.50785 19.4766V18.0703C8.50785 17.4878 8.98005 17.0156 9.56253 17.0156C10.145 17.0156 10.6172 17.4878 10.6172 18.0703V19.4766Z"/>
        <path d="M5.34378 20.5313C5.92627 20.5313 6.39847 20.0591 6.39847 19.4766V18.0703C6.39847 17.4878 5.92627 17.0156 5.34378 17.0156C4.7613 17.0156 4.2891 17.4878 4.2891 18.0703V19.4766C4.2891 20.0591 4.7613 20.5313 5.34378 20.5313Z"/>
        <path d="M22.6406 26.5078C22.6406 27.0903 23.1128 27.5625 23.6953 27.5625H25.1015C25.684 27.5625 26.1562 27.0903 26.1562 26.5078C26.1562 25.9253 25.684 25.4531 25.1015 25.4531H23.6953C23.1128 25.4531 22.6406 25.9253 22.6406 26.5078Z"/>
        <path d="M29.3203 27.5625C28.7378 27.5625 28.2656 27.0903 28.2656 26.5078C28.2656 25.9253 28.7378 25.4531 29.3203 25.4531H30.7266C31.309 25.4531 31.7812 25.9253 31.7812 26.5078C31.7812 27.0903 31.309 27.5625 30.7266 27.5625H29.3203Z"/>
        <path d="M18.0703 27.5625C17.4878 27.5625 17.0156 27.0903 17.0156 26.5078C17.0156 25.9253 17.4878 25.4531 18.0703 25.4531H19.4765C20.059 25.4531 20.5312 25.9253 20.5312 26.5078C20.5312 27.0903 20.059 27.5625 19.4765 27.5625H18.0703Z"/>
        <path fill-rule="evenodd" clip-rule="evenodd"
              d="M1.05469 36C0.4722 36 0 35.5278 0 34.9453V13.8516C0 13.2691 0.4722 12.7969 1.05469 12.7969H13.8516C14.434 12.7969 14.9062 13.2691 14.9062 13.8516V21.2344H16.4361L17.7269 10.9082C17.7929 10.3805 18.2415 9.98438 18.7734 9.98438H22.289C22.821 9.98438 23.2696 10.3805 23.3356 10.9082L24.6264 21.2344H26.2799L27.5706 10.9082C27.6366 10.3805 28.0853 9.98438 28.6172 9.98438H32.1328C32.6647 9.98438 33.1134 10.3805 33.1794 10.9082L34.4701 21.2344H34.9453C35.5278 21.2344 36 21.7066 36 22.2891V34.9453C36 35.5278 35.5278 36 34.9453 36H1.05469ZM6.39842 33.8906H8.50779V30.375H6.39842V33.8906ZM4.28904 29.3203V33.8906H2.10937V14.9063H12.7969V33.8906H10.6172V29.3203C10.6172 28.7378 10.145 28.2656 9.56248 28.2656H5.34373C4.76124 28.2656 4.28904 28.7378 4.28904 29.3203ZM32.3443 21.2344H28.4057L29.5482 12.0938H31.2018L32.3443 21.2344ZM33.8906 23.3438V33.8906H30.375V30.7266C30.375 30.1441 29.9028 29.6719 29.3203 29.6719H19.4765C18.8941 29.6719 18.4219 30.1441 18.4219 30.7266V33.8906H14.9063V23.3438H33.8906ZM19.7045 12.0938L18.5619 21.2344H22.5006L21.358 12.0938H19.7045ZM20.5312 33.8906H28.2656V31.7813H20.5312V33.8906Z"/>
        <path d="M30.375 8.4375C30.9575 8.4375 31.4296 7.9653 31.4296 7.38281V5.27344C31.4296 3.52601 30.013 2.10938 28.2656 2.10938H13.8515C13.2691 2.10938 12.7968 1.63714 12.7968 1.05469C12.7968 0.472199 12.3246 0 11.7422 0C11.1597 0 10.6875 0.472199 10.6875 1.05469C10.6875 2.80211 12.1041 4.21875 13.8515 4.21875H28.2656C28.848 4.21875 29.3203 4.69099 29.3203 5.27344V7.38281C29.3203 7.9653 29.7925 8.4375 30.375 8.4375Z"/>
        <path d="M9.63278 8.4375C7.88535 8.4375 6.46872 7.02086 6.46872 5.27344C6.46872 4.69095 6.94091 4.21875 7.5234 4.21875C8.10589 4.21875 8.57809 4.69095 8.57809 5.27344C8.57809 5.85589 9.05033 6.32812 9.63278 6.32812H20.5312C21.1137 6.32812 21.5859 6.80032 21.5859 7.38281C21.5859 7.9653 21.1137 8.4375 20.5312 8.4375H9.63278Z"/>
    </g>
    <defs>
        <clipPath id="clip0_2219_26288">
            <rect width="36" height="36" fill="white"/>
        </clipPath>
    </defs>
</svg>
