<svg width="36" height="36" viewBox="0 0 36 36" xmlns="http://www.w3.org/2000/svg">
    <g clip-path="url(#clip0_2219_26255)">
        <path d="M30.2456 4.80568C31.2698 3.85414 32.6889 5.27234 31.7371 6.29722L29.4778 8.55664C29.066 8.96853 28.3981 8.96846 27.9863 8.55664L26.8565 7.427C25.9048 6.40205 27.3239 4.98406 28.3481 5.93539L28.7321 6.31929L30.2456 4.80568Z"/>
        <path d="M20.4402 17.5941C21.392 16.5692 19.9729 15.1511 18.9487 16.1026L17.4352 17.6162L17.0512 17.2323C16.0271 16.2808 14.608 17.699 15.5597 18.7238L16.6894 19.8535C17.0821 20.2621 17.7883 20.2621 18.181 19.8535L20.4402 17.5941Z"/>
        <path d="M7.65187 4.80568C8.67612 3.85414 10.0951 5.27234 9.14341 6.29722L6.88399 8.55657C6.47217 8.96846 5.80427 8.96846 5.39245 8.55657L4.26281 7.42693C3.31106 6.40212 4.73025 4.98385 5.75435 5.93539L6.13826 6.31922L7.65187 4.80568Z"/>
        <path fill-rule="evenodd" clip-rule="evenodd"
              d="M31.5562 27.0905C31.836 27.0905 32.1043 27.2017 32.302 27.3995L35.691 30.7885C35.8889 30.9863 36 31.2545 36 31.5343C36 31.814 35.8888 32.0822 35.691 32.28L32.302 35.6691C32.1043 35.8669 31.836 35.978 31.5562 35.978H1.05469C0.472219 35.978 0 35.5058 0 34.9233V28.1452C0 27.5627 0.472219 27.0905 1.05469 27.0905H5.64848V13.301C2.45166 12.7937 0 10.0185 0 6.68126C0.335672 -2.19674 13.0692 -2.19935 13.4063 6.68119C13.4063 10.0185 10.9546 12.7936 7.75786 13.301V27.0904H16.9453V24.5979C13.7485 24.0904 11.2968 21.3153 11.2968 17.978C11.6325 9.10008 24.366 9.09748 24.7031 17.978C24.7031 21.3153 22.2514 24.0904 19.0547 24.5979V27.0904H28.2422V13.301C25.0454 12.7936 22.5937 10.0184 22.5937 6.68119C22.9293 -2.19674 35.6629 -2.19942 36 6.68112C36 10.0184 33.5483 12.7936 30.3516 13.301V27.0905H31.5562ZM29.2969 2.08739C26.7639 2.08739 24.7031 4.14811 24.7031 6.68112C24.7031 9.21413 26.7639 11.2748 29.2968 11.2749C35.3811 11.0449 35.3827 2.31837 29.2969 2.08739ZM18 13.3843C15.4671 13.3843 13.4063 15.445 13.4063 17.978C13.4063 20.511 15.467 22.5717 17.9999 22.5718C24.0841 22.3418 24.0858 13.6153 18 13.3843ZM6.7031 2.08739C4.17016 2.08739 2.10938 4.14811 2.10938 6.68112C2.10938 9.21413 4.17016 11.2748 6.70303 11.2749C12.7873 11.0449 12.7889 2.3183 6.7031 2.08739ZM2.10938 33.8686H8.52567L10.86 31.5343L8.5256 29.1999H2.10938V33.8686ZM11.5087 33.8686H19.8226L22.1569 31.5343L19.8226 29.1999H11.5087L13.0973 30.7885C13.5092 31.2004 13.5092 31.8681 13.0973 32.28L11.5087 33.8686ZM22.8056 33.8686H31.1194L33.4538 31.5343L31.1194 29.1999H22.8056L24.3942 30.7885C24.8061 31.2004 24.8061 31.8681 24.3942 32.28L22.8056 33.8686Z"/>
    </g>
    <defs>
        <clipPath id="clip0_2219_26255">
            <rect width="36" height="36" fill="white"/>
        </clipPath>
    </defs>
</svg>
