<svg width="40" height="40" viewBox="0 0 40 40" xmlns="http://www.w3.org/2000/svg">
    <g clip-path="url(#clip0_561_22470)">
        <path
                d="M14.9653 7.6849C16.5654 7.02853 18.2594 6.69574 19.9999 6.69574C27.3359 6.69574 33.3042 12.6641 33.3042 20.0001C33.3042 27.3361 27.3359 33.3044 19.9999 33.3044C18.739 33.3044 17.4903 33.1272 16.2885 32.7777C15.666 32.5966 15.3081 31.9452 15.4891 31.3226C15.6703 30.7 16.3218 30.3423 16.9443 30.5232C17.9328 30.8107 18.961 30.9566 19.9999 30.9566C26.0413 30.9566 30.9564 26.0414 30.9564 20.0001C30.9564 13.9587 26.0414 9.04355 19.9999 9.04355C18.5665 9.04355 17.1723 9.31727 15.8562 9.85706C15.2565 10.1032 14.5707 9.81621 14.3247 9.21644C14.0787 8.61668 14.3655 7.93092 14.9653 7.6849Z"/>
        <path
                d="M18.8262 28.6086C19.4745 28.6086 20.0001 28.083 20.0001 27.4347C20.0001 26.7863 19.4745 26.2607 18.8262 26.2607C18.1778 26.2607 17.6522 26.7863 17.6522 27.4347C17.6522 28.083 18.1778 28.6086 18.8262 28.6086Z"/>
        <path
                d="M12.959 11.7826C12.959 12.431 12.4334 12.9566 11.785 12.9566C11.1367 12.9566 10.6111 12.431 10.6111 11.7826C10.6111 11.1343 11.1367 10.6087 11.785 10.6087C12.4334 10.6087 12.959 11.1343 12.959 11.7826Z"/>
        <path fill-rule="evenodd" clip-rule="evenodd"
              d="M20 2C24.808 2 29.3281 3.87228 32.728 7.27203C36.1277 10.6719 38 15.192 38 20C38 24.808 36.1277 29.3281 32.728 32.728C29.3281 36.1277 24.808 38 20 38C15.192 38 10.6719 36.1277 7.27203 32.728C3.87228 29.3281 2 24.808 2 20C2 15.192 3.87228 10.6719 7.27203 7.27203C10.6719 3.87228 15.192 2 20 2ZM9.79878 31.8614C12.5404 34.2227 16.1063 35.6522 20 35.6522C28.6306 35.6522 35.6522 28.6306 35.6522 20C35.6522 11.3694 28.6306 4.3478 20 4.3478C11.3694 4.3478 4.3478 11.3694 4.3478 20C4.3478 23.8937 5.77733 27.4596 8.13849 30.2013L9.80265 28.5371C7.79157 26.1447 6.69554 23.1553 6.69554 20C6.69554 18.2596 7.0284 16.5657 7.68477 14.9654C7.93065 14.3656 8.61634 14.0788 9.21631 14.3248C9.81615 14.5707 10.103 15.2565 9.85693 15.8563C9.31707 17.1725 9.04334 18.5667 9.04334 20C9.04334 22.5277 9.89813 24.9266 11.4703 26.8695L13.1388 25.201C12.0053 23.7121 11.3912 21.9034 11.3912 20C11.3912 15.2531 15.2531 11.3913 19.9999 11.3913C24.7468 11.3913 28.6086 15.2532 28.6086 20C28.6086 23.1715 26.8728 26.0771 24.0785 27.5829C23.508 27.8903 22.7959 27.6772 22.4883 27.1063C22.1807 26.5356 22.3941 25.8236 22.9649 25.516C24.9979 24.4205 26.2608 22.3069 26.2608 20C26.2608 16.5478 23.4522 13.7392 20 13.7392C16.5478 13.7392 13.7392 16.5477 13.7392 20C13.7392 21.274 14.1181 22.4893 14.8209 23.519L16.5316 21.8083C16.2482 21.267 16.087 20.6521 16.087 20C16.087 17.8424 17.8423 16.087 20 16.087C22.1576 16.087 23.913 17.8423 23.913 20C23.913 22.1576 22.1577 23.913 20 23.913C19.3479 23.913 18.733 23.7518 18.1917 23.4684L9.79878 31.8614ZM20 18.4348C19.1369 18.4348 18.4348 19.1369 18.4348 20C18.4348 20.4293 18.6087 20.8184 18.8894 21.1015L18.8942 21.1058L18.8985 21.1105C19.1816 21.3913 19.5707 21.5652 20 21.5652C20.8631 21.5652 21.5652 20.8631 21.5652 20C21.5652 19.1369 20.8631 18.4348 20 18.4348Z"/>
    </g>
    <defs>
        <clipPath id="clip0_561_22470">
            <rect width="36" height="36" fill="white" transform="translate(2 2)"/>
        </clipPath>
    </defs>
</svg>
