<svg width="40" height="40" viewBox="0 0 40 40" xmlns="http://www.w3.org/2000/svg">
    <g clip-path="url(#clip0_561_22480)">
        <path
                d="M20.1875 10.4375C16.4655 10.4375 13.4375 13.4655 13.4375 17.1875C13.4375 18.7139 13.9365 20.155 14.8805 21.355C15.2407 21.8128 15.9037 21.8918 16.3616 21.5318C16.8194 21.1717 16.8985 20.5086 16.5384 20.0508C15.8897 19.2262 15.5469 18.2361 15.5469 17.1875C15.5469 14.6286 17.6286 12.5469 20.1875 12.5469C22.7464 12.5469 24.8281 14.6286 24.8281 17.1875C24.8281 18.2363 24.4852 19.2264 23.8364 20.051C23.4762 20.5089 23.5553 21.1719 24.0131 21.532C24.4737 21.8946 25.1363 21.8102 25.4942 21.3553C26.4384 20.1553 26.9375 18.7141 26.9375 17.1875C26.9375 13.4655 23.9095 10.4375 20.1875 10.4375Z"/>
        <path
                d="M21.2422 16.0625V17.6667C21.4603 17.9145 21.5938 18.2385 21.5938 18.5938C21.5938 19.3692 20.9629 20 20.1875 20C19.4121 20 18.7812 19.3692 18.7812 18.5938C18.7812 18.2385 18.9147 17.9145 19.1328 17.6667V16.0625C19.1328 15.48 19.605 15.0078 20.1875 15.0078C20.77 15.0078 21.2422 15.48 21.2422 16.0625Z"/>
        <path fill-rule="evenodd" clip-rule="evenodd"
              d="M9.21875 17.1875C9.21875 11.1393 14.1393 6.21875 20.1875 6.21875C26.2357 6.21875 31.1562 11.1393 31.1562 17.1875C31.1562 23.2357 26.2357 28.1562 20.1875 28.1562C14.1393 28.1562 9.21875 23.2357 9.21875 17.1875ZM11.3281 17.1875C11.3281 22.0726 15.3024 26.0469 20.1875 26.0469C25.0726 26.0469 29.0469 22.0726 29.0469 17.1875C29.0469 12.3024 25.0726 8.32812 20.1875 8.32812C15.3024 8.32812 11.3281 12.3024 11.3281 17.1875Z"/>
        <path fill-rule="evenodd" clip-rule="evenodd"
              d="M5 17.1875C5 8.79254 11.7938 2 20.1875 2C28.5825 2 35.375 8.7938 35.375 17.1875C35.375 23.7086 31.2436 29.2823 25.4609 31.4303V36.9453C25.4609 37.5278 24.9887 38 24.4062 38H15.9688C15.3863 38 14.9141 37.5278 14.9141 36.9453V31.4303C9.13142 29.2823 5 23.7086 5 17.1875ZM17.0234 32.0447V35.8906H23.3516V32.0447C21.2818 32.4832 19.0899 32.4826 17.0234 32.0447ZM7.10938 17.1875C7.10938 24.3552 12.9323 30.2656 20.1875 30.2656C27.3978 30.2656 33.2656 24.3992 33.2656 17.1875C33.2656 9.97618 27.3988 4.10938 20.1875 4.10938C12.9762 4.10938 7.10938 9.97618 7.10938 17.1875Z"/>
    </g>
    <defs>
        <clipPath id="clip0_561_22480">
            <rect width="36" height="36" fill="white" transform="translate(2 2)"/>
        </clipPath>
    </defs>
</svg>
