<svg width="40" height="40" viewBox="0 0 40 40" xmlns="http://www.w3.org/2000/svg">
    <path fill-rule="evenodd" clip-rule="evenodd"
          d="M20.033 18.2912C18.2726 18.2912 16.8455 16.8642 16.8455 15.1038C16.8455 13.3434 18.2726 11.9164 20.033 11.9164C21.7933 11.9164 23.2204 13.3434 23.2204 15.1038C23.2204 16.8642 21.7933 18.2912 20.033 18.2912ZM18.9705 15.1038C18.9705 15.6906 19.4461 16.1663 20.033 16.1663C20.6198 16.1663 21.0954 15.6906 21.0954 15.1038C21.0954 14.517 20.6198 14.0413 20.033 14.0413C19.4461 14.0413 18.9705 14.517 18.9705 15.1038Z"/>
    <path fill-rule="evenodd" clip-rule="evenodd"
          d="M17.9977 23.9577C17.4109 23.9577 16.9352 23.482 16.9352 22.8952V21.4246C16.696 21.3048 16.4638 21.1719 16.2399 21.026L14.9687 21.7599C14.7247 21.9008 14.4347 21.939 14.1625 21.866C13.8903 21.7931 13.6582 21.615 13.5173 21.371L11.3924 17.6905C11.099 17.1823 11.2731 16.5325 11.7813 16.2391L13.0526 15.5051C13.0442 15.3739 13.0395 15.2401 13.0395 15.1038C13.0395 14.9675 13.0442 14.8337 13.0526 14.7025L11.7813 13.9685C11.2731 13.6751 11.099 13.0253 11.3924 12.5171L13.5173 8.83657C13.6582 8.59253 13.8903 8.41446 14.1625 8.34153C14.4347 8.2686 14.7247 8.30678 14.9687 8.44768L16.2399 9.18162C16.4638 9.03572 16.696 8.90274 16.9352 8.78296V7.31235C16.9352 6.72556 17.4109 6.24988 17.9977 6.24988H22.2475C22.8343 6.24988 23.31 6.72556 23.31 7.31235V8.78296C23.5492 8.90274 23.7814 9.03572 24.0053 9.18162L25.2765 8.44768C25.5205 8.30678 25.8105 8.2686 26.0827 8.34153C26.3549 8.41446 26.587 8.59253 26.7279 8.83657L28.8528 12.5171C29.1462 13.0253 28.9721 13.6751 28.4639 13.9685L27.1926 14.7025C27.201 14.8337 27.2057 14.9675 27.2057 15.1038C27.2057 15.2401 27.201 15.3739 27.1926 15.5051L28.4639 16.2391C28.9721 16.5325 29.1462 17.1823 28.8528 17.6905L26.7279 21.371C26.587 21.615 26.3549 21.7931 26.0827 21.866C25.8105 21.939 25.5205 21.9008 25.2765 21.7599L24.0053 21.026C23.7814 21.1719 23.5492 21.3048 23.31 21.4246V22.8952C23.31 23.482 22.8343 23.9577 22.2475 23.9577H17.9977ZM19.0601 20.7313V21.8328H21.1851V20.7313C21.1851 20.2894 21.4586 19.8936 21.872 19.7374C22.3859 19.5433 22.8559 19.2738 23.2643 18.9388C23.6063 18.6583 24.0863 18.619 24.4693 18.8402L25.4188 19.3884L26.4813 17.5481L25.5265 16.9969C25.1441 16.7761 24.9381 16.3419 25.009 15.9062C25.0542 15.6281 25.0808 15.3638 25.0808 15.1038C25.0808 14.8438 25.0542 14.5794 25.009 14.3014C24.9381 13.8657 25.1441 13.4315 25.5265 13.2107L26.4813 12.6594L25.4188 10.8192L24.4693 11.3674C24.0863 11.5885 23.6063 11.5493 23.2643 11.2688C22.8559 10.9338 22.3859 10.6643 21.872 10.4701C21.4586 10.3139 21.1851 9.91816 21.1851 9.47624V8.37482H19.0601V9.47624C19.0601 9.91816 18.7866 10.3139 18.3732 10.4701C17.8593 10.6643 17.3893 10.9338 16.9809 11.2688C16.6389 11.5493 16.1589 11.5885 15.7759 11.3674L14.8264 10.8192L13.7639 12.6594L14.7187 13.2107C15.1011 13.4315 15.3071 13.8657 15.2362 14.3014C15.191 14.5794 15.1644 14.8438 15.1644 15.1038C15.1644 15.3638 15.191 15.6281 15.2362 15.9062C15.3071 16.3419 15.1011 16.7761 14.7187 16.9969L13.7639 17.5481L14.8264 19.3884L15.7759 18.8402C16.1589 18.619 16.6389 18.6583 16.9809 18.9388C17.3893 19.2738 17.8593 19.5433 18.3732 19.7374C18.7866 19.8936 19.0601 20.2894 19.0601 20.7313Z"/>
    <path fill-rule="evenodd" clip-rule="evenodd"
          d="M33.2076 15.1038C33.2076 15.1097 33.2075 15.1156 33.2074 15.1215H33.2076C33.2076 19.9659 30.5723 24.18 26.6706 26.443C26.3275 26.642 26.1245 26.9966 26.1245 27.3715V32.971C26.1245 33.5578 25.6488 34.0334 25.062 34.0334H24.7078V36.9375C24.7078 37.5243 24.2321 38 23.6454 38H16.5622C15.9754 38 15.4998 37.5243 15.4998 36.9375V34.0334H15.1456C14.5588 34.0334 14.0831 33.5578 14.0831 32.971V27.3715C14.0831 26.9966 13.88 26.6419 13.537 26.443C9.63527 24.18 7 19.9659 7 15.1215H7.00014C7.00005 15.1156 7 15.1097 7 15.1038C7 7.86672 12.8667 2 20.1038 2C27.3409 2 33.2076 7.86672 33.2076 15.1038ZM9.12494 15.1215H9.12479C9.12489 15.1156 9.12494 15.1097 9.12494 15.1038C9.12494 9.0403 14.0403 4.12494 20.1038 4.12494C26.1673 4.12494 31.0826 9.0403 31.0826 15.1038C31.0826 15.1068 31.0827 15.1098 31.0827 15.1128C31.0827 15.1157 31.0827 15.1186 31.0828 15.1215H31.0826C31.0826 19.1738 28.8811 22.7044 25.6045 24.6049C24.6248 25.173 23.9995 26.2174 23.9995 27.3715V27.4993H16.2081V27.3715C16.2081 26.2174 15.5827 25.173 14.6031 24.6048C11.3264 22.7044 9.12494 19.1738 9.12494 15.1215ZM16.2081 29.6242V31.9085H23.9995V29.6242H16.2081ZM17.6247 34.0334V35.8751H22.5829V34.0334H17.6247Z"/>
</svg>
