<svg width="26" height="26" viewBox="0 0 26 26" fill="none" xmlns="http://www.w3.org/2000/svg">
<g id="team-leader 1">
<g id="Vector">
<path fill-rule="evenodd" clip-rule="evenodd" d="M16 24.2969C16 24.6852 16.3148 25 16.7031 25H24.2031C24.5914 25 24.9062 24.6852 24.9062 24.2969C24.9062 21.8375 22.9125 19.8437 20.4531 19.8437C17.9937 19.8437 16 21.8375 16 24.2969ZM17.4878 23.5937C17.8052 22.25 19.0123 21.25 20.4531 21.25C21.8939 21.25 23.101 22.25 23.4184 23.5937H17.4878Z" fill="#2568F6"/>
<path fill-rule="evenodd" clip-rule="evenodd" d="M8.50002 24.2969C8.50002 24.6852 8.81482 25 9.20315 25H16.7031C17.0915 25 17.4063 24.6852 17.4063 24.2969C17.4063 21.8375 15.4126 19.8437 12.9531 19.8437C10.4937 19.8437 8.50002 21.8375 8.50002 24.2969ZM9.9878 23.5937C10.3052 22.25 11.5124 21.25 12.9531 21.25C14.3939 21.25 15.6011 22.25 15.9185 23.5937H9.9878Z" fill="#2568F6"/>
<path fill-rule="evenodd" clip-rule="evenodd" d="M1 24.2969C1 24.6852 1.3148 25 1.70312 25H9.20315C9.59147 25 9.90625 24.6852 9.90625 24.2969C9.90625 21.8375 7.91253 19.8437 5.45312 19.8437C2.99372 19.8437 1 21.8375 1 24.2969ZM2.48778 23.5937C2.8052 22.25 4.01237 21.25 5.45312 21.25C6.89388 21.25 8.10105 22.25 8.41847 23.5937H2.48778Z" fill="#2568F6"/>
<path fill-rule="evenodd" clip-rule="evenodd" d="M5.45312 21.25C4.0293 21.25 2.875 20.0958 2.875 18.6719C2.875 17.4918 3.66788 16.4969 4.74995 16.1908V13.9375C4.74995 13.5492 5.06475 13.2344 5.45308 13.2344H12.25V11.7813H8.26558C7.87725 11.7813 7.56245 11.4665 7.56245 11.0781C7.56245 8.88442 8.8728 6.99679 10.7535 6.15521C10.2287 5.60786 9.90625 4.86502 9.90625 4.04688C9.90625 2.36414 11.2704 1 12.9531 1C14.6359 1 16 2.36414 16 4.04688C16 4.86504 15.6775 5.60788 15.1527 6.15524C17.0334 6.99683 18.3437 8.88445 18.3437 11.0781C18.3437 11.4665 18.0289 11.7813 17.6406 11.7813H13.6562V13.2344H20.4531C20.8414 13.2344 21.1562 13.5492 21.1562 13.9375V16.1908C22.2383 16.4968 23.0312 17.4917 23.0312 18.6719C23.0312 20.0958 21.8769 21.25 20.4531 21.25C19.0293 21.25 17.875 20.0958 17.875 18.6719C17.875 17.4918 18.6679 16.4969 19.75 16.1908V14.6406H13.6562V16.1908C14.7383 16.4969 15.5312 17.4918 15.5312 18.6719C15.5312 20.0958 14.3769 21.25 12.9531 21.25C11.5293 21.25 10.375 20.0958 10.375 18.6719C10.375 17.4917 11.1679 16.4968 12.25 16.1908V14.6406H6.1562V16.1908C7.23832 16.4968 8.03125 17.4917 8.03125 18.6719C8.03125 20.0958 6.87695 21.25 5.45312 21.25ZM5.45535 17.5C6.10153 17.5012 6.625 18.0254 6.625 18.6719C6.625 19.3191 6.10033 19.8437 5.45312 19.8437C4.80592 19.8437 4.28125 19.3191 4.28125 18.6719C4.28125 18.0254 4.80469 17.5012 5.45085 17.5C5.45159 17.5 5.45234 17.5 5.45308 17.5C5.45383 17.5 5.45459 17.5 5.45535 17.5ZM12.9553 17.5C12.9546 17.5 12.9538 17.5 12.9531 17.5C12.9523 17.5 12.9516 17.5 12.9508 17.5C12.3047 17.5012 11.7812 18.0254 11.7812 18.6719C11.7812 19.3191 12.3059 19.8438 12.9531 19.8438C13.6003 19.8438 14.125 19.3191 14.125 18.6719C14.125 18.0254 13.6015 17.5012 12.9553 17.5ZM20.4553 17.5C20.4546 17.5 20.4538 17.5 20.4531 17.5C20.4523 17.5 20.4516 17.5 20.4508 17.5C19.8047 17.5012 19.2812 18.0254 19.2812 18.6719C19.2812 19.3191 19.8059 19.8437 20.4531 19.8437C21.1003 19.8437 21.625 19.3191 21.625 18.6719C21.625 18.0254 21.1015 17.5012 20.4553 17.5ZM12.9503 10.375H9.03055C9.36263 8.50983 10.9925 7.09376 12.9531 7.09376C14.9137 7.09376 16.5435 8.50983 16.8756 10.375H12.9559L12.9531 10.375L12.9503 10.375ZM12.9531 5.6875C12.047 5.6875 11.3125 4.95296 11.3125 4.04688C11.3125 3.14079 12.047 2.40625 12.9531 2.40625C13.8592 2.40625 14.5937 3.14079 14.5937 4.04688C14.5937 4.95296 13.8592 5.6875 12.9531 5.6875Z" fill="#2568F6"/>
</g>
</g>
</svg>
