<svg width="88" height="109" viewBox="0 0 88 109" fill="none" xmlns="http://www.w3.org/2000/svg">
<g filter="url(#filter0_d_13766_14116)">
<g clip-path="url(#clip0_13766_14116)">
<rect x="10" y="5" width="68" height="89" rx="4" fill="white"/>
<rect width="68" height="11" transform="translate(10 5)" fill="#F2F2F2"/>
<circle cx="15.5" cy="10.5" r="1.5" fill="#DADADA"/>
<circle cx="20.5" cy="10.5" r="1.5" fill="#DADADA"/>
<circle cx="25.5" cy="10.5" r="1.5" fill="#DADADA"/>
<g clip-path="url(#clip1_13766_14116)">
<path d="M22 30C22 28.8954 22.8954 28 24 28C25.1046 28 26 28.8954 26 30C26 31.1046 25.1046 32 24 32C22.8954 32 22 31.1046 22 30Z" fill="#DADADA"/>
<path d="M32 29C32 28.4477 32.4477 28 33 28H65C65.5523 28 66 28.4477 66 29V31C66 31.5523 65.5523 32 65 32H33C32.4477 32 32 31.5523 32 31V29Z" fill="#F2F2F2"/>
<path d="M32 29C32 28.4477 32.4477 28 33 28H34C34.5523 28 35 28.4477 35 29V31C35 31.5523 34.5523 32 34 32H33C32.4477 32 32 31.5523 32 31V29Z" fill="#DADADA"/>
</g>
<g clip-path="url(#clip2_13766_14116)">
<path d="M22 38.332C22 37.2275 22.8954 36.332 24 36.332C25.1046 36.332 26 37.2275 26 38.332C26 39.4366 25.1046 40.332 24 40.332C22.8954 40.332 22 39.4366 22 38.332Z" fill="#DADADA"/>
<g clip-path="url(#clip3_13766_14116)">
<rect x="32" y="36.332" width="34" height="4" rx="1" fill="#F2F2F2"/>
<path d="M32 37.332C32 36.7797 32.4477 36.332 33 36.332H34C34.5523 36.332 35 36.7797 35 37.332V39.332C35 39.8843 34.5523 40.332 34 40.332H33C32.4477 40.332 32 39.8843 32 39.332V37.332Z" fill="#DADADA"/>
</g>
</g>
<g clip-path="url(#clip4_13766_14116)">
<path d="M22 46.668C22 45.5634 22.8954 44.668 24 44.668C25.1046 44.668 26 45.5634 26 46.668C26 47.7725 25.1046 48.668 24 48.668C22.8954 48.668 22 47.7725 22 46.668Z" fill="#DADADA"/>
<g clip-path="url(#clip5_13766_14116)">
<rect x="32" y="44.668" width="34" height="4" rx="1" fill="#F2F2F2"/>
<path d="M32 45.668C32 45.1157 32.4477 44.668 33 44.668H34C34.5523 44.668 35 45.1157 35 45.668V47.668C35 48.2203 34.5523 48.668 34 48.668H33C32.4477 48.668 32 48.2203 32 47.668V45.668Z" fill="#DADADA"/>
</g>
</g>
<g clip-path="url(#clip6_13766_14116)">
<path d="M22 55C22 53.8954 22.8954 53 24 53C25.1046 53 26 53.8954 26 55C26 56.1046 25.1046 57 24 57C22.8954 57 22 56.1046 22 55Z" fill="#DADADA"/>
<rect x="32" y="53" width="34" height="4" rx="1" fill="#F2F2F2"/>
<path d="M32 54C32 53.4477 32.4477 53 33 53H34C34.5523 53 35 53.4477 35 54V56C35 56.5523 34.5523 57 34 57H33C32.4477 57 32 56.5523 32 56V54Z" fill="#DADADA"/>
</g>
<g clip-path="url(#clip7_13766_14116)">
<path d="M22 63.332C22 62.2275 22.8954 61.332 24 61.332C25.1046 61.332 26 62.2275 26 63.332C26 64.4366 25.1046 65.332 24 65.332C22.8954 65.332 22 64.4366 22 63.332Z" fill="#DADADA"/>
<g clip-path="url(#clip8_13766_14116)">
<rect x="32" y="61.332" width="34" height="4" rx="1" fill="#F2F2F2"/>
<path d="M32 62.332C32 61.7797 32.4477 61.332 33 61.332H34C34.5523 61.332 35 61.7797 35 62.332V64.332C35 64.8843 34.5523 65.332 34 65.332H33C32.4477 65.332 32 64.8843 32 64.332V62.332Z" fill="#DADADA"/>
</g>
</g>
<g clip-path="url(#clip9_13766_14116)">
<rect x="22" y="69.668" width="4" height="4" rx="2" fill="#DADADA"/>
<g clip-path="url(#clip10_13766_14116)">
<rect x="32" y="69.668" width="34" height="4" rx="1" fill="#F2F2F2"/>
<path d="M32 70.668C32 70.1157 32.4477 69.668 33 69.668H34C34.5523 69.668 35 70.1157 35 70.668V72.668C35 73.2203 34.5523 73.668 34 73.668H33C32.4477 73.668 32 73.2203 32 72.668V70.668Z" fill="#DADADA"/>
</g>
</g>
<g clip-path="url(#clip11_13766_14116)">
<rect x="22" y="78" width="4" height="4" rx="2" fill="#DADADA"/>
<rect x="32" y="78" width="34" height="4" rx="1" fill="#F2F2F2"/>
<rect x="32" y="78" width="3" height="4" rx="1" fill="#DADADA"/>
</g>
</g>
<rect x="10.5" y="5.5" width="67" height="88" rx="3.5" stroke="white"/>
</g>
<defs>
<filter id="filter0_d_13766_14116" x="0" y="0" width="88" height="109" filterUnits="userSpaceOnUse" color-interpolation-filters="sRGB">
<feFlood flood-opacity="0" result="BackgroundImageFix"/>
<feColorMatrix in="SourceAlpha" type="matrix" values="0 0 0 0 0 0 0 0 0 0 0 0 0 0 0 0 0 0 127 0" result="hardAlpha"/>
<feOffset dy="5"/>
<feGaussianBlur stdDeviation="5"/>
<feComposite in2="hardAlpha" operator="out"/>
<feColorMatrix type="matrix" values="0 0 0 0 0.290196 0 0 0 0 0.65098 0 0 0 0 0.745098 0 0 0 0.1 0"/>
<feBlend mode="normal" in2="BackgroundImageFix" result="effect1_dropShadow_13766_14116"/>
<feBlend mode="normal" in="SourceGraphic" in2="effect1_dropShadow_13766_14116" result="shape"/>
</filter>
<clipPath id="clip0_13766_14116">
<rect x="10" y="5" width="68" height="89" rx="4" fill="white"/>
</clipPath>
<clipPath id="clip1_13766_14116">
<rect x="22" y="28" width="44" height="4" rx="1" fill="white"/>
</clipPath>
<clipPath id="clip2_13766_14116">
<rect x="22" y="36.332" width="44" height="4" rx="1" fill="white"/>
</clipPath>
<clipPath id="clip3_13766_14116">
<rect x="32" y="36.332" width="34" height="4" rx="1" fill="white"/>
</clipPath>
<clipPath id="clip4_13766_14116">
<rect x="22" y="44.668" width="44" height="4" rx="1" fill="white"/>
</clipPath>
<clipPath id="clip5_13766_14116">
<rect x="32" y="44.668" width="34" height="4" rx="1" fill="white"/>
</clipPath>
<clipPath id="clip6_13766_14116">
<rect x="22" y="53" width="44" height="4" rx="1" fill="white"/>
</clipPath>
<clipPath id="clip7_13766_14116">
<rect x="22" y="61.332" width="44" height="4" rx="1" fill="white"/>
</clipPath>
<clipPath id="clip8_13766_14116">
<rect x="32" y="61.332" width="34" height="4" rx="1" fill="white"/>
</clipPath>
<clipPath id="clip9_13766_14116">
<rect x="22" y="69.668" width="44" height="4" rx="1" fill="white"/>
</clipPath>
<clipPath id="clip10_13766_14116">
<rect x="32" y="69.668" width="34" height="4" rx="1" fill="white"/>
</clipPath>
<clipPath id="clip11_13766_14116">
<rect x="22" y="78" width="44" height="4" rx="1" fill="white"/>
</clipPath>
</defs>
</svg>
