<svg width="27" height="27" viewBox="0 0 27 27" fill="none" xmlns="http://www.w3.org/2000/svg">
<path fill-rule="evenodd" clip-rule="evenodd" d="M9.47478 11.8682C9.47478 9.19573 11.6434 7.02708 14.3159 7.02708C16.9885 7.02708 19.1571 9.19572 19.1571 11.8682C19.1571 14.5403 16.9885 16.7094 14.3159 16.7094C11.6433 16.7094 9.47478 14.5403 9.47478 11.8682ZM10.9982 11.8682C10.9982 13.699 12.4848 15.1859 14.3159 15.1859C16.1471 15.1859 17.6337 13.699 17.6337 11.8682C17.6337 10.0371 16.1471 8.55051 14.3159 8.55051C12.4848 8.55051 10.9982 10.0371 10.9982 11.8682Z" fill="#ADBCD0"/>
<path fill-rule="evenodd" clip-rule="evenodd" d="M0.723124 20.5657C0.699731 20.5423 0.678098 20.5176 0.658263 20.4919C0.568366 20.3754 0.511473 20.232 0.501582 20.076C0.500368 20.0572 0.49985 20.0383 0.500037 20.0194V1.26172C0.500037 0.841032 0.84107 0.5 1.26176 0.5H17.5794C18.0001 0.5 18.3412 0.841032 18.3412 1.26172V4.8339C20.7774 6.23217 22.4206 8.85962 22.4206 11.8682C22.4206 13.2931 22.052 14.6326 21.405 15.7965L25.341 19.7325C26.2377 20.6291 26.2377 22.0829 25.341 22.9796C24.4443 23.8763 22.9906 23.8763 22.0939 22.9796L18.3412 19.2269V25.7383C18.3412 26.159 18.0001 26.5 17.5794 26.5H6.97963C6.96372 26.5001 6.94781 26.4998 6.93196 26.4989C6.76389 26.49 6.61027 26.4266 6.48845 26.3261C6.46964 26.3105 6.45157 26.2941 6.43434 26.2769L0.723124 20.5657ZM19.4257 18.157L23.1711 21.9024C23.4728 22.2041 23.9621 22.2041 24.2638 21.9024C24.5655 21.6006 24.5655 21.1114 24.2638 20.8097L20.5266 17.0726C20.1949 17.4679 19.8261 17.8312 19.4257 18.157ZM7.73469 11.8682C7.73469 13.2301 8.14966 14.4961 8.85982 15.5466C9.06695 15.8529 9.29919 16.141 9.55357 16.4077C10.7528 17.6653 12.444 18.4495 14.3159 18.4495C17.9462 18.4495 20.8972 15.4999 20.8972 11.8682C20.8972 8.37583 18.1688 5.51482 14.7316 5.29993C14.5941 5.29135 14.4555 5.287 14.3159 5.287C10.6856 5.287 7.73469 8.23616 7.73469 11.8682ZM16.8177 4.15773C16.6808 4.11331 16.5424 4.07245 16.4025 4.03524C15.7366 3.858 15.0371 3.76353 14.3159 3.76353C9.84449 3.76353 6.21122 7.3945 6.21122 11.8682C6.21122 13.3157 6.59166 14.6751 7.25784 15.8518C7.62101 16.4933 8.0691 17.0805 8.58678 17.5981C10.054 19.0651 12.0802 19.9729 14.3159 19.9729C14.4315 19.9729 14.5465 19.9705 14.6609 19.9657C15.4105 19.9342 16.134 19.8006 16.8177 19.5786V24.9766H7.73469V20.0271C7.73469 19.6064 7.39366 19.2653 6.97297 19.2653H2.02347V2.02344H16.8177V4.15773ZM6.21124 20.7888V23.8993L3.10069 20.7888H6.21124Z" fill="#ADBCD0"/>
</svg>
