<svg width="26" height="26" viewBox="0 0 26 26" fill="none" xmlns="http://www.w3.org/2000/svg">
<path d="M13.2031 19.375L13.4887 20.0175C13.3069 20.0983 13.0994 20.0983 12.9176 20.0175L13.2031 19.375Z" fill="#2568F6"/>
<path fill-rule="evenodd" clip-rule="evenodd" d="M11.7031 13.0469C12.2629 13.0469 12.7809 13.2256 13.2031 13.5282C13.6254 13.2256 14.1434 13.0469 14.7031 13.0469C16.127 13.0469 17.2813 14.2012 17.2813 15.625C17.2813 17.0994 16.1946 18.2203 15.3223 18.8988C14.864 19.2552 14.4097 19.5325 14.072 19.7201C13.9023 19.8144 13.76 19.8872 13.6586 19.937C13.6079 19.962 13.5672 19.9813 13.5384 19.9948C13.5308 19.9983 13.5241 20.0014 13.5181 20.0042C13.5128 20.0066 13.5081 20.0088 13.5041 20.0106C13.5 20.0125 13.4966 20.014 13.494 20.0152L13.4907 20.0166L13.4891 20.0174C13.4889 20.0174 13.4887 20.0175 13.2031 19.375C12.9176 20.0175 12.9174 20.0174 12.9172 20.0174L12.9156 20.0166L12.9123 20.0152C12.9097 20.014 12.9063 20.0125 12.9022 20.0106C12.8938 20.0068 12.8823 20.0015 12.8679 19.9948C12.8391 19.9813 12.7984 19.962 12.7477 19.937C12.6463 19.8872 12.504 19.8144 12.3343 19.7201C11.9966 19.5325 11.5423 19.2552 11.084 18.8988C10.2117 18.2203 9.12502 17.0994 9.12502 15.625C9.12502 14.2012 10.2793 13.0469 11.7031 13.0469ZM13.0173 18.4908C13.0851 18.5285 13.1474 18.562 13.2031 18.5912C13.2589 18.562 13.3212 18.5285 13.389 18.4908C13.6841 18.3269 14.0736 18.0885 14.459 17.7887C15.2742 17.1547 15.875 16.4006 15.875 15.625C15.875 14.9778 15.3503 14.4531 14.7031 14.4531C14.3203 14.4531 13.9804 14.636 13.7653 14.9223C13.6325 15.0991 13.4243 15.2031 13.2031 15.2031C12.982 15.2031 12.7738 15.0991 12.641 14.9223C12.4259 14.636 12.086 14.4531 11.7031 14.4531C11.056 14.4531 10.5313 14.9778 10.5313 15.625C10.5313 16.4006 11.1321 17.1547 11.9473 17.7887C12.3327 18.0885 12.7222 18.3269 13.0173 18.4908Z" fill="#2568F6"/>
<path fill-rule="evenodd" clip-rule="evenodd" d="M6.125 24.2969C6.125 24.6852 6.4398 25 6.82813 25H17.7031C18.0915 25 18.4063 24.6852 18.4063 24.2969V22.375C18.4063 22.1114 18.5063 21.8577 18.7375 21.5446C18.9235 21.2928 19.1505 21.0564 19.4245 20.7711C19.5161 20.6757 19.6129 20.5749 19.7151 20.4663C20.4952 19.6374 21.4063 18.5295 21.4063 16.75V9.625C21.4063 9.23668 21.0915 8.92188 20.7031 8.92188H19.5781C19.1561 8.92188 18.7578 9.02326 18.4063 9.20299V5.125C18.4063 3.90825 17.4199 2.92188 16.2031 2.92188C15.9207 2.92188 15.6506 2.97504 15.4024 3.0719C15.3345 1.91624 14.3758 1 13.2031 1C12.0304 1 11.0717 1.91624 11.0038 3.0719C10.7557 2.97504 10.4856 2.92188 10.2031 2.92188C8.98638 2.92188 8 3.90825 8 5.125V6.44541C7.75287 6.34949 7.48414 6.29688 7.20313 6.29688C5.98638 6.29688 5 7.28325 5 8.5V17.5C5 18.7615 5.32199 19.6122 5.61279 20.3393C5.62244 20.3634 5.63203 20.3873 5.64154 20.4111C5.9141 21.0916 6.125 21.6181 6.125 22.375V24.2969ZM9.40625 5.125V8.49425C9.40627 8.49617 9.40627 8.49808 9.40627 8.50001V12.25C9.40627 12.6383 9.09147 12.9531 8.70315 12.9531C8.31482 12.9531 8.00002 12.6383 8.00002 12.25V8.50576C8.00001 8.50384 8 8.50192 8 8.5C8 8.0599 7.64322 7.70313 7.20313 7.70313C6.76303 7.70313 6.40625 8.0599 6.40625 8.5V17.5C6.40625 18.4885 6.64676 19.1378 6.91846 19.817C6.93318 19.8538 6.94806 19.8908 6.96306 19.9281C7.22954 20.591 7.53125 21.3415 7.53125 22.375V23.5938H17V22.375C17 21.7011 17.2749 21.158 17.6063 20.7093C17.8517 20.3769 18.1669 20.0492 18.4559 19.7487L18.4559 19.7487L18.456 19.7486C18.5372 19.6642 18.6162 19.582 18.6911 19.5025C19.411 18.7376 20 17.9705 20 16.75V10.3281H19.5781C18.9309 10.3281 18.4063 10.8528 18.4063 11.5C18.4063 11.8883 18.0915 12.2031 17.7031 12.2031C17.3148 12.2031 17 11.8883 17 11.5V5.125C17 4.6849 16.6432 4.32813 16.2031 4.32813C15.7633 4.32813 15.4067 4.68443 15.4063 5.12412L15.4063 10.375C15.4063 10.7633 15.0915 11.0781 14.7031 11.0781C14.3148 11.0781 14 10.7633 14 10.375L14 3.20313C14 2.76303 13.6432 2.40625 13.2031 2.40625C12.763 2.40625 12.4063 2.76303 12.4063 3.20313V5.125C12.4063 5.1269 12.4062 5.12879 12.4062 5.13069V10.375C12.4062 10.7633 12.0914 11.0781 11.7031 11.0781C11.3148 11.0781 11 10.7633 11 10.375V5.125C11 5.12362 11 5.12224 11 5.12086C10.9978 4.68267 10.6418 4.32813 10.2031 4.32813C9.76303 4.32813 9.40625 4.6849 9.40625 5.125Z" fill="#2568F6"/>
</svg>
